<svg width="16" height="16" viewBox="0 0 16 16" fill="none" xmlns="http://www.w3.org/2000/svg">
<g clip-path="url(#clip0_231_443)">
<path d="M5.60015 11.1102L4.78015 13.6002H4.27015C3.77419 13.6002 3.29855 13.4032 2.94786 13.0525C2.59716 12.7018 2.40015 12.2262 2.40015 11.7302C2.40006 11.5692 2.46263 11.4145 2.57461 11.2987C2.68659 11.183 2.8392 11.1154 3.00015 11.1102H5.60015Z" fill="#0000FF"/>
<path d="M13.6 11.7302C13.6 12.2262 13.403 12.7018 13.0523 13.0525C12.7016 13.4032 12.226 13.6002 11.73 13.6002H9L10.69 11.1102H13C13.1609 11.1154 13.3136 11.183 13.4255 11.2987C13.5375 11.4145 13.6001 11.5692 13.6 11.7302V11.7302Z" fill="#0000FF"/>
<path d="M5.7099 15.9999C5.76527 16.0044 5.82088 15.9949 5.87158 15.9722C5.92227 15.9494 5.96641 15.9143 5.9999 15.8699L11.2499 8.15994C11.3407 8.04846 11.398 7.91349 11.4152 7.77073C11.4324 7.62796 11.4087 7.48326 11.3469 7.35341C11.2852 7.22356 11.1878 7.11391 11.0662 7.03718C10.9446 6.96045 10.8037 6.9198 10.6599 6.91994H8.4699L10.4699 0.439944C10.4897 0.386058 10.4951 0.327937 10.4856 0.271323C10.4761 0.214708 10.4519 0.161559 10.4156 0.117125C10.3792 0.0726919 10.3319 0.0385115 10.2783 0.0179607C10.2247 -0.00259007 10.1666 -0.00880018 10.1099 -5.61548e-05C10.0609 0.000322279 10.0127 0.0123007 9.96927 0.0348974C9.92582 0.0574941 9.88833 0.090066 9.8599 0.129944L4.7799 7.83994C4.68908 7.95143 4.63175 8.08639 4.61457 8.22916C4.5974 8.37192 4.62107 8.51663 4.68285 8.64648C4.74464 8.77632 4.84199 8.88598 4.9636 8.96271C5.08521 9.03944 5.2261 9.08009 5.36989 9.07994H7.5299L5.3999 15.5599C5.38233 15.6096 5.37692 15.6628 5.38411 15.715C5.39131 15.7672 5.4109 15.8169 5.44125 15.86C5.4716 15.9031 5.51183 15.9383 5.55857 15.9626C5.60531 15.987 5.6572 15.9998 5.7099 15.9999V15.9999Z" fill="#2E3436"/>
<path d="M4.26001 15.19L4.45001 14.6H4.27001C3.50965 14.5974 2.78119 14.2941 2.24353 13.7565C1.70587 13.2188 1.40265 12.4904 1.40001 11.73V4.27C1.40265 3.50964 1.70587 2.78117 2.24353 2.24352C2.78119 1.70586 3.50965 1.40264 4.27001 1.4H7.59001L8.51001 0H4.27001C3.13754 0 2.05145 0.449874 1.25067 1.25065C0.449886 2.05143 1.21989e-05 3.13753 1.21989e-05 4.27V11.73C-0.0026774 12.8547 0.43948 13.9347 1.23004 14.7347C2.02059 15.5346 3.0954 15.9894 4.22001 16C4.15658 15.7316 4.17045 15.4508 4.26001 15.19V15.19Z" fill="#2E3436" fill-opacity="0.5"/>
<path d="M11.73 0H11.61C11.685 0.25459 11.685 0.52541 11.61 0.78L11.43 1.4H11.76C12.5152 1.41048 13.236 1.71717 13.7672 2.25398C14.2984 2.7908 14.5975 3.51479 14.6 4.27V11.73C14.5974 12.4904 14.2942 13.2188 13.7565 13.7565C13.2189 14.2941 12.4904 14.5974 11.73 14.6H8.29004L7.29004 16H11.69C12.2541 16.0053 12.8137 15.8987 13.3364 15.6865C13.8591 15.4743 14.3345 15.1606 14.7353 14.7636C15.136 14.3665 15.4541 13.894 15.6712 13.3734C15.8883 12.8527 16.0001 12.2941 16 11.73V4.27C16 3.13753 15.5502 2.05143 14.7494 1.25065C13.9486 0.449874 12.8625 0 11.73 0V0Z" fill="#2E3436" fill-opacity="0.5"/>
</g>
<defs>
<clipPath id="clip0_231_443">
<rect width="16" height="16" fill="white"/>
</clipPath>
</defs>
</svg>
