<svg width="16" height="16" viewBox="0 0 16 16" fill="none" xmlns="http://www.w3.org/2000/svg">
<g clip-path="url(#clip0_231_470)">
<path d="M8.7 -0.0102539H7.3C6.85817 -0.0102539 6.5 0.347918 6.5 0.789746V9.19975C6.5 9.64157 6.85817 9.99975 7.3 9.99975H8.7C9.14183 9.99975 9.5 9.64157 9.5 9.19975V0.789746C9.5 0.347918 9.14183 -0.0102539 8.7 -0.0102539Z" fill="#0000FF"/>
<path d="M8.7 12.0001H7.3C6.85817 12.0001 6.5 12.3583 6.5 12.8001V15.1901C6.5 15.6319 6.85817 15.9901 7.3 15.9901H8.7C9.14183 15.9901 9.5 15.6319 9.5 15.1901V12.8001C9.5 12.3583 9.14183 12.0001 8.7 12.0001Z" fill="#0000FF"/>
<path d="M5.30001 14.6H4.30001C3.92097 14.6026 3.54513 14.5304 3.19405 14.3875C2.84297 14.2446 2.52357 14.0337 2.25414 13.7671C1.98472 13.5005 1.77058 13.1833 1.62401 12.8337C1.47744 12.4841 1.40132 12.1091 1.40001 11.73V4.27C1.40265 3.50964 1.70587 2.78117 2.24353 2.24352C2.78119 1.70586 3.50965 1.40264 4.27001 1.4H5.27001V0.79C5.28027 0.516664 5.34486 0.248108 5.46001 0L4.27001 0C3.13754 0 2.05145 0.449874 1.25067 1.25065C0.449886 2.05143 1.2453e-05 3.13753 1.2453e-05 4.27V11.73C-0.00270088 12.8529 0.438083 13.9315 1.22649 14.7312C2.01489 15.5308 3.08714 15.9868 4.21001 16H5.47001C5.35749 15.7448 5.29958 15.4689 5.30001 15.19V14.6Z" fill="#2E3436" fill-opacity="0.5"/>
<path d="M11.73 0H10.54C10.6449 0.250228 10.6992 0.5187 10.7 0.79V1.4H11.7C12.0791 1.39737 12.4549 1.46958 12.806 1.61251C13.1571 1.75544 13.4765 1.96627 13.7459 2.2329C14.0153 2.49954 14.2295 2.81674 14.376 3.16631C14.5226 3.51588 14.5987 3.89095 14.6 4.27V11.73C14.5974 12.4904 14.2942 13.2188 13.7565 13.7565C13.2189 14.2941 12.4904 14.5974 11.73 14.6H10.73V15.19C10.7321 15.4701 10.6706 15.7471 10.55 16H11.76C12.8873 15.9921 13.9657 15.5387 14.76 14.7388C15.5543 13.9389 16.0001 12.8573 16 11.73V4.27C16 3.13753 15.5502 2.05143 14.7494 1.25065C13.9486 0.449874 12.8625 0 11.73 0V0Z" fill="#2E3436" fill-opacity="0.5"/>
</g>
<defs>
<clipPath id="clip0_231_470">
<rect width="16" height="16" fill="white"/>
</clipPath>
</defs>
</svg>
