<svg width="16" height="16" viewBox="0 0 16 16" fill="none" xmlns="http://www.w3.org/2000/svg">
<g clip-path="url(#clip0_231_461)">
<path d="M4.7799 13.6L5.8699 10.28H5.3699C5.01263 10.2659 4.66568 10.1562 4.36517 9.96245C4.06467 9.76869 3.82161 9.4979 3.6613 9.1783C3.50099 8.8587 3.42929 8.50196 3.45366 8.14524C3.47804 7.78851 3.5976 7.44485 3.7999 7.15002L6.9299 2.40002H4.2699C3.77395 2.40002 3.29831 2.59704 2.94761 2.94773C2.59692 3.29843 2.3999 3.77407 2.3999 4.27002V11.73C2.3999 12.226 2.59692 12.7016 2.94761 13.0523C3.29831 13.403 3.77395 13.6 4.2699 13.6H4.7799Z" fill="#BCF83F"/>
<path d="M11.73 2.39978H11.09L10.09 5.71978H10.63C10.9988 5.71732 11.3605 5.82056 11.6724 6.01728C11.9843 6.21399 12.2333 6.49595 12.39 6.82978C12.5361 7.15113 12.5946 7.50545 12.5595 7.85673C12.5244 8.208 12.3969 8.54372 12.19 8.82978L9 13.5998H11.76C12.256 13.5998 12.7316 13.4028 13.0823 13.0521C13.433 12.7014 13.63 12.2257 13.63 11.7298V4.26978C13.63 4.02166 13.5807 3.77602 13.4848 3.54716C13.389 3.3183 13.2486 3.11081 13.0717 2.93677C12.8949 2.76272 12.6852 2.62561 12.4548 2.53342C12.2245 2.44123 11.9781 2.3958 11.73 2.39978V2.39978Z" fill="#BCF83F"/>
<path d="M5.7099 15.9999C5.76527 16.0044 5.82088 15.9949 5.87158 15.9722C5.92227 15.9494 5.96641 15.9143 5.9999 15.8699L11.2499 8.15994C11.3407 8.04846 11.398 7.91349 11.4152 7.77073C11.4324 7.62796 11.4087 7.48326 11.3469 7.35341C11.2852 7.22356 11.1878 7.11391 11.0662 7.03718C10.9446 6.96045 10.8037 6.9198 10.6599 6.91994H8.4699L10.4699 0.439944C10.4897 0.386058 10.4951 0.327937 10.4856 0.271323C10.4761 0.214708 10.4519 0.161559 10.4156 0.117125C10.3792 0.0726919 10.3319 0.0385115 10.2783 0.0179607C10.2247 -0.00259007 10.1666 -0.00880018 10.1099 -5.61548e-05C10.0609 0.000322279 10.0127 0.0123007 9.96927 0.0348974C9.92582 0.0574941 9.88833 0.090066 9.8599 0.129944L4.7799 7.83994C4.68908 7.95143 4.63175 8.08639 4.61457 8.22916C4.5974 8.37192 4.62107 8.51663 4.68285 8.64648C4.74464 8.77632 4.84199 8.88598 4.9636 8.96271C5.08521 9.03944 5.2261 9.08009 5.36989 9.07994H7.5299L5.3999 15.5599C5.38233 15.6096 5.37692 15.6628 5.38411 15.715C5.39131 15.7672 5.4109 15.8169 5.44125 15.86C5.4716 15.9031 5.51183 15.9383 5.55857 15.9626C5.60531 15.987 5.6572 15.9998 5.7099 15.9999V15.9999Z" fill="#2E3436"/>
<path d="M4.26001 15.19L4.45001 14.6H4.27001C3.50965 14.5974 2.78119 14.2941 2.24353 13.7565C1.70587 13.2188 1.40265 12.4904 1.40001 11.73V4.27C1.40265 3.50964 1.70587 2.78117 2.24353 2.24352C2.78119 1.70586 3.50965 1.40264 4.27001 1.4H7.59001L8.51001 0H4.27001C3.13754 0 2.05145 0.449874 1.25067 1.25065C0.449886 2.05143 1.21989e-05 3.13753 1.21989e-05 4.27V11.73C-0.0026774 12.8547 0.43948 13.9347 1.23004 14.7347C2.02059 15.5346 3.0954 15.9894 4.22001 16C4.15658 15.7316 4.17045 15.4508 4.26001 15.19V15.19Z" fill="#2E3436" fill-opacity="0.5"/>
<path d="M11.73 0H11.61C11.685 0.25459 11.685 0.52541 11.61 0.78L11.43 1.4H11.76C12.5152 1.41048 13.236 1.71717 13.7672 2.25398C14.2984 2.7908 14.5975 3.51479 14.6 4.27V11.73C14.5974 12.4904 14.2942 13.2188 13.7565 13.7565C13.2189 14.2941 12.4904 14.5974 11.73 14.6H8.29004L7.29004 16H11.69C12.2541 16.0053 12.8137 15.8987 13.3364 15.6865C13.8591 15.4743 14.3345 15.1606 14.7353 14.7636C15.136 14.3665 15.4541 13.894 15.6712 13.3734C15.8883 12.8527 16.0001 12.2941 16 11.73V4.27C16 3.13753 15.5502 2.05143 14.7494 1.25065C13.9486 0.449874 12.8625 0 11.73 0V0Z" fill="#2E3436" fill-opacity="0.5"/>
</g>
<defs>
<clipPath id="clip0_231_461">
<rect width="16" height="16" fill="white"/>
</clipPath>
</defs>
</svg>
