<svg width="16" height="16" viewBox="0 0 16 16" fill="none" xmlns="http://www.w3.org/2000/svg">
<g clip-path="url(#clip0_231_467)">
<path d="M11.7299 2.40002H4.2699C3.77395 2.40002 3.29831 2.59704 2.94761 2.94773C2.59692 3.29843 2.3999 3.77407 2.3999 4.27002V11.73C2.3999 12.226 2.59692 12.7016 2.94761 13.0523C3.29831 13.403 3.77395 13.6 4.2699 13.6H11.7299C12.2259 13.6 12.7015 13.403 13.0522 13.0523C13.4029 12.7016 13.5999 12.226 13.5999 11.73V4.27002C13.5999 3.77407 13.4029 3.29843 13.0522 2.94773C12.7015 2.59704 12.2259 2.40002 11.7299 2.40002V2.40002Z" fill="#BCF83F"/>
<path d="M11.73 0H4.27C3.13753 0 2.05143 0.449874 1.25065 1.25065C0.449874 2.05143 2.08392e-08 3.13753 2.08392e-08 4.27L2.08392e-08 11.73C-0.000110767 12.8522 0.441517 13.9293 1.22937 14.7283C2.01722 15.5274 3.08796 15.9842 4.21 16H11.73C12.8625 16 13.9486 15.5501 14.7493 14.7493C15.5501 13.9486 16 12.8625 16 11.73V4.27C16 3.13753 15.5501 2.05143 14.7493 1.25065C13.9486 0.449874 12.8625 0 11.73 0V0ZM14.6 11.73C14.5974 12.4904 14.2941 13.2188 13.7565 13.7565C13.2188 14.2941 12.4904 14.5974 11.73 14.6H4.27C3.50964 14.5974 2.78117 14.2941 2.24352 13.7565C1.70586 13.2188 1.40264 12.4904 1.4 11.73V4.27C1.40264 3.50964 1.70586 2.78117 2.24352 2.24352C2.78117 1.70586 3.50964 1.40264 4.27 1.4H11.73C12.4904 1.40264 13.2188 1.70586 13.7565 2.24352C14.2941 2.78117 14.5974 3.50964 14.6 4.27V11.73Z" fill="#2E3436" fill-opacity="0.5"/>
</g>
<defs>
<clipPath id="clip0_231_467">
<rect width="16" height="16" fill="white"/>
</clipPath>
</defs>
</svg>
