<svg width="16" height="16" viewBox="0 0 16 16" fill="none" xmlns="http://www.w3.org/2000/svg">
<g clip-path="url(#clip0_231_452)">
<path d="M13.6 6.73004V11.73C13.6 12.226 13.403 12.7016 13.0523 13.0523C12.7016 13.403 12.226 13.6 11.73 13.6H9L12.18 8.91004V8.86004C12.3869 8.57399 12.5144 8.23827 12.5495 7.88699C12.5846 7.53572 12.5261 7.1814 12.38 6.86004C12.2377 6.55718 12.019 6.29653 11.7455 6.10368C11.472 5.91084 11.1531 5.79241 10.82 5.76004L11.08 4.89004H11.72C12.2125 4.88735 12.6862 5.07907 13.0382 5.42358C13.3902 5.7681 13.5921 6.23757 13.6 6.73004V6.73004Z" fill="#BCF83F"/>
<path d="M5.87015 10.2799L5.07015 12.7199L4.78015 13.5999H4.27015C3.77419 13.5999 3.29855 13.4028 2.94786 13.0522C2.59716 12.7015 2.40015 12.2258 2.40015 11.7299V6.72986C2.40015 6.23391 2.59716 5.75827 2.94786 5.40757C3.29855 5.05688 3.77419 4.85986 4.27015 4.85986H5.27015L3.80015 7.14986C3.58895 7.43414 3.45959 7.7708 3.42609 8.12335C3.3926 8.47591 3.45625 8.83091 3.61015 9.14986C3.66889 9.28347 3.74633 9.40805 3.84015 9.51986C4.02229 9.75124 4.25471 9.93811 4.5198 10.0663C4.78489 10.1945 5.07568 10.2607 5.37015 10.2599L5.87015 10.2799Z" fill="#BCF83F"/>
<path d="M5.71014 15.9999C5.76551 16.0044 5.82112 15.9949 5.87182 15.9722C5.92251 15.9494 5.96665 15.9143 6.00014 15.8699L11.2501 8.15994C11.341 8.04846 11.3983 7.91349 11.4155 7.77073C11.4326 7.62796 11.409 7.48326 11.3472 7.35341C11.2854 7.22356 11.188 7.11391 11.0664 7.03718C10.9448 6.96045 10.8039 6.9198 10.6601 6.91994H8.47014L10.4701 0.439944C10.4899 0.386058 10.4954 0.327937 10.4858 0.271323C10.4763 0.214708 10.4522 0.161559 10.4158 0.117125C10.3795 0.0726919 10.3321 0.0385115 10.2785 0.0179607C10.2249 -0.00259007 10.1669 -0.00880018 10.1101 -5.61548e-05C10.0612 0.000322279 10.013 0.0123007 9.96952 0.0348974C9.92606 0.0574941 9.88858 0.090066 9.86014 0.129944L4.78014 7.83994C4.68932 7.95143 4.63199 8.08639 4.61482 8.22916C4.59764 8.37192 4.62132 8.51663 4.6831 8.64648C4.74488 8.77632 4.84223 8.88598 4.96385 8.96271C5.08546 9.03944 5.22634 9.08009 5.37014 9.07994H7.53014L5.40014 15.5599C5.38257 15.6096 5.37716 15.6628 5.38436 15.715C5.39155 15.7672 5.41114 15.8169 5.4415 15.86C5.47185 15.9031 5.51208 15.9383 5.55881 15.9626C5.60555 15.987 5.65744 15.9998 5.71014 15.9999V15.9999Z" fill="#2E3436"/>
<path d="M4.26001 15.19L4.45001 14.6H4.27001C3.50965 14.5974 2.78119 14.2941 2.24353 13.7565C1.70587 13.2188 1.40265 12.4904 1.40001 11.73V4.27C1.40265 3.50964 1.70587 2.78117 2.24353 2.24352C2.78119 1.70586 3.50965 1.40264 4.27001 1.4H7.59001L8.51001 0H4.27001C3.13754 0 2.05145 0.449874 1.25067 1.25065C0.449886 2.05143 1.21989e-05 3.13753 1.21989e-05 4.27V11.73C-0.0026774 12.8547 0.43948 13.9347 1.23004 14.7347C2.02059 15.5346 3.0954 15.9894 4.22001 16C4.15658 15.7316 4.17045 15.4508 4.26001 15.19V15.19Z" fill="#2E3436" fill-opacity="0.5"/>
<path d="M11.73 0H11.61C11.685 0.25459 11.685 0.52541 11.61 0.78L11.43 1.4H11.76C12.5152 1.41048 13.236 1.71717 13.7672 2.25398C14.2984 2.7908 14.5975 3.51479 14.6 4.27V11.73C14.5974 12.4904 14.2942 13.2188 13.7565 13.7565C13.2189 14.2941 12.4904 14.5974 11.73 14.6H8.29004L7.29004 16H11.69C12.2541 16.0053 12.8137 15.8987 13.3364 15.6865C13.8591 15.4743 14.3345 15.1606 14.7353 14.7636C15.136 14.3665 15.4541 13.894 15.6712 13.3734C15.8883 12.8527 16.0001 12.2941 16 11.73V4.27C16 3.13753 15.5502 2.05143 14.7494 1.25065C13.9486 0.449874 12.8625 0 11.73 0V0Z" fill="#2E3436" fill-opacity="0.5"/>
</g>
<defs>
<clipPath id="clip0_231_452">
<rect width="16" height="16" fill="white"/>
</clipPath>
</defs>
</svg>
