<svg width="16" height="16" viewBox="0 0 16 16" fill="none" xmlns="http://www.w3.org/2000/svg">
<g clip-path="url(#clip0_231_475)">
<path d="M5.70989 15.9995C5.76527 16.0039 5.82088 15.9944 5.87158 15.9717C5.92227 15.9489 5.96641 15.9138 5.99989 15.8695L11.2499 8.15946C11.3407 8.04797 11.398 7.91301 11.4152 7.77024C11.4324 7.62748 11.4087 7.48277 11.3469 7.35292C11.2852 7.22307 11.1878 7.11342 11.0662 7.03669C10.9446 6.95996 10.8037 6.91931 10.6599 6.91946H8.46989L10.4699 0.439456C10.4897 0.38557 10.4951 0.327449 10.4856 0.270834C10.4761 0.21422 10.4519 0.161071 10.4156 0.116637C10.3792 0.0722036 10.3319 0.0380232 10.2783 0.0174724C10.2247 -0.00307835 10.1666 -0.00928846 10.1099 -0.000544436C10.0609 -0.000166002 10.0127 0.0118124 9.96927 0.0344091C9.92582 0.0570058 9.88833 0.0895777 9.85989 0.129456L4.7799 7.83946C4.68908 7.95094 4.63175 8.0859 4.61457 8.22867C4.5974 8.37144 4.62107 8.51614 4.68285 8.64599C4.74464 8.77584 4.84199 8.88549 4.9636 8.96222C5.08521 9.03895 5.2261 9.0796 5.36989 9.07946H7.52989L5.39989 15.5595C5.38233 15.6091 5.37692 15.6623 5.38411 15.7145C5.39131 15.7667 5.4109 15.8164 5.44125 15.8595C5.4716 15.9026 5.51183 15.9378 5.55857 15.9621C5.60531 15.9865 5.6572 15.9993 5.70989 15.9995V15.9995Z" fill="#2E3436"/>
<path d="M4.26001 15.19L4.45001 14.6H4.27001C3.50965 14.5974 2.78119 14.2941 2.24353 13.7565C1.70587 13.2188 1.40265 12.4904 1.40001 11.73V4.27C1.40265 3.50964 1.70587 2.78117 2.24353 2.24352C2.78119 1.70586 3.50965 1.40264 4.27001 1.4H7.59001L8.51001 0H4.27001C3.13754 0 2.05145 0.449874 1.25067 1.25065C0.449886 2.05143 1.21989e-05 3.13753 1.21989e-05 4.27V11.73C-0.0026774 12.8547 0.43948 13.9347 1.23004 14.7347C2.02059 15.5346 3.0954 15.9894 4.22001 16C4.15658 15.7316 4.17045 15.4508 4.26001 15.19V15.19Z" fill="#2E3436" fill-opacity="0.5"/>
<path d="M11.73 0H11.61C11.685 0.25459 11.685 0.52541 11.61 0.78L11.43 1.4H11.76C12.5152 1.41048 13.236 1.71717 13.7672 2.25398C14.2984 2.7908 14.5975 3.51479 14.6 4.27V11.73C14.5974 12.4904 14.2942 13.2188 13.7565 13.7565C13.2189 14.2941 12.4904 14.5974 11.73 14.6H8.29004L7.29004 16H11.69C12.2541 16.0053 12.8137 15.8987 13.3364 15.6865C13.8591 15.4743 14.3345 15.1606 14.7353 14.7636C15.136 14.3665 15.4541 13.894 15.6712 13.3734C15.8883 12.8527 16.0001 12.2941 16 11.73V4.27C16 3.13753 15.5502 2.05143 14.7494 1.25065C13.9486 0.449874 12.8625 0 11.73 0V0Z" fill="#2E3436" fill-opacity="0.5"/>
</g>
<defs>
<clipPath id="clip0_231_475">
<rect width="16" height="16" fill="white"/>
</clipPath>
</defs>
</svg>
