<svg width="16" height="16" viewBox="0 0 16 16" fill="none" xmlns="http://www.w3.org/2000/svg">
<g clip-path="url(#clip0_231_440)">
<path d="M11.73 0H4.27C3.13753 0 2.05143 0.449874 1.25065 1.25065C0.449874 2.05143 2.08392e-08 3.13753 2.08392e-08 4.27L2.08392e-08 11.73C-0.000110767 12.8522 0.441517 13.9293 1.22937 14.7283C2.01722 15.5274 3.08796 15.9842 4.21 16H11.73C12.8625 16 13.9486 15.5501 14.7493 14.7493C15.5501 13.9486 16 12.8625 16 11.73V4.27C16 3.13753 15.5501 2.05143 14.7493 1.25065C13.9486 0.449874 12.8625 0 11.73 0V0ZM14.6 11.73C14.5974 12.4904 14.2941 13.2188 13.7565 13.7565C13.2188 14.2941 12.4904 14.5974 11.73 14.6H4.27C3.50964 14.5974 2.78117 14.2941 2.24352 13.7565C1.70586 13.2188 1.40264 12.4904 1.4 11.73V4.27C1.40264 3.50964 1.70586 2.78117 2.24352 2.24352C2.78117 1.70586 3.50964 1.40264 4.27 1.4H11.73C12.4904 1.40264 13.2188 1.70586 13.7565 2.24352C14.2941 2.78117 14.5974 3.50964 14.6 4.27V11.73Z" fill="#2E3436" fill-opacity="0.5"/>
<path d="M12.9999 11.1102H2.99988C2.83545 11.1102 2.67775 11.1756 2.56148 11.2918C2.4452 11.4081 2.37988 11.5658 2.37988 11.7302C2.37987 11.9775 2.42889 12.2223 2.52412 12.4505C2.61934 12.6787 2.75888 12.8857 2.93465 13.0596C3.11041 13.2336 3.31893 13.3709 3.54812 13.4637C3.77731 13.5565 4.02263 13.6029 4.26988 13.6002H11.7299C12.2258 13.6002 12.7015 13.4032 13.0522 13.0525C13.4029 12.7018 13.5999 12.2262 13.5999 11.7302C13.6 11.5692 13.5374 11.4145 13.4254 11.2987C13.3134 11.183 13.1608 11.1154 12.9999 11.1102V11.1102Z" fill="#0000FF"/>
</g>
<defs>
<clipPath id="clip0_231_440">
<rect width="16" height="16" fill="white"/>
</clipPath>
</defs>
</svg>
