<svg width="64" height="64" viewBox="0 0 64 64" fill="none" xmlns="http://www.w3.org/2000/svg">
<rect x="4" y="4" width="56" height="56" rx="12" fill="#FAFAFA"/>
<path d="M55.8456 10.8109C55.8456 12.1483 54.7617 13.2321 53.4244 13.2321C52.087 13.2321 51.0032 12.1483 51.0032 10.8109C51.0032 9.47358 52.087 8.38971 53.4244 8.38971C54.7617 8.38971 55.8456 9.47358 55.8456 10.8109Z" fill="#D8D8D8"/>
<path d="M52.2156 9.60034H52.4218C52.4729 9.60223 52.5258 9.62682 52.5618 9.66276L53.4243 10.5272L54.2945 9.66276C54.3474 9.61737 54.3853 9.60223 54.4325 9.60034H54.6349V9.80274C54.6349 9.85949 54.6274 9.91245 54.5839 9.95407L53.7213 10.8166L54.5782 11.6754C54.616 11.7132 54.6349 11.7662 54.6349 11.8192V12.0216H54.4325C54.3796 12.0216 54.3266 12.0026 54.2888 11.9648L53.4243 11.1004L52.5618 11.9648C52.5239 12.0026 52.4691 12.0216 52.4161 12.0216H52.2137V11.8192C52.2137 11.7662 52.2345 11.7132 52.2705 11.6754L53.1349 10.8166L52.2705 9.95407C52.2289 9.91434 52.2099 9.85949 52.2137 9.80274L52.2156 9.60034Z" fill="#444444"/>
<path d="M5 22.804L9.45031 18.3523L33.188 42.09L28.7377 46.5403L5 22.804Z" fill="#3584E4"/>
<path d="M9.45038 18.3523L13.9021 13.902L37.6398 37.6397L33.1881 42.09L9.45038 18.3523Z" fill="#33D17A"/>
<path d="M18.3523 9.45167L22.8026 5L46.5403 28.7377L42.09 33.188L18.3523 9.45167Z" fill="#E01B24"/>
<path d="M13.902 13.902L18.3523 9.45166L42.09 33.188L37.6397 37.6397L13.902 13.902Z" fill="#F6D32D"/>
<path d="M47.3188 26.0536L44.352 29.0218C43.9422 29.4316 43.9422 30.0954 44.352 30.5052C44.7617 30.915 45.4256 30.915 45.8354 30.5052L48.8023 27.5384C49.2121 27.1286 49.2121 26.4633 48.8023 26.0536C48.3925 25.6438 47.7286 25.6438 47.3188 26.0536Z" fill="url(#paint0_linear_105_5)"/>
<path d="M43.363 43.3631L53.9957 32.7304C54.4041 32.3206 54.4041 31.6568 53.9957 31.247C53.5859 30.8372 52.9207 30.8372 52.5109 31.247L41.8796 41.8796C41.4698 42.2894 41.4698 42.9533 41.8796 43.3631C42.288 43.7729 42.9533 43.7729 43.363 43.3631Z" fill="url(#paint1_linear_105_5)"/>
<path d="M48.0606 25.7462V28.2801L51.7706 31.9887H54.3031C54.3031 31.7209 54.2006 31.4518 53.9957 31.2469L48.8023 26.0549C48.5974 25.8487 48.3283 25.7462 48.0606 25.7462Z" fill="url(#paint2_linear_105_5)"/>
<path d="M44.1048 42.6213H41.5709C41.5709 42.8891 41.6734 43.1582 41.8796 43.3631L45.341 46.8244C45.7521 47.2356 46.4133 47.2356 46.8244 46.8244C47.2356 46.4133 47.2356 45.7521 46.8244 45.341L44.1048 42.6213Z" fill="url(#paint3_linear_105_5)"/>
<path d="M26.5481 41.3851L28.0329 39.9017L29.5163 38.4169L36.439 45.341L33.4721 48.3078C32.6498 49.1301 31.3262 49.1301 30.5053 48.3078L26.5481 44.352C25.7271 43.5297 25.7271 42.2061 26.5481 41.3851Z" fill="url(#paint4_linear_105_5)"/>
<path d="M29.5163 38.4169L33.9666 33.9666L40.8907 40.8907L36.439 45.341L29.5163 38.4169Z" fill="url(#paint5_linear_105_5)"/>
<path d="M39.9003 28.0328L41.3851 26.5494C42.2061 25.7271 43.5297 25.7271 44.352 26.5494L48.3078 30.5052C49.1301 31.3275 49.1301 32.6498 48.3078 33.4721L45.3409 36.439L38.4169 29.5163L39.9003 28.0328Z" fill="url(#paint6_linear_105_5)"/>
<path d="M33.9666 33.9666L38.4169 29.5163L45.341 36.439L40.8907 40.8907L33.9666 33.9666Z" fill="url(#paint7_linear_105_5)"/>
<path d="M45.8354 45.8354C46.655 45.0159 47.9827 45.0159 48.8023 45.8354L55.2319 52.2637C56.0501 53.0832 56.0501 54.4123 55.2319 55.2319C54.4123 56.0515 53.0832 56.0515 52.2637 55.2319L45.8354 48.8023C45.0159 47.9827 45.0159 46.655 45.8354 45.8354Z" fill="url(#paint8_linear_105_5)"/>
<path d="M50.533 52.0164L52.0164 50.533C52.153 50.3964 52.3743 50.3964 52.5109 50.533C52.6475 50.6696 52.6475 50.8909 52.5109 51.0275L51.0275 52.5123C50.8909 52.6475 50.6696 52.6475 50.533 52.5123C50.3964 52.3757 50.3964 52.153 50.533 52.0164Z" fill="#865E3C"/>
<path d="M51.522 53.0067L53.0054 51.5219C53.142 51.3853 53.3633 51.3853 53.4999 51.5219C53.6365 51.6585 53.6365 51.8798 53.4999 52.0164L52.0165 53.5012C51.8799 53.6378 51.6586 53.6378 51.522 53.5012C51.3854 53.3646 51.3854 53.1433 51.522 53.0067Z" fill="#865E3C"/>
<path d="M52.5108 53.9957L53.9943 52.5123C54.1309 52.3757 54.3535 52.3757 54.4901 52.5123C54.6267 52.6475 54.6267 52.8702 54.4901 53.0067L53.0053 54.4902C52.8687 54.6268 52.6474 54.6268 52.5108 54.4902C52.3742 54.3536 52.3742 54.1323 52.5108 53.9957Z" fill="#865E3C"/>
<defs>
<linearGradient id="paint0_linear_105_5" x1="48.9107" y1="27.4295" x2="47.4271" y2="25.9459" gradientUnits="userSpaceOnUse">
<stop stop-color="#9A9996"/>
<stop offset="0.5" stop-color="white"/>
<stop offset="1" stop-color="#C0BFBC"/>
</linearGradient>
<linearGradient id="paint1_linear_105_5" x1="47.8443" y1="35.9139" x2="49.3279" y2="37.3975" gradientUnits="userSpaceOnUse">
<stop stop-color="#9A9996"/>
<stop offset="0.5" stop-color="white"/>
<stop offset="1" stop-color="#C0BFBC"/>
</linearGradient>
<linearGradient id="paint2_linear_105_5" x1="51.8006" y1="32.0195" x2="53.2842" y2="30.5359" gradientUnits="userSpaceOnUse">
<stop stop-color="#9A9996"/>
<stop offset="0.5" stop-color="white"/>
<stop offset="1" stop-color="#C0BFBC"/>
</linearGradient>
<linearGradient id="paint3_linear_105_5" x1="43.3448" y1="44.8289" x2="44.8284" y2="43.3453" gradientUnits="userSpaceOnUse">
<stop stop-color="#9A9996"/>
<stop offset="0.5" stop-color="white"/>
<stop offset="1" stop-color="#C0BFBC"/>
</linearGradient>
<linearGradient id="paint4_linear_105_5" x1="27.2904" y1="40.6429" x2="34.2138" y2="47.5663" gradientUnits="userSpaceOnUse">
<stop stop-color="#1C71D8"/>
<stop offset="0.5" stop-color="#3584E4"/>
<stop offset="1" stop-color="#1A5FB4"/>
</linearGradient>
<linearGradient id="paint5_linear_105_5" x1="31.7412" y1="36.1921" x2="38.6646" y2="43.1156" gradientUnits="userSpaceOnUse">
<stop stop-color="#2EC27E"/>
<stop offset="0.5" stop-color="#33D17A"/>
<stop offset="1" stop-color="#26A269"/>
</linearGradient>
<linearGradient id="paint6_linear_105_5" x1="40.6427" y1="27.2906" x2="47.5661" y2="34.214" gradientUnits="userSpaceOnUse">
<stop stop-color="#C01C28"/>
<stop offset="0.5" stop-color="#E01B24"/>
<stop offset="1" stop-color="#A51D2D"/>
</linearGradient>
<linearGradient id="paint7_linear_105_5" x1="36.1919" y1="31.7414" x2="43.1154" y2="38.6648" gradientUnits="userSpaceOnUse">
<stop stop-color="#F5C211"/>
<stop offset="0.5" stop-color="#F6D32D"/>
<stop offset="1" stop-color="#E5A50A"/>
</linearGradient>
<linearGradient id="paint8_linear_105_5" x1="49.0497" y1="52.0169" x2="52.0169" y2="49.0498" gradientUnits="userSpaceOnUse">
<stop stop-color="#865E3C"/>
<stop offset="0.5" stop-color="#B5835A"/>
<stop offset="1" stop-color="#865E3C"/>
</linearGradient>
</defs>
</svg>
