<svg width="64" height="64" viewBox="0 0 64 64" fill="none" xmlns="http://www.w3.org/2000/svg">
<path d="M47 3.9686H17.002C9.82119 3.9686 4 9.78979 4 16.9706V46.9686C4 54.1494 9.82119 59.9706 17.002 59.9706H47C54.1808 59.9706 60.002 54.1494 60.002 46.9686V16.9706C60.002 9.78979 54.1808 3.9686 47 3.9686Z" fill="url(#paint0_linear_34_130)"/>
<mask id="mask0_34_130" style="mask-type:alpha" maskUnits="userSpaceOnUse" x="11" y="11" width="42" height="42">
<path d="M53 11H11V53H53V11Z" fill="black"/>
</mask>
<g mask="url(#mask0_34_130)">
<path d="M51.6875 32.6562C51.6875 43.5292 42.873 52.3438 32 52.3438C21.127 52.3438 12.3125 43.5292 12.3125 32.6562C12.3125 21.7833 21.127 12.9688 32 12.9688C42.873 12.9688 51.6875 21.7833 51.6875 32.6562Z" fill="#D5D3CF"/>
<path d="M32 13.625C42.1488 13.625 50.375 21.8512 50.375 32V32.6562C50.375 42.8051 42.1488 51.0312 32 51.0312C21.8512 51.0312 13.625 42.8051 13.625 32.6562V32C13.625 21.8512 21.8512 13.625 32 13.625Z" fill="#D5D3CF"/>
<path d="M51.6875 32C51.6875 42.873 42.873 51.6875 32 51.6875C21.127 51.6875 12.3125 42.873 12.3125 32C12.3125 21.127 21.127 12.3125 32 12.3125C42.873 12.3125 51.6875 21.127 51.6875 32Z" fill="#F6F5F4"/>
<path d="M26.75 37.9062H44.1406V39.2188H26.75V37.9062Z" fill="#C0BFBC"/>
<path d="M26.75 43.1562H44.1406V44.4688H26.75V43.1562Z" fill="#C0BFBC"/>
<path fill-rule="evenodd" clip-rule="evenodd" d="M40.5428 23.1381C40.4454 23.1342 40.3531 23.174 40.2877 23.2457L33.0779 31.0118C32.5332 30.6555 31.8475 30.5914 31.2463 30.84L26.5795 25.6554C26.4475 25.5042 26.254 25.4221 26.054 25.4311C25.7977 25.4439 25.5734 25.6029 25.476 25.84C25.3798 26.0758 25.4285 26.3475 25.6028 26.5347L30.2684 31.7193C29.9761 32.2564 29.9505 32.8998 30.1992 33.4599C30.3645 33.8291 30.6401 34.138 30.9887 34.3456L27.0974 44.3508C27.0538 44.4611 27.0717 44.5854 27.1448 44.6777C27.2191 44.7713 27.337 44.8161 27.4537 44.7982C27.5703 44.7789 27.6677 44.6995 27.71 44.5892L31.6001 34.584C32.0038 34.6673 32.423 34.6224 32.7998 34.4558C33.7919 34.0123 34.2379 32.8485 33.7957 31.8552C33.7316 31.7155 33.6522 31.5822 33.5573 31.4604L40.7697 23.6931C40.8594 23.5995 40.885 23.4624 40.8363 23.3419C40.7876 23.2227 40.6722 23.1419 40.5428 23.1381Z" fill="black"/>
<path d="M32 32L26.0938 25.4375" stroke="#949390" stroke-width="4.00626" stroke-linecap="round"/>
<path d="M32 32L40.5312 22.8125" stroke="#3D3846" stroke-width="2.00313" stroke-linecap="round"/>
<path d="M32 32L27.4062 43.8125" stroke="#C061CB" stroke-width="2.00313" stroke-linecap="round"/>
<path d="M33.7983 31.1976C34.2405 32.191 33.7944 33.3548 32.8024 33.7983C31.809 34.2405 30.6452 33.7944 30.2017 32.8024C29.7595 31.809 30.2056 30.6452 31.1976 30.2017C32.191 29.7595 33.3548 30.2056 33.7983 31.1976Z" fill="#D5D3CF"/>
<path d="M32.6665 32C32.6665 32.3627 32.373 32.6575 32.009 32.6575C31.6462 32.6575 31.3527 32.3627 31.3527 32C31.3527 31.6373 31.6462 31.3425 32.009 31.3425C32.373 31.3425 32.6665 31.6373 32.6665 32Z" fill="#131C1A"/>
<path d="M32.6652 32C32.6652 32.3627 32.3717 32.6562 32.009 32.6562C31.6475 32.6562 31.3527 32.3627 31.3527 32C31.3527 31.6373 31.6475 31.3438 32.009 31.3438C32.3717 31.3438 32.6652 31.6373 32.6652 32Z" fill="#613583"/>
<path d="M24.125 38.5625C24.125 39.288 23.538 39.875 22.8125 39.875C22.087 39.875 21.5 39.288 21.5 38.5625C21.5 37.837 22.087 37.25 22.8125 37.25C23.538 37.25 24.125 37.837 24.125 38.5625Z" fill="#C0BFBC"/>
<path d="M24.125 43.8125C24.125 44.538 23.538 45.125 22.8125 45.125C22.087 45.125 21.5 44.538 21.5 43.8125C21.5 43.087 22.087 42.5 22.8125 42.5C23.538 42.5 24.125 43.087 24.125 43.8125Z" fill="#C0BFBC"/>
</g>
<defs>
<linearGradient id="paint0_linear_34_130" x1="29.9998" y1="57.0001" x2="29.9998" y2="6.99982" gradientUnits="userSpaceOnUse">
<stop stop-color="#2A2A2A"/>
<stop offset="1" stop-color="#565656"/>
</linearGradient>
</defs>
</svg>
