<svg width="64" height="64" viewBox="0 0 64 64" fill="none" xmlns="http://www.w3.org/2000/svg">
<path d="M47.0005 3.96744H17.0025C9.82162 3.96744 4.00034 9.78873 4.00034 16.9696V46.9676C4.00034 54.1485 9.82162 59.9698 17.0025 59.9698H47.0005C54.1814 59.9698 60.0027 54.1485 60.0027 46.9676V16.9696C60.0027 9.78873 54.1814 3.96744 47.0005 3.96744Z" fill="url(#paint0_linear_30_35)"/>
<mask id="mask0_30_35" style="mask-type:alpha" maskUnits="userSpaceOnUse" x="11" y="11" width="42" height="42">
<path d="M53 11H11V53H53V11Z" fill="black" fill-opacity="0.1"/>
</mask>
<g mask="url(#mask0_30_35)">
</g>
<mask id="mask1_30_35" style="mask-type:alpha" maskUnits="userSpaceOnUse" x="11" y="11" width="42" height="42">
<path d="M53 11H11V53H53V11Z" fill="black"/>
</mask>
<g mask="url(#mask1_30_35)">
<path d="M51.235 32.3333C51.235 42.9563 42.623 51.5683 32 51.5683C21.377 51.5683 12.765 42.9563 12.765 32.3333C12.765 21.7102 21.377 13.0982 32 13.0982C42.623 13.0982 51.235 21.7102 51.235 32.3333Z" fill="#D5D3CF"/>
<path d="M51.235 31.6924C51.235 42.3154 42.623 50.9261 32 50.9261C21.377 50.9261 12.765 42.3154 12.765 31.6924C12.765 21.0693 21.377 12.4573 32 12.4573C42.623 12.4573 51.235 21.0693 51.235 31.6924Z" fill="#F6F5F4"/>
<path d="M32 14.5568C22.36 14.5568 14.5453 22.3729 14.5453 32.0128C14.5479 32.1384 14.5517 32.2653 14.5581 32.3909C14.7042 22.8612 22.469 15.2105 32 15.2041C41.4887 15.2092 49.2355 22.7933 49.4419 32.2807C49.447 32.191 49.4521 32.1013 49.4547 32.0128C49.4547 22.3729 41.64 14.5568 32 14.5568Z" fill="black"/>
<path d="M49.4547 31.6924C49.4547 41.3323 41.64 49.1471 32 49.1471C22.36 49.1471 14.5453 41.3323 14.5453 31.6924C14.5453 22.0511 22.36 14.2364 32 14.2364C41.64 14.2364 49.4547 22.0511 49.4547 31.6924Z" fill="url(#paint1_linear_30_35)"/>
<path d="M49.4534 31.7616C49.4534 41.4016 41.6387 49.2163 31.9987 49.2163C22.3575 49.2163 14.5427 41.4016 14.5427 31.7616C14.5427 22.1216 22.3575 14.3056 31.9987 14.3056C41.6387 14.3056 49.4534 22.1216 49.4534 31.7616Z" fill="url(#paint2_linear_30_35)"/>
<path d="M27.4703 22.7151V31.5373C26.8359 31.2322 26.1309 31.0566 25.3849 31.0566C22.7023 31.0682 20.5297 33.2394 20.5182 35.9221C20.5182 38.5933 22.7151 40.7889 25.3849 40.7889C28.051 40.7889 30.2376 38.6048 30.2504 35.9452V25.4952H38.592V31.5373C37.9588 31.2322 37.2526 31.0566 36.5066 31.0566C33.8239 31.0682 31.6514 33.2394 31.6411 35.9221C31.6411 38.5933 33.838 40.7889 36.5066 40.7889C39.1495 40.7889 41.3208 38.6407 41.3682 36.0106H41.3734V22.7151H27.4703ZM25.3849 33.8367C26.5539 33.8367 27.4703 34.7545 27.4703 35.9221C27.4703 37.0898 26.5552 38.0075 25.3849 38.0075C24.2173 38.0075 23.2996 37.0898 23.2996 35.9221C23.2996 34.7545 24.2173 33.8367 25.3849 33.8367ZM36.5066 33.8367C37.6755 33.8367 38.592 34.7545 38.592 35.9221C38.592 37.0898 37.6755 38.0075 36.5066 38.0075C35.3389 38.0075 34.4212 37.0898 34.4212 35.9221C34.4212 34.7545 35.3389 33.8367 36.5066 33.8367Z" fill="#C0BFBC"/>
<path d="M27.4703 21.9794V30.8016C26.8359 30.4978 26.1309 30.3209 25.3849 30.3209C22.7023 30.3325 20.5297 32.5037 20.5182 35.1864C20.5182 37.8575 22.7151 40.0532 25.3849 40.0532C28.051 40.0532 30.2376 37.8691 30.2504 35.2095V24.7595H38.592V30.8016C37.9588 30.4978 37.2526 30.3209 36.5066 30.3209C33.8239 30.3325 31.6514 32.5037 31.6411 35.1864C31.6411 37.8575 33.838 40.0532 36.5066 40.0532C39.1495 40.0532 41.3208 37.905 41.3682 35.2748H41.3734V21.9794H27.4703ZM25.3849 33.101C26.5539 33.101 27.4703 34.0187 27.4703 35.1864C27.4703 36.3553 26.5552 37.2731 25.3849 37.2731C24.2173 37.2731 23.2996 36.3553 23.2996 35.1864C23.2996 34.0187 24.2173 33.101 25.3849 33.101ZM36.5066 33.101C37.6755 33.101 38.592 34.0187 38.592 35.1864C38.592 36.3553 37.6755 37.2731 36.5066 37.2731C35.3389 37.2731 34.4212 36.3553 34.4212 35.1864C34.4212 34.0187 35.3389 33.101 36.5066 33.101Z" fill="white"/>
</g>
<defs>
<linearGradient id="paint0_linear_30_35" x1="29.9998" y1="56.999" x2="29.9998" y2="6.99868" gradientUnits="userSpaceOnUse">
<stop stop-color="#262626"/>
<stop offset="1" stop-color="#505050"/>
</linearGradient>
<linearGradient id="paint1_linear_30_35" x1="21.9429" y1="37.5249" x2="46.126" y2="22.4922" gradientUnits="userSpaceOnUse">
<stop stop-color="#6B97DF"/>
<stop offset="1" stop-color="#C25298"/>
</linearGradient>
<linearGradient id="paint2_linear_30_35" x1="23.2903" y1="31.8514" x2="46.2694" y2="41.8124" gradientUnits="userSpaceOnUse">
<stop stop-color="#6B97DF" stop-opacity="0"/>
<stop offset="1" stop-color="#E5565C"/>
</linearGradient>
</defs>
</svg>
