<svg width="16" height="16" viewBox="0 0 16 16" fill="none" xmlns="http://www.w3.org/2000/svg">
<g clip-path="url(#clip0_184_363)">
<rect x="4" y="7" width="8" height="2" rx="1" fill="black"/>
<path fill-rule="evenodd" clip-rule="evenodd" d="M11.4855 2.14254C11.9591 1.85839 12.5734 2.01195 12.8575 2.48553L15.8575 7.48553C16.0475 7.80222 16.0475 8.19784 15.8575 8.51452L12.8575 13.5145C12.5734 13.9881 11.9591 14.1417 11.4855 13.8575C11.012 13.5734 10.8584 12.9591 11.1425 12.4855L13.8338 8.00003L11.1425 3.51452C10.8584 3.04094 11.012 2.42668 11.4855 2.14254Z" fill="black"/>
<path fill-rule="evenodd" clip-rule="evenodd" d="M4.51447 2.14254C4.04089 1.85839 3.42663 2.01195 3.14248 2.48553L0.142478 7.48553C-0.0475316 7.80222 -0.0475316 8.19784 0.142478 8.51452L3.14248 13.5145C3.42663 13.9881 4.04089 14.1417 4.51447 13.8575C4.98805 13.5734 5.14161 12.9591 4.85746 12.4855L2.16616 8.00003L4.85746 3.51452C5.14161 3.04094 4.98805 2.42668 4.51447 2.14254Z" fill="black"/>
</g>
<defs>
<clipPath id="clip0_184_363">
<rect width="16" height="16" fill="white"/>
</clipPath>
</defs>
</svg>
