<svg width="16" height="16" viewBox="0 0 16 16" fill="none" xmlns="http://www.w3.org/2000/svg">
<g clip-path="url(#clip0_191_2)">
<path fill-rule="evenodd" clip-rule="evenodd" d="M8 16C12.4183 16 16 12.4183 16 8C16 4.52074 13.7789 1.56024 10.6774 0.459001C10.71 0.562075 10.716 0.679541 10.6752 0.802549L8.89415 6.5921H10.4364C11.3515 6.5921 11.8458 7.65894 11.2831 8.32337L6.20473 15.7585L6.18166 15.781C6.17846 15.7841 6.17523 15.7871 6.17195 15.7902C6.75907 15.9274 7.37106 16 8 16ZM5.07161 15.4471C5.06187 15.3371 5.0825 15.2214 5.13571 15.1087L7.09102 9.40791H5.56355C4.64962 9.40791 4.15538 8.3437 4.71478 7.6791L9.59557 0.243548L9.62077 0.219053L9.62574 0.214221L9.62575 0.214211C9.63726 0.203011 9.65153 0.189118 9.66776 0.17409C9.12982 0.0600147 8.57192 0 8 0C3.58172 0 0 3.58172 0 8C0 11.3846 2.1019 14.2784 5.07161 15.4471Z" fill="black"/>
</g>
<defs>
<clipPath id="clip0_191_2">
<rect width="16" height="16" fill="white"/>
</clipPath>
</defs>
</svg>
