<svg width="16" height="16" viewBox="0 0 16 16" fill="none" xmlns="http://www.w3.org/2000/svg">
<g clip-path="url(#clip0_231_422)">
<path d="M7.00001 1.00772C6.70313 1.00381 6.42188 1.13272 6.23048 1.35928L3 4.99991H2C0.906251 4.99991 0 5.84366 0 6.99991V8.99991C0 10.0898 0.910157 10.9999 2 10.9999H3L6.23048 14.6405C6.44141 14.8944 6.72266 15.0038 7.00001 14.9999V1.00772ZM13.461 1.96865C13.2695 1.96475 13.0742 2.02334 12.9024 2.13662C12.4453 2.44912 12.3242 3.07022 12.6328 3.52725C14.457 6.23428 14.457 9.76554 12.6328 12.4726C12.3242 12.9296 12.4453 13.5507 12.9024 13.8632C13.3594 14.1718 13.9805 14.0507 14.293 13.5937C15.4297 11.9023 16 9.95304 16 7.99991C16 6.04678 15.4297 4.09756 14.293 2.40616C14.0977 2.121 13.7813 1.96865 13.461 1.96865V1.96865ZM10.0391 3.98819C9.81642 3.98038 9.58595 4.04678 9.39454 4.19131C9.13282 4.39053 9.00001 4.69131 9.00001 4.996V5.0546C9.01173 5.246 9.07423 5.4296 9.19923 5.58975C10.2734 7.01944 10.2734 8.98038 9.19923 10.4062C9.07423 10.5702 9.01173 10.7538 9.00001 10.9413V11.0038C9.00001 11.3085 9.13282 11.6093 9.39454 11.8085C9.83595 12.1405 10.4609 12.0507 10.793 11.6093C11.5977 10.5429 12 9.27335 12 7.99991C12 6.72647 11.5977 5.45694 10.793 4.38663C10.6094 4.14053 10.3281 4.00381 10.0391 3.98819V3.98819Z" fill="#2E3436"/>
</g>
<defs>
<clipPath id="clip0_231_422">
<rect width="16" height="16" fill="white"/>
</clipPath>
</defs>
</svg>
