<svg width="16" height="16" viewBox="0 0 16 16" fill="none" xmlns="http://www.w3.org/2000/svg">
<g clip-path="url(#clip0_231_430)">
<path fill-rule="evenodd" clip-rule="evenodd" d="M16.29 5.85975L14.7563 7.48903C13.9026 6.48397 12.8598 5.68048 11.6954 5.13052C10.5309 4.58057 9.27082 4.2964 7.99651 4.2964C6.72219 4.2964 5.46207 4.58057 4.29764 5.13052C3.13322 5.68048 2.09042 6.48397 1.2367 7.48903L-0.290039 5.85975C0.765784 4.64285 2.04754 3.67161 3.47436 3.00729C4.90119 2.34298 6.44212 2 7.99996 2C9.5578 2 11.0987 2.34298 12.5256 3.00729C13.9524 3.67161 15.2341 4.64285 16.29 5.85975ZM13.5266 8.83197L11.9999 10.4539C11.5136 9.83828 10.9062 9.34325 10.2206 9.00362C9.53493 8.66399 8.78759 8.48799 8.03106 8.48799C7.27454 8.48799 6.52719 8.66399 5.84153 9.00362C5.15588 9.34325 4.54855 9.83828 4.06222 10.4539L2.47331 8.83197C3.15868 7.99978 4.00359 7.33287 4.95141 6.87594C5.89923 6.41901 6.92804 6.18262 7.96889 6.18262C9.00973 6.18262 10.0385 6.41901 10.9864 6.87594C11.9342 7.33287 12.7791 7.99978 13.4645 8.83197H13.5266ZM9.92741 12.6189L10.7011 11.7896C10.0734 10.8909 9.04645 10.1844 7.99308 10.181C6.94103 10.1866 5.91703 10.8999 5.29883 11.8043L6.06565 12.6189L7.99999 14.6665L9.12604 13.4702L9.92741 12.6189Z" fill="#2E3436"/>
</g>
<defs>
<clipPath id="clip0_231_430">
<rect width="16" height="16" fill="white"/>
</clipPath>
</defs>
</svg>
