<svg width="17" height="16" viewBox="0 0 17 16" fill="none" xmlns="http://www.w3.org/2000/svg">
<path d="M7.16283 1C6.36986 1 6.38158 1.03516 6.63158 2.03125L8.25658 7H3.75658L2.53783 5.21875C2.3972 5.01172 2.41673 5 2.19408 5H1.97533C1.54954 5 1.69408 5.4375 1.69408 5.4375L1.97533 8L1.69408 10.5625C1.69408 10.5625 1.55345 11 1.94408 11H2.19408C2.40501 11 2.3972 10.9922 2.53783 10.7812L3.75658 9H8.25658L6.63158 13.9375C6.36986 14.9844 6.36595 15 7.16283 15C7.59642 15 7.59642 14.9883 7.88158 14.5L11.5691 9H14.6628C15.2175 9 15.6628 8.55469 15.6628 8C15.6628 7.44531 15.2175 7 14.6628 7H11.5691L7.88158 1.5C7.61595 1.04297 7.60033 1 7.22533 1H7.16283Z" fill="#2E3436"/>
</svg>
