<svg width="16" height="16" viewBox="0 0 16 16" fill="none" xmlns="http://www.w3.org/2000/svg">
<path d="M4.95 0.999982C4.16305 1.0131 3.41277 1.33495 2.86093 1.89615C2.30909 2.45734 1.99989 3.21292 2 3.99998C2 4.58121 2.16884 5.14992 2.486 5.63698C2.16569 6.38362 2.00034 7.18753 2 7.99998C1.99977 8.93213 2.21672 9.85151 2.63366 10.6852C3.0506 11.5189 3.65605 12.244 4.402 12.803L4.072 13.629L4.082 13.633C4.03046 13.7485 4.00323 13.8735 4.002 14C4.002 14.524 4.477 15 5 15C5.396 15 5.764 14.727 5.92 14.367L5.928 14.371L6.189 13.719C6.77472 13.9048 7.38551 13.9996 8 14C8.61511 14.0001 9.22659 13.9057 9.813 13.72L10.073 14.371L10.083 14.367C10.239 14.727 10.605 15 11.001 15C11.524 15 12.001 14.523 12.001 14C11.9998 13.8735 11.9726 13.7485 11.921 13.633L11.929 13.629L11.599 12.801C12.3445 12.2421 12.9496 11.5173 13.3663 10.684C13.7831 9.85064 14 8.93171 14 7.99998C13.9997 7.18753 13.8343 6.38362 13.514 5.63698C13.8312 5.14992 14 4.58121 14 3.99998C14 3.20433 13.6839 2.44127 13.1213 1.87866C12.5587 1.31605 11.7956 0.999982 11 0.999982C10.9833 0.999843 10.9667 0.999843 10.95 0.999982C10.5265 1.00731 10.1094 1.10422 9.7261 1.28433C9.34278 1.46444 9.00194 1.72368 8.726 2.04498C8.48513 2.01531 8.24269 2.00029 8 1.99998C7.75698 2.00025 7.5142 2.01527 7.273 2.04498C6.99164 1.71749 6.64291 1.4546 6.25063 1.27425C5.85834 1.0939 5.43175 1.00034 5 0.999982C4.98333 0.999843 4.96667 0.999843 4.95 0.999982V0.999982ZM4.95 1.99998C4.95033 1.99998 4.95067 1.99998 4.951 1.99998C4.96733 1.99978 4.98367 1.99978 5 1.99998C5.38214 2.00016 5.75624 2.10982 6.078 2.31598C4.86517 2.72615 3.81535 3.51352 3.082 4.56298C3.02798 4.38018 3.00036 4.1906 3 3.99998C2.99984 3.4781 3.20367 2.97682 3.568 2.60316C3.93233 2.22949 4.42828 2.01303 4.95 1.99998ZM10.93 1.99998C10.937 1.99995 10.944 1.99995 10.951 1.99998C10.9673 1.99978 10.9837 1.99978 11 1.99998C11.5304 1.99998 12.0391 2.2107 12.4142 2.58577C12.7893 2.96084 13 3.46955 13 3.99998C12.9996 4.1906 12.972 4.38018 12.918 4.56298C12.1841 3.51318 11.1336 2.72577 9.92 2.31598C10.2222 2.12187 10.5711 2.01272 10.93 1.99998ZM8 2.99998C9.32608 2.99998 10.5979 3.52677 11.5355 4.46445C12.4732 5.40213 13 6.6739 13 7.99998C13 9.32606 12.4732 10.5978 11.5355 11.5355C10.5979 12.4732 9.32608 13 8 13C6.67392 13 5.40215 12.4732 4.46447 11.5355C3.52678 10.5978 3 9.32606 3 7.99998C3 6.6739 3.52678 5.40213 4.46447 4.46445C5.40215 3.52677 6.67392 2.99998 8 2.99998V2.99998ZM9.969 5.53098C9.87196 5.55686 9.78489 5.61119 9.719 5.68698L8.063 7.34398L6.906 6.18698C6.749 5.92998 6.338 5.88098 6.126 6.09398C5.914 6.30698 5.963 6.71798 6.219 6.87398L7.719 8.37498C7.81374 8.45891 7.93593 8.50526 8.0625 8.50526C8.18907 8.50526 8.31126 8.45891 8.406 8.37498L10.406 6.37498C10.699 6.07698 10.382 5.46498 9.969 5.53098V5.53098Z" fill="#2E3436" stroke="#2E3436" stroke-width="0.45"/>
</svg>
