<svg width="17" height="16" viewBox="0 0 17 16" fill="none" xmlns="http://www.w3.org/2000/svg">
<g clip-path="url(#clip0_231_1380)">
<path d="M7.40869 0C3.83057 0 0.908691 2.92187 0.908691 6.5C0.908691 10.0781 3.83057 13 7.40869 13C7.58057 13 7.74072 12.9805 7.90869 12.9687V10.9375C7.74072 10.957 7.58057 11 7.40869 11C4.9126 11 2.90869 8.99609 2.90869 6.5C2.90869 4.00391 4.9126 2 7.40869 2C9.90479 2 11.9087 4.00391 11.9087 6.5C11.9087 6.67187 11.8657 6.83203 11.8462 7H13.8774C13.8892 6.83203 13.9087 6.67187 13.9087 6.5C13.9087 2.92187 10.9868 0 7.40869 0ZM7.40869 3C7.13135 3 6.90869 3.22266 6.90869 3.5V6H5.40869C5.13135 6 4.90869 6.22266 4.90869 6.5C4.90869 6.77734 5.13135 7 5.40869 7H7.40869C7.68604 7 7.90869 6.77734 7.90869 6.5V3.5C7.90869 3.22266 7.68604 3 7.40869 3Z" fill="#2E3436"/>
<path d="M9.78369 8.07031C9.2915 8.07031 8.90869 8.44922 8.90869 8.9375V15.1328C8.90869 15.6211 9.2915 16 9.78369 16H16.0337C16.5259 16 16.9087 15.6211 16.9087 15.1328V8.9375C16.9087 8.44922 16.5259 8.07031 16.0337 8.07031H9.78369ZM11.9087 9H13.9087V11.5C13.9087 11.5 13.9087 12 13.4087 12H12.4087C11.9087 12 11.9087 11.5 11.9087 11.5V9ZM12.4087 13H13.4087C13.686 13 13.9087 13.2227 13.9087 13.5V14.5C13.9087 14.7773 13.686 15 13.4087 15H12.4087C12.1313 15 11.9087 14.7773 11.9087 14.5V13.5C11.9087 13.2227 12.1313 13 12.4087 13Z" fill="#00FF00"/>
</g>
<defs>
<clipPath id="clip0_231_1380">
<rect width="16" height="16" fill="white" transform="translate(0.908691)"/>
</clipPath>
</defs>
</svg>
