<svg width="17" height="16" viewBox="0 0 17 16" fill="none" xmlns="http://www.w3.org/2000/svg">
<g clip-path="url(#clip0_231_1383)">
<path d="M7.45435 0C3.87622 0 0.954346 2.92187 0.954346 6.5C0.954346 10.0781 3.87622 13 7.45435 13C7.62622 13 7.78638 12.9805 7.95435 12.9687V10.9375C7.78638 10.957 7.62622 11 7.45435 11C4.95825 11 2.95435 8.99609 2.95435 6.5C2.95435 4.00391 4.95825 2 7.45435 2C9.95044 2 11.9543 4.00391 11.9543 6.5C11.9543 6.67187 11.9114 6.83203 11.8918 7H13.9231C13.9348 6.83203 13.9543 6.67187 13.9543 6.5C13.9543 2.92187 11.0325 0 7.45435 0ZM7.45435 3C7.177 3 6.95435 3.22266 6.95435 3.5V6H5.45435C5.177 6 4.95435 6.22266 4.95435 6.5C4.95435 6.77734 5.177 7 5.45435 7H7.45435C7.73169 7 7.95435 6.77734 7.95435 6.5V3.5C7.95435 3.22266 7.73169 3 7.45435 3Z" fill="#2E3436" fill-opacity="0.5"/>
<path d="M12.6692 8.01175C11.7083 8.07816 10.8059 8.49222 10.1262 9.17191C8.56372 10.7344 8.56372 13.2657 10.1262 14.8282C11.6887 16.3907 14.22 16.3907 15.7825 14.8282C17.345 13.2657 17.345 10.7344 15.7825 9.17191C14.9622 8.35159 13.8254 7.92581 12.6692 8.01175ZM11.5403 9.58206C11.7942 9.58206 12.052 9.68362 12.2473 9.87894L12.9543 10.586L13.6614 9.87894C14.052 9.48831 14.6848 9.48831 15.0754 9.87894C15.4661 10.2696 15.4661 10.9024 15.0754 11.293L14.3684 12L15.0754 12.7071C15.4661 13.0977 15.4661 13.7305 15.0754 14.1211C14.6848 14.5118 14.052 14.5118 13.6614 14.1211L12.9543 13.4141L12.2473 14.1211C11.8567 14.5118 11.2239 14.5118 10.8333 14.1211C10.4426 13.7305 10.4426 13.0977 10.8333 12.7071L11.5403 12L10.8333 11.293C10.4426 10.9024 10.4426 10.2696 10.8333 9.87894C11.0286 9.68362 11.2864 9.58206 11.5403 9.58206Z" fill="#0000FF"/>
</g>
<defs>
<clipPath id="clip0_231_1383">
<rect width="16" height="16" fill="white" transform="translate(0.954346)"/>
</clipPath>
</defs>
</svg>
