<svg width="16" height="16" viewBox="0 0 16 16" fill="none" xmlns="http://www.w3.org/2000/svg">
<path d="M9.00025 1.00765C9.29712 1.00375 9.57838 1.13265 9.76978 1.35922L13.0003 4.99985H14.0003C15.094 4.99985 16.0003 5.8436 16.0003 6.99985V8.99985C16.0003 10.0897 15.0901 10.9999 14.0003 10.9999H13.0003L9.76978 14.6405C9.55884 14.8944 9.27759 15.0038 9.00025 14.9999V1.00765ZM6.04322 3.98813C6.24243 3.99985 6.43775 4.06235 6.60572 4.19125C7.04712 4.52328 7.13697 5.15219 6.80103 5.5936C5.72681 7.01938 5.72681 8.98032 6.80103 10.4061C7.13697 10.8475 7.04712 11.4764 6.60572 11.8084C6.16431 12.1405 5.53931 12.0506 5.20728 11.6131C4.40259 10.5428 4.00024 9.27329 4.00024 7.99985C4.00024 6.72641 4.40259 5.45688 5.20728 4.38657C5.39087 4.14047 5.67212 4.00375 5.96118 3.98813H6.04712H6.04322Z" fill="#2E3436"/>
</svg>
