<svg width="16" height="16" viewBox="0 0 16 16" fill="none" xmlns="http://www.w3.org/2000/svg">
<g clip-path="url(#clip0_231_1241)">
<path d="M9.00025 1.00753C9.29712 1.00363 9.57838 1.13253 9.76978 1.3591L13.0003 4.99972H14.0003C15.094 4.99972 16.0003 5.84348 16.0003 6.99973V8.99973C16.0003 10.0896 15.0901 10.9997 14.0003 10.9997H13.0003L9.76978 14.6404C9.55884 14.8943 9.27759 15.0036 9.00025 14.9997V1.00753ZM5.96118 3.988C6.18384 3.98019 6.41431 4.0466 6.60572 4.19113C6.86744 4.39035 7.00025 4.69113 7.00025 4.99582V5.06222C6.98853 5.24973 6.92212 5.43332 6.80103 5.58957C5.72681 7.01926 5.72681 8.9802 6.80103 10.406C6.92212 10.5661 6.98853 10.7497 7.00025 10.9372V11.0036C7.00025 11.3083 6.86744 11.6091 6.60572 11.8083C6.16431 12.1404 5.53931 12.0505 5.20728 11.6091C4.40259 10.5427 4.00024 9.27317 4.00024 7.99973C4.00024 6.72629 4.40259 5.45676 5.20728 4.38644C5.39087 4.14035 5.67212 4.00363 5.96118 3.988V3.988Z" fill="#2E3436"/>
<path d="M2.53931 1.96832C2.73072 1.96442 2.92603 2.02301 3.0979 2.13629C3.55494 2.44879 3.67603 3.06989 3.36744 3.52692C1.54321 6.23395 1.54321 9.76521 3.36744 12.4722C3.67603 12.9293 3.55494 13.5504 3.0979 13.8629C2.64087 14.1715 2.01978 14.0504 1.70728 13.5933C0.570557 11.9019 0.000244141 9.95271 0.000244141 7.99958C0.000244141 6.04645 0.570557 4.09723 1.70728 2.40582C1.90259 2.12067 2.219 1.96832 2.53931 1.96832V1.96832Z" fill="#2E3436" fill-opacity="0.5"/>
</g>
<defs>
<clipPath id="clip0_231_1241">
<rect width="16" height="16" fill="white" transform="translate(0.000244141 0.00012207)"/>
</clipPath>
</defs>
</svg>
