<svg width="16" height="17" viewBox="0 0 16 17" fill="none" xmlns="http://www.w3.org/2000/svg">
<g clip-path="url(#clip0_231_1086)">
<path fill-rule="evenodd" clip-rule="evenodd" d="M4 0.333313C2 0.333313 2 2.33331 2 2.33331V4.33333V8.39583V14.3333C2 16.3333 4 16.3333 4 16.3333H7V16.3333H12C12 16.3333 14 16.3333 14 14.3333V8.39581V4.33333V3.33331L11 0.333313H4ZM4 9.33331H5.33201L5.33203 9.33333H5.33333V8.33333H4.00391L4 7.33333V7.33331C4 7.33331 4 7.27081 4.01562 7.17706C4.06251 6.89581 4.25002 6.33333 5 6.33333H5.00269L5.33333 6.33592V3.66667C5.33333 2.19391 6.52724 1 8 1C9.47276 1 10.6667 2.19391 10.6667 3.66667V6.33594L11 6.33333C11.5802 6.33333 11.8238 6.67 11.926 6.95265C12 7.15712 12 7.33331 12 7.33331V7.33333L11.9961 8.33331H10.6667V9.33333H12V11.3333H10.6667V12.3372H12V13.3333C12 13.3333 12 14.3333 11 14.3333L10.3083 14.336C9.84689 15.1316 8.98593 15.6667 8 15.6667C7.01406 15.6667 6.1531 15.1316 5.69164 14.336L5 14.3333C4 14.3333 4 13.3333 4 13.3333V12.3372H5.33333V11.3333H4V9.33331Z" fill="#2E3436" fill-opacity="0.5"/>
<rect x="6.66895" y="11.687" width="2.6623" height="2.6623" rx="1.33115" fill="#2E3436"/>
<rect x="7.00146" y="2.01044" width="1.99672" height="8.65247" rx="0.998362" fill="#2E3436"/>
</g>
<defs>
<clipPath id="clip0_231_1086">
<rect width="16" height="16" fill="white" transform="translate(0 0.333313)"/>
</clipPath>
</defs>
</svg>
