<svg width="16" height="17" viewBox="0 0 16 17" fill="none" xmlns="http://www.w3.org/2000/svg">
<g clip-path="url(#clip0_231_1082)">
<path d="M13 9.33344C11.9023 9.33344 11 10.2358 11 11.3334V12.3334H10V16.3334H16V12.3334H15V11.3334C15 10.2358 14.0977 9.33344 13 9.33344ZM13 10.3334C13.5625 10.3334 14 10.7709 14 11.3334V12.3334H12V11.3334C12 10.7709 12.4375 10.3334 13 10.3334Z" fill="#2E3436"/>
<path d="M4 0.333313C2 0.333313 2 2.33331 2 2.33331V14.3333C2 16.3333 4 16.3333 4 16.3333H9V11.3333H4V9.33331H10.668C11.2266 8.65363 12.0664 8.20831 13 8.20831C13.3516 8.20831 13.6875 8.28253 14 8.39581V3.33331L11 0.333313H4ZM5 6.33331L6 6.34113V8.34112H4V7.33331C4 7.33331 4 6.33331 5 6.33331ZM11 6.33331C12 6.33331 12 7.33331 12 7.33331L11.9961 8.33331H9.99609V6.33331H11ZM7 6.34113H9V8.34112H7V6.34113ZM4 12.3372H6V14.3372L5 14.3333C4 14.3333 4 13.3333 4 13.3333V12.3372ZM7 12.3372H9V14.3372H7V12.3372Z" fill="#2E3436" fill-opacity="0.5"/>
</g>
<defs>
<clipPath id="clip0_231_1082">
<rect width="16" height="16" fill="white" transform="translate(0 0.333313)"/>
</clipPath>
</defs>
</svg>
