<svg width="17" height="17" viewBox="0 0 17 17" fill="none" xmlns="http://www.w3.org/2000/svg">
<g clip-path="url(#clip0_231_606)">
<path d="M14.343 6.73981V11.7471C14.343 12.2438 14.1457 12.7201 13.7945 13.0713C13.4433 13.4225 12.967 13.6198 12.4703 13.6198H9.73633L12.921 8.92298V8.87291C13.1282 8.58644 13.2558 8.25023 13.291 7.89844C13.3262 7.54665 13.2676 7.19182 13.1213 6.87C12.9787 6.56669 12.7597 6.30566 12.4858 6.11253C12.2119 5.9194 11.8925 5.80081 11.559 5.76839L11.8194 4.89712H12.4603C12.9535 4.89442 13.4279 5.08643 13.7805 5.43144C14.133 5.77646 14.3351 6.24661 14.343 6.73981Z" fill="#BCF83F"/>
<path d="M6.60152 10.295L5.80036 12.7385L5.50993 13.6198H4.99919C4.50251 13.6198 4.02618 13.4225 3.67497 13.0713C3.32377 12.7201 3.12646 12.2438 3.12646 11.7471V6.73979C3.12646 6.24311 3.32377 5.76678 3.67497 5.41557C4.02618 5.06437 4.50251 4.86707 4.99919 4.86707H6.00065L4.52851 7.1604C4.317 7.44509 4.18745 7.78224 4.15391 8.13531C4.12037 8.48838 4.18411 8.8439 4.33823 9.16332C4.39706 9.29712 4.47461 9.42189 4.56856 9.53386C4.75097 9.76557 4.98373 9.95272 5.24921 10.0811C5.51468 10.2095 5.8059 10.2758 6.10079 10.2749L6.60152 10.295Z" fill="#BCF83F"/>
<path d="M6.44148 16.0233C6.49693 16.0278 6.55263 16.0182 6.6034 15.9954C6.65416 15.9727 6.69837 15.9375 6.7319 15.8931L11.9896 8.17184C12.0805 8.0602 12.1379 7.92504 12.1551 7.78206C12.1723 7.63909 12.1486 7.49417 12.0867 7.36413C12.0249 7.2341 11.9274 7.12428 11.8056 7.04744C11.6838 6.9706 11.5427 6.92989 11.3987 6.93004H9.2055L11.2084 0.440591C11.2283 0.386626 11.2337 0.328421 11.2241 0.271724C11.2146 0.215027 11.1904 0.1618 11.154 0.117302C11.1176 0.0728035 11.0702 0.0385733 11.0165 0.0179926C10.9628 -0.00258815 10.9047 -0.00880732 10.8479 -5.05426e-05C10.7988 0.000328443 10.7506 0.0123243 10.7071 0.0349539C10.6635 0.0575836 10.626 0.090203 10.5975 0.130139L5.51012 7.85138C5.41917 7.96303 5.36176 8.09819 5.34456 8.24116C5.32736 8.38413 5.35107 8.52905 5.41294 8.65909C5.47481 8.78912 5.57231 8.89894 5.6941 8.97578C5.81589 9.05262 5.95698 9.09333 6.10098 9.09319H8.26413L6.13103 15.5826C6.11344 15.6324 6.10802 15.6856 6.11522 15.7379C6.12243 15.7902 6.14205 15.84 6.17245 15.8831C6.20284 15.9263 6.24313 15.9615 6.28993 15.9859C6.33674 16.0103 6.38871 16.0231 6.44148 16.0233Z" fill="#2E3436"/>
<path d="M4.98937 15.2121L5.17964 14.6213H4.99938C4.23791 14.6186 3.50839 14.315 2.96994 13.7765C2.4315 13.2381 2.12784 12.5086 2.1252 11.7471V4.27622C2.12784 3.51476 2.4315 2.78523 2.96994 2.24679C3.50839 1.70834 4.23791 1.40468 4.99938 1.40204H8.32422L9.24556 0H4.99938C3.86526 0 2.77758 0.45053 1.97563 1.25248C1.17369 2.05443 0.723157 3.1421 0.723157 4.27622V11.7471C0.720463 12.8734 1.16327 13.9551 1.95498 14.7562C2.74668 15.5572 3.82306 16.0128 4.94931 16.0233C4.88579 15.7546 4.89968 15.4733 4.98937 15.2121Z" fill="#2E3436" fill-opacity="0.5"/>
<path d="M12.4704 0H12.3502C12.4253 0.254961 12.4253 0.526176 12.3502 0.781137L12.17 1.40204H12.5004C13.2567 1.41254 13.9785 1.71967 14.5105 2.25727C15.0425 2.79487 15.342 3.51991 15.3446 4.27622V11.7471C15.3419 12.5086 15.0383 13.2381 14.4998 13.7765C13.9614 14.315 13.2319 14.6186 12.4704 14.6213H9.02538L8.02393 16.0233H12.4303C12.9953 16.0286 13.5556 15.9219 14.0791 15.7094C14.6025 15.4969 15.0787 15.1827 15.48 14.7851C15.8814 14.3875 16.1999 13.9143 16.4173 13.3928C16.6347 12.8714 16.7466 12.312 16.7466 11.7471V4.27622C16.7466 3.1421 16.2961 2.05443 15.4941 1.25248C14.6922 0.45053 13.6045 0 12.4704 0V0Z" fill="#2E3436" fill-opacity="0.5"/>
</g>
<defs>
<clipPath id="clip0_231_606">
<rect width="16.0233" height="16.0233" fill="white" transform="translate(0.723145)"/>
</clipPath>
</defs>
</svg>
