<svg width="17" height="17" viewBox="0 0 17 17" fill="none" xmlns="http://www.w3.org/2000/svg">
<g clip-path="url(#clip0_231_540)">
<path d="M12.0008 0.696777H4.52989C3.39576 0.696777 2.30809 1.14731 1.50614 1.94925C0.704192 2.7512 0.253662 3.83888 0.253662 4.973L0.253662 12.4439C0.253551 13.5677 0.695823 14.6463 1.48482 15.4466C2.27382 16.2468 3.34612 16.7043 4.4698 16.7201H12.0008C13.1349 16.7201 14.2226 16.2696 15.0245 15.4676C15.8265 14.6657 16.277 13.578 16.277 12.4439V4.973C16.277 3.83888 15.8265 2.7512 15.0245 1.94925C14.2226 1.14731 13.1349 0.696777 12.0008 0.696777V0.696777ZM14.8749 12.4439C14.8723 13.2053 14.5686 13.9349 14.0302 14.4733C13.4918 15.0118 12.7622 15.3154 12.0008 15.3181H4.52989C3.76842 15.3154 3.03889 15.0118 2.50045 14.4733C1.96201 13.9349 1.65834 13.2053 1.6557 12.4439V4.973C1.65834 4.21153 1.96201 3.48201 2.50045 2.94356C3.03889 2.40512 3.76842 2.10146 4.52989 2.09882H12.0008C12.7622 2.10146 13.4918 2.40512 14.0302 2.94356C14.5686 3.48201 14.8723 4.21153 14.8749 4.973V12.4439Z" fill="#2E3436" fill-opacity="0.5"/>
<path d="M13.2727 11.823H3.25811C3.09344 11.823 2.93551 11.8884 2.81907 12.0049C2.70262 12.1213 2.63721 12.2792 2.63721 12.4439C2.63719 12.6915 2.68629 12.9367 2.78165 13.1652C2.87701 13.3937 3.01675 13.6011 3.19278 13.7753C3.3688 13.9494 3.57762 14.0869 3.80715 14.1799C4.03668 14.2728 4.28235 14.3193 4.52996 14.3166H12.0008C12.4975 14.3166 12.9739 14.1193 13.3251 13.7681C13.6763 13.4169 13.8736 12.9406 13.8736 12.4439C13.8736 12.2826 13.811 12.1277 13.6988 12.0118C13.5867 11.8959 13.4339 11.8282 13.2727 11.823V11.823Z" fill="#0000FF"/>
</g>
<defs>
<clipPath id="clip0_231_540">
<rect width="16.0233" height="16.0233" fill="white" transform="translate(0.253662 0.696777)"/>
</clipPath>
</defs>
</svg>
