<svg width="17" height="17" viewBox="0 0 17 17" fill="none" xmlns="http://www.w3.org/2000/svg">
<g clip-path="url(#clip0_231_531)">
<path d="M9.32796 0.686768H7.92592C7.48345 0.686768 7.12476 1.04546 7.12476 1.48793V9.91019C7.12476 10.3527 7.48345 10.7114 7.92592 10.7114H9.32796C9.77043 10.7114 10.1291 10.3527 10.1291 9.91019V1.48793C10.1291 1.04546 9.77043 0.686768 9.32796 0.686768Z" fill="#0000FF"/>
<path d="M9.32796 12.7142H7.92592C7.48345 12.7142 7.12476 13.0729 7.12476 13.5154V15.9089C7.12476 16.3514 7.48345 16.71 7.92592 16.71H9.32796C9.77043 16.71 10.1291 16.3514 10.1291 15.9089V13.5154C10.1291 13.0729 9.77043 12.7142 9.32796 12.7142Z" fill="#0000FF"/>
<path d="M5.92297 15.3181H4.92152C4.54192 15.3207 4.16553 15.2484 3.81394 15.1052C3.46235 14.9621 3.14248 14.751 2.87266 14.4839C2.60285 14.2169 2.3884 13.8993 2.24161 13.5492C2.09483 13.1991 2.0186 12.8235 2.01729 12.4439V4.973C2.01993 4.21153 2.32359 3.48201 2.86203 2.94356C3.40048 2.40512 4.13 2.10146 4.89147 2.09882H5.89293V1.48793C5.9032 1.21419 5.96789 0.945247 6.08321 0.696777L4.89147 0.696777C3.75735 0.696777 2.66967 1.14731 1.86772 1.94925C1.06578 2.7512 0.615247 3.83888 0.615247 4.973V12.4439C0.61253 13.5685 1.05396 14.6486 1.84351 15.4494C2.63306 16.2502 3.70688 16.7069 4.83138 16.7201H6.09322C5.98053 16.4645 5.92254 16.1882 5.92297 15.9089V15.3181Z" fill="#2E3436" fill-opacity="0.5"/>
<path d="M12.3624 0.696777H11.1707C11.2756 0.94737 11.3301 1.21623 11.3309 1.48793V2.09882H12.3323C12.7119 2.09618 13.0883 2.1685 13.4399 2.31164C13.7915 2.45478 14.1114 2.66591 14.3812 2.93293C14.651 3.19996 14.8655 3.51762 15.0122 3.8677C15.159 4.21778 15.2353 4.5934 15.2366 4.973V12.4439C15.2339 13.2053 14.9303 13.9349 14.3918 14.4733C13.8534 15.0118 13.1239 15.3154 12.3624 15.3181H11.3609V15.9089C11.363 16.1895 11.3014 16.4668 11.1807 16.7201H12.3924C13.5213 16.7122 14.6013 16.2581 15.3968 15.4571C16.1922 14.656 16.6386 13.5728 16.6386 12.4439V4.973C16.6386 3.83888 16.1881 2.7512 15.3861 1.94925C14.5842 1.14731 13.4965 0.696777 12.3624 0.696777V0.696777Z" fill="#2E3436" fill-opacity="0.5"/>
</g>
<defs>
<clipPath id="clip0_231_531">
<rect width="16.0233" height="16.0233" fill="white" transform="translate(0.615234 0.696777)"/>
</clipPath>
</defs>
</svg>
