<svg width="17" height="17" viewBox="0 0 17 17" fill="none" xmlns="http://www.w3.org/2000/svg">
<g clip-path="url(#clip0_231_543)">
<path d="M5.86189 11.1262L5.0407 13.6199H4.52995C4.03327 13.6199 3.55694 13.4225 3.20574 13.0713C2.85453 12.7201 2.65723 12.2438 2.65723 11.7471C2.65714 11.5859 2.7198 11.4309 2.83195 11.315C2.94409 11.1991 3.09692 11.1314 3.2581 11.1262H5.86189Z" fill="#0000FF"/>
<path d="M13.8736 11.7471C13.8736 12.2438 13.6762 12.7201 13.325 13.0713C12.9738 13.4225 12.4975 13.6199 12.0008 13.6199H9.26685L10.9593 11.1262H13.2727C13.4339 11.1314 13.5867 11.1991 13.6988 11.315C13.811 11.4309 13.8736 11.5859 13.8736 11.7471V11.7471Z" fill="#0000FF"/>
<path d="M5.972 16.0233C6.02745 16.0278 6.08314 16.0182 6.13391 15.9954C6.18468 15.9727 6.22888 15.9375 6.26242 15.8931L11.5201 8.17184C11.611 8.0602 11.6684 7.92504 11.6856 7.78206C11.7028 7.63909 11.6791 7.49417 11.6173 7.36413C11.5554 7.2341 11.4579 7.12428 11.3361 7.04744C11.2143 6.9706 11.0732 6.92989 10.9292 6.93004H8.73602L10.7389 0.440591C10.7588 0.386626 10.7642 0.328421 10.7546 0.271724C10.7451 0.215027 10.7209 0.1618 10.6845 0.117302C10.6481 0.0728035 10.6007 0.0385733 10.547 0.0179926C10.4934 -0.00258815 10.4352 -0.00880732 10.3784 -5.05425e-05C10.3294 0.000328443 10.2811 0.0123243 10.2376 0.0349539C10.1941 0.0575836 10.1565 0.090203 10.128 0.130139L5.04064 7.85138C4.94969 7.96303 4.89228 8.09819 4.87508 8.24116C4.85788 8.38413 4.88159 8.52905 4.94346 8.65909C5.00533 8.78912 5.10282 8.89894 5.22462 8.97578C5.34641 9.05262 5.4875 9.09333 5.6315 9.09319H7.79465L5.66155 15.5826C5.64395 15.6324 5.63853 15.6856 5.64574 15.7379C5.65295 15.7902 5.67257 15.84 5.70296 15.8831C5.73336 15.9263 5.77365 15.9615 5.82045 15.9859C5.86726 16.0103 5.91922 16.0231 5.972 16.0233V16.0233Z" fill="#2E3436"/>
<path d="M4.51988 15.2121L4.71016 14.6213H4.5299C3.76843 14.6186 3.0389 14.315 2.50046 13.7765C1.96202 13.2381 1.65835 12.5086 1.65572 11.7471V4.27622C1.65835 3.51476 1.96202 2.78523 2.50046 2.24679C3.0389 1.70834 3.76843 1.40468 4.5299 1.40204H7.85474L8.77608 0H4.5299C3.39577 0 2.3081 0.45053 1.50615 1.25248C0.704204 2.05443 0.253674 3.1421 0.253674 4.27622V11.7471C0.250981 12.8734 0.693783 13.9551 1.48549 14.7562C2.2772 15.5572 3.35358 16.0128 4.47983 16.0233C4.41631 15.7546 4.43019 15.4733 4.51988 15.2121V15.2121Z" fill="#2E3436" fill-opacity="0.5"/>
<path d="M12.0007 0H11.8805C11.9556 0.254961 11.9556 0.526176 11.8805 0.781137L11.7002 1.40204H12.0307C12.787 1.41254 13.5088 1.71967 14.0408 2.25727C14.5728 2.79487 14.8723 3.51991 14.8749 4.27622V11.7471C14.8722 12.5086 14.5686 13.2381 14.0301 13.7765C13.4917 14.315 12.7621 14.6186 12.0007 14.6213H8.55566L7.5542 16.0233H11.9606C12.5255 16.0286 13.0859 15.9219 13.6094 15.7094C14.1328 15.4969 14.609 15.1827 15.0103 14.7851C15.4116 14.3875 15.7302 13.9143 15.9476 13.3928C16.165 12.8714 16.2769 12.312 16.2769 11.7471V4.27622C16.2769 3.1421 15.8264 2.05443 15.0244 1.25248C14.2225 0.45053 13.1348 0 12.0007 0V0Z" fill="#2E3436" fill-opacity="0.5"/>
</g>
<defs>
<clipPath id="clip0_231_543">
<rect width="16.0233" height="16.0233" fill="white" transform="translate(0.253662)"/>
</clipPath>
</defs>
</svg>
