<svg width="17" height="17" viewBox="0 0 17 17" fill="none" xmlns="http://www.w3.org/2000/svg">
<g clip-path="url(#clip0_231_536)">
<path d="M6.33357 16.0233C6.38902 16.0278 6.44472 16.0182 6.49549 15.9954C6.54625 15.9727 6.59046 15.9375 6.62399 15.8931L11.8816 8.17184C11.9726 8.0602 12.03 7.92504 12.0472 7.78206C12.0644 7.63909 12.0407 7.49417 11.9788 7.36413C11.917 7.2341 11.8195 7.12428 11.6977 7.04744C11.5759 6.9706 11.4348 6.92989 11.2908 6.93004H9.09759L11.1005 0.440591C11.1203 0.386626 11.1258 0.328421 11.1162 0.271724C11.1067 0.215027 11.0825 0.1618 11.0461 0.117302C11.0097 0.0728035 10.9623 0.0385733 10.9086 0.0179926C10.8549 -0.00258815 10.7968 -0.00880732 10.74 -5.05426e-05C10.6909 0.000328443 10.6427 0.0123243 10.5992 0.0349539C10.5556 0.0575836 10.5181 0.090203 10.4896 0.130139L5.40221 7.85138C5.31126 7.96303 5.25385 8.09819 5.23665 8.24116C5.21945 8.38413 5.24316 8.52905 5.30503 8.65909C5.3669 8.78912 5.4644 8.89894 5.58619 8.97578C5.70798 9.05262 5.84907 9.09333 5.99307 9.09319H8.15622L6.02312 15.5826C6.00553 15.6324 6.00011 15.6856 6.00731 15.7379C6.01452 15.7902 6.03414 15.84 6.06454 15.8831C6.09493 15.9263 6.13522 15.9615 6.18202 15.9859C6.22883 16.0103 6.28079 16.0231 6.33357 16.0233Z" fill="#2E3436"/>
<path d="M4.88146 15.2121L5.07173 14.6213H4.89147C4.13 14.6186 3.40048 14.315 2.86203 13.7765C2.32359 13.2381 2.01993 12.5086 2.01729 11.7471V4.27622C2.01993 3.51476 2.32359 2.78523 2.86203 2.24679C3.40048 1.70834 4.13 1.40468 4.89147 1.40204H8.21631L9.13765 0H4.89147C3.75735 0 2.66967 0.45053 1.86772 1.25248C1.06578 2.05443 0.615247 3.1421 0.615247 4.27622V11.7471C0.612553 12.8734 1.05536 13.9551 1.84706 14.7562C2.63877 15.5572 3.71515 16.0128 4.8414 16.0233C4.77788 15.7546 4.79177 15.4733 4.88146 15.2121Z" fill="#2E3436" fill-opacity="0.5"/>
<path d="M12.3622 0H12.2421C12.3172 0.254961 12.3172 0.526176 12.2421 0.781137L12.0618 1.40204H12.3923C13.1485 1.41254 13.8704 1.71967 14.4024 2.25727C14.9343 2.79487 15.2339 3.51991 15.2364 4.27622V11.7471C15.2338 12.5086 14.9301 13.2381 14.3917 13.7765C13.8532 14.315 13.1237 14.6186 12.3622 14.6213H8.91723L7.91577 16.0233H12.3222C12.8871 16.0286 13.4475 15.9219 13.9709 15.7094C14.4944 15.4969 14.9705 15.1827 15.3719 14.7851C15.7732 14.3875 16.0918 13.9143 16.3092 13.3928C16.5266 12.8714 16.6385 12.312 16.6385 11.7471V4.27622C16.6385 3.1421 16.1879 2.05443 15.386 1.25248C14.584 0.45053 13.4964 0 12.3622 0V0Z" fill="#2E3436" fill-opacity="0.5"/>
</g>
<defs>
<clipPath id="clip0_231_536">
<rect width="16.0233" height="16.0233" fill="white" transform="translate(0.615234)"/>
</clipPath>
</defs>
</svg>
