<svg width="17" height="17" viewBox="0 0 17 17" fill="none" xmlns="http://www.w3.org/2000/svg">
<g clip-path="url(#clip0_231_579)">
<path d="M14.4275 9.88436V11.7471C14.4306 12.0897 14.3387 12.4264 14.1619 12.7199C13.9851 13.0134 13.7304 13.2521 13.426 13.4095C13.1682 13.5502 12.8786 13.6226 12.5848 13.6198H9.8208L11.3731 11.3365L13.0455 8.87289C13.198 8.67035 13.3071 8.43852 13.366 8.19189C13.6854 8.34406 13.9548 8.58405 14.1428 8.88377C14.3308 9.1835 14.4296 9.53056 14.4275 9.88436V9.88436Z" fill="#BCF83F"/>
<path d="M6.6861 10.2949L5.59451 13.6198H5.08376C4.80961 13.622 4.53872 13.5603 4.29261 13.4395C3.9687 13.2912 3.6944 13.0527 3.50257 12.7526C3.31075 12.4524 3.20952 12.1033 3.21104 11.7471V9.88434C3.20749 9.54297 3.29937 9.20739 3.47631 8.91544C3.65325 8.62348 3.90823 8.38675 4.21249 8.23193C4.19218 8.56021 4.25776 8.88811 4.40277 9.18332C4.55967 9.51763 4.80905 9.8 5.12142 9.997C5.43378 10.194 5.79605 10.2974 6.16534 10.2949H6.6861Z" fill="#BCF83F"/>
<path d="M6.52571 16.0233C6.58116 16.0278 6.63686 16.0183 6.68762 15.9955C6.73839 15.9728 6.78259 15.9375 6.81613 15.8932L12.0738 8.1619C12.1618 8.05012 12.2166 7.91594 12.2322 7.77455C12.2478 7.63317 12.2235 7.49025 12.1619 7.362C12.1004 7.23375 12.0042 7.12531 11.8842 7.04897C11.7642 6.97263 11.6252 6.93145 11.4829 6.9301H9.28973L11.2926 0.430641C11.3103 0.377235 11.3139 0.320221 11.3034 0.264994C11.2928 0.209767 11.2683 0.158153 11.2322 0.115037C11.1961 0.0719212 11.1496 0.0387288 11.0971 0.0186009C11.0446 -0.00152694 10.9878 -0.00792441 10.9321 1.38734e-05C10.8838 -0.00157808 10.8358 0.00851541 10.7922 0.0294371C10.7486 0.0503588 10.7107 0.0814907 10.6818 0.120189L5.59435 7.85144C5.5034 7.96309 5.44599 8.09825 5.42879 8.24123C5.41159 8.3842 5.4353 8.52912 5.49717 8.65915C5.55904 8.78919 5.65654 8.899 5.77833 8.97584C5.90012 9.05268 6.04121 9.0934 6.18521 9.09325H8.34836L6.21526 15.5827C6.19766 15.6325 6.19224 15.6857 6.19945 15.738C6.20666 15.7903 6.22628 15.8401 6.25667 15.8832C6.28707 15.9263 6.32736 15.9616 6.37416 15.986C6.42097 16.0103 6.47293 16.0232 6.52571 16.0233V16.0233Z" fill="#2E3436"/>
<path d="M5.07388 15.2121L5.26415 14.6213H5.08389C4.32069 14.6186 3.58965 14.3136 3.05092 13.773C2.5122 13.2324 2.2097 12.5003 2.20971 11.7371V4.27622C2.21235 3.51476 2.51601 2.78523 3.05445 2.24679C3.59289 1.70834 4.32242 1.40468 5.08389 1.40204H8.40873L9.33007 0H5.08389C3.94976 0 2.86209 0.45053 2.06014 1.25248C1.25819 2.05443 0.807665 3.1421 0.807665 4.27622V11.7371C0.80232 12.8651 1.24395 13.9493 2.03594 14.7526C2.82794 15.5559 3.90583 16.0127 5.03382 16.0233C4.9703 15.7546 4.98419 15.4733 5.07388 15.2121V15.2121Z" fill="#2E3436" fill-opacity="0.5"/>
<path d="M12.5546 0H12.4345C12.5096 0.254962 12.5096 0.526176 12.4345 0.781137L12.2542 1.40204H12.5847C13.3409 1.41254 14.0628 1.71967 14.5948 2.25727C15.1267 2.79487 15.4263 3.51991 15.4288 4.27623V11.7371C15.4288 12.5003 15.1263 13.2324 14.5876 13.773C14.0489 14.3136 13.3178 14.6186 12.5546 14.6213H9.10961L8.10815 16.0233H12.5146C13.08 16.0273 13.6406 15.9193 14.1641 15.7057C14.6876 15.4921 15.1636 15.177 15.5648 14.7786C15.966 14.3802 16.2845 13.9063 16.5017 13.3843C16.719 12.8623 16.8309 12.3025 16.8309 11.7371V4.27623C16.8309 3.1421 16.3803 2.05443 15.5784 1.25248C14.7764 0.45053 13.6888 0 12.5546 0V0Z" fill="#2E3436" fill-opacity="0.5"/>
</g>
<defs>
<clipPath id="clip0_231_579">
<rect width="16.0233" height="16.0233" fill="white" transform="translate(0.807617)"/>
</clipPath>
</defs>
</svg>
