<svg width="17" height="17" viewBox="0 0 17 17" fill="none" xmlns="http://www.w3.org/2000/svg">
<g clip-path="url(#clip0_231_621)">
<path d="M11.7472 3.10022H4.27629C3.77961 3.10022 3.30328 3.29752 2.95207 3.64873C2.60087 3.99993 2.40356 4.47627 2.40356 4.97295V12.4438C2.40356 12.9405 2.60087 13.4168 2.95207 13.768C3.30328 14.1192 3.77961 14.3165 4.27629 14.3165H11.7472C12.2438 14.3165 12.7202 14.1192 13.0714 13.768C13.4226 13.4168 13.6199 12.9405 13.6199 12.4438V4.97295C13.6199 4.47627 13.4226 3.99993 13.0714 3.64873C12.7202 3.29752 12.2438 3.10022 11.7472 3.10022Z" fill="#BCF83F"/>
<path d="M11.7471 0.696777H4.27622C3.1421 0.696777 2.05443 1.14731 1.25248 1.94925C0.45053 2.7512 2.08696e-08 3.83888 2.08696e-08 4.973L2.08696e-08 12.4439C-0.000110928 13.5677 0.442161 14.6463 1.23116 15.4466C2.02016 16.2468 3.09246 16.7043 4.21614 16.7201H11.7471C12.8812 16.7201 13.9689 16.2696 14.7708 15.4676C15.5728 14.6657 16.0233 13.578 16.0233 12.4439V4.973C16.0233 3.83888 15.5728 2.7512 14.7708 1.94925C13.9689 1.14731 12.8812 0.696777 11.7471 0.696777V0.696777ZM14.6213 12.4439C14.6186 13.2053 14.315 13.9349 13.7765 14.4733C13.2381 15.0118 12.5086 15.3154 11.7471 15.3181H4.27622C3.51476 15.3154 2.78523 15.0118 2.24679 14.4733C1.70834 13.9349 1.40468 13.2053 1.40204 12.4439V4.973C1.40468 4.21153 1.70834 3.48201 2.24679 2.94356C2.78523 2.40512 3.51476 2.10146 4.27622 2.09882H11.7471C12.5086 2.10146 13.2381 2.40512 13.7765 2.94356C14.315 3.48201 14.6186 4.21153 14.6213 4.973V12.4439Z" fill="#2E3436" fill-opacity="0.5"/>
</g>
<defs>
<clipPath id="clip0_231_621">
<rect width="16.0233" height="16.0233" fill="white" transform="translate(0 0.696777)"/>
</clipPath>
</defs>
</svg>
