<svg width="17" height="17" viewBox="0 0 17 17" fill="none" xmlns="http://www.w3.org/2000/svg">
<g clip-path="url(#clip0_231_561)">
<path d="M14.1504 9.88436V11.7471C14.1535 12.0897 14.0616 12.4264 13.8848 12.7199C13.708 13.0134 13.4533 13.2521 13.1489 13.4095C12.8911 13.5502 12.6015 13.6226 12.3077 13.6198H9.5437L11.096 11.3365L12.7684 8.87289C12.9209 8.67035 13.03 8.43852 13.0889 8.19189C13.4083 8.34406 13.6777 8.58405 13.8657 8.88377C14.0537 9.1835 14.1525 9.53056 14.1504 9.88436Z" fill="#00FF00"/>
<path d="M6.40924 10.2949L5.31765 13.6198H4.80691C4.53276 13.622 4.26186 13.5603 4.01576 13.4395C3.69184 13.2912 3.41754 13.0527 3.22572 12.7526C3.03389 12.4524 2.93267 12.1033 2.93418 11.7471V9.88434C2.93064 9.54297 3.02251 9.20739 3.19946 8.91544C3.3764 8.62348 3.63137 8.38675 3.93564 8.23193C3.91533 8.56021 3.98091 8.88811 4.12592 9.18332C4.28281 9.51763 4.5322 9.8 4.84456 9.997C5.15693 10.194 5.51919 10.2974 5.88848 10.2949H6.40924Z" fill="#00FF00"/>
<path d="M6.24885 16.0233C6.30431 16.0278 6.36 16.0183 6.41077 15.9955C6.46154 15.9728 6.50574 15.9375 6.53928 15.8932L11.7969 8.16189C11.8849 8.05012 11.9398 7.91594 11.9554 7.77455C11.971 7.63317 11.9466 7.49025 11.8851 7.362C11.8236 7.23376 11.7273 7.12531 11.6073 7.04897C11.4873 6.97263 11.3483 6.93145 11.2061 6.9301H9.01288L11.0158 0.430641C11.0334 0.377235 11.0371 0.320221 11.0265 0.264994C11.0159 0.209767 10.9914 0.158153 10.9553 0.115037C10.9192 0.0719212 10.8727 0.0387288 10.8202 0.0186009C10.7677 -0.00152694 10.7109 -0.00792441 10.6553 1.38734e-05C10.6069 -0.00157808 10.559 0.00851541 10.5154 0.0294371C10.4718 0.0503588 10.4339 0.0814907 10.4049 0.120189L5.3175 7.85144C5.22655 7.96309 5.16914 8.09825 5.15193 8.24123C5.13473 8.3842 5.15844 8.52912 5.22032 8.65915C5.28219 8.78919 5.37968 8.899 5.50147 8.97584C5.62326 9.05268 5.76435 9.0934 5.90836 9.09325H8.07151L5.9384 15.5827C5.92081 15.6325 5.91539 15.6857 5.9226 15.738C5.9298 15.7903 5.94942 15.8401 5.97982 15.8832C6.01021 15.9263 6.0505 15.9616 6.09731 15.986C6.14411 16.0103 6.19608 16.0232 6.24885 16.0233Z" fill="#2E3436"/>
<path d="M4.79678 15.2121L4.98705 14.6213H4.80679C4.04359 14.6186 3.31255 14.3136 2.77383 13.773C2.2351 13.2324 1.9326 12.5003 1.93261 11.7371V4.27622C1.93525 3.51476 2.23891 2.78523 2.77735 2.24679C3.31579 1.70834 4.04532 1.40468 4.80679 1.40204H8.13163L9.05297 0H4.80679C3.67267 0 2.58499 0.45053 1.78304 1.25248C0.981095 2.05443 0.530566 3.1421 0.530566 4.27622V11.7371C0.52522 12.8651 0.966849 13.9493 1.75884 14.7526C2.55084 15.5559 3.62873 16.0127 4.75672 16.0233C4.6932 15.7546 4.70709 15.4733 4.79678 15.2121Z" fill="#2E3436" fill-opacity="0.5"/>
<path d="M12.2775 0H12.1574C12.2325 0.254962 12.2325 0.526176 12.1574 0.781137L11.9771 1.40204H12.3076C13.0638 1.41254 13.7857 1.71967 14.3177 2.25727C14.8496 2.79487 15.1492 3.51991 15.1517 4.27623V11.7371C15.1517 12.5003 14.8492 13.2324 14.3105 13.773C13.7718 14.3136 13.0407 14.6186 12.2775 14.6213H8.83251L7.83105 16.0233H12.2375C12.8029 16.0273 13.3635 15.9193 13.887 15.7057C14.4105 15.4921 14.8865 15.177 15.2877 14.7786C15.6889 14.3802 16.0074 13.9063 16.2246 13.3843C16.4419 12.8623 16.5538 12.3025 16.5538 11.7371V4.27623C16.5538 3.1421 16.1032 2.05443 15.3013 1.25248C14.4993 0.45053 13.4117 0 12.2775 0V0Z" fill="#2E3436" fill-opacity="0.5"/>
</g>
<defs>
<clipPath id="clip0_231_561">
<rect width="16.0233" height="16.0233" fill="white" transform="translate(0.530518)"/>
</clipPath>
</defs>
</svg>
