<svg width="17" height="17" viewBox="0 0 17 17" fill="none" xmlns="http://www.w3.org/2000/svg">
<g clip-path="url(#clip0_231_526)">
<path d="M8.34732 11.4767H9.74936C9.89544 11.4767 10.0355 11.4187 10.1388 11.3154C10.2421 11.2121 10.3002 11.072 10.3002 10.9259V9.06319C10.3283 8.84703 10.4112 8.64162 10.5409 8.46638C10.6705 8.29115 10.8428 8.15188 11.0412 8.06174C11.5381 7.80226 11.9783 7.44631 12.3359 7.0147C12.6936 6.58309 12.9616 6.0845 13.1243 5.54808C13.2916 4.98478 13.3459 4.39395 13.2841 3.80959C13.2222 3.22523 13.0454 2.65887 12.7637 2.14312C12.416 1.47582 11.8797 0.925553 11.2215 0.560816C10.5552 0.195613 9.80816 0.00282676 9.04834 0C8.0727 0.00137281 7.12701 0.33711 6.36891 0.951244C5.61081 1.56538 5.08611 2.4208 4.88228 3.37491C4.86704 3.44967 4.8681 3.52684 4.88538 3.60115C4.90266 3.67546 4.93576 3.74518 4.98242 3.80554C5.03824 3.86994 5.10755 3.92127 5.18544 3.95589C5.26332 3.9905 5.34787 4.00755 5.43308 4.00583H6.92525C7.03448 3.99851 7.13891 3.95821 7.22474 3.89026C7.31057 3.82231 7.37376 3.72991 7.40595 3.62528C7.52538 3.32544 7.72664 3.06519 7.9868 2.87418C8.29269 2.63467 8.66985 2.50425 9.05835 2.50364C9.22043 2.50415 9.38184 2.52433 9.53906 2.56373C9.87722 2.66115 10.1785 2.85756 10.404 3.12768C10.6296 3.3978 10.7691 3.72926 10.8047 4.07937C10.8402 4.42948 10.7702 4.78222 10.6035 5.09217C10.4368 5.40211 10.1812 5.65507 9.86954 5.81847C9.25774 6.11472 8.74009 6.57482 8.37412 7.14764C8.00815 7.72046 7.80821 8.38355 7.79652 9.06319V10.9259C7.79652 11.072 7.85455 11.2121 7.95784 11.3154C8.06114 11.4187 8.20124 11.4767 8.34732 11.4767Z" fill="#0000FF"/>
<path d="M9.68917 13.5197H8.28713C7.98293 13.5197 7.73633 13.7663 7.73633 14.0705V15.4725C7.73633 15.7767 7.98293 16.0233 8.28713 16.0233H9.68917C9.99337 16.0233 10.24 15.7767 10.24 15.4725V14.0705C10.24 13.7663 9.99337 13.5197 9.68917 13.5197Z" fill="#0000FF"/>
<path d="M6.2843 15.2222V14.6213H5.28284C4.90324 14.6239 4.52686 14.5516 4.17527 14.4085C3.82368 14.2653 3.50381 14.0542 3.23399 13.7872C2.96418 13.5201 2.74973 13.2025 2.60294 12.8524C2.45616 12.5023 2.37992 12.1267 2.37862 11.7471V4.27622C2.38092 3.70738 2.55138 3.15192 2.86857 2.67971C3.18575 2.2075 3.63549 1.83963 4.16121 1.62236C4.52123 1.00038 4.99318 0.450343 5.55324 0L5.61332 0H5.2528C4.11867 0 3.031 0.45053 2.22905 1.25248C1.4271 2.05443 0.976575 3.1421 0.976575 4.27622V11.7471C0.973858 12.8717 1.41528 13.9518 2.20484 14.7527C2.99439 15.5535 4.06821 16.0101 5.19271 16.0233H6.45455C6.34322 15.7708 6.28526 15.4981 6.2843 15.2222Z" fill="#2E3436" fill-opacity="0.5"/>
<path d="M12.7235 0H12.5632C13.1754 0.4609 13.681 1.04843 14.0454 1.72251C14.5127 1.9658 14.9044 2.33245 15.1781 2.78264C15.4517 3.23284 15.5968 3.74939 15.5976 4.27622V11.7471C15.595 12.5086 15.2913 13.2381 14.7529 13.7765C14.2145 14.315 13.4849 14.6186 12.7235 14.6213H11.722V15.2222C11.721 15.4981 11.6631 15.7708 11.5518 16.0233H12.7535C13.8824 16.0154 14.9624 15.5614 15.7579 14.7603C16.5533 13.9592 16.9997 12.876 16.9997 11.7471V4.27622C16.9997 3.1421 16.5492 2.05443 15.7472 1.25248C14.9453 0.45053 13.8576 0 12.7235 0V0Z" fill="#2E3436" fill-opacity="0.5"/>
</g>
<defs>
<clipPath id="clip0_231_526">
<rect width="16.0233" height="16.0233" fill="white" transform="translate(0.976562)"/>
</clipPath>
</defs>
</svg>
