<svg width="17" height="17" viewBox="0 0 17 17" fill="none" xmlns="http://www.w3.org/2000/svg">
<g clip-path="url(#clip0_231_549)">
<path d="M12.6392 0.696777H5.16831C4.03419 0.696777 2.94651 1.14731 2.14457 1.94925C1.34262 2.7512 0.89209 3.83888 0.89209 4.973L0.89209 12.4439C0.891979 13.5677 1.33425 14.6463 2.12325 15.4466C2.91225 16.2468 3.98455 16.7043 5.10823 16.7201H12.6392C13.7733 16.7201 14.861 16.2696 15.6629 15.4676C16.4649 14.6657 16.9154 13.578 16.9154 12.4439V4.973C16.9154 3.83888 16.4649 2.7512 15.6629 1.94925C14.861 1.14731 13.7733 0.696777 12.6392 0.696777V0.696777ZM15.5134 12.4439C15.5107 13.2053 15.2071 13.9349 14.6686 14.4733C14.1302 15.0118 13.4007 15.3154 12.6392 15.3181H5.16831C4.40685 15.3154 3.67732 15.0118 3.13888 14.4733C2.60043 13.9349 2.29677 13.2053 2.29413 12.4439V4.973C2.29677 4.21153 2.60043 3.48201 3.13888 2.94356C3.67732 2.40512 4.40685 2.10146 5.16831 2.09882H12.6392C13.4007 2.10146 14.1302 2.40512 14.6686 2.94356C15.2071 3.48201 15.5107 4.21153 15.5134 4.973V12.4439Z" fill="#2E3436" fill-opacity="0.5"/>
<path d="M13.9111 11.823H3.89654C3.73186 11.823 3.57394 11.8884 3.45749 12.0049C3.34105 12.1213 3.27563 12.2792 3.27563 12.4439C3.27562 12.6915 3.32472 12.9367 3.42008 13.1652C3.51544 13.3937 3.65518 13.6011 3.83121 13.7753C4.00723 13.9494 4.21605 14.0869 4.44558 14.1799C4.6751 14.2728 4.92078 14.3193 5.16839 14.3166H12.6393C13.1359 14.3166 13.6123 14.1193 13.9635 13.7681C14.3147 13.4169 14.512 12.9406 14.512 12.4439C14.5121 12.2826 14.4494 12.1277 14.3373 12.0118C14.2251 11.8959 14.0723 11.8282 13.9111 11.823Z" fill="#0000FF"/>
</g>
<defs>
<clipPath id="clip0_231_549">
<rect width="16.0233" height="16.0233" fill="white" transform="translate(0.89209 0.696777)"/>
</clipPath>
</defs>
</svg>
