<svg width="17" height="17" viewBox="0 0 17 17" fill="none" xmlns="http://www.w3.org/2000/svg">
<g clip-path="url(#clip0_231_576)">
<path d="M12.5548 8.88867H5.08391C4.83798 8.88867 4.59446 8.93711 4.36725 9.03122C4.14004 9.12534 3.93359 9.26328 3.75969 9.43718C3.40849 9.78839 3.21118 10.2647 3.21118 10.7614V12.4438C3.21118 12.9405 3.40849 13.4169 3.75969 13.7681C4.11089 14.1193 4.58723 14.3166 5.08391 14.3166H12.5548C13.0515 14.3166 13.5278 14.1193 13.879 13.7681C14.2302 13.4169 14.4275 12.9405 14.4275 12.4438V10.7614C14.4275 10.5155 14.3791 10.2719 14.285 10.0447C14.1908 9.81753 14.0529 9.61108 13.879 9.43718C13.7051 9.26328 13.4987 9.12534 13.2714 9.03122C13.0442 8.93711 12.8007 8.88867 12.5548 8.88867Z" fill="#BCF83F"/>
<path d="M12.5547 0.696777H5.08384C3.94972 0.696777 2.86204 1.14731 2.06009 1.94925C1.25815 2.7512 0.807617 3.83888 0.807617 4.973L0.807617 12.4439C0.807506 13.5677 1.24978 14.6463 2.03878 15.4466C2.82777 16.2468 3.90007 16.7043 5.02375 16.7201H12.5547C13.6888 16.7201 14.7765 16.2696 15.5785 15.4676C16.3804 14.6657 16.8309 13.578 16.8309 12.4439V4.973C16.8309 3.83888 16.3804 2.7512 15.5785 1.94925C14.7765 1.14731 13.6888 0.696777 12.5547 0.696777V0.696777ZM15.4289 12.4439C15.4263 13.2053 15.1226 13.9349 14.5842 14.4733C14.0457 15.0118 13.3162 15.3154 12.5547 15.3181H5.08384C4.32237 15.3154 3.59285 15.0118 3.0544 14.4733C2.51596 13.9349 2.2123 13.2053 2.20966 12.4439V4.973C2.2123 4.21153 2.51596 3.48201 3.0544 2.94356C3.59285 2.40512 4.32237 2.10146 5.08384 2.09882H12.5547C13.3162 2.10146 14.0457 2.40512 14.5842 2.94356C15.1226 3.48201 15.4263 4.21153 15.4289 4.973V12.4439Z" fill="#2E3436" fill-opacity="0.5"/>
</g>
<defs>
<clipPath id="clip0_231_576">
<rect width="16.0233" height="16.0233" fill="white" transform="translate(0.807617 0.696777)"/>
</clipPath>
</defs>
</svg>
