<svg width="17" height="17" viewBox="0 0 17 17" fill="none" xmlns="http://www.w3.org/2000/svg">
<g clip-path="url(#clip0_231_594)">
<path d="M11.8314 5.56384H4.36052C3.86384 5.56384 3.38751 5.76115 3.0363 6.11235C2.6851 6.46356 2.48779 6.93989 2.48779 7.43657V12.4439C2.48779 12.9405 2.6851 13.4169 3.0363 13.7681C3.38751 14.1193 3.86384 14.3166 4.36052 14.3166H11.8314C12.3281 14.3166 12.8044 14.1193 13.1556 13.7681C13.5068 13.4169 13.7041 12.9405 13.7041 12.4439V7.43657C13.7041 6.93989 13.5068 6.46356 13.1556 6.11235C12.8044 5.76115 12.3281 5.56384 11.8314 5.56384V5.56384Z" fill="#BCF83F"/>
<path d="M11.8316 0.696777H4.3607C3.22657 0.696777 2.1389 1.14731 1.33695 1.94925C0.535002 2.7512 0.0844727 3.83888 0.0844727 4.973L0.0844727 12.4439C0.0843617 13.5677 0.526634 14.6463 1.31563 15.4466C2.10463 16.2468 3.17693 16.7043 4.30061 16.7201H11.8316C12.9657 16.7201 14.0534 16.2696 14.8553 15.4676C15.6573 14.6657 16.1078 13.578 16.1078 12.4439V4.973C16.1078 3.83888 15.6573 2.7512 14.8553 1.94925C14.0534 1.14731 12.9657 0.696777 11.8316 0.696777V0.696777ZM14.7058 12.4439C14.7031 13.2053 14.3995 13.9349 13.861 14.4733C13.3226 15.0118 12.593 15.3154 11.8316 15.3181H4.3607C3.59923 15.3154 2.8697 15.0118 2.33126 14.4733C1.79282 13.9349 1.48915 13.2053 1.48651 12.4439V4.973C1.48915 4.21153 1.79282 3.48201 2.33126 2.94356C2.8697 2.40512 3.59923 2.10146 4.3607 2.09882H11.8316C12.593 2.10146 13.3226 2.40512 13.861 2.94356C14.3995 3.48201 14.7031 4.21153 14.7058 4.973V12.4439Z" fill="#2E3436" fill-opacity="0.5"/>
</g>
<defs>
<clipPath id="clip0_231_594">
<rect width="16.0233" height="16.0233" fill="white" transform="translate(0.0844727 0.696777)"/>
</clipPath>
</defs>
</svg>
