<svg width="17" height="17" viewBox="0 0 17 17" fill="none" xmlns="http://www.w3.org/2000/svg">
<g clip-path="url(#clip0_231_588)">
<path d="M14.0659 6.73981V11.7471C14.0659 12.2438 13.8686 12.7201 13.5174 13.0713C13.1662 13.4225 12.6899 13.6198 12.1932 13.6198H9.45923L12.6439 8.92298V8.87291C12.8511 8.58644 12.9787 8.25023 13.0139 7.89844C13.0491 7.54665 12.9905 7.19182 12.8442 6.87C12.7016 6.56669 12.4826 6.30566 12.2087 6.11253C11.9348 5.9194 11.6154 5.80081 11.2819 5.76839L11.5423 4.89712H12.1832C12.6764 4.89442 13.1508 5.08643 13.5034 5.43144C13.8559 5.77646 14.058 6.24661 14.0659 6.73981V6.73981Z" fill="#BCF83F"/>
<path d="M6.32467 10.295L5.5235 12.7385L5.23308 13.6198H4.72234C4.22566 13.6198 3.74932 13.4225 3.39812 13.0713C3.04691 12.7201 2.84961 12.2438 2.84961 11.7471V6.73979C2.84961 6.24311 3.04691 5.76678 3.39812 5.41557C3.74932 5.06437 4.22566 4.86707 4.72234 4.86707H5.72379L4.25165 7.1604C4.04014 7.44509 3.91059 7.78224 3.87705 8.13531C3.84351 8.48838 3.90725 8.8439 4.06137 9.16332C4.1202 9.29712 4.19776 9.42189 4.29171 9.53386C4.47412 9.76557 4.70688 9.95272 4.97235 10.0811C5.23783 10.2095 5.52905 10.2758 5.82394 10.2749L6.32467 10.295Z" fill="#BCF83F"/>
<path d="M6.16438 16.0233C6.21983 16.0278 6.27553 16.0182 6.3263 15.9954C6.37707 15.9727 6.42127 15.9375 6.4548 15.8931L11.7125 8.17184C11.8034 8.0602 11.8608 7.92504 11.878 7.78206C11.8952 7.63909 11.8715 7.49417 11.8096 7.36413C11.7478 7.2341 11.6503 7.12428 11.5285 7.04744C11.4067 6.9706 11.2656 6.92989 11.1216 6.93004H8.9284L10.9313 0.440591C10.9512 0.386626 10.9566 0.328421 10.947 0.271724C10.9375 0.215027 10.9133 0.1618 10.8769 0.117302C10.8405 0.0728035 10.7931 0.0385733 10.7394 0.0179926C10.6857 -0.00258815 10.6276 -0.00880732 10.5708 -5.05425e-05C10.5217 0.000328443 10.4735 0.0123243 10.43 0.0349539C10.3864 0.0575836 10.3489 0.090203 10.3204 0.130139L5.23302 7.85138C5.14207 7.96303 5.08466 8.09819 5.06746 8.24116C5.05026 8.38413 5.07397 8.52905 5.13584 8.65909C5.19771 8.78912 5.29521 8.89894 5.417 8.97578C5.53879 9.05262 5.67988 9.09333 5.82388 9.09319H7.98703L5.85393 15.5826C5.83634 15.6324 5.83092 15.6856 5.83812 15.7379C5.84533 15.7902 5.86495 15.84 5.89535 15.8831C5.92574 15.9263 5.96603 15.9615 6.01283 15.9859C6.05964 16.0103 6.11161 16.0231 6.16438 16.0233V16.0233Z" fill="#2E3436"/>
<path d="M4.71227 15.2121L4.90254 14.6213H4.72228C3.96081 14.6186 3.23129 14.315 2.69284 13.7765C2.1544 13.2381 1.85074 12.5086 1.8481 11.7471V4.27622C1.85074 3.51476 2.1544 2.78523 2.69284 2.24679C3.23129 1.70834 3.96081 1.40468 4.72228 1.40204H8.04712L8.96846 0H4.72228C3.58816 0 2.50048 0.45053 1.69853 1.25248C0.896587 2.05443 0.446057 3.1421 0.446057 4.27622V11.7471C0.443364 12.8734 0.886166 13.9551 1.67788 14.7562C2.46959 15.5572 3.54596 16.0128 4.67221 16.0233C4.60869 15.7546 4.62258 15.4733 4.71227 15.2121V15.2121Z" fill="#2E3436" fill-opacity="0.5"/>
<path d="M12.1931 0H12.0729C12.148 0.254961 12.148 0.526176 12.0729 0.781137L11.8926 1.40204H12.2231C12.9793 1.41254 13.7012 1.71967 14.2332 2.25727C14.7652 2.79487 15.0647 3.51991 15.0672 4.27622V11.7471C15.0646 12.5086 14.7609 13.2381 14.2225 13.7765C13.6841 14.315 12.9545 14.6186 12.1931 14.6213H8.74804L7.74658 16.0233H12.153C12.7179 16.0286 13.2783 15.9219 13.8017 15.7094C14.3252 15.4969 14.8013 15.1827 15.2027 14.7851C15.604 14.3875 15.9226 13.9143 16.14 13.3928C16.3574 12.8714 16.4693 12.312 16.4693 11.7471V4.27622C16.4693 3.1421 16.0187 2.05443 15.2168 1.25248C14.4149 0.45053 13.3272 0 12.1931 0V0Z" fill="#2E3436" fill-opacity="0.5"/>
</g>
<defs>
<clipPath id="clip0_231_588">
<rect width="16.0233" height="16.0233" fill="white" transform="translate(0.446045)"/>
</clipPath>
</defs>
</svg>
