<svg width="17" height="17" viewBox="0 0 17 17" fill="none" xmlns="http://www.w3.org/2000/svg">
<g clip-path="url(#clip0_231_597)">
<path d="M13.7044 6.73981V11.7471C13.7044 12.2438 13.5071 12.7201 13.1559 13.0713C12.8046 13.4225 12.3283 13.6198 11.8316 13.6198H9.09766L12.2823 8.92298V8.87291C12.4895 8.58644 12.6171 8.25023 12.6523 7.89844C12.6875 7.54665 12.6289 7.19182 12.4826 6.87C12.34 6.56669 12.1211 6.30566 11.8472 6.11253C11.5733 5.9194 11.2539 5.80081 10.9203 5.76839L11.1807 4.89712H11.8216C12.3149 4.89442 12.7893 5.08643 13.1418 5.43144C13.4943 5.77646 13.6965 6.24661 13.7044 6.73981V6.73981Z" fill="#BCF83F"/>
<path d="M5.96285 10.295L5.16169 12.7385L4.87126 13.6198H4.36052C3.86384 13.6198 3.38751 13.4225 3.0363 13.0713C2.6851 12.7201 2.48779 12.2438 2.48779 11.7471V6.73979C2.48779 6.24311 2.6851 5.76678 3.0363 5.41557C3.38751 5.06437 3.86384 4.86707 4.36052 4.86707H5.36198L3.88983 7.1604C3.67832 7.44509 3.54878 7.78224 3.51524 8.13531C3.48169 8.48838 3.54544 8.8439 3.69956 9.16332C3.75839 9.29712 3.83594 9.42189 3.92989 9.53386C4.1123 9.76557 4.34506 9.95272 4.61054 10.0811C4.87601 10.2095 5.16723 10.2758 5.46212 10.2749L5.96285 10.295Z" fill="#BCF83F"/>
<path d="M5.80281 16.0233C5.85826 16.0278 5.91396 16.0182 5.96472 15.9954C6.01549 15.9727 6.05969 15.9375 6.09323 15.8931L11.3509 8.17184C11.4418 8.0602 11.4992 7.92504 11.5164 7.78206C11.5336 7.63909 11.5099 7.49417 11.4481 7.36413C11.3862 7.2341 11.2887 7.12428 11.1669 7.04744C11.0451 6.9706 10.904 6.92989 10.76 6.93004H8.56683L10.5697 0.440591C10.5896 0.386626 10.595 0.328421 10.5855 0.271724C10.5759 0.215027 10.5517 0.1618 10.5153 0.117302C10.4789 0.0728035 10.4315 0.0385733 10.3779 0.0179926C10.3242 -0.00258815 10.266 -0.00880732 10.2092 -5.05425e-05C10.1602 0.000328443 10.1119 0.0123243 10.0684 0.0349539C10.0249 0.0575836 9.98734 0.090203 9.95886 0.130139L4.87145 7.85138C4.7805 7.96303 4.72309 8.09819 4.70589 8.24116C4.68869 8.38413 4.7124 8.52905 4.77427 8.65909C4.83614 8.78912 4.93364 8.89894 5.05543 8.97578C5.17722 9.05262 5.31831 9.09333 5.46231 9.09319H7.62546L5.49236 15.5826C5.47476 15.6324 5.46934 15.6856 5.47655 15.7379C5.48376 15.7902 5.50338 15.84 5.53377 15.8831C5.56417 15.9263 5.60446 15.9615 5.65126 15.9859C5.69807 16.0103 5.75003 16.0231 5.80281 16.0233V16.0233Z" fill="#2E3436"/>
<path d="M4.3507 15.2121L4.54097 14.6213H4.36071C3.59924 14.6186 2.86971 14.315 2.33127 13.7765C1.79283 13.2381 1.48917 12.5086 1.48653 11.7471V4.27622C1.48917 3.51476 1.79283 2.78523 2.33127 2.24679C2.86971 1.70834 3.59924 1.40468 4.36071 1.40204H7.68555L8.60689 0H4.36071C3.22658 0 2.13891 0.45053 1.33696 1.25248C0.535014 2.05443 0.0844849 3.1421 0.0844849 4.27622V11.7471C0.0817914 12.8734 0.524593 13.9551 1.3163 14.7562C2.10801 15.5572 3.18439 16.0128 4.31064 16.0233C4.24712 15.7546 4.26101 15.4733 4.3507 15.2121V15.2121Z" fill="#2E3436" fill-opacity="0.5"/>
<path d="M11.8317 0H11.7116C11.7867 0.254961 11.7867 0.526176 11.7116 0.781137L11.5313 1.40204H11.8618C12.618 1.41254 13.3399 1.71967 13.8719 2.25727C14.4038 2.79487 14.7034 3.51991 14.7059 4.27622V11.7471C14.7033 12.5086 14.3996 13.2381 13.8612 13.7765C13.3227 14.315 12.5932 14.6186 11.8317 14.6213H8.38671L7.38525 16.0233H11.7917C12.3566 16.0286 12.917 15.9219 13.4404 15.7094C13.9639 15.4969 14.44 15.1827 14.8413 14.7851C15.2427 14.3875 15.5613 13.9143 15.7787 13.3928C15.9961 12.8714 16.108 12.312 16.108 11.7471V4.27622C16.108 3.1421 15.6574 2.05443 14.8555 1.25248C14.0535 0.45053 12.9659 0 11.8317 0V0Z" fill="#2E3436" fill-opacity="0.5"/>
</g>
<defs>
<clipPath id="clip0_231_597">
<rect width="16.0233" height="16.0233" fill="white" transform="translate(0.0844727)"/>
</clipPath>
</defs>
</svg>
