<svg width="17" height="17" viewBox="0 0 17 17" fill="none" xmlns="http://www.w3.org/2000/svg">
<g clip-path="url(#clip0_231_552)">
<path d="M6.50032 11.1262L5.67912 13.6199H5.16838C4.6717 13.6199 4.19537 13.4225 3.84416 13.0713C3.49296 12.7201 3.29565 12.2438 3.29565 11.7471C3.29557 11.5859 3.35823 11.4309 3.47038 11.315C3.58252 11.1991 3.73535 11.1314 3.89653 11.1262H6.50032Z" fill="#0000FF"/>
<path d="M14.512 11.7471C14.512 12.2438 14.3147 12.7201 13.9635 13.0713C13.6123 13.4225 13.1359 13.6199 12.6393 13.6199H9.90527L11.5977 11.1262H13.9111C14.0723 11.1314 14.2251 11.1991 14.3373 11.315C14.4494 11.4309 14.5121 11.5859 14.512 11.7471V11.7471Z" fill="#0000FF"/>
<path d="M6.61043 16.0233C6.66588 16.0278 6.72157 16.0182 6.77234 15.9954C6.82311 15.9727 6.86731 15.9375 6.90085 15.8931L12.1585 8.17184C12.2495 8.0602 12.3069 7.92504 12.3241 7.78206C12.3413 7.63909 12.3176 7.49417 12.2557 7.36413C12.1938 7.2341 12.0963 7.12428 11.9745 7.04744C11.8527 6.9706 11.7116 6.92989 11.5676 6.93004H9.37445L11.3774 0.440591C11.3972 0.386626 11.4026 0.328421 11.3931 0.271724C11.3835 0.215027 11.3594 0.1618 11.323 0.117302C11.2865 0.0728035 11.2392 0.0385733 11.1855 0.0179926C11.1318 -0.00258815 11.0737 -0.00880732 11.0168 -5.05425e-05C10.9678 0.000328443 10.9195 0.0123243 10.876 0.0349539C10.8325 0.0575836 10.795 0.090203 10.7665 0.130139L5.67907 7.85138C5.58812 7.96303 5.53071 8.09819 5.51351 8.24116C5.4963 8.38413 5.52002 8.52905 5.58189 8.65909C5.64376 8.78912 5.74125 8.89894 5.86304 8.97578C5.98483 9.05262 6.12592 9.09333 6.26993 9.09319H8.43308L6.29997 15.5826C6.28238 15.6324 6.27696 15.6856 6.28417 15.7379C6.29137 15.7902 6.31099 15.84 6.34139 15.8831C6.37179 15.9263 6.41207 15.9615 6.45888 15.9859C6.50569 16.0103 6.55765 16.0231 6.61043 16.0233V16.0233Z" fill="#2E3436"/>
<path d="M5.15831 15.2121L5.34859 14.6213H5.16833C4.40686 14.6186 3.67733 14.315 3.13889 13.7765C2.60044 13.2381 2.29678 12.5086 2.29414 11.7471V4.27622C2.29678 3.51476 2.60044 2.78523 3.13889 2.24679C3.67733 1.70834 4.40686 1.40468 5.16833 1.40204H8.49317L9.41451 0H5.16833C4.0342 0 2.94653 0.45053 2.14458 1.25248C1.34263 2.05443 0.892102 3.1421 0.892102 4.27622V11.7471C0.889409 12.8734 1.33221 13.9551 2.12392 14.7562C2.91563 15.5572 3.992 16.0128 5.11825 16.0233C5.05473 15.7546 5.06862 15.4733 5.15831 15.2121V15.2121Z" fill="#2E3436" fill-opacity="0.5"/>
<path d="M12.6391 0H12.5189C12.594 0.254961 12.594 0.526176 12.5189 0.781137L12.3387 1.40204H12.6691C13.4254 1.41254 14.1472 1.71967 14.6792 2.25727C15.2112 2.79487 15.5107 3.51991 15.5133 4.27622V11.7471C15.5106 12.5086 15.207 13.2381 14.6685 13.7765C14.1301 14.315 13.4006 14.6186 12.6391 14.6213H9.19408L8.19263 16.0233H12.599C13.164 16.0286 13.7243 15.9219 14.2478 15.7094C14.7712 15.4969 15.2474 15.1827 15.6487 14.7851C16.0501 14.3875 16.3686 13.9143 16.586 13.3928C16.8034 12.8714 16.9153 12.312 16.9153 11.7471V4.27622C16.9153 3.1421 16.4648 2.05443 15.6628 1.25248C14.8609 0.45053 13.7732 0 12.6391 0V0Z" fill="#2E3436" fill-opacity="0.5"/>
</g>
<defs>
<clipPath id="clip0_231_552">
<rect width="16.0233" height="16.0233" fill="white" transform="translate(0.89209)"/>
</clipPath>
</defs>
</svg>
