<svg width="17" height="17" viewBox="0 0 17 17" fill="none" xmlns="http://www.w3.org/2000/svg">
<g clip-path="url(#clip0_231_615)">
<path d="M5.14836 13.6199L6.23995 10.2951H5.73922C5.38143 10.2809 5.03397 10.1711 4.73303 9.97702C4.43209 9.78297 4.18868 9.51179 4.02813 9.19172C3.86758 8.87165 3.79578 8.5144 3.82019 8.15715C3.8446 7.79991 3.96434 7.45574 4.16693 7.16049L7.3015 2.40356H4.63762C4.14094 2.40356 3.66461 2.60087 3.3134 2.95207C2.9622 3.30328 2.76489 3.77961 2.76489 4.27629V11.7472C2.76489 12.2438 2.9622 12.7202 3.3134 13.0714C3.66461 13.4226 4.14094 13.6199 4.63762 13.6199H5.14836Z" fill="#BCF83F"/>
<path d="M12.1085 2.40356H11.4676L10.4661 5.7284H11.0069C11.3762 5.72594 11.7384 5.82934 12.0508 6.02634C12.3632 6.22334 12.6126 6.50571 12.7695 6.84002C12.9158 7.16185 12.9744 7.51668 12.9392 7.86847C12.904 8.22025 12.7763 8.55646 12.5692 8.84294L9.37451 13.6199H12.1385C12.6352 13.6199 13.1115 13.4226 13.4628 13.0714C13.814 12.7202 14.0113 12.2438 14.0113 11.7472V4.27629C14.0113 4.02781 13.9619 3.78181 13.8659 3.55262C13.7699 3.32343 13.6293 3.11563 13.4522 2.94133C13.2751 2.76704 13.0651 2.62972 12.8344 2.5374C12.6037 2.44507 12.3569 2.39958 12.1085 2.40356Z" fill="#BCF83F"/>
<path d="M6.07991 16.0233C6.13536 16.0278 6.19105 16.0182 6.24182 15.9954C6.29259 15.9727 6.33679 15.9375 6.37033 15.8931L11.628 8.17184C11.7189 8.0602 11.7763 7.92504 11.7935 7.78206C11.8107 7.63909 11.787 7.49417 11.7252 7.36413C11.6633 7.2341 11.5658 7.12428 11.444 7.04744C11.3222 6.9706 11.1811 6.92989 11.0371 6.93004H8.84393L10.8468 0.440591C10.8667 0.386626 10.8721 0.328421 10.8626 0.271724C10.853 0.215027 10.8288 0.1618 10.7924 0.117302C10.756 0.0728035 10.7086 0.0385733 10.655 0.0179926C10.6013 -0.00258815 10.5431 -0.00880732 10.4863 -5.05426e-05C10.4373 0.000328443 10.389 0.0123243 10.3455 0.0349539C10.302 0.0575836 10.2644 0.090203 10.236 0.130139L5.14855 7.85138C5.0576 7.96303 5.00019 8.09819 4.98299 8.24116C4.96579 8.38413 4.9895 8.52905 5.05137 8.65909C5.11324 8.78912 5.21074 8.89894 5.33253 8.97578C5.45432 9.05262 5.59541 9.09333 5.73941 9.09319H7.90256L5.76946 15.5826C5.75186 15.6324 5.74644 15.6856 5.75365 15.7379C5.76086 15.7902 5.78048 15.84 5.81087 15.8831C5.84127 15.9263 5.88156 15.9615 5.92836 15.9859C5.97517 16.0103 6.02713 16.0231 6.07991 16.0233Z" fill="#2E3436"/>
<path d="M4.62755 15.2121L4.81783 14.6213H4.63756C3.8761 14.6186 3.14657 14.315 2.60813 13.7765C2.06968 13.2381 1.76602 12.5086 1.76338 11.7471V4.27622C1.76602 3.51476 2.06968 2.78523 2.60813 2.24679C3.14657 1.70834 3.8761 1.40468 4.63756 1.40204H7.9624L8.88375 0H4.63756C3.50344 0 2.41577 0.45053 1.61382 1.25248C0.81187 2.05443 0.36134 3.1421 0.36134 4.27622V11.7471C0.358647 12.8734 0.801449 13.9551 1.59316 14.7562C2.38487 15.5572 3.46124 16.0128 4.58749 16.0233C4.52397 15.7546 4.53786 15.4733 4.62755 15.2121Z" fill="#2E3436" fill-opacity="0.5"/>
<path d="M12.1086 0H11.9884C12.0635 0.254961 12.0635 0.526176 11.9884 0.781137L11.8081 1.40204H12.1386C12.8949 1.41254 13.6167 1.71967 14.1487 2.25727C14.6807 2.79487 14.9802 3.51991 14.9828 4.27622V11.7471C14.9801 12.5086 14.6765 13.2381 14.138 13.7765C13.5996 14.315 12.8701 14.6186 12.1086 14.6213H8.66357L7.66211 16.0233H12.0685C12.6334 16.0286 13.1938 15.9219 13.7173 15.7094C14.2407 15.4969 14.7169 15.1827 15.1182 14.7851C15.5195 14.3875 15.8381 13.9143 16.0555 13.3928C16.2729 12.8714 16.3848 12.312 16.3848 11.7471V4.27622C16.3848 3.1421 15.9343 2.05443 15.1323 1.25248C14.3304 0.45053 13.2427 0 12.1086 0V0Z" fill="#2E3436" fill-opacity="0.5"/>
</g>
<defs>
<clipPath id="clip0_231_615">
<rect width="16.0233" height="16.0233" fill="white" transform="translate(0.361328)"/>
</clipPath>
</defs>
</svg>
