<svg width="17" height="17" viewBox="0 0 17 17" fill="none" xmlns="http://www.w3.org/2000/svg">
<g clip-path="url(#clip0_231_570)">
<path d="M13.7888 9.88436V11.7471C13.7919 12.0897 13.7 12.4264 13.5232 12.7199C13.3464 13.0134 13.0917 13.2521 12.7874 13.4095C12.5295 13.5502 12.2399 13.6226 11.9462 13.6198H9.18213L10.7344 11.3365L12.4068 8.87289C12.5594 8.67035 12.6685 8.43852 12.7273 8.19189C13.0467 8.34406 13.3162 8.58405 13.5042 8.88377C13.6921 9.1835 13.7909 9.53056 13.7888 9.88436V9.88436Z" fill="#BCF83F"/>
<path d="M6.04742 10.2949L4.95583 13.6198H4.44509C4.17094 13.622 3.90005 13.5603 3.65394 13.4395C3.33003 13.2912 3.05573 13.0527 2.8639 12.7526C2.67207 12.4524 2.57085 12.1033 2.57236 11.7471V9.88434C2.56882 9.54297 2.6607 9.20739 2.83764 8.91544C3.01458 8.62348 3.26956 8.38675 3.57382 8.23193C3.55351 8.56021 3.61909 8.88811 3.7641 9.18332C3.921 9.51763 4.17038 9.8 4.48275 9.997C4.79511 10.194 5.15737 10.2974 5.52667 10.2949H6.04742Z" fill="#BCF83F"/>
<path d="M5.88728 16.0233C5.94274 16.0278 5.99843 16.0183 6.0492 15.9955C6.09997 15.9728 6.14417 15.9375 6.1777 15.8932L11.4354 8.1619C11.5233 8.05012 11.5782 7.91594 11.5938 7.77455C11.6094 7.63317 11.585 7.49025 11.5235 7.362C11.462 7.23375 11.3658 7.12531 11.2458 7.04897C11.1257 6.97263 10.9867 6.93145 10.8445 6.9301H8.65131L10.6542 0.430641C10.6718 0.377235 10.6755 0.320221 10.6649 0.264994C10.6543 0.209767 10.6298 0.158153 10.5937 0.115037C10.5577 0.0719212 10.5112 0.0387288 10.4586 0.0186009C10.4061 -0.00152694 10.3494 -0.00792441 10.2937 1.38734e-05C10.2454 -0.00157808 10.1974 0.00851541 10.1538 0.0294371C10.1102 0.0503588 10.0723 0.0814907 10.0433 0.120189L4.95593 7.85144C4.86497 7.96309 4.80756 8.09825 4.79036 8.24123C4.77316 8.3842 4.79687 8.52912 4.85874 8.65915C4.92062 8.78919 5.01811 8.899 5.1399 8.97584C5.26169 9.05268 5.40278 9.0934 5.54679 9.09325H7.70993L5.57683 15.5827C5.55924 15.6325 5.55382 15.6857 5.56102 15.738C5.56823 15.7903 5.58785 15.8401 5.61825 15.8832C5.64864 15.9263 5.68893 15.9616 5.73574 15.986C5.78254 16.0103 5.83451 16.0232 5.88728 16.0233V16.0233Z" fill="#2E3436"/>
<path d="M4.4352 15.2121L4.62548 14.6213H4.44522C3.68202 14.6186 2.95098 14.3136 2.41225 13.773C1.87352 13.2324 1.57103 12.5003 1.57103 11.7371V4.27622C1.57367 3.51476 1.87734 2.78523 2.41578 2.24679C2.95422 1.70834 3.68375 1.40468 4.44522 1.40204H7.77006L8.6914 0H4.44522C3.31109 0 2.22342 0.45053 1.42147 1.25248C0.619523 2.05443 0.168993 3.1421 0.168993 4.27622V11.7371C0.163648 12.8651 0.605276 13.9493 1.39727 14.7526C2.18927 15.5559 3.26715 16.0127 4.39515 16.0233C4.33163 15.7546 4.34551 15.4733 4.4352 15.2121V15.2121Z" fill="#2E3436" fill-opacity="0.5"/>
<path d="M11.9162 0H11.796C11.8711 0.254962 11.8711 0.526176 11.796 0.781137L11.6158 1.40204H11.9462C12.7025 1.41254 13.4243 1.71967 13.9563 2.25727C14.4883 2.79487 14.7878 3.51991 14.7904 4.27623V11.7371C14.7904 12.5003 14.4879 13.2324 13.9492 13.773C13.4104 14.3136 12.6794 14.6186 11.9162 14.6213H8.47118L7.46973 16.0233H11.8761C12.4415 16.0273 13.0021 15.9193 13.5256 15.7057C14.0491 15.4921 14.5252 15.177 14.9264 14.7786C15.3276 14.3802 15.646 13.9063 15.8633 13.3843C16.0806 12.8623 16.1924 12.3025 16.1924 11.7371V4.27623C16.1924 3.1421 15.7419 2.05443 14.9399 1.25248C14.138 0.45053 13.0503 0 11.9162 0V0Z" fill="#2E3436" fill-opacity="0.5"/>
</g>
<defs>
<clipPath id="clip0_231_570">
<rect width="16.0233" height="16.0233" fill="white" transform="translate(0.168945)"/>
</clipPath>
</defs>
</svg>
