<svg width="17" height="17" viewBox="0 0 17 17" fill="none" xmlns="http://www.w3.org/2000/svg">
<g clip-path="url(#clip0_231_612)">
<path d="M12.1085 3.10022H4.63762C4.14094 3.10022 3.66461 3.29752 3.3134 3.64873C2.9622 3.99993 2.76489 4.47627 2.76489 4.97295V12.4438C2.76489 12.9405 2.9622 13.4168 3.3134 13.768C3.66461 14.1192 4.14094 14.3165 4.63762 14.3165H12.1085C12.6052 14.3165 13.0815 14.1192 13.4327 13.768C13.7839 13.4168 13.9812 12.9405 13.9812 12.4438V4.97295C13.9812 4.47627 13.7839 3.99993 13.4327 3.64873C13.0815 3.29752 12.6052 3.10022 12.1085 3.10022V3.10022Z" fill="#BCF83F"/>
<path d="M12.1084 0.696777H4.63755C3.50343 0.696777 2.41575 1.14731 1.61381 1.94925C0.811858 2.7512 0.361328 3.83888 0.361328 4.973L0.361328 12.4439C0.361217 13.5677 0.803489 14.6463 1.59249 15.4466C2.38149 16.2468 3.45379 16.7043 4.57747 16.7201H12.1084C13.2426 16.7201 14.3302 16.2696 15.1322 15.4676C15.9341 14.6657 16.3847 13.578 16.3847 12.4439V4.973C16.3847 3.83888 15.9341 2.7512 15.1322 1.94925C14.3302 1.14731 13.2426 0.696777 12.1084 0.696777V0.696777ZM14.9826 12.4439C14.98 13.2053 14.6763 13.9349 14.1379 14.4733C13.5994 15.0118 12.8699 15.3154 12.1084 15.3181H4.63755C3.87608 15.3154 3.14656 15.0118 2.60811 14.4733C2.06967 13.9349 1.76601 13.2053 1.76337 12.4439V4.973C1.76601 4.21153 2.06967 3.48201 2.60811 2.94356C3.14656 2.40512 3.87608 2.10146 4.63755 2.09882H12.1084C12.8699 2.10146 13.5994 2.40512 14.1379 2.94356C14.6763 3.48201 14.98 4.21153 14.9826 4.973V12.4439Z" fill="#2E3436" fill-opacity="0.5"/>
</g>
<defs>
<clipPath id="clip0_231_612">
<rect width="16.0233" height="16.0233" fill="white" transform="translate(0.361328 0.696777)"/>
</clipPath>
</defs>
</svg>
