<svg width="17" height="17" viewBox="0 0 17 17" fill="none" xmlns="http://www.w3.org/2000/svg">
<g clip-path="url(#clip0_231_567)">
<path d="M11.9161 8.88867H4.44524C4.19931 8.88867 3.95578 8.93711 3.72857 9.03122C3.50137 9.12534 3.29492 9.26328 3.12102 9.43718C2.76981 9.78839 2.57251 10.2647 2.57251 10.7614V12.4438C2.57251 12.9405 2.76981 13.4169 3.12102 13.7681C3.47222 14.1193 3.94856 14.3166 4.44524 14.3166H11.9161C12.4128 14.3166 12.8891 14.1193 13.2403 13.7681C13.5915 13.4169 13.7888 12.9405 13.7888 12.4438V10.7614C13.7888 10.5155 13.7404 10.2719 13.6463 10.0447C13.5522 9.81753 13.4142 9.61108 13.2403 9.43718C13.0664 9.26328 12.86 9.12534 12.6328 9.03122C12.4056 8.93711 12.162 8.88867 11.9161 8.88867V8.88867Z" fill="#BCF83F"/>
<path d="M11.916 0.696777H4.44517C3.31104 0.696777 2.22337 1.14731 1.42142 1.94925C0.619475 2.7512 0.168945 3.83888 0.168945 4.973L0.168945 12.4439C0.168834 13.5677 0.611106 14.6463 1.4001 15.4466C2.1891 16.2468 3.2614 16.7043 4.38508 16.7201H11.916C13.0502 16.7201 14.1378 16.2696 14.9398 15.4676C15.7417 14.6657 16.1923 13.578 16.1923 12.4439V4.973C16.1923 3.83888 15.7417 2.7512 14.9398 1.94925C14.1378 1.14731 13.0502 0.696777 11.916 0.696777V0.696777ZM14.7902 12.4439C14.7876 13.2053 14.4839 13.9349 13.9455 14.4733C13.407 15.0118 12.6775 15.3154 11.916 15.3181H4.44517C3.6837 15.3154 2.95417 15.0118 2.41573 14.4733C1.87729 13.9349 1.57363 13.2053 1.57099 12.4439V4.973C1.57363 4.21153 1.87729 3.48201 2.41573 2.94356C2.95417 2.40512 3.6837 2.10146 4.44517 2.09882H11.916C12.6775 2.10146 13.407 2.40512 13.9455 2.94356C14.4839 3.48201 14.7876 4.21153 14.7902 4.973V12.4439Z" fill="#2E3436" fill-opacity="0.5"/>
</g>
<defs>
<clipPath id="clip0_231_567">
<rect width="16.0233" height="16.0233" fill="white" transform="translate(0.168945 0.696777)"/>
</clipPath>
</defs>
</svg>
