<svg width="17" height="17" viewBox="0 0 17 17" fill="none" xmlns="http://www.w3.org/2000/svg">
<g clip-path="url(#clip0_231_624)">
<path d="M4.78703 13.6199L5.87862 10.2951H5.37789C5.0201 10.2809 4.67264 10.1711 4.3717 9.97702C4.07076 9.78297 3.82735 9.51179 3.6668 9.19172C3.50626 8.87165 3.43445 8.5144 3.45886 8.15715C3.48327 7.79991 3.60301 7.45574 3.80561 7.16049L6.94017 2.40356H4.27629C3.77961 2.40356 3.30328 2.60087 2.95207 2.95207C2.60087 3.30328 2.40356 3.77961 2.40356 4.27629V11.7472C2.40356 12.2438 2.60087 12.7202 2.95207 13.0714C3.30328 13.4226 3.77961 13.6199 4.27629 13.6199H4.78703Z" fill="#BCF83F"/>
<path d="M11.7472 2.40356H11.1062L10.1048 5.7284H10.6456C11.0149 5.72594 11.3771 5.82934 11.6895 6.02634C12.0018 6.22334 12.2512 6.50571 12.4081 6.84002C12.5545 7.16185 12.613 7.51668 12.5779 7.86847C12.5427 8.22025 12.415 8.55646 12.2078 8.84294L9.01318 13.6199H11.7772C12.2739 13.6199 12.7502 13.4226 13.1014 13.0714C13.4526 12.7202 13.6499 12.2438 13.6499 11.7472V4.27629C13.65 4.02781 13.6005 3.78181 13.5046 3.55262C13.4086 3.32343 13.2679 3.11563 13.0908 2.94133C12.9138 2.76704 12.7037 2.62972 12.4731 2.5374C12.2424 2.44507 11.9956 2.39958 11.7472 2.40356Z" fill="#BCF83F"/>
<path d="M5.71834 16.0233C5.77379 16.0278 5.82948 16.0182 5.88025 15.9954C5.93102 15.9727 5.97522 15.9375 6.00876 15.8931L11.2664 8.17184C11.3574 8.0602 11.4148 7.92504 11.432 7.78206C11.4492 7.63909 11.4255 7.49417 11.3636 7.36413C11.3017 7.2341 11.2042 7.12428 11.0824 7.04744C10.9606 6.9706 10.8196 6.92989 10.6756 6.93004H8.48236L10.4853 0.440591C10.5051 0.386626 10.5105 0.328421 10.501 0.271724C10.4914 0.215027 10.4673 0.1618 10.4309 0.117302C10.3945 0.0728035 10.3471 0.0385733 10.2934 0.0179926C10.2397 -0.00258815 10.1816 -0.00880732 10.1247 -5.05426e-05C10.0757 0.000328443 10.0274 0.0123243 9.98392 0.0349539C9.9404 0.0575836 9.90286 0.090203 9.87439 0.130139L4.78698 7.85138C4.69603 7.96303 4.63862 8.09819 4.62142 8.24116C4.60421 8.38413 4.62793 8.52905 4.6898 8.65909C4.75167 8.78912 4.84916 8.89894 4.97095 8.97578C5.09274 9.05262 5.23384 9.09333 5.37784 9.09319H7.54099L5.40788 15.5826C5.39029 15.6324 5.38487 15.6856 5.39208 15.7379C5.39928 15.7902 5.4189 15.84 5.4493 15.8831C5.4797 15.9263 5.51998 15.9615 5.56679 15.9859C5.6136 16.0103 5.66556 16.0231 5.71834 16.0233Z" fill="#2E3436"/>
<path d="M4.26622 15.2121L4.4565 14.6213H4.27624C3.51477 14.6186 2.78524 14.315 2.2468 13.7765C1.70835 13.2381 1.40469 12.5086 1.40205 11.7471V4.27622C1.40469 3.51476 1.70835 2.78523 2.2468 2.24679C2.78524 1.70834 3.51477 1.40468 4.27624 1.40204H7.60108L8.52242 0H4.27624C3.14211 0 2.05444 0.45053 1.25249 1.25248C0.450542 2.05443 1.22166e-05 3.1421 1.22166e-05 4.27622V11.7471C-0.0026813 12.8734 0.440121 13.9551 1.23183 14.7562C2.02354 15.5572 3.09991 16.0128 4.22616 16.0233C4.16264 15.7546 4.17653 15.4733 4.26622 15.2121Z" fill="#2E3436" fill-opacity="0.5"/>
<path d="M11.7473 0H11.6271C11.7022 0.254961 11.7022 0.526176 11.6271 0.781137L11.4468 1.40204H11.7773C12.5335 1.41254 13.2554 1.71967 13.7874 2.25727C14.3194 2.79487 14.6189 3.51991 14.6214 4.27622V11.7471C14.6188 12.5086 14.3151 13.2381 13.7767 13.7765C13.2383 14.315 12.5087 14.6186 11.7473 14.6213H8.30224L7.30078 16.0233H11.7072C12.2721 16.0286 12.8325 15.9219 13.3559 15.7094C13.8794 15.4969 14.3555 15.1827 14.7569 14.7851C15.1582 14.3875 15.4768 13.9143 15.6942 13.3928C15.9116 12.8714 16.0235 12.312 16.0235 11.7471V4.27622C16.0235 3.1421 15.5729 2.05443 14.771 1.25248C13.9691 0.45053 12.8814 0 11.7473 0V0Z" fill="#2E3436" fill-opacity="0.5"/>
</g>
<defs>
<clipPath id="clip0_231_624">
<rect width="16.0233" height="16.0233" fill="white"/>
</clipPath>
</defs>
</svg>
