<svg width="17" height="17" viewBox="0 0 17 17" fill="none" xmlns="http://www.w3.org/2000/svg">
<g clip-path="url(#clip0_231_585)">
<path d="M12.1932 5.56384H4.72234C4.22566 5.56384 3.74932 5.76115 3.39812 6.11235C3.04691 6.46356 2.84961 6.93989 2.84961 7.43657V12.4439C2.84961 12.9405 3.04691 13.4169 3.39812 13.7681C3.74932 14.1193 4.22566 14.3166 4.72234 14.3166H12.1932C12.6899 14.3166 13.1662 14.1193 13.5174 13.7681C13.8686 13.4169 14.0659 12.9405 14.0659 12.4439V7.43657C14.0659 6.93989 13.8686 6.46356 13.5174 6.11235C13.1662 5.76115 12.6899 5.56384 12.1932 5.56384Z" fill="#BCF83F"/>
<path d="M12.1931 0.696777H4.72227C3.58814 0.696777 2.50047 1.14731 1.69852 1.94925C0.896574 2.7512 0.446045 3.83888 0.446045 4.973L0.446045 12.4439C0.445934 13.5677 0.888206 14.6463 1.6772 15.4466C2.4662 16.2468 3.5385 16.7043 4.66218 16.7201H12.1931C13.3273 16.7201 14.4149 16.2696 15.2169 15.4676C16.0188 14.6657 16.4694 13.578 16.4694 12.4439V4.973C16.4694 3.83888 16.0188 2.7512 15.2169 1.94925C14.4149 1.14731 13.3273 0.696777 12.1931 0.696777V0.696777ZM15.0673 12.4439C15.0647 13.2053 14.761 13.9349 14.2226 14.4733C13.6841 15.0118 12.9546 15.3154 12.1931 15.3181H4.72227C3.9608 15.3154 3.23127 15.0118 2.69283 14.4733C2.15439 13.9349 1.85073 13.2053 1.84809 12.4439V4.973C1.85073 4.21153 2.15439 3.48201 2.69283 2.94356C3.23127 2.40512 3.9608 2.10146 4.72227 2.09882H12.1931C12.9546 2.10146 13.6841 2.40512 14.2226 2.94356C14.761 3.48201 15.0647 4.21153 15.0673 4.973V12.4439Z" fill="#2E3436" fill-opacity="0.5"/>
</g>
<defs>
<clipPath id="clip0_231_585">
<rect width="16.0233" height="16.0233" fill="white" transform="translate(0.446045 0.696777)"/>
</clipPath>
</defs>
</svg>
