<svg width="17" height="17" viewBox="0 0 17 17" fill="none" xmlns="http://www.w3.org/2000/svg">
<g clip-path="url(#clip0_231_603)">
<path d="M12.4701 5.56384H4.99919C4.50251 5.56384 4.02618 5.76115 3.67497 6.11235C3.32377 6.46356 3.12646 6.93989 3.12646 7.43657V12.4439C3.12646 12.9405 3.32377 13.4169 3.67497 13.7681C4.02618 14.1193 4.50251 14.3166 4.99919 14.3166H12.4701C12.9667 14.3166 13.4431 14.1193 13.7943 13.7681C14.1455 13.4169 14.3428 12.9405 14.3428 12.4439V7.43657C14.3428 6.93989 14.1455 6.46356 13.7943 6.11235C13.4431 5.76115 12.9667 5.56384 12.4701 5.56384V5.56384Z" fill="#BCF83F"/>
<path d="M12.4702 0.696777H4.99937C3.86524 0.696777 2.77757 1.14731 1.97562 1.94925C1.17367 2.7512 0.723145 3.83888 0.723145 4.973L0.723145 12.4439C0.723034 13.5677 1.16531 14.6463 1.9543 15.4466C2.7433 16.2468 3.8156 16.7043 4.93928 16.7201H12.4702C13.6044 16.7201 14.692 16.2696 15.494 15.4676C16.2959 14.6657 16.7465 13.578 16.7465 12.4439V4.973C16.7465 3.83888 16.2959 2.7512 15.494 1.94925C14.692 1.14731 13.6044 0.696777 12.4702 0.696777V0.696777ZM15.3444 12.4439C15.3418 13.2053 15.0381 13.9349 14.4997 14.4733C13.9612 15.0118 13.2317 15.3154 12.4702 15.3181H4.99937C4.2379 15.3154 3.50837 15.0118 2.96993 14.4733C2.43149 13.9349 2.12782 13.2053 2.12519 12.4439V4.973C2.12782 4.21153 2.43149 3.48201 2.96993 2.94356C3.50837 2.40512 4.2379 2.10146 4.99937 2.09882H12.4702C13.2317 2.10146 13.9612 2.40512 14.4997 2.94356C15.0381 3.48201 15.3418 4.21153 15.3444 4.973V12.4439Z" fill="#2E3436" fill-opacity="0.5"/>
</g>
<defs>
<clipPath id="clip0_231_603">
<rect width="16.0233" height="16.0233" fill="white" transform="translate(0.723145 0.696777)"/>
</clipPath>
</defs>
</svg>
