<svg width="17" height="17" viewBox="0 0 17 17" fill="none" xmlns="http://www.w3.org/2000/svg">
<g clip-path="url(#clip0_231_558)">
<path d="M12.2777 8.88867H4.80681C4.56088 8.88867 4.31736 8.93711 4.09015 9.03122C3.86294 9.12534 3.65649 9.26328 3.48259 9.43718C3.13139 9.78839 2.93408 10.2647 2.93408 10.7614V12.4438C2.93408 12.9405 3.13139 13.4169 3.48259 13.7681C3.8338 14.1193 4.31013 14.3166 4.80681 14.3166H12.2777C12.7744 14.3166 13.2507 14.1193 13.6019 13.7681C13.9531 13.4169 14.1504 12.9405 14.1504 12.4438V10.7614C14.1504 10.5155 14.102 10.2719 14.0079 10.0447C13.9137 9.81753 13.7758 9.61108 13.6019 9.43718C13.428 9.26328 13.2216 9.12534 12.9943 9.03122C12.7671 8.93711 12.5236 8.88867 12.2777 8.88867Z" fill="#00FF00"/>
<path d="M12.2776 0.696777H4.80674C3.67262 0.696777 2.58494 1.14731 1.78299 1.94925C0.981047 2.7512 0.530518 3.83888 0.530518 4.973L0.530518 12.4439C0.530407 13.5677 0.972679 14.6463 1.76168 15.4466C2.55067 16.2468 3.62298 16.7043 4.74665 16.7201H12.2776C13.4117 16.7201 14.4994 16.2696 15.3014 15.4676C16.1033 14.6657 16.5538 13.578 16.5538 12.4439V4.973C16.5538 3.83888 16.1033 2.7512 15.3014 1.94925C14.4994 1.14731 13.4117 0.696777 12.2776 0.696777V0.696777ZM15.1518 12.4439C15.1492 13.2053 14.8455 13.9349 14.3071 14.4733C13.7686 15.0118 13.0391 15.3154 12.2776 15.3181H4.80674C4.04527 15.3154 3.31575 15.0118 2.7773 14.4733C2.23886 13.9349 1.9352 13.2053 1.93256 12.4439V4.973C1.9352 4.21153 2.23886 3.48201 2.7773 2.94356C3.31575 2.40512 4.04527 2.10146 4.80674 2.09882H12.2776C13.0391 2.10146 13.7686 2.40512 14.3071 2.94356C14.8455 3.48201 15.1492 4.21153 15.1518 4.973V12.4439Z" fill="#2E3436" fill-opacity="0.5"/>
</g>
<defs>
<clipPath id="clip0_231_558">
<rect width="16.0233" height="16.0233" fill="white" transform="translate(0.530518 0.696777)"/>
</clipPath>
</defs>
</svg>
