<svg width="16" height="16" viewBox="0 0 16 16" fill="none" xmlns="http://www.w3.org/2000/svg">
<g clip-path="url(#clip0_231_962)">
<path fill-rule="evenodd" clip-rule="evenodd" d="M5.13864 8.67426L3.34367 10.25C2.9257 10.6133 2.88664 11.2422 3.24992 11.6563C3.6132 12.0742 4.24211 12.1133 4.65617 11.75L6.55595 10.0916L5.13864 8.67426ZM6.99992 10.5355V15C6.99992 15.3906 7.23039 15.7461 7.58586 15.9102C7.94523 16.0703 8.3632 16.0117 8.65617 15.75L10.556 14.0916L9.14032 12.6759L8.99992 12.7969V12.5355L6.99992 10.5355ZM10.3425 7.27844L12.6562 5.25C12.8749 5.0625 12.9999 4.78906 12.9999 4.5C12.9999 4.21094 12.8749 3.9375 12.6562 3.75L8.65617 0.250001C8.46476 0.0781256 8.21086 -0.00781193 7.95695 5.66606e-07C7.82804 0.00781307 7.70304 0.0390631 7.58586 0.0898444C7.23039 0.253907 6.99992 0.609376 6.99992 1V3.93587L10.3425 7.27844ZM10.4804 4.5L8.99992 3.20313V5.79688L10.4804 4.5Z" fill="#2E3436"/>
<path d="M1.99999 2.16666L14.2565 14.4232" stroke="#2E3436" stroke-width="2" stroke-linecap="round"/>
</g>
<defs>
<clipPath id="clip0_231_962">
<rect width="16" height="16" fill="white"/>
</clipPath>
</defs>
</svg>
