<svg width="17" height="16" viewBox="0 0 17 16" fill="none" xmlns="http://www.w3.org/2000/svg">
<g clip-path="url(#clip0_231_1420)">
<path d="M13.9236 -0.0117188C13.8845 -0.00781245 13.8493 -0.0039062 13.8103 5.16884e-08H8.94309V0.832031C8.89231 1.125 8.97434 1.42578 9.16966 1.65234C9.36106 1.875 9.64622 2.00391 9.94309 2H11.529L8.94309 4.58594L6.65013 2.29297C6.40013 2.03125 6.02513 1.92578 5.67747 2.01953C5.32591 2.10938 5.05247 2.38281 4.96263 2.73438C4.86888 3.08203 4.97434 3.45703 5.23606 3.70703L8.23606 6.70703C8.62669 7.09766 9.2595 7.09766 9.65013 6.70703L12.9431 3.41406V5C12.9392 5.29688 13.0681 5.57813 13.2908 5.76953C13.5134 5.96094 13.8103 6.04688 14.0993 6H14.9431V1.125C14.9548 1.03516 14.9548 0.941406 14.9431 0.851562V5.16884e-08H14.0876C14.0329 -0.00781245 13.9783 -0.0117188 13.9236 -0.0117188V-0.0117188Z" fill="#2E3436"/>
<path d="M15.1855 15.7148C14.7988 16.0977 14.1816 16.0977 13.7988 15.7148L12.7559 14.6758L11.7168 13.6328C11.334 13.25 11.334 12.6328 11.7168 12.2461L12.209 11.7539C10.1738 10.6445 7.71289 10.6445 5.67773 11.7539L6.16992 12.2461C6.55273 12.6328 6.55273 13.25 6.16992 13.6328L5.13086 14.6758L4.08789 15.7148C3.70508 16.0977 3.08789 16.0977 2.70117 15.7148L1.66211 14.6758C0.705078 13.7188 0.705078 12.1641 1.66211 11.207L2.00977 10.8594C5.82617 7.04297 12.0605 7.04297 15.877 10.8594L16.2246 11.207C17.1816 12.1641 17.1816 13.7188 16.2246 14.6758L15.1855 15.7148Z" fill="#0000FF"/>
</g>
<defs>
<clipPath id="clip0_231_1420">
<rect width="16" height="16" fill="white" transform="translate(0.943115)"/>
</clipPath>
</defs>
</svg>
