<svg width="16" height="16" viewBox="0 0 16 16" fill="none" xmlns="http://www.w3.org/2000/svg">
<path d="M5.00391 2C5.55859 2 6.00391 2.44531 6.00391 3V6C6.00391 6.55469 5.55859 7 5.00391 7H4.29297C4.96484 9.26562 6.73828 11.043 9.00391 11.7109V11C9.00391 10.4453 9.45312 10 10.0039 10H13.0039C13.5586 10 14.0039 10.4453 14.0039 11V12.5C14.0039 13.8789 12.8867 15 11.5039 15H11.0039C5.5 15 1.00391 10.5039 1.00391 5V4.5C1.00391 3.12109 2.125 2 3.50391 2H5.00391Z" fill="#2E3436"/>
<path d="M9 1C8.44922 1 8 1.44922 8 2V8H14C14.5508 8 15 7.55078 15 7C15 6.44922 14.5508 6 14 6H11.4141L15.707 1.70703C16.0977 1.31641 16.0977 0.683594 15.707 0.292969C15.5195 0.105469 15.2656 0 15 0C14.7344 0 14.4805 0.105469 14.293 0.292969L10 4.58594V2C10 1.44922 9.55078 1 9 1Z" fill="#2E3436"/>
</svg>
