<svg width="17" height="16" viewBox="0 0 17 16" fill="none" xmlns="http://www.w3.org/2000/svg">
<g clip-path="url(#clip0_231_1416)">
<path d="M5.88745 2C6.44214 2 6.88745 2.44531 6.88745 3V6C6.88745 6.55469 6.44214 7 5.88745 7H5.17651C5.84839 9.26562 7.62183 11.043 9.88745 11.7109V11C9.88745 10.4453 10.3367 10 10.8875 10H13.8875C14.4421 10 14.8875 10.4453 14.8875 11V12.5C14.8875 13.8789 13.7703 15 12.3875 15H11.8875C6.38355 15 1.88745 10.5039 1.88745 5V4.5C1.88745 3.12109 3.00855 2 4.38745 2H5.88745Z" fill="#2E3436"/>
<path d="M15.8835 7C16.4343 7 16.8835 6.55078 16.8835 6V0H10.8835C10.3328 0 9.88354 0.449219 9.88354 1C9.88354 1.55078 10.3328 2 10.8835 2H13.4695L9.17651 6.29297C8.78589 6.68359 8.78589 7.31641 9.17651 7.70703C9.36401 7.89453 9.61792 8 9.88354 8C10.1492 8 10.4031 7.89453 10.5906 7.70703L14.8835 3.41406V6C14.8835 6.55078 15.3328 7 15.8835 7Z" fill="#2E3436"/>
</g>
<defs>
<clipPath id="clip0_231_1416">
<rect width="16" height="16" fill="white" transform="translate(0.883545)"/>
</clipPath>
</defs>
</svg>
