<svg width="16" height="16" viewBox="0 0 16 16" fill="none" xmlns="http://www.w3.org/2000/svg">
<g clip-path="url(#clip0_231_1112)">
<path d="M1.99999 2.00003L14.2565 14.2566" stroke="#2E3436" stroke-width="2" stroke-linecap="round"/>
<path fill-rule="evenodd" clip-rule="evenodd" d="M0.171819 4.01396C0.0610931 4.32342 0 4.6556 0 5V12C0 13.6445 1.35547 15 3 15H11.1579L9.15786 13H3C2.42969 13 2 12.5703 2 12V5.84214L0.171819 4.01396ZM4.00331 7.84545C4.00113 7.89672 4 7.94823 4 8C4 10.1992 5.80078 12 8 12C8.05177 12 8.10328 11.9989 8.15455 11.9967L4.00331 7.84545ZM15.996 12.1539C15.9987 12.1029 16 12.0516 16 12V5C16 3.35547 14.6445 2 13 2H11.9141L10.207 0.292969C10.0195 0.105469 9.76562 0 9.5 0H6.5C6.23438 0 5.98047 0.105469 5.79297 0.292969L4.96403 1.12191L6.37809 2.53597L6.91406 2H9.08594L10.793 3.70703C10.9805 3.89453 11.2344 4 11.5 4H13C13.5703 4 14 4.42969 14 5V10.1579L15.996 12.1539ZM11.997 8.15487C11.999 8.10347 12 8.05184 12 8C12 5.80078 10.1992 4 8 4C7.94816 4 7.89653 4.00101 7.84513 4.00301L11.997 8.15487Z" fill="#2E3436"/>
</g>
<defs>
<clipPath id="clip0_231_1112">
<rect width="16" height="16" fill="white"/>
</clipPath>
</defs>
</svg>
