<svg width="16" height="16" viewBox="0 0 16 16" fill="none" xmlns="http://www.w3.org/2000/svg">
<path fill-rule="evenodd" clip-rule="evenodd" d="M12 4C12 1.80078 10.1992 0 8 0C5.80078 0 4 1.80078 4 4V8C2.89062 8 2 8.89062 2 10V15C2 15.5547 2.44531 16 3 16H7.49982C7.18597 15.5822 7 15.0628 7 14.5V9.5C7 8.9372 7.18597 8.41783 7.49982 8H6V4C6 2.875 6.875 2 8 2C9.125 2 10 2.875 10 4V5C10 5.55078 10.4492 6 11 6C11.5508 6 12 5.55078 12 5V4Z" fill="#2E3436"/>
<path d="M9.5 8C8.66797 8 8 8.66797 8 9.5V14.5C8 15.332 8.66797 16 9.5 16H14.5C15.332 16 16 15.332 16 14.5V9.5C16 8.66797 15.332 8 14.5 8H9.5ZM11 9H13V11.5C13 11.5 13 12 12.5 12H11.5C11 12 11 11.5 11 11.5V9ZM11.5 13H12.5C12.7773 13 13 13.2227 13 13.5V14.5C13 14.7773 12.7773 15 12.5 15H11.5C11.2227 15 11 14.7773 11 14.5V13.5C11 13.2227 11.2227 13 11.5 13Z" fill="#00FF00"/>
</svg>
