<svg width="16" height="17" viewBox="0 0 16 17" fill="none" xmlns="http://www.w3.org/2000/svg">
<g clip-path="url(#clip0_231_1159)">
<path d="M3 0.666687C1.33984 0.666687 0 2.00653 0 3.66669V10.6667C0 12.3268 1.33984 13.6667 3 13.6667H13C14.6602 13.6667 16 12.3268 16 10.6667V3.66669C16 2.00653 14.6602 0.666687 13 0.666687H3ZM3 2.66669H13C13.5547 2.66669 14 3.112 14 3.66669V10.6667C14 11.2214 13.5547 11.6667 13 11.6667H3C2.44531 11.6667 2 11.2214 2 10.6667V3.66669C2 3.112 2.44531 2.66669 3 2.66669ZM6 4.66669C5.44922 4.66669 5 5.11591 5 5.66669C5 6.21747 5.44922 6.66669 6 6.66669C6.55078 6.66669 7 6.21747 7 5.66669C7 5.11591 6.55078 4.66669 6 4.66669ZM10 4.66669C9.44922 4.66669 9 5.11591 9 5.66669C9 6.21747 9.44922 6.66669 10 6.66669C10.5508 6.66669 11 6.21747 11 5.66669C11 5.11591 10.5508 4.66669 10 4.66669ZM8 7.66669C6.57031 7.66669 5.25 8.42841 4.53516 9.66669C4.39844 9.90497 4.48047 10.2136 4.71875 10.3503C4.95703 10.487 5.26563 10.405 5.40234 10.1667C5.9375 9.237 6.92578 8.66669 8 8.66669C9.07422 8.66669 10.0625 9.237 10.5977 10.1667C10.7344 10.405 11.043 10.487 11.2812 10.3503C11.5195 10.2136 11.6016 9.90497 11.4648 9.66669C10.75 8.42841 9.42969 7.66669 8 7.66669V7.66669ZM5 14.6667C3.89453 14.6667 3 15.5612 3 16.6667H13C13 15.5612 12.1055 14.6667 11 14.6667H5Z" fill="#2E3436"/>
</g>
<defs>
<clipPath id="clip0_231_1159">
<rect width="16" height="16" fill="white" transform="translate(0 0.666687)"/>
</clipPath>
</defs>
</svg>
