<svg width="17" height="16" viewBox="0 0 17 16" fill="none" xmlns="http://www.w3.org/2000/svg">
<g clip-path="url(#clip0_231_1372)">
<path d="M3.93896 7.84365C3.81006 7.84365 3.68506 7.89053 3.5835 7.98819L2.87646 8.69912C2.68115 8.89444 2.68115 9.20694 2.87646 9.40615L4.29443 10.8202C4.48975 11.0155 4.80225 11.0155 4.99756 10.8202L5.7085 10.1132C5.90381 9.91397 5.90381 9.60147 5.7085 9.40615L4.29053 7.98819C4.19287 7.89053 4.06787 7.83975 3.93896 7.84365V7.84365ZM13.8374 7.84365C13.7124 7.83975 13.5835 7.89053 13.4858 7.98819L12.0718 9.40615C11.8765 9.60147 11.8765 9.91397 12.0718 10.1132L12.7788 10.8202C12.9741 11.0155 13.2905 11.0155 13.4858 10.8202L14.8999 9.40615C15.0952 9.20694 15.0952 8.89444 14.8999 8.69912L14.1929 7.98819C14.0952 7.89053 13.9663 7.84365 13.8374 7.84365V7.84365ZM8.88818 9.9999C6.69287 9.9999 4.88818 11.8007 4.88818 13.9999C4.89209 14.5507 5.3374 14.9999 5.88818 14.9999H11.8882C12.4429 14.9999 12.8882 14.5507 12.8882 13.9999C12.8882 11.8007 11.0874 9.9999 8.88818 9.9999ZM1.38818 12.9999C1.11475 12.9999 0.888184 13.2226 0.888184 13.4999V14.4999C0.888184 14.7772 1.11475 14.9999 1.38818 14.9999H3.38818C3.66553 14.9999 3.88818 14.7772 3.88818 14.4999V13.4999C3.88818 13.2226 3.66553 12.9999 3.38818 12.9999H1.38818ZM14.3882 12.9999C14.1147 12.9999 13.8882 13.2226 13.8882 13.4999V14.4999C13.8882 14.7772 14.1147 14.9999 14.3882 14.9999H16.3882C16.6655 14.9999 16.8882 14.7772 16.8882 14.4999V13.4999C16.8882 13.2226 16.6655 12.9999 16.3882 12.9999H14.3882Z" fill="#2E3436"/>
<path d="M8.95459 1C8.40381 1 7.95459 1.44922 7.95459 2V5H5.95459V6H5.9624C5.9585 6.26562 6.06397 6.51953 6.24756 6.70703L8.24756 8.70703C8.63818 9.09766 9.271 9.09766 9.66162 8.70703L11.6616 6.70703C11.8452 6.51953 11.9507 6.26562 11.9507 6H11.9546V5H9.95459V2C9.95459 1.44922 9.50537 1 8.95459 1V1Z" fill="#2E3436"/>
</g>
<defs>
<clipPath id="clip0_231_1372">
<rect width="16" height="16" fill="white" transform="translate(0.954346)"/>
</clipPath>
</defs>
</svg>
