<svg width="17" height="17" viewBox="0 0 17 17" fill="none" xmlns="http://www.w3.org/2000/svg">
<path d="M6.33325 1.66663C3.57153 1.66663 1.33325 3.90491 1.33325 6.66663C1.33325 9.42834 3.57153 11.6666 6.33325 11.6666C7.16528 11.6627 7.9856 11.4518 8.71606 11.0494L9.33325 11.6666V13.6666H11.3333V15.6666H15.3333V12.6666L11.0247 8.35803C11.2239 7.81506 11.3293 7.24475 11.3333 6.66663C11.3333 3.90491 9.09497 1.66663 6.33325 1.66663ZM5.33325 4.66663C5.88403 4.66663 6.33325 5.11584 6.33325 5.66663C6.33325 6.21741 5.88403 6.66663 5.33325 6.66663C4.78247 6.66663 4.33325 6.21741 4.33325 5.66663C4.33325 5.11584 4.78247 4.66663 5.33325 4.66663Z" fill="#2E3436"/>
</svg>
