<svg width="17" height="16" viewBox="0 0 17 16" fill="none" xmlns="http://www.w3.org/2000/svg">
<g clip-path="url(#clip0_231_1410)">
<path d="M8.79241 0.0937074C8.26507 0.0663636 7.75335 0.374957 7.35491 1.06246L1.10491 12.6562C0.569756 13.6211 1.15179 15 2.19866 15H15.3549C16.3354 15 17.2573 13.8398 16.5737 12.6562L10.2612 1.12496C9.86273 0.480426 9.31976 0.121051 8.79241 0.0937074ZM9.88616 3.99996V8.99996C9.89398 9.5273 9.41351 9.99996 8.88616 9.99996C8.35882 9.99996 7.87835 9.5273 7.88616 8.99996V3.99996H9.88616ZM8.88616 11C9.43694 11 9.88616 11.4492 9.88616 12C9.88616 12.5507 9.43694 13 8.88616 13C8.33538 13 7.88616 12.5507 7.88616 12C7.88616 11.4492 8.33538 11 8.88616 11Z" fill="#2E3436"/>
</g>
<defs>
<clipPath id="clip0_231_1410">
<rect width="16" height="16" fill="white" transform="translate(0.88623)"/>
</clipPath>
</defs>
</svg>
