<svg width="17" height="16" viewBox="0 0 17 16" fill="none" xmlns="http://www.w3.org/2000/svg">
<g clip-path="url(#clip0_231_1412)">
<path d="M8.94312 0.0313721C8.54468 0.0313721 8.12671 0.191528 7.81812 0.500122L1.44312 6.87512C0.822021 7.49622 0.822021 8.50403 1.44312 9.12512L7.81812 15.5001C8.43921 16.1212 9.44702 16.1212 10.0681 15.5001L16.4431 9.12512C17.0642 8.50403 17.0642 7.49622 16.4431 6.87512L10.0681 0.500122C9.75952 0.191528 9.34155 0.0313721 8.94312 0.0313721ZM9.09546 3.00793C9.82202 3.04309 10.5291 3.34387 11.0642 3.87903C11.9197 4.7345 12.1775 6.03137 11.7166 7.14856C11.3845 7.94544 10.7283 8.53918 9.94312 8.82043V10.0001H7.94312V8.00012C7.94312 7.44934 8.39233 7.00012 8.94312 7.00012C9.34937 7.00012 9.71265 6.75794 9.8689 6.38294C10.0212 6.00793 9.93921 5.58215 9.65015 5.29309C9.36109 5.00403 8.9353 4.922 8.5603 5.07434C8.1853 5.23059 7.94312 5.59387 7.94312 6.00012H5.94312C5.94312 4.78918 6.67749 3.69153 7.79468 3.23059C8.21265 3.05481 8.65796 2.9845 9.09546 3.00793ZM8.94312 11.0001C9.4939 11.0001 9.94312 11.4493 9.94312 12.0001C9.94312 12.5509 9.4939 13.0001 8.94312 13.0001C8.39233 13.0001 7.94312 12.5509 7.94312 12.0001C7.94312 11.4493 8.39233 11.0001 8.94312 11.0001Z" fill="#2E3436"/>
</g>
<defs>
<clipPath id="clip0_231_1412">
<rect width="16" height="16" fill="white" transform="translate(0.943115)"/>
</clipPath>
</defs>
</svg>
