<svg width="16" height="17" viewBox="0 0 16 17" fill="none" xmlns="http://www.w3.org/2000/svg">
<g clip-path="url(#clip0_231_1165)">
<path d="M7.99606 0.666626C5.16013 0.666626 2.70309 2.66663 2.12497 5.44397C1.59763 7.97913 2.81247 10.4791 4.99997 11.7721V12.6666C4.99997 13.2213 5.44919 13.6666 5.99997 13.6666H9.99997C10.5507 13.6666 11 13.2213 11 12.6666L11.0039 11.7682C13.1836 10.4752 14.4023 7.97131 13.8711 5.43616C13.289 2.66272 10.832 0.666626 7.99606 0.666626V0.666626ZM7.99606 2.66663C9.8945 2.66663 11.5234 3.98694 11.914 5.84631C12.3047 7.70959 11.3437 9.57288 9.60153 10.3346C9.23825 10.4908 9.00387 10.8502 8.99997 11.2487V11.6666H6.99997V11.2487C6.99606 10.8502 6.76169 10.4948 6.39841 10.3346C4.65622 9.57288 3.69528 7.7096 4.082 5.85022C4.46872 3.99085 6.09763 2.66663 7.99606 2.66663V2.66663ZM5.99997 14.6666V15.6666C5.99997 16.2213 6.44528 16.6666 6.99997 16.6666H8.99997C9.55466 16.6666 9.99997 16.2213 9.99997 15.6666V14.6666H5.99997Z" fill="#2E3436"/>
<path d="M6.64453 6.81116C6.44922 7.00647 6.44922 7.32678 6.64453 7.51819L7.64453 8.51819C7.83984 8.7135 8.15625 8.7135 8.35156 8.51819L9.35156 7.51819C9.54687 7.32678 9.54687 7.00647 9.35156 6.81116C9.15625 6.61975 8.83984 6.61975 8.64453 6.81116L7.99609 7.4596L7.35156 6.81116C7.15625 6.61975 6.83984 6.61975 6.64453 6.81116V6.81116Z" fill="#2E3436" fill-opacity="0.5"/>
</g>
<defs>
<clipPath id="clip0_231_1165">
<rect width="16" height="16" fill="white" transform="translate(0 0.666687)"/>
</clipPath>
</defs>
</svg>
