<svg width="17" height="16" viewBox="0 0 17 16" fill="none" xmlns="http://www.w3.org/2000/svg">
<g clip-path="url(#clip0_231_1368)">
<path d="M8.86304 0C8.30835 0 7.86304 0.445312 7.86304 1V2C7.86304 2.55469 8.30835 3 8.86304 3C9.41773 3 9.86304 2.55469 9.86304 2V1C9.86304 0.445312 9.41773 0 8.86304 0ZM3.87085 2.00391C3.61304 2.00391 3.35913 2.10547 3.16382 2.30078C2.76929 2.69141 2.76929 3.32031 3.16382 3.71484L3.87085 4.42188C4.26148 4.8125 4.89038 4.8125 5.28491 4.42188C5.67554 4.02734 5.67554 3.39844 5.28491 3.00781L4.57788 2.30078C4.38257 2.10547 4.12476 2.00391 3.87085 2.00391V2.00391ZM13.8552 2.00391C13.6013 2.00391 13.3435 2.10547 13.1482 2.30078L12.4412 3.00781C12.0505 3.39844 12.0505 4.02734 12.4412 4.42188C12.8357 4.8125 13.4646 4.8125 13.8552 4.42188L14.5623 3.71484C14.9568 3.32031 14.9568 2.69141 14.5623 2.30078C14.3669 2.10547 14.113 2.00391 13.8552 2.00391ZM8.86304 4C6.6521 4 4.86304 5.78906 4.86304 8C4.86304 10.2109 6.6521 12 8.86304 12C11.074 12 12.863 10.2109 12.863 8C12.863 5.78906 11.074 4 8.86304 4V4ZM1.86304 7C1.30835 7 0.863037 7.44531 0.863037 8C0.863037 8.55469 1.30835 9 1.86304 9H2.86304C3.41773 9 3.86304 8.55469 3.86304 8C3.86304 7.44531 3.41773 7 2.86304 7H1.86304ZM14.863 7C14.3083 7 13.863 7.44531 13.863 8C13.863 8.55469 14.3083 9 14.863 9H15.863C16.4177 9 16.863 8.55469 16.863 8C16.863 7.44531 16.4177 7 15.863 7H14.863ZM4.5271 11.2852C4.28882 11.2969 4.05444 11.3945 3.87085 11.5781L3.16382 12.2852C2.76929 12.6797 2.76929 13.3086 3.16382 13.6992C3.55444 14.0937 4.18335 14.0937 4.57788 13.6992L5.28491 12.9922C5.67554 12.6016 5.67554 11.9727 5.28491 11.5781C5.07398 11.3711 4.80054 11.2734 4.5271 11.2852V11.2852ZM13.1013 11.2852C12.863 11.2969 12.6248 11.3945 12.4412 11.5781C12.0505 11.9727 12.0505 12.6016 12.4412 12.9922L13.1482 13.6992C13.5427 14.0937 14.1716 14.0937 14.5623 13.6992C14.9568 13.3086 14.9568 12.6797 14.5623 12.2852L13.8552 11.5781C13.6482 11.3711 13.3708 11.2734 13.1013 11.2852ZM8.81226 13C8.28101 13.0273 7.86304 13.4648 7.86304 14V15C7.86304 15.5547 8.30835 16 8.86304 16C9.41773 16 9.86304 15.5547 9.86304 15V14C9.86304 13.4453 9.41773 13 8.86304 13C8.84741 13 8.82788 13 8.81226 13Z" fill="#2E3436"/>
</g>
<defs>
<clipPath id="clip0_231_1368">
<rect width="16" height="16" fill="white" transform="translate(0.863037)"/>
</clipPath>
</defs>
</svg>
