<svg width="17" height="16" viewBox="0 0 17 16" fill="none" xmlns="http://www.w3.org/2000/svg">
<g clip-path="url(#clip0_231_1404)">
<path d="M3.98535 1C2.34082 1 0.985352 2.35547 0.985352 4V12C0.985352 13.6445 2.34082 15 3.98535 15H12.8682C13.7002 15 14.4463 14.5977 14.9229 14.0625C15.3955 13.5313 15.6611 12.8945 15.833 12.2617L16.8057 9.65235C17.1963 8.20313 16.7119 7 15.9854 6.48438C15.501 6.14063 15.2705 6.19141 14.9854 6.16016V5C14.9854 4.14453 14.4268 3.41016 13.8916 3.17188C13.3604 2.93359 12.8799 3.00391 12.8799 3.00391L12.9854 3H9.39942L7.69239 1.29297C7.50489 1.10547 7.25098 1 6.98535 1H3.98535ZM3.98535 3H6.57129L8.27832 4.70703C8.46582 4.89453 8.71973 5 8.98536 5H12.9854C13.0205 5 13.0557 4.9961 13.0908 4.99219C13.0908 4.99219 13.1104 5.01172 13.0791 4.9961C13.044 4.98438 12.9854 4.7461 12.9854 5V7C12.9854 7.55078 13.4346 8 13.9854 8C14.9854 8 15.0322 8.70313 14.8721 9.12891L13.8994 11.7383C13.7822 12.1758 13.6025 12.5391 13.4268 12.7344C13.251 12.9336 13.1416 13 12.8682 13H3.98535C3.41504 13 2.98535 12.5703 2.98535 12V4C2.98535 3.42969 3.4541 3.20703 3.98535 3Z" fill="#2E3436"/>
<path d="M7.98544 6L8.02841 6.00391C7.11435 5.96094 6.27841 6.39453 5.83309 6.97266C5.12216 8.19531 4.67684 9.25 4.03231 10.6914C3.86044 11.2148 4.1495 11.7813 4.67294 11.9531C5.20028 12.125 5.76669 11.8359 5.93466 11.3125C6.42294 10.3008 6.85653 9.4961 7.2745 8.50391C7.48544 8 7.97763 8.01172 8.17294 8H13.9854C14.5362 8 14.9854 7.55078 14.9854 7C14.9854 6.44922 14.5362 6 13.9854 6H7.98544Z" fill="#2E3436"/>
</g>
<defs>
<clipPath id="clip0_231_1404">
<rect width="16" height="16" fill="white" transform="translate(0.985352)"/>
</clipPath>
</defs>
</svg>
