<svg width="17" height="16" viewBox="0 0 17 16" fill="none" xmlns="http://www.w3.org/2000/svg">
<g clip-path="url(#clip0_231_1402)">
<path d="M3.97046 1C2.32593 1 0.970459 2.35547 0.970459 4V12C0.970459 13.6445 2.32593 15 3.97046 15H13.9705C15.615 15 16.9705 13.6445 16.9705 12V6C16.9705 4.35547 15.615 3 13.9705 3H10.3845L8.67749 1.29297C8.48999 1.10547 8.23609 1 7.97046 1H3.97046ZM3.97046 3H7.5564L9.26343 4.70703C9.45093 4.89453 9.70484 5 9.97046 5H13.9705C14.533 5 14.9705 5.4375 14.9705 6V12C14.9705 12.5664 14.533 13 13.9705 13H3.97046C3.40796 13 2.97046 12.5664 2.97046 12V4C2.97046 3.4375 3.40796 3 3.97046 3Z" fill="#2E3436"/>
</g>
<defs>
<clipPath id="clip0_231_1402">
<rect width="16" height="16" fill="white" transform="translate(0.970459)"/>
</clipPath>
</defs>
</svg>
