<svg width="16" height="17" viewBox="0 0 16 17" fill="none" xmlns="http://www.w3.org/2000/svg">
<g clip-path="url(#clip0_231_1408)">
<path d="M3 0.98877C1.35547 0.98877 0 2.34424 0 3.98877V13.9888C0 15.6333 1.35547 16.9888 3 16.9888H13C14.6445 16.9888 16 15.6333 16 13.9888V5.98877C16 4.34424 14.6445 2.98877 13 2.98877H9.41407L7.70703 1.28174C7.51953 1.09424 7.26563 0.98877 7 0.98877L3 0.98877ZM3 2.98877H6.58594L8.29297 4.6958C8.48047 4.8833 8.73438 4.98877 9 4.98877H13C13.5625 4.98877 14 5.42627 14 5.98877V10.9888H2V3.98877C2 3.42627 2.4375 2.98877 3 2.98877V2.98877ZM2 12.9888H14V13.9888C14 14.5513 13.5625 14.9888 13 14.9888H3C2.4375 14.9888 2 14.5513 2 13.9888V12.9888Z" fill="#2E3436"/>
</g>
<defs>
<clipPath id="clip0_231_1408">
<rect width="16" height="16" fill="white" transform="translate(0 0.98877)"/>
</clipPath>
</defs>
</svg>
