<svg width="17" height="17" viewBox="0 0 17 17" fill="none" xmlns="http://www.w3.org/2000/svg">
<path d="M4.66675 1.33325C3.02222 1.33325 1.66675 2.68872 1.66675 4.33325V5.33325H2.66675V4.33325C2.66675 3.22388 3.55737 2.33325 4.66675 2.33325H5.66675V1.33325H4.66675ZM6.66675 1.33325V2.33325H10.6667V1.33325H6.66675ZM11.6667 1.33325V2.33325H12.6667C13.7761 2.33325 14.6667 3.22388 14.6667 4.33325V5.33325H15.6667V4.33325C15.6667 2.68872 14.3113 1.33325 12.6667 1.33325H11.6667ZM6.66675 5.33325C6.11597 5.33325 5.66675 5.78247 5.66675 6.33325C5.66675 6.88403 6.11597 7.33325 6.66675 7.33325C7.21753 7.33325 7.66675 6.88403 7.66675 6.33325C7.66675 5.78247 7.21753 5.33325 6.66675 5.33325ZM1.66675 6.33325V10.3333H2.66675V6.33325H1.66675ZM14.6667 6.33325V10.3333H15.6667V6.33325H14.6667ZM10.1667 8.33325L8.16675 10.3333L6.66675 9.33325L4.66675 11.3333V11.8333C4.66675 12.3333 5.16675 12.3333 5.16675 12.3333H12.1667C12.1667 12.3333 12.6394 12.2981 12.6667 11.8333V10.8333L10.1667 8.33325ZM1.66675 11.3333V12.3333C1.66675 13.9778 3.02222 15.3333 4.66675 15.3333H5.66675V14.3333H4.66675C3.55737 14.3333 2.66675 13.4426 2.66675 12.3333V11.3333H1.66675ZM14.6667 11.3333V12.3333C14.6667 13.4426 13.7761 14.3333 12.6667 14.3333H11.6667V15.3333H12.6667C14.3113 15.3333 15.6667 13.9778 15.6667 12.3333V11.3333H14.6667ZM6.66675 14.3333V15.3333H10.6667V14.3333H6.66675Z" fill="#2E3436" fill-opacity="0.5"/>
</svg>
