<svg width="17" height="16" viewBox="0 0 17 16" fill="none" xmlns="http://www.w3.org/2000/svg">
<g clip-path="url(#clip0_231_1370)">
<path d="M8.90869 3.00006C8.354 3.00006 7.90869 3.44537 7.90869 4.00006V5.00006C7.90869 5.55475 8.354 6.00006 8.90869 6.00006C9.46338 6.00006 9.90869 5.55475 9.90869 5.00006V4.00006C9.90869 3.44537 9.46338 3.00006 8.90869 3.00006ZM3.90869 5.05084C3.67041 5.05866 3.43213 5.15631 3.24854 5.34381C2.85791 5.73444 2.85791 6.36334 3.24854 6.75787L3.96729 7.47662C4.35791 7.86725 4.99072 7.86725 5.38135 7.47662C5.77197 7.08209 5.77197 6.45319 5.38135 6.06256L4.6626 5.34381C4.45557 5.13287 4.17822 5.03522 3.90869 5.05084ZM13.8579 5.05084C13.604 5.05084 13.3462 5.1485 13.1509 5.34381L12.4321 6.06256C12.0415 6.45319 12.0415 7.086 12.4321 7.47662C12.8228 7.86725 13.4556 7.86725 13.8462 7.47662L14.5649 6.75787C14.9556 6.36725 14.9556 5.73444 14.5649 5.34381C14.3696 5.1485 14.1118 5.05084 13.8579 5.05084ZM7.15479 9.00006C6.98682 9.00787 6.83057 9.11725 6.77979 9.26178L5.94385 11.4805C5.84229 11.711 6.06885 12.0079 6.34619 12.0001H8.9126H11.4829C11.7603 12.0079 11.9829 11.711 11.8853 11.4805L11.0493 9.26178C10.9751 9.07037 10.7095 8.95319 10.4985 9.02741C10.2876 9.09381 9.67822 9.28912 8.9126 9.28912C8.14697 9.28912 7.5376 9.09381 7.32666 9.02741C7.27197 9.00787 7.21338 8.99616 7.15479 9.00006ZM1.90869 10.0001C1.354 10.0001 0.908691 10.4454 0.908691 11.0001C0.908691 11.5548 1.354 12.0001 1.90869 12.0001H2.88135C3.43604 12.0001 3.88135 11.5548 3.88135 11.0001C3.88135 10.4454 3.43604 10.0001 2.88135 10.0001H1.90869ZM14.8931 10.0001C14.3384 10.0001 13.8931 10.4454 13.8931 11.0001C13.8931 11.5548 14.3384 12.0001 14.8931 12.0001H15.9087C16.4634 12.0001 16.9087 11.5548 16.9087 11.0001C16.9087 10.4454 16.4634 10.0001 15.9087 10.0001H14.8931Z" fill="#2E3436"/>
</g>
<defs>
<clipPath id="clip0_231_1370">
<rect width="16" height="16" fill="white" transform="translate(0.908691)"/>
</clipPath>
</defs>
</svg>
