<svg width="16" height="17" viewBox="0 0 16 17" fill="none" xmlns="http://www.w3.org/2000/svg">
<g clip-path="url(#clip0_231_1102)">
<path fill-rule="evenodd" clip-rule="evenodd" d="M2.03681 6.0033C2.0134 6.22219 2 6.44218 2 6.66663C2.00391 7.37756 2.13672 8.08069 2.38672 8.74866L2.37109 8.74085C2.98868 10.6694 5.96565 13.638 7.83005 15.4971C7.8878 15.5547 7.94449 15.6112 8 15.6666C8.53139 15.1352 9.17432 14.4888 9.83002 13.7965L2.03681 6.0033ZM12.8468 10.2136C12.917 10.1116 12.9838 10.0112 13.0469 9.91272C13.3086 9.49866 13.5156 9.10413 13.6328 8.74085L13.6133 8.74475C13.8633 8.08069 13.9961 7.37756 14 6.66663C14.0039 3.35413 11.3125 0.666626 8 0.666626C6.67548 0.666626 5.45215 1.09813 4.46083 1.82765L7.15438 4.5212C7.41607 4.41835 7.70126 4.36194 8 4.36194C9.27344 4.35803 10.3086 5.39319 10.3086 6.66663C10.3086 6.96614 10.2514 7.25205 10.1475 7.5143L12.8468 10.2136Z" fill="#2E3436"/>
<path d="M1.33348 2.00003L13.59 14.2566" stroke="#2E3436" stroke-width="2" stroke-linecap="round"/>
</g>
<defs>
<clipPath id="clip0_231_1102">
<rect width="16" height="16" fill="white" transform="translate(0 0.666626)"/>
</clipPath>
</defs>
</svg>
