<svg width="16" height="17" viewBox="0 0 16 17" fill="none" xmlns="http://www.w3.org/2000/svg">
<g clip-path="url(#clip0_231_1107)">
<path d="M8 0.666626C4.6875 0.666626 2 3.35413 2 6.66663C2.00781 7.37756 2.13672 8.08069 2.38672 8.74475L2.37109 8.74084C3.00781 10.7291 6.15234 13.8229 7.99609 15.6705H8V15.6666C9.50781 14.1588 11.8789 11.7408 13.0469 9.91272C13.3086 9.49866 13.5156 9.10413 13.6328 8.74084L13.6133 8.74475C13.8633 8.08069 13.9961 7.37756 14 6.66663C14 3.35413 11.3164 0.666626 8 0.666626V0.666626ZM8 4.35803C9.27344 4.35803 10.3086 5.39319 10.3086 6.66663C10.3086 7.94006 9.27344 8.97522 8 8.97522C6.72656 8.97131 5.69531 7.94006 5.69531 6.66663C5.69141 5.39319 6.72656 4.36194 8 4.35803Z" fill="#2E3436"/>
</g>
<defs>
<clipPath id="clip0_231_1107">
<rect width="16" height="16" fill="white" transform="translate(0 0.666626)"/>
</clipPath>
</defs>
</svg>
