<svg width="16" height="16" viewBox="0 0 16 16" fill="none" xmlns="http://www.w3.org/2000/svg">
<g clip-path="url(#clip0_316_284)">
<path d="M1.98428 9.01506C1.66009 9.33773 1.40287 9.72127 1.22734 10.1436C1.0518 10.566 0.961426 11.0189 0.961426 11.4763C0.961426 11.9337 1.0518 12.3866 1.22734 12.809C1.40287 13.2314 1.66009 13.6149 1.98428 13.9376C2.30695 14.2618 2.69049 14.519 3.11287 14.6945C3.53525 14.8701 3.98818 14.9604 4.44558 14.9604C4.90299 14.9604 5.35586 14.8701 5.77824 14.6945C6.20061 14.519 6.58415 14.2618 6.90683 13.9376V13.9376C7.10071 13.7437 7.10034 13.429 6.90645 13.2351V13.2351C6.71236 13.041 6.39711 13.0407 6.20275 13.2345V13.2345C5.22918 14.2091 3.66096 14.2091 2.68739 13.2345C2.45602 13.004 2.2724 12.7301 2.14713 12.4284C2.02187 12.1268 1.95739 11.8034 1.95739 11.4768C1.95739 11.1502 2.02187 10.8268 2.14713 10.5252C2.2724 10.2236 2.45602 9.94964 2.68739 9.71913L9.71816 2.68739C10.6927 1.71283 12.2609 1.71283 13.2345 2.68739C14.2091 3.66095 14.2091 5.2292 13.2345 6.20276L12.5265 6.9118L10.0701 9.36809L9.86432 9.57295L9.01603 10.4222C8.8777 10.5612 8.71328 10.6715 8.53222 10.7467C8.35115 10.8219 8.15702 10.8607 7.96094 10.8607C7.76486 10.8607 7.57073 10.8219 7.38967 10.7467C7.2086 10.6715 7.04418 10.5612 6.90585 10.4222C6.76703 10.2839 6.65683 10.1195 6.58167 9.93857C6.50651 9.75759 6.46787 9.56355 6.46787 9.36759C6.46787 9.17163 6.50651 8.9776 6.58167 8.79662C6.65683 8.61564 6.76703 8.45129 6.90585 8.31298L7.96094 7.25787L8.31242 6.90637C8.50659 6.7122 8.50659 6.39739 8.31242 6.20322V6.20322C8.11829 6.00908 7.80354 6.00903 7.60935 6.20311L6.20275 7.60892C5.22918 8.58347 5.22918 10.1517 6.20275 11.1253C7.17731 12.0998 8.74557 12.0998 9.71913 11.1253L10.5674 10.276L11.8283 9.01605L13.9386 6.90584C14.2628 6.58317 14.52 6.19963 14.6956 5.77725C14.8711 5.35488 14.9614 4.90198 14.9614 4.44458C14.9614 3.98717 14.8711 3.53428 14.6956 3.1119C14.52 2.68953 14.2628 2.30599 13.9386 1.98332C13.6159 1.65913 13.2324 1.40188 12.81 1.22634C12.3876 1.05081 11.9347 0.960449 11.4773 0.960449C11.0199 0.960449 10.567 1.05081 10.1446 1.22634C9.72224 1.40188 9.3387 1.65913 9.01603 1.98332L1.98428 9.01506Z" fill="#2E3436" stroke="#2E3436" stroke-width="0.49863"/>
</g>
<defs>
<clipPath id="clip0_316_284">
<rect width="16" height="16" fill="white"/>
</clipPath>
</defs>
</svg>
