<svg width="17" height="17" viewBox="0 0 17 17" fill="none" xmlns="http://www.w3.org/2000/svg">
<g clip-path="url(#clip0_231_1161)">
<path d="M10.4167 0.943848C9.52612 0.943848 8.6355 1.28369 7.95972 1.95947L4.45972 5.45947C4.44019 5.479 4.42065 5.49853 4.40112 5.52197C4.33081 5.604 3.8269 6.15088 3.60815 6.95947C3.3894 7.76416 3.54956 8.93213 4.448 9.86182C5.36206 10.8032 6.5769 10.9556 7.39331 10.729C8.20581 10.4985 8.61597 10.1431 8.89331 9.854L10.8738 7.87353C11.2644 7.48291 11.2644 6.8501 10.8738 6.45947C10.4832 6.06885 9.85034 6.06885 9.45972 6.45947L7.45972 8.45947C7.4519 8.46338 7.448 8.47119 7.44019 8.479C7.55347 8.36182 7.15112 8.71728 6.85034 8.80322C6.55347 8.88525 6.35034 8.95166 5.8855 8.47119C5.40112 7.97119 5.46362 7.76025 5.53784 7.48291C5.61206 7.20947 5.79565 6.979 5.92456 6.82275L9.37378 3.37353C10.0183 2.729 10.8152 2.729 11.4597 3.37353L13.9597 5.87353C14.6042 6.51807 14.6042 7.31494 13.9597 7.95947L7.95972 13.9595C7.95972 13.9595 7.77612 14.1431 7.48706 14.3345C7.198 14.5259 6.83472 14.6665 6.66675 14.6665H3.66675C3.49878 14.6665 3.21753 14.5532 2.99878 14.3345C2.78003 14.1157 2.66675 13.8345 2.66675 13.6665V9.6665C2.66675 9.11572 2.21753 8.6665 1.66675 8.6665C1.11597 8.6665 0.666748 9.11572 0.666748 9.6665V13.6665C0.666748 14.4985 1.05347 15.2173 1.58472 15.7485C2.11597 16.2798 2.83472 16.6665 3.66675 16.6665H6.66675C7.49878 16.6665 8.1355 16.3071 8.59644 15.9985C9.05737 15.6899 9.37378 15.3735 9.37378 15.3735L15.3738 9.37354C16.7292 8.01807 16.7292 5.81494 15.3738 4.45947L12.8738 1.95947C12.198 1.28369 11.3074 0.943848 10.4167 0.943848V0.943848Z" fill="#2E3436"/>
</g>
<defs>
<clipPath id="clip0_231_1161">
<rect width="16" height="16" fill="white" transform="translate(0.666748 0.666687)"/>
</clipPath>
</defs>
</svg>
