<svg width="16" height="16" viewBox="0 0 16 16" fill="none" xmlns="http://www.w3.org/2000/svg">
<path d="M10.291 0.841093C10.6195 0.679165 11 0.920598 11 1.28684V2H12.006C13.264 2.015 14.185 1.97 14.938 2.385C15.314 2.592 15.611 2.945 15.775 3.383C15.94 3.821 16 4.343 16 5V11C16 11.658 15.94 12.179 15.775 12.617C15.6236 13.0389 15.3264 13.3929 14.937 13.615C14.185 14.031 13.264 13.985 12.006 14H3.994C2.736 13.985 1.815 14.03 1.062 13.615C0.672615 13.3929 0.375414 13.0389 0.224 12.617C0.06 12.18 0 11.657 0 11V5C0 4.342 0.06 3.821 0.225 3.383C0.376414 2.96106 0.673615 2.60712 1.063 2.385C1.815 1.969 2.736 2.015 3.994 2H5V4H3.994C2.735 4.015 2.55 4.26 2.55 4.26C2.55 4.26 2.257 4.47 2.16 4.73C2.063 4.99 2 5.408 2 6V10C2 10.592 2.063 11.01 2.16 11.27C2.258 11.53 2.55 11.74 2.55 11.74C2.55 11.74 2.741 11.985 4 12H12C13.259 11.985 13.45 11.74 13.45 11.74C13.45 11.74 13.742 11.53 13.84 11.27C13.937 11.01 14 10.592 14 10V6C14 5.408 13.937 4.99 13.84 4.73C13.742 4.47 13.45 4.26 13.45 4.26C13.45 4.26 13.26 4.015 12 4H10.998V4.72044C10.998 5.08486 10.6209 5.32623 10.2933 5.16673C9.74747 4.90102 9.20821 4.62111 8.676 4.33C8.14333 4.03655 7.61688 3.73393 7.09699 3.41966C6.78115 3.22874 6.78292 2.77411 7.09964 2.58465C7.61172 2.27834 8.13695 1.97679 8.676 1.68C9.22064 1.3828 9.75907 1.10327 10.291 0.841093Z" fill="#2E3436"/>
<path d="M5.75 6.247C5.917 6.177 6.09 6.1 6.27 6.013C6.454 5.921 6.627 5.823 6.8 5.719C6.96873 5.61238 7.1395 5.49964 7.3 5.381C7.461 5.26 7.603 5.133 7.73 5H9.13V11H7.63V6.85C7.182 7.197 6.62201 7.414 6.14001 7.61L5.93 6.88L5.75 6.247Z" fill="#2E3436"/>
</svg>
