<svg width="16" height="16" viewBox="0 0 16 16" fill="none" xmlns="http://www.w3.org/2000/svg">
<path d="M11.7097 1.34169C11.381 1.17971 11 1.42121 11 1.78766V2.5H0V4.5H11L11.001 5.22227C11.0014 5.58622 11.378 5.82717 11.7054 5.66835C12.2382 5.40998 12.7778 5.13208 13.324 4.834C13.8568 4.54047 14.3834 4.23584 14.9034 3.92031C15.2189 3.72885 15.2171 3.27411 14.9004 3.08465C14.3883 2.77834 13.863 2.47679 13.324 2.18C12.7918 1.88922 12.2536 1.60973 11.7097 1.34169ZM11.7097 10.3417C11.381 10.1797 11 10.4212 11 10.7877V11.5H0V13.5H11L11.001 14.2223C11.0014 14.5862 11.378 14.8272 11.7054 14.6684C12.2382 14.41 12.7778 14.1321 13.324 13.834C13.8568 13.5405 14.3834 13.2358 14.9034 12.9203C15.2189 12.7289 15.2171 12.2741 14.9004 12.0847C14.3883 11.7783 13.863 11.4768 13.324 11.18C12.7918 10.8892 12.2536 10.6097 11.7097 10.3417Z" fill="#2E3436"/>
</svg>
