<svg width="16" height="16" viewBox="0 0 16 16" fill="none" xmlns="http://www.w3.org/2000/svg">
<g clip-path="url(#clip0_311_207)">
<path d="M12.2066 1.84133C11.8779 1.67942 11.4972 1.92099 11.4972 2.28737L11.4979 5.72075C11.498 6.08509 11.875 6.32653 12.2029 6.16769C12.749 5.90313 13.2886 5.62515 13.8211 5.334C14.3536 5.04055 14.8799 4.73613 15.3998 4.42095C15.7157 4.22938 15.7137 3.77391 15.3965 3.58441C14.8764 3.27371 14.3508 2.97219 13.8201 2.68C13.2883 2.38884 12.7504 2.10922 12.2066 1.84133Z" fill="#2E3436"/>
<path d="M12.2066 9.84133C11.8779 9.67942 11.4972 9.92099 11.4972 10.2874L11.4979 13.7208C11.498 14.0851 11.875 14.3265 12.2029 14.1677C12.749 13.9031 13.2886 13.6252 13.8211 13.334C14.3536 13.0406 14.8799 12.7361 15.3998 12.4209C15.7157 12.2294 15.7137 11.7739 15.3965 11.5844C14.8764 11.2737 14.3508 10.9722 13.8201 10.68C13.2883 10.3888 12.7504 10.1092 12.2066 9.84133Z" fill="#2E3436"/>
<path fill-rule="evenodd" clip-rule="evenodd" d="M9 3H12V5H9C8.75332 5 8.73483 5.02282 8.55801 5.24108L8.55078 5.25C8.38893 5.45759 8.19856 5.83949 7.9711 6.29578C7.94603 6.34606 7.92051 6.39726 7.89453 6.44922L7.11719 8L7.89453 9.55078C7.9283 9.61905 7.96115 9.68599 7.99319 9.75129C8.13535 10.041 8.26168 10.2985 8.38281 10.4961C8.38888 10.5063 8.39483 10.5163 8.40066 10.526C8.64984 10.9441 8.68319 11 9 11H12V13H9C7.89062 13 7.08203 12.2148 6.66797 11.5273C6.49057 11.2337 6.34669 10.9401 6.21385 10.669C6.17703 10.5938 6.14107 10.5204 6.10547 10.4492L6 10.2383L5.89453 10.4492C5.85273 10.5328 5.81106 10.619 5.76843 10.7072C5.57199 11.1135 5.35515 11.5621 5.01172 11.9922C4.59375 12.5195 3.85937 13 3 13H0V11H3C3.24668 11 3.26517 10.9772 3.442 10.7589L3.44922 10.75C3.61107 10.5424 3.80144 10.1605 4.0289 9.70423C4.05397 9.65394 4.07949 9.60274 4.10547 9.55078L4.88281 8L4.10547 6.44922C4.0758 6.38932 4.04674 6.33036 4.01826 6.27256C3.84429 5.91946 3.69176 5.60991 3.55078 5.39844C3.54619 5.3914 3.54168 5.38448 3.53725 5.37769C3.31553 5.03755 3.29106 5 3 5H0V3H3C4.01562 3 4.80859 3.66797 5.22266 4.30078C5.45387 4.65236 5.62602 5.00394 5.78492 5.32845C5.82198 5.40415 5.85833 5.47837 5.89453 5.55078L6 5.76172L6.10547 5.55078C6.14726 5.46719 6.18894 5.38099 6.23157 5.2928C6.42801 4.88646 6.64485 4.4379 6.98828 4.00781C7.40625 3.48047 8.14062 3 9 3Z" fill="#2E3436"/>
</g>
<defs>
<clipPath id="clip0_311_207">
<rect width="16" height="16" fill="white"/>
</clipPath>
</defs>
</svg>
