<svg width="16" height="16" viewBox="0 0 16 16" fill="none" xmlns="http://www.w3.org/2000/svg">
<path fill-rule="evenodd" clip-rule="evenodd" d="M13.7052 9.86309C13.8964 9.27978 14 8.65731 14 8.01172V6H12.5V8.01172C12.5 8.21751 12.4864 8.4198 12.4599 8.61781L13.7052 9.86309ZM11 7.15788V3C11 1.33984 9.66016 0 8 0C6.87162 0 5.89121 0.61897 5.3789 1.53678L11 7.15788ZM2 8.01172V6H2.9375L3.5 6.5625V8.01172C3.5 10.5117 5.49219 12.5 8 12.5C8.4375 12.5 8.86328 12.4375 9.26172 12.3242L10.4258 13.4883C9.97656 13.6875 9.5 13.832 9 13.918V16H7V13.918C4.16406 13.4414 2 10.9766 2 8.01172ZM5.00391 8.06641C5.03906 9.67578 6.32422 10.9609 7.93359 10.9961L5.00391 8.06641Z" fill="#2E3436"/>
<path d="M1.99999 1.50003L14.2565 13.7566" stroke="#2E3436" stroke-width="2" stroke-linecap="round"/>
</svg>
