<svg width="16" height="16" viewBox="0 0 16 16" fill="none" xmlns="http://www.w3.org/2000/svg">
<path d="M5 5V8C5 9.66016 6.33984 11 8 11C9.66016 11 11 9.66016 11 8V5H5ZM2 6V8.01172C2 10.9766 4.16406 13.4414 7 13.918V16H9V13.918C11.8359 13.4414 14 10.9766 14 8.01172V6H12.5V8.01172C12.5 10.5117 10.5078 12.5 8 12.5C5.49219 12.5 3.5 10.5117 3.5 8.01172V6H2Z" fill="#2E3436"/>
<path d="M8 0C6.33984 0 5 1.33984 5 3V5H7V3C7 2.44531 7.44531 2 8 2C8.55469 2 9 2.44531 9 3V5H11V3C11 1.33984 9.66016 0 8 0Z" fill="#2E3436" fill-opacity="0.5"/>
</svg>
