<svg width="16" height="17" viewBox="0 0 16 17" fill="none" xmlns="http://www.w3.org/2000/svg">
<path d="M15 10.6666C15.5547 10.6666 16 11.1119 16 11.6666V14.6666C16 15.2213 15.5547 15.6666 15 15.6666H14C13.4453 15.6666 13 15.2213 13 14.6666V11.6666C13 11.1119 13.4453 10.6666 14 10.6666H15Z" fill="#2E3436"/>
<path d="M3 1.66663C3.55469 1.66663 4 2.11194 4 2.66663V14.6666C4 15.2213 3.55469 15.6666 3 15.6666H2C1.44531 15.6666 1 15.2213 1 14.6666V2.66663C1 2.11194 1.44531 1.66663 2 1.66663H3ZM7 4.66663C7.55469 4.66663 8 5.11194 8 5.66663V14.6666C8 15.2213 7.55469 15.6666 7 15.6666H6C5.44531 15.6666 5 15.2213 5 14.6666V5.66663C5 5.11194 5.44531 4.66663 6 4.66663H7ZM11 7.66663C11.5547 7.66663 12 8.11194 12 8.66663V14.6666C12 15.2213 11.5547 15.6666 11 15.6666H10C9.44531 15.6666 9 15.2213 9 14.6666V8.66663C9 8.11194 9.44531 7.66663 10 7.66663H11Z" fill="#2E3436" fill-opacity="0.5"/>
</svg>
