<svg width="16" height="16" viewBox="0 0 16 16" fill="none" xmlns="http://www.w3.org/2000/svg">
<g clip-path="url(#clip0_231_904)">
<path fill-rule="evenodd" clip-rule="evenodd" d="M5.33333 4V6H3.41406L4.70703 7.29297C5.09766 7.68359 5.09766 8.31641 4.70703 8.70703C4.51172 8.90234 4.25781 9 4 9C3.74219 9 3.48828 8.90234 3.29297 8.70703L0.292969 5.70703C-0.0976563 5.31641 -0.0976563 4.68359 0.292969 4.29297L3.29297 1.29297C3.48047 1.10547 3.73438 1 4 1C4.26563 1 4.51953 1.10547 4.70703 1.29297C5.09766 1.68359 5.09766 2.31641 4.70703 2.70703L3.41406 4H5.33333ZM10.6667 6V4H11C11.5508 4 12 4.44922 12 5C12 5.55078 11.5508 6 11 6H10.6667ZM10.6667 10V12H12.5859L11.293 13.293C10.9023 13.6836 10.9023 14.3164 11.293 14.707C11.4805 14.8945 11.7344 15 12 15C12.2656 15 12.5195 14.8945 12.707 14.707L15.707 11.707C16.0977 11.3164 16.0977 10.6836 15.707 10.293L12.707 7.29297C12.3164 6.90234 11.6836 6.90234 11.293 7.29297C10.9023 7.68359 10.9023 8.31641 11.293 8.70703L12.5859 10H10.6667ZM5.33333 10V12H5C4.44922 12 4 11.5508 4 11C4 10.4492 4.44922 10 5 10H5.33333Z" fill="#2E3436" fill-opacity="0.5"/>
<rect width="2.6623" height="2.6623" rx="1.33115" transform="matrix(1 0 0 -1 6.66895 4.64636)" fill="#2E3436"/>
<rect width="1.99672" height="8.65247" rx="0.998362" transform="matrix(1 0 0 -1 7.00146 14.3229)" fill="#2E3436"/>
</g>
<defs>
<clipPath id="clip0_231_904">
<rect width="16" height="16" fill="white" transform="matrix(1 0 0 -1 0 16)"/>
</clipPath>
</defs>
</svg>
