<svg width="16" height="16" viewBox="0 0 16 16" fill="none" xmlns="http://www.w3.org/2000/svg">
<g clip-path="url(#clip0_231_1343)">
<path d="M7 4C7.55469 4 8 4.44531 8 5V14C8 14.5547 7.55469 15 7 15H6C5.44531 15 5 14.5547 5 14V5C5 4.44531 5.44531 4 6 4H7ZM11 7C11.5547 7 12 7.44531 12 8V14C12 14.5547 11.5547 15 11 15H10C9.44531 15 9 14.5547 9 14V8C9 7.44531 9.44531 7 10 7H11ZM15 10C15.5547 10 16 10.4453 16 11V14C16 14.5547 15.5547 15 15 15H14C13.4453 15 13 14.5547 13 14V11C13 10.4453 13.4453 10 14 10H15Z" fill="#2E3436" fill-opacity="0.5"/>
<rect x="1.18799" y="12.1763" width="2.6623" height="2.6623" rx="1.33115" fill="#2E3436"/>
<rect x="1.52075" y="2.5" width="1.99672" height="8.65247" rx="0.998362" fill="#2E3436"/>
</g>
<defs>
<clipPath id="clip0_231_1343">
<rect width="16" height="16" fill="white"/>
</clipPath>
</defs>
</svg>
