<svg width="16" height="16" viewBox="0 0 16 16" fill="none" xmlns="http://www.w3.org/2000/svg">
<path d="M13 1C12.4453 1 12 1.44531 12 2V14C12 14.5547 12.4453 15 13 15H14C14.5547 15 15 14.5547 15 14V2C15 1.44531 14.5547 1 14 1H13ZM9 4C8.44531 4 8 4.44531 8 5V14C8 14.5547 8.44531 15 9 15H10C10.5547 15 11 14.5547 11 14V5C11 4.44531 10.5547 4 10 4H9ZM5 7C4.44531 7 4 7.44531 4 8V14C4 14.5547 4.44531 15 5 15H6C6.55469 15 7 14.5547 7 14V8C7 7.44531 6.55469 7 6 7H5ZM1 10C0.445312 10 0 10.4453 0 11V14C0 14.5547 0.445312 15 1 15H2C2.55469 15 3 14.5547 3 14V11C3 10.4453 2.55469 10 2 10H1Z" fill="#2E3436"/>
</svg>
