<svg width="16" height="16" viewBox="0 0 16 16" fill="none" xmlns="http://www.w3.org/2000/svg">
<path fill-rule="evenodd" clip-rule="evenodd" d="M16 5.85975L15.2211 6.71722L15.2229 6.71905L11.86 10.454C11.3907 9.8384 10.8046 9.34337 10.1429 9.00374C9.48128 8.66411 8.76007 8.48811 8.03001 8.48811C7.29995 8.48811 6.57875 8.66411 5.91708 9.00374C5.25541 9.34337 4.66933 9.8384 4.20001 10.454L0 5.85975C1.01889 4.64285 2.2558 3.67161 3.63271 3.00729C5.00963 2.34298 6.49666 2 8 2C9.50334 2 10.9904 2.34298 12.3673 3.00729C13.7442 3.67161 14.9811 4.64285 16 5.85975ZM10.6067 11.7897L9.86002 12.6191L9.08669 13.4704L8.00002 14.6667L6.13336 12.6191L5.39336 11.8044C5.98994 10.9001 6.97812 10.1867 7.99336 10.1811C9.00988 10.1846 10.0009 10.8911 10.6067 11.7897ZM11.4082 7.96804L11.8631 8.28985L13.9812 5.95178L13.401 5.50582C12.9093 5.12793 12.3841 4.8011 11.832 4.5309C10.6234 3.93936 9.3136 3.63292 7.98782 3.63292C6.66204 3.63292 5.35227 3.93936 4.1436 4.5309C3.60204 4.79594 3.08638 5.11548 2.60283 5.48426L2.01882 5.92965L4.11196 8.24012L4.56462 7.92947C4.80795 7.76248 5.06287 7.61254 5.32863 7.47977C6.15713 7.06588 7.05456 6.85259 7.96117 6.85259C8.86777 6.85259 9.7652 7.06588 10.5937 7.47977C10.876 7.62079 11.1482 7.78405 11.4082 7.96804Z" fill="#2E3436" fill-opacity="0.5"/>
</svg>
