<svg width="16" height="16" viewBox="0 0 16 16" fill="none" xmlns="http://www.w3.org/2000/svg">
<path d="M3 0.999756C3.55469 0.999756 4 1.44507 4 1.99976V13.9998C4 14.5544 3.55469 14.9998 3 14.9998H2C1.44531 14.9998 1 14.5544 1 13.9998V1.99976C1 1.44507 1.44531 0.999756 2 0.999756H3ZM7 3.99976C7.55469 3.99976 8 4.44507 8 4.99976V13.9998C8 14.5544 7.55469 14.9998 7 14.9998H6C5.44531 14.9998 5 14.5544 5 13.9998V4.99976C5 4.44507 5.44531 3.99976 6 3.99976H7ZM11 6.99976C11.5547 6.99976 12 7.44507 12 7.99976V13.9998C12 14.5544 11.5547 14.9998 11 14.9998H10C9.44531 14.9998 9 14.5544 9 13.9998V7.99976C9 7.44507 9.44531 6.99976 10 6.99976H11Z" fill="#2E3436" fill-opacity="0.5"/>
<rect x="13.1587" y="12.1763" width="2.6623" height="2.6623" rx="1.33115" fill="#2E3436"/>
<rect x="13.4917" y="2.5" width="1.99672" height="8.65247" rx="0.998362" fill="#2E3436"/>
</svg>
