<svg width="16" height="16" viewBox="0 0 16 16" fill="none" xmlns="http://www.w3.org/2000/svg">
<g clip-path="url(#clip0_231_987)">
<path d="M3 0C1.33984 0 0 1.33984 0 3V13C0 14.6602 1.33984 16 3 16H13C14.6602 16 16 14.6602 16 13V3C16 1.33984 14.6602 0 13 0H3ZM6 3H12V5H6V7H10V9H6V11H6.03125H12V13H6C5.375 13 5.00781 12.7578 4.65625 12.4375C4.32422 12.1328 4.01172 11.6484 4.03125 11H4V5H4.03125C4.01953 4.52344 4.14062 4 4.5 3.59375C4.85547 3.19141 5.43359 3.01172 6 3.03125V3Z" fill="#2E3436"/>
</g>
<defs>
<clipPath id="clip0_231_987">
<rect width="16" height="16" fill="white"/>
</clipPath>
</defs>
</svg>
