<svg width="17" height="16" viewBox="0 0 17 16" fill="none" xmlns="http://www.w3.org/2000/svg">
<g clip-path="url(#clip0_231_1181)">
<path d="M3.33325 0.999878C1.68872 0.999878 0.333252 2.35535 0.333252 3.99988V7.99988C0.333252 9.64441 1.68872 10.9999 3.33325 10.9999H4.33325V11.9999C4.33325 13.6444 5.68872 14.9999 7.33325 14.9999H13.3333C14.9778 14.9999 16.3333 13.6444 16.3333 11.9999V7.99988C16.3333 6.35535 14.9778 4.99988 13.3333 4.99988H12.3333V3.99988C12.3333 2.35535 10.9778 0.999878 9.33325 0.999878H3.33325ZM3.33325 2.99988H9.33325C9.90356 2.99988 10.3333 3.42957 10.3333 3.99988V7.99988C10.3333 8.57019 9.90356 8.99988 9.33325 8.99988H8.33325C7.78247 8.99988 7.33325 9.4491 7.33325 9.99988C7.33325 10.5507 7.78247 10.9999 8.33325 10.9999H9.33325C10.9778 10.9999 12.3333 9.64441 12.3333 7.99988V6.99988H13.3333C13.9036 6.99988 14.3333 7.42957 14.3333 7.99988V11.9999C14.3333 12.5702 13.9036 12.9999 13.3333 12.9999H7.33325C6.76294 12.9999 6.33325 12.5702 6.33325 11.9999V7.99988C6.33325 7.42957 6.76294 6.99988 7.33325 6.99988H8.33325C8.88403 6.99988 9.33325 6.55066 9.33325 5.99988C9.33325 5.4491 8.88403 4.99988 8.33325 4.99988H7.33325C5.68872 4.99988 4.33325 6.35535 4.33325 7.99988V8.99988H3.33325C2.76294 8.99988 2.33325 8.57019 2.33325 7.99988V3.99988C2.33325 3.42957 2.76294 2.99988 3.33325 2.99988Z" fill="#2E3436"/>
</g>
<defs>
<clipPath id="clip0_231_1181">
<rect width="16" height="16" fill="white" transform="translate(0.333252)"/>
</clipPath>
</defs>
</svg>
