<svg width="16" height="16" viewBox="0 0 16 16" fill="none" xmlns="http://www.w3.org/2000/svg">
<g clip-path="url(#clip0_231_989)">
<path d="M3 0C1.33984 0 0 1.33984 0 3V13C0 14.6602 1.33984 16 3 16H13C14.6602 16 16 14.6602 16 13V3C16 1.33984 14.6602 0 13 0H3ZM2 3H6C6.72656 3.01953 7.19531 3.78125 6.875 4.4375L5.5 7.21875C5.85547 7.33594 6.25 7.41406 6.46875 7.65625C6.80078 8.02344 7 8.46484 7 9V11C7 12.1133 6.09375 13 5 13H2V11H5V9H4C3.27344 8.98047 2.80469 8.21875 3.125 7.5625L4.375 5H2V3ZM10 3H12C12.832 3 13.5234 3.5625 13.7695 4.05078C14.0156 4.54297 14 5 14 5V6H12V5H10V11H12V9H11V7H14V11C14 11 14.0156 11.457 13.7695 11.9492C13.5234 12.4375 12.832 13 12 13H10C10 13 9.54297 13.0156 9.05078 12.7695C8.5625 12.5234 8 11.832 8 11V5C8 5 7.98437 4.54297 8.23047 4.05078C8.47656 3.5625 9.16797 3 10 3Z" fill="#2E3436"/>
</g>
<defs>
<clipPath id="clip0_231_989">
<rect width="16" height="16" fill="white"/>
</clipPath>
</defs>
</svg>
