<svg width="16" height="16" viewBox="0 0 16 16" fill="none" xmlns="http://www.w3.org/2000/svg">
<g clip-path="url(#clip0_231_1357)">
<path fill-rule="evenodd" clip-rule="evenodd" d="M12 2C12 1.44531 12.4453 1 13 1H14C14.5547 1 15 1.44531 15 2V2.67158C14.3298 2.42139 13.55 2.50814 12.9363 2.97059L12 3.67614V2ZM12 9.10206L15 6.8414V14C15 14.5547 14.5547 15 14 15H13C12.4453 15 12 14.5547 12 14V9.10206ZM11 9.85561L8 12.1163V14C8 14.5547 8.44531 15 9 15H10C10.5547 15 11 14.5547 11 14V9.85561ZM8 6.69036L10.879 4.52086C10.71 4.20984 10.3808 4 10 4H9C8.44531 4 8 4.44531 8 5V6.69036ZM7 12.8698V14C7 14.5547 6.55469 15 6 15H5C4.78265 15 4.5821 14.9316 4.41855 14.8151L7 12.8698ZM4 9.70457L6.88445 7.53098C6.71711 7.21441 6.38489 7 6 7H5C4.44531 7 4 7.44531 4 8V9.70457ZM0 12.8218C0.118349 12.6655 0.260046 12.5228 0.424347 12.399L2.88977 10.5412C2.72422 10.219 2.38901 10 2 10H1C0.445312 10 0 10.4453 0 11V12.8218Z" fill="#2E3436"/>
<path d="M15.1975 3.82796C14.8069 3.43744 14.1738 3.43744 13.7832 3.82796L0.684707 13.7842C0.294183 14.1747 0.294184 14.8079 0.684709 15.1984C1.07523 15.5889 1.7084 15.5889 2.09892 15.1984L15.1975 5.24217C15.588 4.85165 15.588 4.21849 15.1975 3.82796Z" fill="#2E3436"/>
<path d="M15.1975 3.82796C14.8069 3.43744 14.1738 3.43744 13.7832 3.82796L0.684707 13.7842C0.294183 14.1747 0.294184 14.8079 0.684709 15.1984C1.07523 15.5889 1.7084 15.5889 2.09892 15.1984L15.1975 5.24217C15.588 4.85165 15.588 4.21849 15.1975 3.82796Z" stroke="#E5E5E5"/>
</g>
<defs>
<clipPath id="clip0_231_1357">
<rect width="16" height="16" fill="white" transform="matrix(-1 0 0 1 16 0)"/>
</clipPath>
</defs>
</svg>
