<svg width="16" height="16" viewBox="0 0 16 16" fill="none" xmlns="http://www.w3.org/2000/svg">
<g clip-path="url(#clip0_231_1324)">
<path d="M13 1C12.4453 1 12 1.44531 12 2V5H15V2C15 1.44531 14.5547 1 14 1H13ZM9 4C8.44531 4 8 4.44531 8 5H11C11 4.44531 10.5547 4 10 4H9ZM0 11V14C0 14.5547 0.445312 15 1 15H2C2.55469 15 3 14.5547 3 14V11H0ZM4 11V14C4 14.5547 4.44531 15 5 15H6C6.55469 15 7 14.5547 7 14V11H4ZM8 11V14C8 14.5547 8.44531 15 9 15H10C10.5547 15 11 14.5547 11 14V11H8ZM12 11V14C12 14.5547 12.4453 15 13 15H14C14.5547 15 15 14.5547 15 14V11H12Z" fill="#2E3436" fill-opacity="0.5"/>
<path d="M0 6H16V10H0V6Z" fill="#2E3436"/>
</g>
<defs>
<clipPath id="clip0_231_1324">
<rect width="16" height="16" fill="white"/>
</clipPath>
</defs>
</svg>
