<svg width="16" height="17" viewBox="0 0 16 17" fill="none" xmlns="http://www.w3.org/2000/svg">
<g clip-path="url(#clip0_231_1268)">
<path d="M3 1.33337C3.55469 1.33337 4 1.77869 4 2.33337V14.3334C4 14.8881 3.55469 15.3334 3 15.3334H2C1.44531 15.3334 1 14.8881 1 14.3334V2.33337C1 1.77869 1.44531 1.33337 2 1.33337H3ZM7 4.33337C7.55469 4.33337 8 4.77869 8 5.33337V14.3334C8 14.8881 7.55469 15.3334 7 15.3334H6C5.44531 15.3334 5 14.8881 5 14.3334V5.33337C5 4.77869 5.44531 4.33337 6 4.33337H7ZM11 7.33337C11.5547 7.33337 12 7.77869 12 8.33337V14.3334C12 14.8881 11.5547 15.3334 11 15.3334H10C9.44531 15.3334 9 14.8881 9 14.3334V8.33337C9 7.77869 9.44531 7.33337 10 7.33337H11ZM15 10.3334C15.5547 10.3334 16 10.7787 16 11.3334V14.3334C16 14.8881 15.5547 15.3334 15 15.3334H14C13.4453 15.3334 13 14.8881 13 14.3334V11.3334C13 10.7787 13.4453 10.3334 14 10.3334H15Z" fill="#2E3436" fill-opacity="0.5"/>
</g>
<defs>
<clipPath id="clip0_231_1268">
<rect width="16" height="16" fill="white" transform="translate(0 0.333374)"/>
</clipPath>
</defs>
</svg>
