<svg width="16" height="16" viewBox="0 0 16 16" fill="none" xmlns="http://www.w3.org/2000/svg">
<g clip-path="url(#clip0_231_917)">
<path fill-rule="evenodd" clip-rule="evenodd" d="M11.5326 14.5454C9.9138 15.4913 8.31442 15.9541 8.31442 15.9541C8.10868 16.0153 7.89128 16.0153 7.68554 15.9541C7.68554 15.9541 6.08616 15.4913 4.46737 14.5454C3.04561 13.7145 1.48011 12.4401 1.12009 10.6667H2.85143C3.18335 11.5633 4.07857 12.3878 5.30826 13.1064C6.01933 13.5219 6.73856 13.8378 7.28702 14.0509C7.55885 14.1565 7.7829 14.2346 7.93539 14.2852L7.99998 14.3064L8.06457 14.2852C8.21706 14.2346 8.44111 14.1565 8.71293 14.0509C9.2614 13.8378 9.98062 13.5219 10.6917 13.1064C11.9214 12.3878 12.8166 11.5633 13.1485 10.6667H14.8799C14.5199 12.4401 12.9544 13.7145 11.5326 14.5454ZM14.9565 5.33339V2.93174C14.9565 2.4688 14.6481 2.34214 14.0313 2.08881L13.9627 2.06064L8.65323 0.225782C8.23001 0.0795242 7.76995 0.0795246 7.34672 0.225782L2.03725 2.06064L1.9687 2.08881L1.96869 2.08881C1.35187 2.34214 1.04346 2.4688 1.04346 2.93174V5.33339H2.71012V3.59149L7.8911 1.80104C7.96164 1.77666 8.03832 1.77666 8.10885 1.80104L13.2898 3.59149V5.33339H14.9565Z" fill="#2E3436" fill-opacity="0.5"/>
<circle cx="2.66673" cy="7.93333" r="1.93333" fill="#2E3436"/>
<circle cx="7.99998" cy="7.93333" r="1.93333" fill="#2E3436"/>
<circle cx="13.3332" cy="7.93333" r="1.93333" fill="#2E3436"/>
</g>
<defs>
<clipPath id="clip0_231_917">
<rect width="16" height="16" fill="white"/>
</clipPath>
</defs>
</svg>
