<svg width="16" height="16" viewBox="0 0 16 16" fill="none" xmlns="http://www.w3.org/2000/svg">
<g clip-path="url(#clip0_231_647)">
<rect x="4" y="7" width="8" height="2" rx="1" fill="#2E3436"/>
<path fill-rule="evenodd" clip-rule="evenodd" d="M11.4857 2.14254C11.9592 1.85839 12.5735 2.01195 12.8576 2.48553L15.8576 7.48553C16.0477 7.80222 16.0477 8.19784 15.8576 8.51452L12.8576 13.5145C12.5735 13.9881 11.9592 14.1417 11.4857 13.8575C11.0121 13.5734 10.8585 12.9591 11.1427 12.4855L13.834 8.00003L11.1427 3.51452C10.8585 3.04094 11.0121 2.42668 11.4857 2.14254Z" fill="#2E3436"/>
<path fill-rule="evenodd" clip-rule="evenodd" d="M4.51434 2.14254C4.04076 1.85839 3.4265 2.01195 3.14236 2.48553L0.142356 7.48553C-0.0476537 7.80222 -0.0476537 8.19784 0.142356 8.51452L3.14236 13.5145C3.4265 13.9881 4.04076 14.1417 4.51434 13.8575C4.98792 13.5734 5.14149 12.9591 4.85734 12.4855L2.16604 8.00003L4.85734 3.51452C5.14149 3.04094 4.98792 2.42668 4.51434 2.14254Z" fill="#2E3436"/>
</g>
<defs>
<clipPath id="clip0_231_647">
<rect width="16" height="16" fill="white"/>
</clipPath>
</defs>
</svg>
