<svg width="16" height="16" viewBox="0 0 16 16" fill="none" xmlns="http://www.w3.org/2000/svg">
<path fill-rule="evenodd" clip-rule="evenodd" d="M16 5.72473L14.52 7.29701C13.6961 6.32711 12.6898 5.55173 11.5661 5.02101C10.4424 4.4903 9.2264 4.21607 7.99667 4.21607C6.76693 4.21607 5.55089 4.4903 4.4272 5.02101C3.3035 5.55173 2.29719 6.32711 1.47333 7.29701L0 5.72473C1.01889 4.5504 2.2558 3.61313 3.63271 2.97206C5.00963 2.33098 6.49666 2 8 2C9.50334 2 10.9904 2.33098 12.3673 2.97206C13.7442 3.61313 14.9811 4.5504 16 5.72473ZM13.3333 8.59308L11.86 10.1583C11.3907 9.56418 10.8046 9.08647 10.1429 8.75872C9.48127 8.43097 8.76006 8.26113 8.03 8.26113C7.29994 8.26113 6.57874 8.43097 5.91707 8.75872C5.2554 9.08647 4.66931 9.56418 4.2 10.1583L2.66667 8.59308C3.32806 7.79 4.14342 7.14642 5.05808 6.70547C5.97274 6.26453 6.96557 6.03641 7.97 6.03641C8.97443 6.03641 9.96726 6.26453 10.8819 6.70547C11.7966 7.14642 12.6119 7.79 13.2733 8.59308H13.3333ZM9.86004 12.2476L10.6067 11.4473C10.0009 10.5801 9.0099 9.89829 7.99337 9.895C6.97813 9.90041 5.98995 10.5888 5.39337 11.4615L6.13337 12.2476L8.00004 14.2236L9.0867 13.0692L9.86004 12.2476Z" fill="#2E3436"/>
</svg>
