<svg width="16" height="16" viewBox="0 0 16 16" fill="none" xmlns="http://www.w3.org/2000/svg">
<path d="M3 1C3.55469 1 4 1.44531 4 2V14C4 14.5547 3.55469 15 3 15H2C1.44531 15 1 14.5547 1 14V2C1 1.44531 1.44531 1 2 1H3ZM7 4C7.55469 4 8 4.44531 8 5V14C8 14.5547 7.55469 15 7 15H6C5.44531 15 5 14.5547 5 14V5C5 4.44531 5.44531 4 6 4H7ZM11 7C11.5547 7 12 7.44531 12 8V14C12 14.5547 11.5547 15 11 15H10C9.44531 15 9 14.5547 9 14V8C9 7.44531 9.44531 7 10 7H11ZM15 10C15.5547 10 16 10.4453 16 11V14C16 14.5547 15.5547 15 15 15H14C13.4453 15 13 14.5547 13 14V11C13 10.4453 13.4453 10 14 10H15Z" fill="#2E3436"/>
</svg>
