<svg width="16" height="17" viewBox="0 0 16 17" fill="none" xmlns="http://www.w3.org/2000/svg">
<path d="M15.9999 6.72471L14.5199 8.29699C13.6961 7.32709 12.6898 6.55171 11.5661 6.021C10.4424 5.49029 9.22636 5.21606 7.99663 5.21606C6.7669 5.21606 5.55086 5.49029 4.42718 6.021C3.30349 6.55171 2.29717 7.32709 1.47333 8.29699L0 6.72471C1.01888 5.55039 2.25579 4.61313 3.6327 3.97205C5.0096 3.33098 6.49663 3 7.99996 3C9.5033 3 10.9903 3.33098 12.3672 3.97205C13.7441 4.61313 14.981 5.55039 15.9999 6.72471Z" fill="#2E3436" fill-opacity="0.5"/>
<path d="M13.3334 9.59316L11.86 11.1584C11.3907 10.5643 10.8046 10.0866 10.143 9.7588C9.48131 9.43105 8.76011 9.26121 8.03006 9.26121C7.3 9.26121 6.5788 9.43105 5.91713 9.7588C5.25546 10.0866 4.66938 10.5643 4.20007 11.1584L2.66675 9.59316C3.32814 8.79009 4.14349 8.14651 5.05815 7.70556C5.97281 7.26462 6.96563 7.0365 7.97006 7.0365C8.97448 7.0365 9.96731 7.26462 10.882 7.70556C11.7966 8.14651 12.612 8.79009 13.2734 9.59316H13.3334Z" fill="#2E3436" fill-opacity="0.5"/>
<path d="M10.6066 12.4472L9.85996 13.2475L9.08663 14.0691L7.99996 15.2235L6.13331 13.2475L5.39331 12.4614C5.98989 11.5887 6.97806 10.9003 7.9933 10.8949C9.00982 10.8982 10.0009 11.58 10.6066 12.4472Z" fill="#2E3436"/>
</svg>
