<svg width="16" height="16" viewBox="0 0 16 16" fill="none" xmlns="http://www.w3.org/2000/svg">
<g clip-path="url(#clip0_231_631)">
<path fill-rule="evenodd" clip-rule="evenodd" d="M5.09763 9.51256C4.76368 9.84651 4.76368 10.3879 5.09763 10.7219C5.43158 11.0558 5.97302 11.0558 6.30696 10.7219L8.00004 9.02882L9.69312 10.7219C10.0271 11.0558 10.5685 11.0558 10.9025 10.7219C11.2364 10.3879 11.2364 9.84651 10.9025 9.51256L9.20938 7.81949L10.9024 6.12642C11.2364 5.79247 11.2364 5.25104 10.9024 4.91709C10.5685 4.58314 10.0271 4.58314 9.6931 4.91709L8.00004 6.61015L6.30698 4.91709C5.97303 4.58314 5.43159 4.58314 5.09764 4.91709C4.7637 5.25104 4.7637 5.79247 5.09764 6.12642L6.79071 7.81949L5.09763 9.51256Z" fill="#2E3436"/>
<path fill-rule="evenodd" clip-rule="evenodd" d="M4.51434 2.14266C4.04076 1.85851 3.4265 2.01208 3.14236 2.48566L0.142356 7.48566C-0.0476537 7.80234 -0.0476537 8.19796 0.142356 8.51465L3.14236 13.5146C3.4265 13.9882 4.04076 14.1418 4.51434 13.8576C4.98792 13.5735 5.14149 12.9592 4.85734 12.4857L2.16604 8.00015L4.85734 3.51465C5.14149 3.04107 4.98792 2.42681 4.51434 2.14266Z" fill="#2E3436" fill-opacity="0.5"/>
<path fill-rule="evenodd" clip-rule="evenodd" d="M11.4857 2.14254C11.9592 1.85839 12.5735 2.01195 12.8576 2.48553L15.8576 7.48553C16.0477 7.80222 16.0477 8.19784 15.8576 8.51452L12.8576 13.5145C12.5735 13.9881 11.9592 14.1417 11.4857 13.8575C11.0121 13.5734 10.8585 12.9591 11.1427 12.4855L13.834 8.00003L11.1427 3.51452C10.8585 3.04094 11.0121 2.42668 11.4857 2.14254Z" fill="#2E3436" fill-opacity="0.5"/>
</g>
<defs>
<clipPath id="clip0_231_631">
<rect width="16" height="16" fill="white"/>
</clipPath>
</defs>
</svg>
