<svg width="17" height="16" viewBox="0 0 17 16" fill="none" xmlns="http://www.w3.org/2000/svg">
<g clip-path="url(#clip0_231_640)">
<circle cx="8.6333" cy="8" r="1.5" fill="#2E3436"/>
<circle cx="12.1665" cy="8" r="1.5" fill="#2E3436"/>
<circle cx="5.1665" cy="8" r="1.5" fill="#2E3436"/>
<path fill-rule="evenodd" clip-rule="evenodd" d="M12.1522 2.14254C12.6257 1.85839 13.24 2.01195 13.5241 2.48553L16.5241 7.48553C16.7142 7.80222 16.7142 8.19784 16.5241 8.51452L13.5241 13.5145C13.24 13.9881 12.6257 14.1417 12.1522 13.8575C11.6786 13.5734 11.525 12.9591 11.8092 12.4855L14.5005 8.00003L11.8092 3.51452C11.525 3.04094 11.6786 2.42668 12.1522 2.14254Z" fill="#2E3436" fill-opacity="0.5"/>
<path fill-rule="evenodd" clip-rule="evenodd" d="M5.18085 2.14266C4.70727 1.85851 4.09301 2.01208 3.80886 2.48566L0.80886 7.48566C0.61885 7.80234 0.61885 8.19796 0.80886 8.51465L3.80886 13.5146C4.09301 13.9882 4.70727 14.1418 5.18085 13.8576C5.65443 13.5735 5.80799 12.9592 5.52385 12.4857L2.83254 8.00015L5.52385 3.51465C5.80799 3.04107 5.65443 2.42681 5.18085 2.14266Z" fill="#2E3436" fill-opacity="0.5"/>
</g>
<defs>
<clipPath id="clip0_231_640">
<rect width="16" height="16" fill="white" transform="translate(0.666504)"/>
</clipPath>
</defs>
</svg>
