<svg width="16" height="16" viewBox="0 0 16 16" fill="none" xmlns="http://www.w3.org/2000/svg">
<path d="M12 15C11.7344 15 11.4805 14.8945 11.293 14.707C10.9023 14.3164 10.9023 13.6836 11.293 13.293L12.5859 12H5C4.44922 12 4 11.5508 4 11C4 10.4492 4.44922 10 5 10H12.5859L11.5547 8.96875C11.7031 8.98438 11.8516 8.99609 12 9C12.6875 9 13.3672 8.85547 13.9961 8.58203L15.707 10.293C16.0977 10.6836 16.0977 11.3164 15.707 11.707L12.707 14.707C12.5195 14.8945 12.2656 15 12 15V15ZM4 9C3.74219 9 3.48828 8.90234 3.29297 8.70703L0.292969 5.70703C-0.0976563 5.31641 -0.0976563 4.68359 0.292969 4.29297L3.29297 1.29297C3.48047 1.10547 3.73438 1 4 1C4.26562 1 4.51953 1.10547 4.70703 1.29297C5.09766 1.68359 5.09766 2.31641 4.70703 2.70703L3.41406 4H7C7.00391 4.6875 7.14453 5.37109 7.42578 6H3.41406L4.70703 7.29297C5.09766 7.68359 5.09766 8.31641 4.70703 8.70703C4.51172 8.90234 4.25781 9 4 9V9Z" fill="#2E3436" fill-opacity="0.5"/>
<path d="M12 8C9.78906 8 8 6.21094 8 4C8 1.78906 9.78906 0 12 0C14.2109 0 16 1.78906 16 4C16 6.21094 14.2109 8 12 8ZM10 5H14C14.5547 5 15 4.55469 15 4C15 3.44531 14.5547 3 14 3H10C9.44531 3 9 3.44531 9 4C9 4.55469 9.44531 5 10 5Z" fill="#0000FF"/>
</svg>
