<svg width="16" height="17" viewBox="0 0 16 17" fill="none" xmlns="http://www.w3.org/2000/svg">
<path d="M13 1.33337C12.4453 1.33337 12 1.77869 12 2.33337V14.3334C12 14.8881 12.4453 15.3334 13 15.3334H14C14.5547 15.3334 15 14.8881 15 14.3334V2.33337C15 1.77869 14.5547 1.33337 14 1.33337H13ZM9 4.33337C8.44531 4.33337 8 4.77869 8 5.33337V14.3334C8 14.8881 8.44531 15.3334 9 15.3334H10C10.5547 15.3334 11 14.8881 11 14.3334V5.33337C11 4.77869 10.5547 4.33337 10 4.33337H9ZM5 7.33337C4.44531 7.33337 4 7.77869 4 8.33337V14.3334C4 14.8881 4.44531 15.3334 5 15.3334H6C6.55469 15.3334 7 14.8881 7 14.3334V8.33337C7 7.77869 6.55469 7.33337 6 7.33337H5ZM1 10.3334C0.445312 10.3334 0 10.7787 0 11.3334V14.3334C0 14.8881 0.445312 15.3334 1 15.3334H2C2.55469 15.3334 3 14.8881 3 14.3334V11.3334C3 10.7787 2.55469 10.3334 2 10.3334H1Z" fill="#2E3436" fill-opacity="0.5"/>
</svg>
