<svg width="16" height="17" viewBox="0 0 16 17" fill="none" xmlns="http://www.w3.org/2000/svg">
<path fill-rule="evenodd" clip-rule="evenodd" d="M5.19921 9.72708C4.87695 10.0493 4.87695 10.5718 5.19921 10.8941C5.52148 11.2164 6.04397 11.2164 6.36624 10.8941L8.00006 9.26028L9.6339 10.8941C9.95616 11.2164 10.4787 11.2164 10.8009 10.8941C11.1232 10.5719 11.1232 10.0494 10.8009 9.72709L9.16709 8.09326L10.8009 6.45941C11.1232 6.13715 11.1232 5.61465 10.8009 5.29239C10.4787 4.97012 9.95617 4.97012 9.63391 5.29239L8.00006 6.92623L6.36623 5.2924C6.04396 4.97013 5.52147 4.97013 5.1992 5.2924C4.87694 5.61466 4.87694 6.13716 5.1992 6.45942L6.83304 8.09326L5.19921 9.72708Z" fill="#2E3436"/>
<path fill-rule="evenodd" clip-rule="evenodd" d="M14.5199 8.29699L15.9999 6.72471C14.981 5.55039 13.7441 4.61313 12.3672 3.97205C10.9903 3.33098 9.5033 3 7.99996 3C6.49663 3 5.0096 3.33098 3.6327 3.97205C2.25579 4.61313 1.01888 5.55039 0 6.72471L1.47333 8.29699C2.19792 7.44394 3.06366 6.74137 4.02626 6.22338C3.91485 5.65759 4.07835 5.04839 4.51674 4.61C5.21587 3.91087 6.34938 3.91087 7.0485 4.61L7.66136 5.22286C7.77297 5.21833 7.88474 5.21606 7.99663 5.21606C8.11066 5.21606 8.22457 5.21842 8.3383 5.22312L8.95142 4.61C9.65055 3.91087 10.7841 3.91087 11.4832 4.61C11.9224 5.04923 12.0857 5.65992 11.973 6.22663C12.9332 6.7443 13.7969 7.44572 14.5199 8.29699ZM11.0384 5.79323C11.0201 5.61037 10.9409 5.43245 10.8008 5.29236C10.4786 4.9701 9.95606 4.9701 9.63379 5.29236L9.56096 5.36519C10.0636 5.4618 10.558 5.60491 11.0384 5.79323ZM6.43789 5.36412L6.36614 5.29236C6.04387 4.9701 5.52138 4.9701 5.19911 5.29236C5.05972 5.43176 4.98062 5.60861 4.96181 5.79052C5.44182 5.60284 5.93574 5.46028 6.43789 5.36412ZM5.07319 7.6982C5.06814 7.70061 5.06311 7.70304 5.05807 7.70546C4.14341 8.14641 3.32806 8.78999 2.66667 9.59306L4.19999 11.1583C4.20104 11.1569 4.20209 11.1556 4.20313 11.1543C3.84102 10.477 3.94555 9.61587 4.51673 9.04469L5.4682 8.09322L5.07319 7.6982ZM4.96031 10.38C4.94069 10.1463 5.02029 9.90587 5.19909 9.72706L6.83294 8.09322L6.05719 7.31747C6.67802 7.13146 7.32158 7.0364 7.96998 7.0364C8.63441 7.0364 9.29376 7.13622 9.92877 7.33144L9.16699 8.09322L10.8008 9.72706C10.9677 9.89396 11.0482 10.1146 11.0422 10.3333C10.7631 10.1094 10.4618 9.91665 10.1429 9.75871C9.48123 9.43096 8.76003 9.26111 8.02997 9.26111C8.02029 9.26111 8.01061 9.26114 8.00092 9.2612L7.99996 9.26024L7.99899 9.26122C7.27952 9.26595 6.56935 9.43559 5.91705 9.75871C5.5762 9.92754 5.25541 10.1362 4.96031 10.38ZM8.28978 10.9148L8.95144 11.5765C9.33023 11.9552 9.83655 12.1288 10.3322 12.0971C10.4305 12.2093 10.5223 12.3265 10.6066 12.4472L9.85998 13.2475L9.08665 14.0691L7.99999 15.2235L6.13333 13.2475L5.39333 12.4614C5.4792 12.3358 5.57317 12.214 5.67417 12.0975C6.16776 12.1273 6.67133 11.9536 7.04849 11.5765L7.71122 10.9137C7.80482 10.9018 7.89896 10.8954 7.99332 10.8949C8.09249 10.8952 8.19142 10.902 8.28978 10.9148ZM11.8203 11.1087C12.154 10.4387 12.0416 9.60313 11.4832 9.04469L10.5317 8.09322L10.9072 7.71774C11.8116 8.15831 12.618 8.79741 13.2733 9.59306H13.3333L11.86 11.1583C11.8468 11.1416 11.8336 11.1251 11.8203 11.1087Z" fill="#2E3436" fill-opacity="0.5"/>
</svg>
