<svg width="16" height="16" viewBox="0 0 16 16" fill="none" xmlns="http://www.w3.org/2000/svg">
<path fill-rule="evenodd" clip-rule="evenodd" d="M16 5.72473L14.52 7.29701C13.6961 6.32711 12.6898 5.55173 11.5661 5.02101C10.4424 4.4903 9.2264 4.21607 7.99667 4.21607C6.76693 4.21607 5.55089 4.4903 4.4272 5.02101C3.3035 5.55173 2.29719 6.32711 1.47333 7.29701L0 5.72473C1.01889 4.5504 2.2558 3.61313 3.63271 2.97206C5.00963 2.33098 6.49666 2 8 2C9.50334 2 10.9904 2.33098 12.3673 2.97206C13.7442 3.61313 14.9811 4.5504 16 5.72473ZM13.3334 8.59312L11.8601 10.1583C11.3908 9.56423 10.8047 9.08652 10.143 8.75877C9.48135 8.43102 8.76014 8.26117 8.03008 8.26117C7.30002 8.26117 6.57882 8.43102 5.91715 8.75877C5.25548 9.08652 4.66939 9.56423 4.20008 10.1583L2.66675 8.59312C3.32814 7.79005 4.1435 7.14646 5.05816 6.70552C5.97282 6.26457 6.96565 6.03645 7.97008 6.03645C8.97451 6.03645 9.96734 6.26457 10.882 6.70552C11.7967 7.14646 12.612 7.79005 13.2734 8.59312H13.3334ZM9.86011 12.2476L10.6068 11.4473C10.001 10.5801 9.00997 9.89826 7.99344 9.89497C6.9782 9.90038 5.99002 10.5888 5.39344 11.4615L6.13344 12.2476L8.00011 14.2236L9.08677 13.0692L9.86011 12.2476Z" fill="#2E3436" fill-opacity="0.5"/>
</svg>
