<svg width="16" height="16" viewBox="0 0 16 16" fill="none" xmlns="http://www.w3.org/2000/svg">
<path d="M3 1C3.55469 1 4 1.44531 4 2V5H3C2.23047 5 1.53125 5.28906 1 5.76563V2C1 1.44531 1.44531 1 2 1H3ZM7 4C7.55469 4 8 4.44531 8 5H5C5 4.44531 5.44531 4 6 4H7ZM15.2109 10.0234C15.6641 10.1211 16 10.5195 16 11V14C16 14.5547 15.5547 15 15 15H14C13.4453 15 13 14.5547 13 14V11C13.8789 11 14.6641 10.6211 15.2109 10.0234ZM1 10.2344C1.53125 10.7109 2.23047 11 3 11H4V14C4 14.5547 3.55469 15 3 15H2C1.44531 15 1 14.5547 1 14V10.2344ZM12 11V14C12 14.5547 11.5547 15 11 15H10C9.44531 15 9 14.5547 9 14V11H12ZM8 11V14C8 14.5547 7.55469 15 7 15H6C5.44531 15 5 14.5547 5 14V11H8Z" fill="#2E3436" fill-opacity="0.5"/>
<path d="M3 6C1.89453 6 1 6.89453 1 8C1 9.10547 1.89453 10 3 10C4.10547 10 5 9.10547 5 8C5 6.89453 4.10547 6 3 6ZM8 6C6.89453 6 6 6.89453 6 8C6 9.10547 6.89453 10 8 10C9.10547 10 10 9.10547 10 8C10 6.89453 9.10547 6 8 6ZM13 6C11.8945 6 11 6.89453 11 8C11 9.10547 11.8945 10 13 10C14.1055 10 15 9.10547 15 8C15 6.89453 14.1055 6 13 6Z" fill="#2E3436"/>
</svg>
