<svg width="16" height="16" viewBox="0 0 16 16" fill="none" xmlns="http://www.w3.org/2000/svg">
<path d="M2.01585 1.07572L14.9697 14.0296" stroke="#2E3436" stroke-width="2" stroke-linecap="round"/>
<path d="M2.01585 1.07572L14.9697 14.0296" stroke="#2E3436" stroke-width="2" stroke-linecap="round"/>
<path fill-rule="evenodd" clip-rule="evenodd" d="M1.04346 3.41856V9.90059C1.04346 12.0784 2.84858 13.5994 4.46737 14.5454C6.08616 15.4913 7.68554 15.9541 7.68554 15.9541C7.89128 16.0153 8.10868 16.0153 8.31442 15.9541C8.31442 15.9541 9.9138 15.4913 11.5326 14.5454C11.6638 14.4687 11.7962 14.3882 11.9288 14.3039L10.7166 13.0917C10.7083 13.0966 10.7 13.1015 10.6917 13.1064C9.98062 13.5219 9.2614 13.8378 8.71293 14.0509C8.44111 14.1565 8.21706 14.2346 8.06457 14.2852L7.99998 14.3064L7.93539 14.2852C7.7829 14.2346 7.55885 14.1565 7.28702 14.0509C6.73856 13.8378 6.01933 13.5219 5.30826 13.1064C3.73568 12.1874 2.71012 11.0954 2.71012 9.90059V5.08522L1.04346 3.41856ZM13.2898 9.33948V3.59149L8.10885 1.80104C8.03832 1.77666 7.96164 1.77666 7.8911 1.80104L6.30093 2.35057L4.99043 1.04007L7.34672 0.225782C7.76995 0.0795246 8.23001 0.0795242 8.65323 0.225782L13.9627 2.06064L14.0313 2.08881C14.6481 2.34214 14.9565 2.4688 14.9565 2.93174V9.90059C14.9565 10.2432 14.9118 10.5695 14.8302 10.8799L13.2898 9.33948Z" fill="#2E3436"/>
</svg>
