<svg width="16" height="16" viewBox="0 0 16 16" fill="none" xmlns="http://www.w3.org/2000/svg">
<path fill-rule="evenodd" clip-rule="evenodd" d="M1.64022 3.97644C1.04752 4.43007 0.497742 4.94717 0 5.52085L1.47333 7.09313C1.9695 6.509 2.53185 5.99543 3.14616 5.56336L1.64022 3.97644ZM4.38796 6.87194C3.7432 7.27627 3.16179 7.78807 2.66667 8.38926L4.19999 9.95445C4.6693 9.36036 5.25538 8.88265 5.91705 8.5549C5.9325 8.54725 5.94798 8.53969 5.96349 8.53221L4.38796 6.87194ZM12.5589 9.2119L9.52788 6.01784C9.99216 6.12966 10.4459 6.29148 10.8819 6.50166C11.7965 6.94261 12.6119 7.58619 13.2733 8.38926H13.3333L12.5589 9.2119ZM7.19602 9.83102L9.57909 12.3423L9.08669 12.8654L8.00002 14.0198L6.13337 12.0438L5.39337 11.2577C5.8313 10.6171 6.48025 10.0758 7.19602 9.83102ZM7.63222 4.02023L5.7572 2.04438C6.49272 1.87977 7.24428 1.79614 7.99996 1.79614C9.5033 1.79614 10.9903 2.12712 12.3672 2.76819C13.7441 3.40927 14.981 4.34653 15.9999 5.52085L14.5199 7.09313C13.6961 6.12323 12.6898 5.34785 11.5661 4.81714C10.4424 4.28643 9.22636 4.0122 7.99663 4.0122C7.875 4.0122 7.7535 4.01489 7.63222 4.02023Z" fill="#2E3436"/>
<path d="M1.72337 1.00003L13.2374 13.1333" stroke="#2E3436" stroke-width="1.93003" stroke-linecap="round"/>
</svg>
