<svg width="16" height="16" viewBox="0 0 16 16" fill="none" xmlns="http://www.w3.org/2000/svg">
<path fill-rule="evenodd" clip-rule="evenodd" d="M7.33333 5.36938V8.70272C7.33333 9.07091 7.63181 9.36938 8 9.36938C8.36819 9.36938 8.66667 9.07091 8.66667 8.70272V7.35002H10V8.70272C10 9.80729 9.10457 10.7027 8 10.7027C6.89543 10.7027 6 9.80729 6 8.70272V5.36938C6 4.26482 6.89543 3.36938 8 3.36938C9.10457 3.36938 10 4.26482 10 5.36939V5.57096H8.66667V5.36939C8.66667 5.0012 8.36819 4.70272 8 4.70272C7.63181 4.70272 7.33333 5.00119 7.33333 5.36938Z" fill="#2E3436"/>
<rect width="6.30973" height="3.68604" rx="0.666667" transform="matrix(-1 0 0 1 11.1548 7.34998)" fill="#2E3436"/>
<path d="M8.07669 15.0973L8.07669 15.0973L8.08227 15.0957L8.08248 15.0956L8.08264 15.0955L8.08284 15.0955L8.08398 15.0952L8.09411 15.0921L8.14015 15.0781C8.18193 15.0652 8.24527 15.0452 8.32713 15.018C8.491 14.9636 8.72827 14.8809 9.01474 14.7696C9.59007 14.5461 10.352 14.212 11.1122 13.7678C12.7079 12.8353 14.1232 11.5288 14.1232 9.84248V2.9787C14.1032 2.96861 14.0791 2.95698 14.0502 2.94371C13.9599 2.90231 13.8556 2.85947 13.7165 2.8023C13.7007 2.79583 13.6845 2.78918 13.6679 2.78232L8.38109 0.955305C8.13421 0.869988 7.86584 0.869987 7.61896 0.955304L2.33217 2.78232C2.31548 2.78918 2.29928 2.79584 2.28352 2.80231C2.14439 2.85948 2.04016 2.90231 1.94987 2.94371C1.92094 2.95698 1.89684 2.96861 1.87683 2.9787V9.84248C1.87683 11.5288 3.29217 12.8353 4.88786 13.7678C5.64809 14.212 6.40997 14.5461 6.9853 14.7696C7.27177 14.8809 7.50904 14.9636 7.67291 15.018C7.75477 15.0452 7.81812 15.0652 7.85989 15.0781L7.90593 15.0921L7.91606 15.0952L7.9172 15.0955L7.91721 15.0955L7.92335 15.0973C7.97395 15.1124 8.0261 15.1124 8.07669 15.0973Z" stroke="#2E3436" stroke-width="1.66667"/>
</svg>
