<svg width="16" height="16" viewBox="0 0 16 16" fill="none" xmlns="http://www.w3.org/2000/svg">
<g clip-path="url(#clip0_231_924)">
<path fill-rule="evenodd" clip-rule="evenodd" d="M10.6666 15.0107C10.9484 14.8713 11.2402 14.7162 11.5326 14.5453C13.1514 13.5993 14.9565 12.0783 14.9565 9.90053V2.93168C14.9565 2.46873 14.6481 2.34207 14.0313 2.08875L13.9627 2.06057L10.6666 0.921509V2.68489L13.2898 3.59142V9.90053C13.2898 11.0953 12.2643 12.1873 10.6917 13.1063C10.6833 13.1112 10.675 13.1161 10.6666 13.1209V15.0107ZM5.33329 2.6849L2.71012 3.59142V9.90053C2.71012 11.0953 3.73568 12.1873 5.30826 13.1063C5.31661 13.1112 5.32495 13.116 5.33329 13.1209V15.0107C5.05149 14.8712 4.75975 14.7161 4.46737 14.5453C2.84858 13.5993 1.04346 12.0783 1.04346 9.90053V2.93168C1.04346 2.46873 1.35187 2.34207 1.96869 2.08875L1.9687 2.08875L2.03725 2.06057L5.33329 0.921522V2.6849Z" fill="#2E3436" fill-opacity="0.5"/>
<rect x="6.66895" y="13.3378" width="2.6623" height="2.6623" rx="1.33115" fill="#2E3436"/>
<rect x="7.00171" y="0.436523" width="1.99672" height="11.4591" rx="0.998362" fill="#2E3436"/>
</g>
<defs>
<clipPath id="clip0_231_924">
<rect width="16" height="16" fill="white"/>
</clipPath>
</defs>
</svg>
