<svg width="16" height="16" viewBox="0 0 16 16" fill="none" xmlns="http://www.w3.org/2000/svg">
<path fill-rule="evenodd" clip-rule="evenodd" d="M16 5.72473L14.52 7.29701C13.6961 6.32711 12.6898 5.55173 11.5661 5.02101C10.4424 4.4903 9.2264 4.21607 7.99667 4.21607C6.76693 4.21607 5.55089 4.4903 4.4272 5.02101C3.3035 5.55173 2.29719 6.32711 1.47333 7.29701L0 5.72473C1.01889 4.5504 2.2558 3.61313 3.63271 2.97206C5.00963 2.33098 6.49666 2 8 2C9.50334 2 10.9904 2.33098 12.3673 2.97206C13.7442 3.61313 14.9811 4.5504 16 5.72473ZM13.3334 8.59314L11.86 10.1583C11.3907 9.56425 10.8046 9.08654 10.143 8.75879C9.48129 8.43104 8.76009 8.2612 8.03003 8.2612C7.29997 8.2612 6.57876 8.43104 5.91709 8.75879C5.25542 9.08654 4.66934 9.56425 4.20003 10.1583L2.66669 8.59314C3.32809 7.79007 4.14345 7.14649 5.05811 6.70554C5.97277 6.26459 6.96559 6.03647 7.97003 6.03647C8.97446 6.03647 9.96729 6.26459 10.8819 6.70554C11.7966 7.14649 12.612 7.79007 13.2734 8.59314H13.3334ZM9.85999 12.2476L10.6067 11.4473C10.0009 10.5801 9.00985 9.8983 7.99332 9.89501C6.97808 9.90042 5.9899 10.5888 5.39332 11.4615L6.13332 12.2476L7.99999 14.2236L9.08665 13.0692L9.85999 12.2476Z" fill="#2E3436"/>
</svg>
