<svg width="16" height="16" viewBox="0 0 16 16" fill="none" xmlns="http://www.w3.org/2000/svg">
<path d="M13 0.666504C12.4453 0.666504 12 1.11182 12 1.6665V13.6665C12 14.2212 12.4453 14.6665 13 14.6665H14C14.5547 14.6665 15 14.2212 15 13.6665V1.6665C15 1.11182 14.5547 0.666504 14 0.666504H13ZM9 3.6665C8.44531 3.6665 8 4.11182 8 4.6665V13.6665C8 14.2212 8.44531 14.6665 9 14.6665H10C10.5547 14.6665 11 14.2212 11 13.6665V4.6665C11 4.11182 10.5547 3.6665 10 3.6665H9ZM5 6.6665C4.44531 6.6665 4 7.11182 4 7.6665V13.6665C4 14.2212 4.44531 14.6665 5 14.6665H6C6.55469 14.6665 7 14.2212 7 13.6665V7.6665C7 7.11182 6.55469 6.6665 6 6.6665H5Z" fill="#2E3436" fill-opacity="0.5"/>
<rect width="2.6623" height="2.6623" rx="1.33115" transform="matrix(-1 0 0 1 2.84106 11.843)" fill="#2E3436"/>
<rect width="1.99672" height="8.65247" rx="0.998362" transform="matrix(-1 0 0 1 2.50854 2.16675)" fill="#2E3436"/>
</svg>
