<svg width="16" height="16" viewBox="0 0 16 16" fill="none" xmlns="http://www.w3.org/2000/svg">
<path d="M12 15C12.2656 15 12.5195 14.8945 12.707 14.707L15.707 11.707C16.0977 11.3164 16.0977 10.6836 15.707 10.293L12.707 7.29297C12.3164 6.90234 11.6836 6.90234 11.293 7.29297C10.9023 7.68359 10.9023 8.31641 11.293 8.70703L12.5859 10H5C4.44922 10 4 10.4492 4 11C4 11.5508 4.44922 12 5 12H12.5859L11.293 13.293C10.9023 13.6836 10.9023 14.3164 11.293 14.707C11.4805 14.8945 11.7344 15 12 15V15Z" fill="#2E3436" fill-opacity="0.5"/>
<path d="M4 1C3.73438 1 3.48047 1.10547 3.29297 1.29297L0.292969 4.29297C-0.0976563 4.68359 -0.0976563 5.31641 0.292969 5.70703L3.29297 8.70703C3.68359 9.09766 4.31641 9.09766 4.70703 8.70703C5.09766 8.31641 5.09766 7.68359 4.70703 7.29297L3.41406 6H11C11.5508 6 12 5.55078 12 5C12 4.44922 11.5508 4 11 4H3.41406L4.70703 2.70703C5.09766 2.31641 5.09766 1.68359 4.70703 1.29297C4.51953 1.10547 4.26562 1 4 1V1Z" fill="#2E3436"/>
</svg>
