<svg width="16" height="17" viewBox="0 0 16 17" fill="none" xmlns="http://www.w3.org/2000/svg">
<path d="M1 10.6666C0.445312 10.6666 0 11.1119 0 11.6666V14.6666C0 15.2213 0.445312 15.6666 1 15.6666H2C2.55469 15.6666 3 15.2213 3 14.6666V11.6666C3 11.1119 2.55469 10.6666 2 10.6666H1Z" fill="#2E3436"/>
<path d="M13 1.66663C12.4453 1.66663 12 2.11194 12 2.66663V14.6666C12 15.2213 12.4453 15.6666 13 15.6666H14C14.5547 15.6666 15 15.2213 15 14.6666V2.66663C15 2.11194 14.5547 1.66663 14 1.66663H13ZM9 4.66663C8.44531 4.66663 8 5.11194 8 5.66663V14.6666C8 15.2213 8.44531 15.6666 9 15.6666H10C10.5547 15.6666 11 15.2213 11 14.6666V5.66663C11 5.11194 10.5547 4.66663 10 4.66663H9ZM5 7.66663C4.44531 7.66663 4 8.11194 4 8.66663V14.6666C4 15.2213 4.44531 15.6666 5 15.6666H6C6.55469 15.6666 7 15.2213 7 14.6666V8.66663C7 8.11194 6.55469 7.66663 6 7.66663H5Z" fill="#2E3436" fill-opacity="0.5"/>
</svg>
