<svg width="17" height="16" viewBox="0 0 17 16" fill="none" xmlns="http://www.w3.org/2000/svg">
<g clip-path="url(#clip0_231_635)">
<rect x="7.00244" y="11.3536" width="2.6623" height="2.6623" rx="1.33115" fill="#2E3436"/>
<rect x="7.33496" y="1.677" width="1.99672" height="8.65247" rx="0.998362" fill="#2E3436"/>
<path fill-rule="evenodd" clip-rule="evenodd" d="M4.84784 2.14266C4.37426 1.85851 3.76 2.01208 3.47585 2.48566L0.475852 7.48566C0.285842 7.80234 0.285842 8.19796 0.475852 8.51465L3.47585 13.5146C3.76 13.9882 4.37426 14.1418 4.84784 13.8576C5.32142 13.5735 5.47499 12.9592 5.19084 12.4857L2.49954 8.00015L5.19084 3.51465C5.47499 3.04107 5.32142 2.42681 4.84784 2.14266Z" fill="#2E3436" fill-opacity="0.5"/>
<path fill-rule="evenodd" clip-rule="evenodd" d="M11.8192 2.14254C12.2927 1.85839 12.907 2.01195 13.1911 2.48553L16.1911 7.48553C16.3811 7.80222 16.3811 8.19784 16.1911 8.51452L13.1911 13.5145C12.907 13.9881 12.2927 14.1417 11.8192 13.8575C11.3456 13.5734 11.192 12.9591 11.4762 12.4855L14.1675 8.00003L11.4762 3.51452C11.192 3.04094 11.3456 2.42668 11.8192 2.14254Z" fill="#2E3436" fill-opacity="0.5"/>
</g>
<defs>
<clipPath id="clip0_231_635">
<rect width="16" height="16" fill="white" transform="translate(0.333496)"/>
</clipPath>
</defs>
</svg>
