<svg width="16" height="16" viewBox="0 0 16 16" fill="none" xmlns="http://www.w3.org/2000/svg">
<g clip-path="url(#clip0_231_983)">
<path d="M3 0C1.33984 0 0 1.33984 0 3V13C0 14.6602 1.33984 16 3 16H13C14.6602 16 16 14.6602 16 13V3C16 1.33984 14.6602 0 13 0H3ZM6 3H10C10.832 3 11.5234 3.5625 11.7695 4.05078C12.0156 4.54297 12 5 12 5V6H10V5H6V11H10V9H7.9375V7H12V11C12 11 12.0156 11.457 11.7695 11.9492C11.5234 12.4375 10.832 13 10 13H6C6 13 5.54297 13.0156 5.05078 12.7695C4.5625 12.5234 4 11.832 4 11V5C4 5 3.98438 4.54297 4.23047 4.05078C4.47656 3.5625 5.16797 3 6 3Z" fill="#2E3436"/>
</g>
<defs>
<clipPath id="clip0_231_983">
<rect width="16" height="16" fill="white"/>
</clipPath>
</defs>
</svg>
