<svg width="16" height="16" viewBox="0 0 16 16" fill="none" xmlns="http://www.w3.org/2000/svg">
<g clip-path="url(#clip0_231_724)">
<rect x="6.76782" y="11.4108" width="2.58919" height="2.58919" rx="1.2946" fill="#2E3436"/>
<rect x="7.09155" y="2" width="1.94189" height="8.41487" rx="0.970946" fill="#2E3436"/>
<path fill-rule="evenodd" clip-rule="evenodd" d="M6.11876 9.05174C6.06656 9.07535 6.0147 9.09991 5.9632 9.12543C5.29637 9.45573 4.70572 9.93716 4.23275 10.5359L2.68746 8.95849C3.35401 8.14915 4.17573 7.50055 5.09752 7.05617C5.4288 6.89647 5.77025 6.76446 6.11876 6.66088V9.05174ZM10.0057 9.02478C10.0785 9.05649 10.1506 9.09005 10.222 9.12543C10.8888 9.45573 11.4795 9.93716 11.9525 10.5359L13.4373 8.95849H13.3768C12.7103 8.14915 11.8885 7.50055 10.9668 7.05617C10.6546 6.90568 10.3334 6.77978 10.0057 6.67908V9.02478ZM7.09132 6.44839V8.7307C7.09132 8.7307 7.09131 8.7307 7.0913 8.73071V6.44839C7.09131 6.44839 7.09132 6.44839 7.09132 6.44839ZM10.0057 4.77747C10.571 4.9128 11.1239 5.10711 11.6563 5.35854C12.7887 5.89339 13.8029 6.67482 14.6332 7.65228L16.1247 6.06774C15.0979 4.88426 13.8513 3.93969 12.4637 3.29362C11.6555 2.91735 10.8098 2.64708 9.945 2.48697C9.98465 2.64168 10.0057 2.80383 10.0057 2.9709V4.77747ZM7.32383 2.34044C7.17886 2.51007 7.09132 2.73026 7.09132 2.97089V4.60366C7.09132 4.60367 7.09131 4.60367 7.0913 4.60367V2.9709C7.0913 2.73026 7.17884 2.51007 7.3238 2.34044C7.32381 2.34044 7.32382 2.34044 7.32383 2.34044ZM6.17948 2.48701C5.31481 2.64713 4.4691 2.91739 3.66103 3.29362C2.27338 3.93969 1.02683 4.88426 0 6.06774L1.48482 7.65228C2.31509 6.67482 3.32925 5.89339 4.4617 5.35854C4.99611 5.10615 5.55123 4.91131 6.11876 4.77592V2.9709C6.11876 2.80384 6.13983 2.64171 6.17948 2.48701Z" fill="#2E3436" fill-opacity="0.5"/>
</g>
<defs>
<clipPath id="clip0_231_724">
<rect width="16" height="16" fill="white"/>
</clipPath>
</defs>
</svg>
