<svg width="16" height="17" viewBox="0 0 16 17" fill="none" xmlns="http://www.w3.org/2000/svg">
<g clip-path="url(#clip0_231_716)">
<path d="M1.25073 6.78943H14.935V9.52628H1.25073V6.78943Z" fill="#2E3436"/>
<path fill-rule="evenodd" clip-rule="evenodd" d="M10.0712 12.8986L10.8653 12.0474C10.2211 11.1251 9.16706 10.4 8.08596 10.3965C7.00623 10.4022 5.95528 11.1343 5.3208 12.0625L6.10781 12.8986L8.09305 15.0001L9.24875 13.7723L10.0712 12.8986Z" fill="#2E3436" fill-opacity="0.5"/>
<path fill-rule="evenodd" clip-rule="evenodd" d="M12.4553 5.50692C12.2689 5.40227 12.0789 5.30419 11.8857 5.21292C10.6906 4.64849 9.3973 4.35684 8.08945 4.35684C6.7816 4.35684 5.48831 4.64849 4.29324 5.21292C4.09998 5.30419 3.90999 5.40227 3.72356 5.50692H-4.95858e-05C0.998121 4.46921 2.16613 3.63076 3.44829 3.0338C4.91267 2.352 6.49416 2 8.093 2C9.69184 2 11.2733 2.352 12.7377 3.0338C14.0199 3.63076 15.1879 4.46921 16.186 5.50692H12.4553Z" fill="#2E3436" fill-opacity="0.5"/>
</g>
<defs>
<clipPath id="clip0_231_716">
<rect width="16" height="16" fill="white" transform="translate(0 0.333374)"/>
</clipPath>
</defs>
</svg>
