<svg width="16" height="16" viewBox="0 0 16 16" fill="none" xmlns="http://www.w3.org/2000/svg">
<g clip-path="url(#clip0_231_1352)">
<path fill-rule="evenodd" clip-rule="evenodd" d="M4 2C4 1.44531 3.55469 1 3 1H2C1.44531 1 1 1.44531 1 2V2.67157C1.6702 2.42139 2.44999 2.50815 3.06367 2.97059L4 3.67616V2ZM4 9.10208L1 6.84142V14C1 14.5547 1.44531 15 2 15H3C3.55469 15 4 14.5547 4 14V9.10208ZM5 9.85564L8 12.1163V14C8 14.5547 7.55469 15 7 15H6C5.44531 15 5 14.5547 5 14V9.85564ZM8 6.69038L5.12097 4.52087C5.28999 4.20985 5.61922 4 6 4H7C7.55469 4 8 4.44531 8 5V6.69038ZM9 12.8699V14C9 14.5547 9.44531 15 10 15H11C11.2173 15 11.4179 14.9316 11.5814 14.8151L9 12.8699ZM12 9.70459L9.11554 7.531C9.28288 7.21441 9.61511 7 10 7H11C11.5547 7 12 7.44531 12 8V9.70459ZM16 12.8218C15.8816 12.6655 15.7399 12.5228 15.5756 12.399L13.1102 10.5412C13.2758 10.219 13.611 10 14 10H15C15.5547 10 16 10.4453 16 11V12.8218Z" fill="#2E3436"/>
<path d="M0.802547 3.82796C1.19307 3.43744 1.82624 3.43744 2.21676 3.82796L15.3153 13.7842C15.7058 14.1747 15.7058 14.8079 15.3153 15.1984C14.9248 15.5889 14.2916 15.5889 13.9011 15.1984L0.802548 5.24217C0.412024 4.85165 0.412023 4.21849 0.802547 3.82796Z" fill="#2E3436"/>
<path d="M0.802547 3.82796C1.19307 3.43744 1.82624 3.43744 2.21676 3.82796L15.3153 13.7842C15.7058 14.1747 15.7058 14.8079 15.3153 15.1984C14.9248 15.5889 14.2916 15.5889 13.9011 15.1984L0.802548 5.24217C0.412024 4.85165 0.412023 4.21849 0.802547 3.82796Z" stroke="#E5E5E5"/>
</g>
<defs>
<clipPath id="clip0_231_1352">
<rect width="16" height="16" fill="white"/>
</clipPath>
</defs>
</svg>
