<svg width="16" height="16" viewBox="0 0 16 16" fill="none" xmlns="http://www.w3.org/2000/svg">
<path d="M12 15C11.7344 15 11.4805 14.8945 11.293 14.707C10.9023 14.3164 10.9023 13.6836 11.293 13.293L12.5859 12H5C4.44922 12 4 11.5508 4 11C4 10.4492 4.44922 10 5 10H12.5859L11.293 8.70703C10.9023 8.31641 10.9023 7.68359 11.293 7.29297C11.6836 6.90234 12.3164 6.90234 12.707 7.29297L15.707 10.293C16.0977 10.6836 16.0977 11.3164 15.707 11.707L12.707 14.707C12.5195 14.8945 12.2656 15 12 15V15ZM4 9C3.74219 9 3.48828 8.90234 3.29297 8.70703L0.292969 5.70703C-0.0976563 5.31641 -0.0976563 4.68359 0.292969 4.29297L3.29297 1.29297C3.48047 1.10547 3.73438 1 4 1C4.26562 1 4.51953 1.10547 4.70703 1.29297C5.09766 1.68359 5.09766 2.31641 4.70703 2.70703L3.41406 4H11C11.5508 4 12 4.44922 12 5C12 5.55078 11.5508 6 11 6H3.41406L4.70703 7.29297C5.09766 7.68359 5.09766 8.31641 4.70703 8.70703C4.51172 8.90234 4.25781 9 4 9V9Z" fill="#2E3436" fill-opacity="0.5"/>
</svg>
