<svg width="16" height="17" viewBox="0 0 16 17" fill="none" xmlns="http://www.w3.org/2000/svg">
<path d="M15.9999 5.72471L14.5199 7.29699C13.6961 6.32709 12.6898 5.55171 11.5661 5.021C10.4424 4.49029 9.22636 4.21606 7.99663 4.21606C6.7669 4.21606 5.55086 4.49029 4.42717 5.021C3.30349 5.55171 2.29717 6.32709 1.47333 7.29699L0 5.72471C1.01888 4.55039 2.25579 3.61313 3.6327 2.97205C5.0096 2.33098 6.49663 2 7.99996 2C9.5033 2 10.9903 2.33098 12.3672 2.97205C13.7441 3.61313 14.981 4.55039 15.9999 5.72471V5.72471Z" fill="#2E3436" fill-opacity="0.5"/>
<path d="M13.3334 8.59304L11.86 10.1582C11.3907 9.56414 10.8046 9.08643 10.143 8.75868C9.48131 8.43093 8.76011 8.26109 8.03006 8.26109C7.3 8.26109 6.5788 8.43093 5.91713 8.75868C5.25546 9.08643 4.66938 9.56414 4.20007 10.1582L2.66675 8.59304C3.32814 7.78997 4.14349 7.14639 5.05815 6.70544C5.97281 6.2645 6.96563 6.03638 7.97006 6.03638C8.97448 6.03638 9.96731 6.2645 10.882 6.70544C11.7966 7.14639 12.612 7.78997 13.2734 8.59304H13.3334Z" fill="#2E3436"/>
<path d="M10.6066 11.4472L9.85996 12.2475L9.08663 13.0691L7.99996 14.2235L6.13331 12.2475L5.39331 11.4614C5.98989 10.5887 6.97806 9.90031 7.9933 9.8949C9.00982 9.89819 10.0009 10.58 10.6066 11.4472Z" fill="#2E3436"/>
</svg>
