<svg width="16" height="16" viewBox="0 0 16 16" fill="none" xmlns="http://www.w3.org/2000/svg">
<path fill-rule="evenodd" clip-rule="evenodd" d="M8.66667 5.36938V8.70272C8.66667 9.07091 8.36819 9.36938 8 9.36938C7.63181 9.36938 7.33333 9.07091 7.33333 8.70272V7.35002H6V8.70272C6 9.80729 6.89543 10.7027 8 10.7027C9.10457 10.7027 10 9.80729 10 8.70272V5.36938C10 4.26482 9.10457 3.36938 8 3.36938C6.89543 3.36938 6 4.26482 6 5.36939V5.57096H7.33333V5.36939C7.33333 5.0012 7.63181 4.70272 8 4.70272C8.36819 4.70272 8.66667 5.00119 8.66667 5.36938Z" fill="#2E3436"/>
<rect x="4.84521" y="7.34998" width="6.30973" height="3.68604" rx="0.666667" fill="#2E3436"/>
<path d="M7.92331 15.0973L7.92331 15.0973L7.9178 15.0957L7.91773 15.0957L7.91752 15.0956L7.91736 15.0955L7.91716 15.0955L7.91602 15.0952L7.90589 15.0921L7.85985 15.0781C7.81807 15.0652 7.75473 15.0452 7.67287 15.018C7.509 14.9636 7.27173 14.8809 6.98526 14.7696C6.40993 14.5461 5.64805 14.212 4.88782 13.7678C3.29213 12.8353 1.87679 11.5288 1.87679 9.84248V2.9787C1.8968 2.96861 1.9209 2.95698 1.94983 2.94371C2.04012 2.90231 2.14436 2.85948 2.2835 2.8023C2.29925 2.79583 2.31545 2.78918 2.33213 2.78232L7.61891 0.955305C7.86579 0.869988 8.13416 0.869987 8.38104 0.955304L13.6678 2.78232C13.6845 2.78918 13.7007 2.79584 13.7165 2.80231C13.8556 2.85948 13.9598 2.90231 14.0501 2.94371C14.0791 2.95698 14.1032 2.96861 14.1232 2.9787V9.84248C14.1232 11.5288 12.7078 12.8353 11.1121 13.7678C10.3519 14.212 9.59003 14.5461 9.0147 14.7696C8.72823 14.8809 8.49096 14.9636 8.32709 15.018C8.24523 15.0452 8.18188 15.0652 8.14011 15.0781L8.09407 15.0921L8.08394 15.0952L8.0828 15.0955L8.08279 15.0955L8.07665 15.0973C8.02606 15.1124 7.9739 15.1124 7.92331 15.0973Z" stroke="#2E3436" stroke-width="1.66667"/>
</svg>
