<svg width="16" height="16" viewBox="0 0 16 16" fill="none" xmlns="http://www.w3.org/2000/svg">
<g clip-path="url(#clip0_231_985)">
<path d="M3 0C1.33984 0 0 1.33984 0 3V13C0 14.6602 1.33984 16 3 16H13C14.6602 16 16 14.6602 16 13V3C16 1.33984 14.6602 0 13 0H3ZM4 3H5C5 3 5.45703 2.98437 5.94922 3.23047C6.4375 3.47656 7 4.16797 7 5V7C7 7.21484 6.92969 7.42578 6.80078 7.60156L4.25 11H7V13H2V11C2 10.7852 2.07031 10.5742 2.19922 10.3984L5 6.66797V5H4V7H2V5C2 4.16797 2.5625 3.47656 3.05078 3.23047C3.54297 2.98437 4 3 4 3V3ZM10 3H12C12.832 3 13.5234 3.5625 13.7695 4.05078C14.0156 4.54297 14 5 14 5V6H12V5H10V11H12V9H11V7H14V11C14 11 14.0156 11.457 13.7695 11.9492C13.5234 12.4375 12.832 13 12 13H10C10 13 9.54297 13.0156 9.05078 12.7695C8.5625 12.5234 8 11.832 8 11V5C8 5 7.98437 4.54297 8.23047 4.05078C8.47656 3.5625 9.16797 3 10 3Z" fill="#2E3436"/>
</g>
<defs>
<clipPath id="clip0_231_985">
<rect width="16" height="16" fill="white"/>
</clipPath>
</defs>
</svg>
