<svg width="16" height="16" viewBox="0 0 16 16" fill="none" xmlns="http://www.w3.org/2000/svg">
<g clip-path="url(#clip0_231_1117)">
<path fill-rule="evenodd" clip-rule="evenodd" d="M3.93574 7.07841C3.86882 7.37488 3.8335 7.68333 3.8335 8.00004C3.8335 10.3015 5.69873 12.1667 8.00016 12.1667C8.31687 12.1667 8.62532 12.1314 8.92179 12.0645L7.23941 10.3821C6.47083 10.1366 5.86355 9.52938 5.61812 8.7608L3.93574 7.07841ZM12.0645 8.92183C12.1315 8.62531 12.1668 8.31681 12.1668 8.00004C12.1668 5.69861 10.3016 3.83337 8.00016 3.83337C7.68339 3.83337 7.37489 3.86871 7.07838 3.93566L12.0645 8.92183ZM7.16683 2.16671C7.16683 1.70772 7.54118 1.33337 8.00016 1.33337C8.45915 1.33337 8.8335 1.70772 8.8335 2.16671C8.8335 2.62569 8.45915 3.00004 8.00016 3.00004C7.54118 3.00004 7.16683 2.62569 7.16683 2.16671ZM11.5353 3.2865C11.6981 3.12374 11.9097 3.04236 12.1245 3.04236C12.3394 3.04236 12.5509 3.12374 12.7137 3.2865C13.0392 3.61202 13.0392 4.13936 12.7137 4.46488C12.3882 4.79041 11.8608 4.79041 11.5353 4.46488C11.2098 4.13936 11.2098 3.61202 11.5353 3.2865ZM1.3335 8.00004C1.3335 7.54106 1.70785 7.16671 2.16683 7.16671C2.62581 7.16671 3.00016 7.54106 3.00016 8.00004C3.00016 8.45902 2.62581 8.83337 2.16683 8.83337C1.70785 8.83337 1.3335 8.45902 1.3335 8.00004ZM13.0002 8.00004C13.0002 7.54106 13.3745 7.16671 13.8335 7.16671C14.2925 7.16671 14.6668 7.54106 14.6668 8.00004C14.6668 8.45902 14.2925 8.83337 13.8335 8.83337C13.3745 8.83337 13.0002 8.45902 13.0002 8.00004ZM3.28662 11.5352C3.44938 11.3724 3.66097 11.2911 3.87581 11.2911C4.09066 11.2911 4.30225 11.3724 4.46501 11.5352C4.79053 11.8607 4.79053 12.3881 4.46501 12.7136C4.13949 13.0391 3.61214 13.0391 3.28662 12.7136C2.9611 12.3881 2.9611 11.8607 3.28662 11.5352ZM7.16683 13.8334C7.16683 13.3744 7.54118 13 8.00016 13C8.45915 13 8.8335 13.3744 8.8335 13.8334C8.8335 14.2924 8.45915 14.6667 8.00016 14.6667C7.54118 14.6667 7.16683 14.2924 7.16683 13.8334Z" fill="#2E3436"/>
<path fill-rule="evenodd" clip-rule="evenodd" d="M4.05211 7.35196C4.01782 7.56287 4 7.77933 4 8C4 10.2109 5.78906 12 8 12C8.22067 12 8.43713 11.9822 8.64804 11.9479L8.64793 11.9478C8.43704 11.9821 8.2206 12 8 12C5.79086 12 4 10.2091 4 8C4 7.7794 4.01786 7.56296 4.05221 7.35207L4.05211 7.35196ZM11.9478 8.64798L11.9479 8.64808C11.9822 8.43716 12 8.22068 12 8C12 5.78906 10.2109 4 8 4C7.77932 4 7.56284 4.01782 7.35192 4.05211L7.35202 4.05222C7.56293 4.01786 7.77938 4 8 4C10.2091 4 12 5.79086 12 8C12 8.22062 11.9821 8.43707 11.9478 8.64798ZM8 0C7.44531 0 7 0.445312 7 1V2C7 2.55469 7.44531 3 8 3C8.55469 3 9 2.55469 9 2V1C9 0.445312 8.55469 0 8 0ZM12.9922 2.00391C12.7383 2.00391 12.4805 2.10547 12.2852 2.30078L11.5781 3.00781C11.1875 3.39844 11.1875 4.02734 11.5781 4.42188C11.9727 4.8125 12.6016 4.8125 12.9922 4.42188L13.6992 3.71484C14.0938 3.32031 14.0938 2.69141 13.6992 2.30078C13.5039 2.10547 13.25 2.00391 12.9922 2.00391ZM1 7C0.445312 7 0 7.44531 0 8C0 8.55469 0.445312 9 1 9H2C2.55469 9 3 8.55469 3 8C3 7.44531 2.55469 7 2 7H1ZM14 7C13.4453 7 13 7.44531 13 8C13 8.55469 13.4453 9 14 9H15C15.5547 9 16 8.55469 16 8C16 7.44531 15.5547 7 15 7H14ZM3.66406 11.2852C3.42578 11.2969 3.19141 11.3945 3.00781 11.5781L2.30078 12.2852C1.90625 12.6797 1.90625 13.3086 2.30078 13.6992C2.69141 14.0938 3.32031 14.0938 3.71484 13.6992L4.42188 12.9922C4.8125 12.6016 4.8125 11.9727 4.42188 11.5781C4.21094 11.3711 3.9375 11.2734 3.66406 11.2852ZM7.94922 13C7.41797 13.0273 7 13.4648 7 14V15C7 15.5547 7.44531 16 8 16C8.55469 16 9 15.5547 9 15V14C9 13.4453 8.55469 13 8 13H7.94922Z" fill="#2E3436"/>
<path d="M1.99999 2.00003L14.2565 14.2566" stroke="#2E3436" stroke-width="2" stroke-linecap="round"/>
</g>
<defs>
<clipPath id="clip0_231_1117">
<rect width="16" height="16" fill="white"/>
</clipPath>
</defs>
</svg>
