<svg width="16" height="16" viewBox="0 0 16 16" fill="none" xmlns="http://www.w3.org/2000/svg">
<g clip-path="url(#clip0_231_1127)">
<path d="M8.00016 1.33337C7.54118 1.33337 7.16683 1.70772 7.16683 2.16671C7.16683 2.62569 7.54118 3.00004 8.00016 3.00004C8.45915 3.00004 8.8335 2.62569 8.8335 2.16671C8.8335 1.70772 8.45915 1.33337 8.00016 1.33337ZM3.87581 3.04236C3.66097 3.04236 3.44938 3.12374 3.28662 3.2865C2.9611 3.61202 2.9611 4.13936 3.28662 4.46488C3.61214 4.79041 4.13949 4.79041 4.46501 4.46488C4.79053 4.13936 4.79053 3.61202 4.46501 3.2865C4.30225 3.12374 4.09066 3.04236 3.87581 3.04236ZM12.1245 3.04236C11.9097 3.04236 11.6981 3.12374 11.5353 3.2865C11.2098 3.61202 11.2098 4.13936 11.5353 4.46488C11.8608 4.79041 12.3882 4.79041 12.7137 4.46488C13.0392 4.13936 13.0392 3.61202 12.7137 3.2865C12.5509 3.12374 12.3394 3.04236 12.1245 3.04236ZM8.00016 3.83337C5.69873 3.83337 3.8335 5.69861 3.8335 8.00004C3.8335 10.3015 5.69873 12.1667 8.00016 12.1667C10.3016 12.1667 12.1668 10.3015 12.1668 8.00004C12.1668 5.69861 10.3016 3.83337 8.00016 3.83337ZM8.00016 5.50004C8.15316 5.50004 8.30615 5.51632 8.45915 5.54236C7.70068 5.71814 7.16683 6.39197 7.16683 7.16671C7.16683 8.08793 7.91227 8.83337 8.8335 8.83337C9.60824 8.83337 10.2821 8.29626 10.4578 7.54106C10.4839 7.6908 10.5002 7.84705 10.5002 8.00004C10.5002 9.38025 9.38037 10.5 8.00016 10.5C6.61995 10.5 5.50016 9.38025 5.50016 8.00004C5.50016 6.61983 6.61995 5.50004 8.00016 5.50004ZM2.16683 7.16671C1.70785 7.16671 1.3335 7.54106 1.3335 8.00004C1.3335 8.45902 1.70785 8.83337 2.16683 8.83337C2.62581 8.83337 3.00016 8.45902 3.00016 8.00004C3.00016 7.54106 2.62581 7.16671 2.16683 7.16671ZM13.8335 7.16671C13.3745 7.16671 13.0002 7.54106 13.0002 8.00004C13.0002 8.45902 13.3745 8.83337 13.8335 8.83337C14.2925 8.83337 14.6668 8.45902 14.6668 8.00004C14.6668 7.54106 14.2925 7.16671 13.8335 7.16671ZM3.87581 11.2911C3.66097 11.2911 3.44938 11.3724 3.28662 11.5352C2.9611 11.8607 2.9611 12.3881 3.28662 12.7136C3.61214 13.0391 4.13949 13.0391 4.46501 12.7136C4.79053 12.3881 4.79053 11.8607 4.46501 11.5352C4.30225 11.3724 4.09066 11.2911 3.87581 11.2911ZM12.1245 11.2911C11.9097 11.2911 11.6981 11.3724 11.5353 11.5352C11.2098 11.8607 11.2098 12.3881 11.5353 12.7136C11.8608 13.0391 12.3882 13.0391 12.7137 12.7136C13.0392 12.3881 13.0392 11.8607 12.7137 11.5352C12.5509 11.3724 12.3394 11.2911 12.1245 11.2911ZM8.00016 13C7.54118 13 7.16683 13.3744 7.16683 13.8334C7.16683 14.2924 7.54118 14.6667 8.00016 14.6667C8.45915 14.6667 8.8335 14.2924 8.8335 13.8334C8.8335 13.3744 8.45915 13 8.00016 13Z" fill="#2E3436"/>
<path fill-rule="evenodd" clip-rule="evenodd" d="M7 1C7 0.445312 7.44531 0 8 0C8.55469 0 9 0.445312 9 1V2C9 2.55469 8.55469 3 8 3C7.44531 3 7 2.55469 7 2V1ZM2.30078 2.30078C2.49609 2.10547 2.75 2.00391 3.00781 2.00391C3.26172 2.00391 3.51953 2.10547 3.71484 2.30078L4.42188 3.00781C4.8125 3.39844 4.8125 4.02734 4.42188 4.42188C4.02734 4.8125 3.39844 4.8125 3.00781 4.42188L2.30078 3.71484C1.90625 3.32031 1.90625 2.69141 2.30078 2.30078ZM12.2852 2.30078C12.4805 2.10547 12.7383 2.00391 12.9922 2.00391C13.25 2.00391 13.5039 2.10547 13.6992 2.30078C14.0938 2.69141 14.0938 3.32031 13.6992 3.71484L12.9922 4.42188C12.6016 4.8125 11.9727 4.8125 11.5781 4.42188C11.1875 4.02734 11.1875 3.39844 11.5781 3.00781L12.2852 2.30078ZM8 4C5.78906 4 4 5.78906 4 8C4 5.79086 5.79086 4 8 4ZM4 8C4 10.2109 5.78906 12 8 12C5.79086 12 4 10.2091 4 8ZM8 4C10.2091 4 12 5.79086 12 8C12 5.78906 10.2109 4 8 4ZM12 8C12 10.2091 10.2091 12 8 12C10.2109 12 12 10.2109 12 8ZM0 8C0 7.44531 0.445312 7 1 7H2C2.55469 7 3 7.44531 3 8C3 8.55469 2.55469 9 2 9H1C0.445312 9 0 8.55469 0 8ZM13 8C13 7.44531 13.4453 7 14 7H15C15.5547 7 16 7.44531 16 8C16 8.55469 15.5547 9 15 9H14C13.4453 9 13 8.55469 13 8ZM3.00781 11.5781C3.19141 11.3945 3.42578 11.2969 3.66406 11.2852C3.9375 11.2734 4.21094 11.3711 4.42188 11.5781C4.8125 11.9727 4.8125 12.6016 4.42188 12.9922L3.71484 13.6992C3.32031 14.0938 2.69141 14.0938 2.30078 13.6992C1.90625 13.3086 1.90625 12.6797 2.30078 12.2852L3.00781 11.5781ZM11.5781 11.5781C11.7617 11.3945 12 11.2969 12.2383 11.2852C12.5078 11.2734 12.7852 11.3711 12.9922 11.5781L13.6992 12.2852C14.0938 12.6797 14.0938 13.3086 13.6992 13.6992C13.3086 14.0938 12.6797 14.0938 12.2852 13.6992L11.5781 12.9922C11.1875 12.6016 11.1875 11.9727 11.5781 11.5781ZM7 14C7 13.4648 7.41797 13.0273 7.94922 13H8C8.55469 13 9 13.4453 9 14V15C9 15.5547 8.55469 16 8 16C7.44531 16 7 15.5547 7 15V14Z" fill="#2E3436"/>
</g>
<defs>
<clipPath id="clip0_231_1127">
<rect width="16" height="16" fill="white"/>
</clipPath>
</defs>
</svg>
