<svg width="16" height="16" viewBox="0 0 16 16" fill="none" xmlns="http://www.w3.org/2000/svg">
<path fill-rule="evenodd" clip-rule="evenodd" d="M13 9.83732V6.5C13 3.73828 10.7617 1.5 8 1.5C7.06073 1.5 6.16364 1.76271 5.39456 2.23187L13 9.83732ZM3 6.5C3 6.39453 3.00391 6.28906 3.01172 6.18359L9.82812 13H2.5C1.94531 13 1.5 12.5547 1.5 12C1.5 11.4453 1.94531 11 2.5 11H3V6.5Z" fill="#2E3436"/>
<path d="M1.99999 2.00003L14.2565 14.2566" stroke="#2E3436" stroke-width="2" stroke-linecap="round"/>
<path d="M10 14C10 14.7148 9.61719 15.375 9 15.7305C8.38281 16.0898 7.61719 16.0898 7 15.7305C6.38281 15.375 6 14.7148 6 14" fill="#2E3436"/>
<path d="M9.5 1.5C9.5 2.32812 8.82812 3 8 3C7.17188 3 6.5 2.32812 6.5 1.5C6.5 0.671875 7.17188 0 8 0C8.82812 0 9.5 0.671875 9.5 1.5Z" fill="#2E3436"/>
</svg>
