<svg width="17" height="17" viewBox="0 0 17 17" fill="none" xmlns="http://www.w3.org/2000/svg">
<g clip-path="url(#clip0_231_1394)">
<path d="M5.85664 1.98889C5.30586 1.98889 4.85665 2.43811 4.85665 2.98888V3.98887H12.8566V2.98888C12.8566 2.43811 12.4073 1.98889 11.8566 1.98889H5.85664ZM2.85667 4.98886C1.74731 4.98886 0.856689 5.87948 0.856689 6.98884V10.9888C0.856689 12.0982 1.74731 12.9888 2.85667 12.9888V13.9888C2.85667 15.0786 3.76682 15.9887 4.85665 15.9887H7.85662V13.9888H4.85665V10.9888H7.85662V7.98883H16.8565V6.98884C16.8565 5.87948 15.9659 4.98886 14.8565 4.98886H2.85667Z" fill="#2E3436"/>
<path d="M10.3564 8.98877C9.52441 8.98877 8.85645 9.65673 8.85645 10.4888V15.4887C8.85645 16.3207 9.52441 16.9887 10.3564 16.9887H15.3564C16.1884 16.9887 16.8564 16.3207 16.8564 15.4887V10.4888C16.8564 9.65673 16.1884 8.98877 15.3564 8.98877H10.3564ZM11.8564 9.98876H13.8564V12.4887C13.8564 12.4887 13.8564 12.9887 13.3564 12.9887H12.3564C11.8564 12.9887 11.8564 12.4887 11.8564 12.4887V9.98876ZM12.3564 13.9887H13.3564C13.6337 13.9887 13.8564 14.2114 13.8564 14.4887V15.4887C13.8564 15.766 13.6337 15.9887 13.3564 15.9887H12.3564C12.0791 15.9887 11.8564 15.766 11.8564 15.4887V14.4887C11.8564 14.2114 12.0791 13.9887 12.3564 13.9887Z" fill="#00FF00"/>
</g>
<defs>
<clipPath id="clip0_231_1394">
<rect width="15.9998" height="15.9998" fill="white" transform="translate(0.856689 0.98877)"/>
</clipPath>
</defs>
</svg>
