<svg width="17" height="16" viewBox="0 0 17 16" fill="none" xmlns="http://www.w3.org/2000/svg">
<g clip-path="url(#clip0_231_1397)">
<path d="M5.31001 1.00024C4.75923 1.00024 4.31002 1.44946 4.31002 2.00023V3.00022H12.3099V2.00023C12.3099 1.44946 11.8607 1.00024 11.3099 1.00024H5.31001ZM2.31004 4.00021C1.20067 4.00021 0.310059 4.89083 0.310059 6.00019V10.0002C0.310059 11.1095 1.20067 12.0001 2.31004 12.0001V13.0001C2.31004 14.09 3.22018 15.0001 4.31002 15.0001H12.3099C13.3998 15.0001 14.3099 14.09 14.3099 13.0001V12.0001C15.4193 12.0001 16.3099 11.1095 16.3099 10.0002V6.00019C16.3099 4.89083 15.4193 4.00021 14.3099 4.00021H2.31004ZM4.31002 10.0002H12.3099V13.0001H4.31002V10.0002Z" fill="#2E3436"/>
</g>
<defs>
<clipPath id="clip0_231_1397">
<rect width="15.9998" height="15.9998" fill="white" transform="translate(0.310059 0.00012207)"/>
</clipPath>
</defs>
</svg>
