<svg width="16" height="17" viewBox="0 0 16 17" fill="none" xmlns="http://www.w3.org/2000/svg">
<g clip-path="url(#clip0_231_1064)">
<path d="M6.97656 0.666687C6.17578 0.6745 5.38281 0.979187 4.77344 1.57684L2 4.28387V3.68622C2 3.13544 1.55078 2.68622 1 2.68622C0.449219 2.68622 0 3.13544 0 3.68622V6.68622C0 7.237 0.449219 7.68622 1 7.68622H4C4.55078 7.68622 5 7.237 5 6.68622C5 6.13544 4.55078 5.68622 4 5.68622H3.42578L6.17969 2.97919C6.54687 2.61981 7.42578 2.612 7.78125 2.95966L13.3008 8.39716C13.6914 8.78778 14.3242 8.77997 14.7109 8.38544C15.1016 7.99481 15.0938 7.362 14.7031 6.97528L9.18359 1.55731C8.57031 0.955749 7.77344 0.666687 6.97656 0.666687V0.666687ZM2.03125 8.68622C1.75391 8.67841 1.48438 8.78387 1.28906 8.987C0.902344 9.37762 0.902344 10.0104 1.29688 10.3972L6.78125 15.7761C7.39453 16.3815 8.20312 16.6432 9 16.655V14.6784C8.66016 14.6667 8.34375 14.53 8.18359 14.3737L2.70312 8.97528C2.55078 8.82684 2.35937 8.72919 2.15234 8.69794C2.10937 8.69013 2.07031 8.69013 2.03125 8.68622V8.68622Z" fill="#2E3436" fill-opacity="0.5"/>
<path d="M13 9.68622C11.9023 9.68622 11 10.5886 11 11.6862V12.6862H10V16.6862H16V12.6862H15V11.6862C15 10.5886 14.0977 9.68622 13 9.68622ZM13 10.6862C13.5625 10.6862 14 11.1237 14 11.6862V12.6862H12V11.6862C12 11.1237 12.4375 10.6862 13 10.6862Z" fill="#2E3436"/>
</g>
<defs>
<clipPath id="clip0_231_1064">
<rect width="16" height="16.0195" fill="white" transform="translate(0 0.666687)"/>
</clipPath>
</defs>
</svg>
