<svg width="16" height="16" viewBox="0 0 16 16" fill="none" xmlns="http://www.w3.org/2000/svg">
<g clip-path="url(#clip0_316_439)">
<mask id="path-1-outside-1_316_439" maskUnits="userSpaceOnUse" x="0" y="0.00439453" width="16" height="16" fill="black">
<rect fill="white" y="0.00439453" width="16" height="16"/>
<path fill-rule="evenodd" clip-rule="evenodd" d="M5.66431 1.40732C6.56912 1.08644 7.53023 0.954947 8.48798 1.021C9.44126 1.08938 10.3706 1.35192 11.2187 1.79249C12.0668 2.23307 12.8159 2.84237 13.42 3.58299L14.6586 2.34441C14.7846 2.21842 15 2.30765 15 2.48583V5.80299C15 5.91345 14.9105 6.00299 14.8 6.00299H11.483C11.3048 6.00299 11.2156 5.7875 11.3417 5.66153L12.71 4.29399C11.9393 3.31349 10.882 2.59772 9.68536 2.24634C8.48874 1.89495 7.21236 1.92543 6.03387 2.33356C4.85539 2.74168 3.83344 3.50713 3.11041 4.52331C2.38739 5.5395 1.99926 6.75584 2 8.00299C1.99956 9.32412 2.43547 10.6084 3.23999 11.6563C4.04451 12.7043 5.17257 13.4571 6.44897 13.798C7.72513 14.1408 9.07877 14.0526 10.2997 13.5472C11.5206 13.0418 12.5405 12.1475 13.201 11.003C13.2338 10.946 13.2776 10.896 13.3297 10.8559C13.3819 10.8158 13.4414 10.7864 13.5049 10.7693C13.5684 10.7522 13.6347 10.7478 13.6999 10.7564C13.7651 10.7649 13.828 10.7862 13.885 10.819C13.942 10.8518 13.992 10.8955 14.032 10.9477C14.0721 10.9998 14.1016 11.0594 14.1187 11.1229C14.1357 11.1864 14.1402 11.2527 14.1317 11.3179C14.1231 11.3831 14.1018 11.446 14.069 11.503C12.485 14.245 9.25102 15.584 6.19202 14.765C4.70331 14.3659 3.38774 13.4871 2.4491 12.2646C1.51046 11.0421 1.00112 9.54425 1 8.00299C1.00101 7.04297 1.19935 6.0934 1.58264 5.21321C1.96594 4.33302 2.526 3.54099 3.22815 2.88629C3.9303 2.23159 4.75949 1.72819 5.66431 1.40732Z"/>
</mask>
<path fill-rule="evenodd" clip-rule="evenodd" d="M5.66431 1.40732C6.56912 1.08644 7.53023 0.954947 8.48798 1.021C9.44126 1.08938 10.3706 1.35192 11.2187 1.79249C12.0668 2.23307 12.8159 2.84237 13.42 3.58299L14.6586 2.34441C14.7846 2.21842 15 2.30765 15 2.48583V5.80299C15 5.91345 14.9105 6.00299 14.8 6.00299H11.483C11.3048 6.00299 11.2156 5.7875 11.3417 5.66153L12.71 4.29399C11.9393 3.31349 10.882 2.59772 9.68536 2.24634C8.48874 1.89495 7.21236 1.92543 6.03387 2.33356C4.85539 2.74168 3.83344 3.50713 3.11041 4.52331C2.38739 5.5395 1.99926 6.75584 2 8.00299C1.99956 9.32412 2.43547 10.6084 3.23999 11.6563C4.04451 12.7043 5.17257 13.4571 6.44897 13.798C7.72513 14.1408 9.07877 14.0526 10.2997 13.5472C11.5206 13.0418 12.5405 12.1475 13.201 11.003C13.2338 10.946 13.2776 10.896 13.3297 10.8559C13.3819 10.8158 13.4414 10.7864 13.5049 10.7693C13.5684 10.7522 13.6347 10.7478 13.6999 10.7564C13.7651 10.7649 13.828 10.7862 13.885 10.819C13.942 10.8518 13.992 10.8955 14.032 10.9477C14.0721 10.9998 14.1016 11.0594 14.1187 11.1229C14.1357 11.1864 14.1402 11.2527 14.1317 11.3179C14.1231 11.3831 14.1018 11.446 14.069 11.503C12.485 14.245 9.25102 15.584 6.19202 14.765C4.70331 14.3659 3.38774 13.4871 2.4491 12.2646C1.51046 11.0421 1.00112 9.54425 1 8.00299C1.00101 7.04297 1.19935 6.0934 1.58264 5.21321C1.96594 4.33302 2.526 3.54099 3.22815 2.88629C3.9303 2.23159 4.75949 1.72819 5.66431 1.40732Z" fill="#2E3436"/>
<path d="M8.48798 1.021L8.52375 0.522275L8.52238 0.52218L8.48798 1.021ZM5.66431 1.40732L5.83142 1.87856L5.83142 1.87856L5.66431 1.40732ZM11.2187 1.79249L11.4492 1.34879L11.4492 1.34879L11.2187 1.79249ZM13.42 3.58299L13.0325 3.89902L13.3823 4.32781L13.7735 3.93655L13.42 3.58299ZM14.6586 2.34441L14.305 1.99085L14.305 1.99085L14.6586 2.34441ZM11.3417 5.66153L10.9882 5.30787L10.9882 5.30787L11.3417 5.66153ZM12.71 4.29399L13.0635 4.64765L13.3774 4.33392L13.1031 3.985L12.71 4.29399ZM9.68536 2.24634L9.82624 1.76659L9.82624 1.76659L9.68536 2.24634ZM6.03387 2.33356L6.1975 2.80603L6.1975 2.80603L6.03387 2.33356ZM3.11041 4.52331L2.70301 4.23345L2.70301 4.23345L3.11041 4.52331ZM2 8.00299L2.5 8.00316L2.5 8.00269L2 8.00299ZM6.44897 13.798L6.57868 13.3151L6.57798 13.3149L6.44897 13.798ZM13.201 11.003L13.634 11.2529L13.6342 11.2526L13.201 11.003ZM14.069 11.503L14.5019 11.7531L14.5022 11.7526L14.069 11.503ZM6.19202 14.765L6.06256 15.2479L6.0627 15.248L6.19202 14.765ZM2.4491 12.2646L2.84568 11.9601L2.84568 11.9601L2.4491 12.2646ZM1 8.00299L0.499999 8.00246L0.5 8.00335L1 8.00299ZM1.58264 5.21321L1.12422 5.01358L1.12422 5.01358L1.58264 5.21321ZM3.22815 2.88629L2.88717 2.5206L2.88717 2.5206L3.22815 2.88629ZM8.52238 0.52218C7.49627 0.451418 6.46657 0.592298 5.49719 0.936073L5.83142 1.87856C6.67166 1.58059 7.56418 1.45848 8.45358 1.51981L8.52238 0.52218ZM11.4492 1.34879C10.5406 0.876796 9.54501 0.595537 8.52375 0.522277L8.4522 1.51971C9.33752 1.58322 10.2005 1.82704 10.9882 2.2362L11.4492 1.34879ZM13.8074 3.26696C13.1603 2.47354 12.3578 1.82078 11.4492 1.34879L10.9882 2.2362C11.7758 2.64536 12.4715 3.21121 13.0325 3.89902L13.8074 3.26696ZM14.305 1.99085L13.0664 3.22944L13.7735 3.93655L15.0121 2.69796L14.305 1.99085ZM15.5 2.48583C15.5 1.8622 14.746 1.54988 14.305 1.99085L15.0121 2.69796C14.8231 2.88695 14.5 2.7531 14.5 2.48583H15.5ZM15.5 5.80299V2.48583H14.5V5.80299H15.5ZM14.8 6.50299C15.1866 6.50299 15.5 6.18959 15.5 5.80299H14.5C14.5 5.6373 14.6343 5.50299 14.8 5.50299V6.50299ZM11.483 6.50299H14.8V5.50299H11.483V6.50299ZM10.9882 5.30787C10.547 5.74878 10.8593 6.50299 11.483 6.50299V5.50299C11.7504 5.50299 11.8842 5.82622 11.6951 6.01518L10.9882 5.30787ZM12.3566 3.94033L10.9882 5.30787L11.6951 6.01518L13.0635 4.64765L12.3566 3.94033ZM9.54449 2.72608C10.6413 3.04817 11.6105 3.70425 12.3169 4.60298L13.1031 3.985C12.2681 2.92273 11.1226 2.14728 9.82624 1.76659L9.54449 2.72608ZM6.1975 2.80603C7.27771 2.43194 8.44764 2.404 9.54449 2.72608L9.82624 1.76659C8.52983 1.38591 7.14701 1.41893 5.87025 1.86109L6.1975 2.80603ZM3.51781 4.81318C4.18054 3.88175 5.11728 3.18012 6.1975 2.80603L5.87025 1.86109C4.5935 2.30324 3.48633 3.13252 2.70301 4.23345L3.51781 4.81318ZM2.5 8.00269C2.49932 6.85953 2.85509 5.74462 3.51781 4.81318L2.70301 4.23345C1.91969 5.33437 1.4992 6.65214 1.5 8.00329L2.5 8.00269ZM3.63659 11.3519C2.89916 10.3913 2.4996 9.21412 2.5 8.00316L1.5 8.00282C1.49952 9.43413 1.97178 10.8255 2.84339 11.9608L3.63659 11.3519ZM6.57798 13.3149C5.40802 13.0025 4.37402 12.3124 3.63659 11.3519L2.84339 11.9608C3.715 13.0961 4.93713 13.9118 6.31997 14.2811L6.57798 13.3149ZM10.1084 13.0852C8.98929 13.5485 7.74847 13.6293 6.57868 13.3151L6.31927 14.2809C7.70178 14.6522 9.16824 14.5567 10.4909 14.0092L10.1084 13.0852ZM12.7679 10.7531C12.1625 11.8021 11.2276 12.622 10.1084 13.0852L10.4909 14.0092C11.8136 13.4617 12.9185 12.4928 13.634 11.2529L12.7679 10.7531ZM13.0249 10.4596C12.9208 10.5396 12.8334 10.6395 12.7677 10.7534L13.6342 11.2526L13.6345 11.2523L13.0249 10.4596ZM13.375 10.2865C13.248 10.3207 13.1291 10.3795 13.0249 10.4596L13.6345 11.2523L13.6348 11.2522L13.375 10.2865ZM13.7647 10.2606C13.6344 10.2436 13.5019 10.2523 13.375 10.2865L13.6348 11.2522L13.6351 11.2521L13.7647 10.2606ZM14.1346 10.3857C14.0206 10.3201 13.8949 10.2776 13.7647 10.2606L13.6351 11.2521L13.6354 11.2522L14.1346 10.3857ZM14.4284 10.6429C14.3484 10.5388 14.2485 10.4514 14.1346 10.3857L13.6354 11.2522L13.6357 11.2525L14.4284 10.6429ZM14.6015 10.993C14.5673 10.8661 14.5085 10.7471 14.4284 10.6429L13.6357 11.2525L13.6358 11.2528L14.6015 10.993ZM14.6274 11.3826C14.6445 11.2522 14.6356 11.1198 14.6015 10.993L13.6358 11.2528L13.6359 11.2531L14.6274 11.3826ZM14.5022 11.7526C14.5677 11.6389 14.6104 11.5132 14.6274 11.3826L13.6359 11.2531L13.6357 11.2534L14.5022 11.7526ZM6.0627 15.248C9.34016 16.1255 12.8047 14.691 14.5019 11.7531L13.636 11.2529C12.1652 13.7989 9.16187 15.0425 6.32133 14.282L6.0627 15.248ZM2.05251 12.5691C3.05815 13.8788 4.46761 14.8204 6.06256 15.2479L6.32148 14.282C4.93901 13.9114 3.71733 13.0953 2.84568 11.9601L2.05251 12.5691ZM0.5 8.00335C0.501199 9.65461 1.04689 11.2594 2.05251 12.5691L2.84568 11.9601C1.97403 10.8249 1.50104 9.43389 1.5 8.00263L0.5 8.00335ZM1.12422 5.01358C0.713576 5.95658 0.501087 6.97391 0.5 8.00246L1.5 8.00352C1.50094 7.11202 1.68512 6.23022 2.04106 5.41284L1.12422 5.01358ZM2.88717 2.5206C2.1349 3.22203 1.53487 4.07059 1.12422 5.01358L2.04106 5.41284C2.39701 4.59545 2.9171 3.85995 3.56913 3.25198L2.88717 2.5206ZM5.49719 0.936073C4.5278 1.27985 3.63943 1.81917 2.88717 2.5206L3.56913 3.25198C4.22117 2.64401 4.99119 2.17654 5.83142 1.87856L5.49719 0.936073Z" fill="#2E3436" mask="url(#path-1-outside-1_316_439)"/>
<rect width="6.30973" height="3.68604" rx="0.666667" transform="matrix(-1 0 0 1 11.1548 7.54999)" fill="#2E3436"/>
<rect x="6.66667" y="4.66667" width="2.66667" height="5.33333" rx="1.33333" stroke="#2E3436" stroke-width="1.33333"/>
</g>
<defs>
<clipPath id="clip0_316_439">
<rect width="16" height="16" fill="white"/>
</clipPath>
</defs>
</svg>
