<svg width="16" height="17" viewBox="0 0 16 17" fill="none" xmlns="http://www.w3.org/2000/svg">
<g clip-path="url(#clip0_231_1068)">
<path d="M6.97656 0.646912C6.17578 0.654724 5.38281 0.959412 4.77344 1.55707L2 4.2641V3.66644C2 3.11566 1.55078 2.66644 1 2.66644C0.449219 2.66644 0 3.11566 0 3.66644V6.66644C0 7.21722 0.449219 7.66644 1 7.66644H4C4.55078 7.66644 5 7.21722 5 6.66644C5 6.11566 4.55078 5.66644 4 5.66644H3.42578L6.17969 2.95941C6.54687 2.60004 7.42578 2.59222 7.78125 2.93988L13.3008 8.37738C13.6914 8.768 14.3242 8.76019 14.7109 8.36566C15.1016 7.97504 15.0938 7.34222 14.7031 6.9555L9.18359 1.53754C8.57031 0.935974 7.77344 0.646912 6.97656 0.646912V0.646912ZM2.14844 8.67816C1.83203 8.63129 1.51172 8.73676 1.28906 8.96722C0.902344 9.35785 0.902344 9.99066 1.29688 10.3774L6.78125 15.7563C7.39844 16.3657 8.21875 16.6313 9.02344 16.6391C9.82813 16.6469 10.6602 16.393 11.2891 15.768L14 13.0805V13.6664C14 14.2172 14.4492 14.6664 15 14.6664C15.5508 14.6664 16 14.2172 16 13.6664V10.6664C16 10.1157 15.5508 9.66644 15 9.66644H12C11.4492 9.66644 11 10.1157 11 10.6664C11 11.2172 11.4492 11.6664 12 11.6664H12.5859L9.875 14.3774C9.71875 14.5336 9.39844 14.6625 9.04297 14.6586C8.6875 14.6586 8.35156 14.518 8.17969 14.3539L2.69922 8.9555C2.55078 8.80707 2.35937 8.70941 2.14844 8.67816V8.67816Z" fill="#2E3436"/>
</g>
<defs>
<clipPath id="clip0_231_1068">
<rect width="16" height="16" fill="white" transform="translate(0 0.666687)"/>
</clipPath>
</defs>
</svg>
