<svg width="16" height="17" viewBox="0 0 16 17" fill="none" xmlns="http://www.w3.org/2000/svg">
<g clip-path="url(#clip0_231_1169)">
<path d="M3 0.333252C1.33984 0.333252 0 1.6731 0 3.33325V10.3333C0 11.9934 1.33984 13.3333 3 13.3333H13C14.6602 13.3333 16 11.9934 16 10.3333V9.33325C16 8.78247 15.5508 8.33325 15 8.33325C14.4492 8.33325 14 8.78247 14 9.33325V10.3333C14 10.8879 13.5547 11.3333 13 11.3333H3C2.44531 11.3333 2 10.8879 2 10.3333V3.33325C2 2.77856 2.44531 2.33325 3 2.33325H7C7.55078 2.33325 8 1.88403 8 1.33325C8 0.782471 7.55078 0.333252 7 0.333252H3ZM10 0.333252C9.44922 0.333252 9 0.782471 9 1.33325C9 1.88403 9.44922 2.33325 10 2.33325H12.5859L7.29297 7.62231C7.10547 7.81372 7 8.06763 7 8.33325C7 8.59888 7.10547 8.85278 7.29297 9.04028C7.68359 9.43091 8.31641 9.43091 8.70703 9.04028L14 3.74731V6.33325C14 6.88403 14.4492 7.33325 15 7.33325C15.5508 7.33325 16 6.88403 16 6.33325V1.33325C16 1.24731 15.9883 1.16138 15.9648 1.07544C15.9414 0.989502 15.9102 0.907471 15.8633 0.833252C15.8203 0.759033 15.7695 0.688721 15.707 0.626221C15.707 0.626221 15.707 0.626221 15.707 0.622314C15.6914 0.610596 15.6758 0.598877 15.6602 0.587158C15.6055 0.540283 15.543 0.497314 15.4766 0.458252C15.4414 0.442627 15.4023 0.427002 15.3633 0.411377C15.3125 0.391846 15.2617 0.376221 15.207 0.360596C15.168 0.352783 15.125 0.348877 15.0859 0.344971C15.0586 0.341064 15.0273 0.337158 15 0.333252L10 0.333252ZM5 14.3333C3.89453 14.3333 3 15.2278 3 16.3333H13C13 15.2278 12.1055 14.3333 11 14.3333H5Z" fill="#2E3436"/>
<path d="M3 3.33337V10.3334H13V6.1615L9.41406 9.74744C8.64062 10.5209 7.35938 10.5209 6.58594 9.74744C5.8125 8.974 5.8125 7.68884 6.58594 6.9154L10.1719 3.33337H3Z" fill="#2E3436" fill-opacity="0.5"/>
</g>
<defs>
<clipPath id="clip0_231_1169">
<rect width="16" height="16" fill="white" transform="translate(0 0.333252)"/>
</clipPath>
</defs>
</svg>
