<svg width="16" height="16" viewBox="0 0 16 16" fill="none" xmlns="http://www.w3.org/2000/svg">
<g clip-path="url(#clip0_231_945)">
<path d="M14 0C14.5508 0 15 0.449219 15 1V9C15 11.5 13.1836 13.2461 11.5547 14.332C9.92578 15.418 8.31641 15.9492 8.31641 15.9492C8.10938 16.0195 7.88672 16.0195 7.68359 15.9492C7.68359 15.9492 6.07422 15.418 4.44531 14.332C2.81641 13.2461 1 11.5 1 9V1C1 0.449219 1.44531 0 2 0H14ZM13 2H3V9C3 10.5 4.18359 11.7539 5.55469 12.668C6.76953 13.4766 7.73438 13.7969 8 13.8945C8.26562 13.7969 9.23047 13.4766 10.4453 12.668C11.8164 11.7539 13 10.5 13 9V2ZM12 3V9C12 10 11.1328 11.0078 9.89062 11.8359C8.95703 12.457 8.41797 12.6211 8 12.7852V3H12Z" fill="#2E3436"/>
</g>
<defs>
<clipPath id="clip0_231_945">
<rect width="16" height="16" fill="white"/>
</clipPath>
</defs>
</svg>
