<svg width="16" height="17" viewBox="0 0 16 17" fill="none" xmlns="http://www.w3.org/2000/svg">
<g clip-path="url(#clip0_231_1099)">
<path d="M7 0.666626C6.44531 0.666626 6 1.11194 6 1.66663H4C2.35547 1.66663 1 3.02209 1 4.66663V13.6666C1 15.3112 2.35547 16.6666 4 16.6666H6C6.55078 16.6666 7 16.2174 7 15.6666C7 15.1158 6.55078 14.6666 6 14.6666H4C3.42969 14.6666 3 14.2369 3 13.6666V4.66663C3 4.09631 3.42969 3.66663 4 3.66663H5V4.66663C5 5.22131 5.44531 5.66663 6 5.66663H10C10.5547 5.66663 11 5.22131 11 4.66663V3.66663H12C12.5703 3.66663 13 4.09631 13 4.66663V6.66663C13 7.21741 13.4492 7.66663 14 7.66663C14.5508 7.66663 15 7.21741 15 6.66663V4.66663C15 3.02209 13.6445 1.66663 12 1.66663H10C10 1.11194 9.55469 0.666626 9 0.666626H7Z" fill="#2E3436"/>
<path d="M8.875 8.66663C8.38281 8.66663 8 9.04944 8 9.54163V15.7916C8 16.2838 8.38281 16.6666 8.875 16.6666H15.125C15.6172 16.6666 16 16.2838 16 15.7916V9.54163C16 9.04944 15.6172 8.66663 15.125 8.66663H8.875ZM11 9.66663H13V12.1666C13 12.1666 13 12.6666 12.5 12.6666H11.5C11 12.6666 11 12.1666 11 12.1666V9.66663ZM11.5 13.6666H12.5C12.7773 13.6666 13 13.8893 13 14.1666V15.1666C13 15.444 12.7773 15.6666 12.5 15.6666H11.5C11.2227 15.6666 11 15.444 11 15.1666V14.1666C11 13.8893 11.2227 13.6666 11.5 13.6666Z" fill="#00FF00"/>
</g>
<defs>
<clipPath id="clip0_231_1099">
<rect width="16" height="16" fill="white" transform="translate(0 0.666626)"/>
</clipPath>
</defs>
</svg>
