<svg width="16" height="17" viewBox="0 0 16 17" fill="none" xmlns="http://www.w3.org/2000/svg">
<g clip-path="url(#clip0_231_1096)">
<path d="M11.7148 8.67838C10.7539 8.74478 9.85156 9.15884 9.17188 9.83853C7.60938 11.401 7.60938 13.9323 9.17188 15.4948C10.7344 17.0573 13.2656 17.0573 14.8281 15.4948C16.3906 13.9323 16.3906 11.401 14.8281 9.83853C14.0078 9.01822 12.8711 8.59244 11.7148 8.67838ZM10.5859 10.2487C10.8398 10.2487 11.0977 10.3503 11.293 10.5456L12 11.2526L12.707 10.5456C13.0977 10.1549 13.7305 10.1549 14.1211 10.5456C14.5117 10.9362 14.5117 11.569 14.1211 11.9596L13.4141 12.6667L14.1211 13.3737C14.5117 13.7643 14.5117 14.3971 14.1211 14.7878C13.7305 15.1784 13.0977 15.1784 12.707 14.7878L12 14.0807L11.293 14.7878C10.9023 15.1784 10.2695 15.1784 9.87891 14.7878C9.48828 14.3971 9.48828 13.7643 9.87891 13.3737L10.5859 12.6667L9.87891 11.9596C9.48828 11.569 9.48828 10.9362 9.87891 10.5456C10.0742 10.3503 10.332 10.2487 10.5859 10.2487Z" fill="#0000FF"/>
<path d="M7 0.666626C6.44531 0.666626 6 1.11194 6 1.66663H4C2.35547 1.66663 1 3.02209 1 4.66663V13.6666C1 15.3112 2.35547 16.6666 4 16.6666H6C6.55078 16.6666 7 16.2174 7 15.6666C7 15.1158 6.55078 14.6666 6 14.6666H4C3.42969 14.6666 3 14.2369 3 13.6666V4.66663C3 4.09631 3.42969 3.66663 4 3.66663H5V4.66663C5 5.22131 5.44531 5.66663 6 5.66663H10C10.5547 5.66663 11 5.22131 11 4.66663V3.66663H12C12.5703 3.66663 13 4.09631 13 4.66663V6.66663C13 7.21741 13.4492 7.66663 14 7.66663C14.5508 7.66663 15 7.21741 15 6.66663V4.66663C15 3.02209 13.6445 1.66663 12 1.66663H10C10 1.11194 9.55469 0.666626 9 0.666626H7Z" fill="#2E3436" fill-opacity="0.5"/>
</g>
<defs>
<clipPath id="clip0_231_1096">
<rect width="16" height="16" fill="white" transform="translate(0 0.666626)"/>
</clipPath>
</defs>
</svg>
