<svg width="16" height="16" viewBox="0 0 16 16" fill="none" xmlns="http://www.w3.org/2000/svg">
<g clip-path="url(#clip0_231_1431)">
<path d="M8 16C12.4183 16 16 12.4183 16 8C16 3.58172 12.4183 0 8 0C3.58172 0 0 3.58172 0 8C0 12.4183 3.58172 16 8 16Z" fill="url(#paint0_linear_231_1431)"/>
<path d="M2.97939 8.3914C3.91459 7.87627 4.95852 7.44633 5.93392 7.0142C7.61199 6.3064 9.29672 5.61087 10.9985 4.96333C11.3295 4.853 11.9245 4.74513 11.9828 5.2358C11.9508 5.93033 11.8195 6.6208 11.7293 7.31127C11.5006 8.82967 11.2361 10.3429 10.9783 11.8563C10.8895 12.3603 10.258 12.6213 9.85392 12.2987C8.88286 11.6427 7.90432 10.9933 6.94566 10.3221C6.63166 10.003 6.92286 9.54473 7.20326 9.31687C8.00306 8.52867 8.85126 7.859 9.60926 7.03007C9.81372 6.53633 9.20959 6.95247 9.01032 7.08C7.91539 7.83453 6.84726 8.63513 5.69286 9.29827C5.10319 9.62287 4.41592 9.34547 3.82652 9.16427C3.29806 8.94553 2.52366 8.72507 2.97932 8.39147L2.97939 8.3914Z" fill="white"/>
</g>
<defs>
<linearGradient id="paint0_linear_231_1431" x1="10.6673" y1="2.6672" x2="6.66733" y2="12" gradientUnits="userSpaceOnUse">
<stop stop-color="#37AEE2"/>
<stop offset="1" stop-color="#1E96C8"/>
</linearGradient>
<clipPath id="clip0_231_1431">
<rect width="16" height="16" fill="white"/>
</clipPath>
</defs>
</svg>
