<svg width="16" height="16" viewBox="0 0 16 16" fill="none" xmlns="http://www.w3.org/2000/svg">
<g clip-path="url(#clip0_231_1183)">
<path d="M1.98438 0L2 1H1V2C1 3 1.89453 3.99609 3 4L2.97656 5H3.97656L4 4C5 4 5.98438 3.10938 5.98438 2L6 1H5L4.98438 0H1.98438ZM9 1C7.89063 1 7 1.94141 7 3.0625V5H8V3.0625C8 2.45312 8.44922 2 9 2C9.55078 2 10 2.45312 10 3.0625V5H11V3.0625C11 1.94141 10.1094 1 9 1ZM14.5 3C13.6445 3 13 3.76562 13 4.63281V5H14V4.63281C14 4.24219 14.25 4 14.5 4H16V3H14.5ZM3 11V13.5C3 14.875 4.125 16 5.5 16C6.875 16 8 14.875 8 13.5V11H7V13.5C7 14.3398 6.33984 15 5.5 15C4.66016 15 4 14.3398 4 13.5V11H3ZM10 11V12.9375C10 14.0586 10.8906 15 12 15C13.1094 15 14 14.0586 14 12.9375V11H13V12.9375C13 13.5469 12.5508 14 12 14C11.4492 14 11 13.5469 11 12.9375V11H10Z" fill="#2E3436" fill-opacity="0.5"/>
<path d="M3 5.99988C1.89453 5.99988 1 6.89441 1 7.99988C1 9.10535 1.89453 9.99988 3 9.99988C4.10547 9.99988 5 9.10535 5 7.99988C5 6.89441 4.10547 5.99988 3 5.99988ZM8 5.99988C6.89453 5.99988 6 6.89441 6 7.99988C6 9.10535 6.89453 9.99988 8 9.99988C9.10547 9.99988 10 9.10535 10 7.99988C10 6.89441 9.10547 5.99988 8 5.99988ZM13 5.99988C11.8945 5.99988 11 6.89441 11 7.99988C11 9.10535 11.8945 9.99988 13 9.99988C14.1055 9.99988 15 9.10535 15 7.99988C15 6.89441 14.1055 5.99988 13 5.99988Z" fill="#2E3436"/>
</g>
<defs>
<clipPath id="clip0_231_1183">
<rect width="16" height="16" fill="white"/>
</clipPath>
</defs>
</svg>
