<svg width="16" height="16" viewBox="0 0 16 16" fill="none" xmlns="http://www.w3.org/2000/svg">
<g clip-path="url(#clip0_231_1142)">
<path fill-rule="evenodd" clip-rule="evenodd" d="M4.01393 8.83251C4.00477 8.8869 4 8.94285 4 9V9.5C4 9.5 4 10 3.5 10C3 10 3 9.5 3 9.5V8.94531C3 8.39062 2.55469 7.94531 2 7.94531C1.44531 7.94531 1 8.39062 1 8.94531V13C1 13 1 16 4 16H10C10.33 15.9982 10.6713 15.9368 11.006 15.8245L4.01393 8.83251ZM14.783 12.631L15.707 11.707C16.1563 11.2578 16.0938 10.0742 15.0117 9.98828C14.7383 9.99219 14.4805 10.0977 14.293 10.293L13.3469 11.1949L14.783 12.631ZM12 9.848V6H13C14.6445 6 16 4.64453 16 3C16 1.35547 14.6445 0 13 0H3C2.74091 0 2.48922 0.0337617 2.24902 0.097022L8.152 6H10V7.848L12 9.848ZM10 6V4C10 3.44531 10.4453 3 11 3C11.5547 3 12 3.44531 12 4V6H10Z" fill="#2E3436"/>
<path d="M0.999985 2.33335L13.2565 14.5899" stroke="#2E3436" stroke-width="2" stroke-linecap="round"/>
</g>
<defs>
<clipPath id="clip0_231_1142">
<rect width="16" height="16" fill="white"/>
</clipPath>
</defs>
</svg>
