<svg width="16" height="16" viewBox="0 0 16 16" fill="none" xmlns="http://www.w3.org/2000/svg">
<path fill-rule="evenodd" clip-rule="evenodd" d="M0 4.81858V11.9688C0 13.6367 1.36328 15 3.03125 15H10.1814L8.18142 13H8V12.8186L7 11.8186V13H3.03125C2.43359 13 2 12.5664 2 11.9688V11H6.18142L5.18142 10H2V6.81858L0 4.81858ZM14.8979 12.7459C14.9644 12.4977 15 12.2372 15 11.9688V4.03125C15 2.36328 13.6367 1 11.9688 1H3.152L5.152 3H11.9688C12.5664 3 13 3.43359 13 4.03125V10H12.152L14.8979 12.7459Z" fill="#2E3436"/>
<path d="M0.999985 2.33335L13.2565 14.5899" stroke="#2E3436" stroke-width="2" stroke-linecap="round"/>
</svg>
