<svg width="16" height="16" viewBox="0 0 16 16" fill="none" xmlns="http://www.w3.org/2000/svg">
<path fill-rule="evenodd" clip-rule="evenodd" d="M1.19622 5.82932C0.778534 6.50361 0.463361 7.23964 0.261719 8.01172C1.17578 11.5352 4.35937 13.9961 8 14C8.42198 13.9961 8.84206 13.959 9.25648 13.8896L7.30727 11.9404C5.65208 11.652 4.34802 10.3479 4.05963 8.69273L1.19622 5.82932ZM4.70343 2.73687L6.3374 4.37083C6.85585 4.12986 7.42182 4.00282 8 4C10.2109 4 12 5.78906 12 8C11.9972 8.57818 11.8701 9.14415 11.6292 9.6626L13.6216 11.6551C14.6405 10.6494 15.3744 9.3825 15.7383 7.98828C14.8242 4.46484 11.6406 2.00391 8 2C6.85776 2.00979 5.73461 2.26225 4.70343 2.73687ZM9.99924 8.03268C9.99959 8.02179 9.99984 8.0109 10 8C10 6.89453 9.10547 6 8 6C7.9891 6.00016 7.97821 6.00041 7.96732 6.00076L9.99924 8.03268Z" fill="#2E3436"/>
<path d="M1.33348 2.66678L13.59 14.9233" stroke="#2E3436" stroke-width="2" stroke-linecap="round"/>
</svg>
