<svg width="16" height="16" viewBox="0 0 16 16" fill="none" xmlns="http://www.w3.org/2000/svg">
<g clip-path="url(#clip0_231_1133)">
<path d="M6 0C5.446 0 5 0.446 5 1V2H0.5C0.223 2 0 2.223 0 2.5C0 2.777 0 3.5 0.5 3.5H1L1.54493 14.061C1.60613 15.0765 2.45108 16.0005 3.54293 16.0005H11.457C12.5489 16.0005 13.3938 15.0766 13.455 14.061L14 3.5H14.5C15 3.5 15 2.777 15 2.5C15 2.223 14.777 2 14.5 2H9.99996V1C9.99996 0.446 9.55396 0 8.99996 0L6 0ZM2.5 3.5H7.5H12.5L12 14C12 14.5 12 14.5 11.5 14.5H3.5C2.946 14.5 3.03333 14.553 3 14L2.5 3.5ZM4.5 5C4.223 5 4 5.223 4 5.5V12.5C4 12.777 4.223 13 4.5 13C4.777 13 5 12.777 5 12.5V5.5C5 5.223 4.777 5 4.5 5ZM7.5 5C7.223 5 7 5.223 7 5.5V12.5C7 12.777 7.223 13 7.5 13C7.777 13 8 12.777 8 12.5V5.5C8 5.223 7.777 5 7.5 5ZM10.5 5C10.223 5 10 5.223 10 5.5V12.5C10 12.777 10.223 13 10.5 13C10.777 13 11 12.777 11 12.5V5.5C11 5.223 10.777 5 10.5 5Z" fill="#2E3436"/>
</g>
<defs>
<clipPath id="clip0_231_1133">
<rect width="16" height="16" fill="white"/>
</clipPath>
</defs>
</svg>
