<svg width="16" height="16" viewBox="0 0 16 16" fill="none" xmlns="http://www.w3.org/2000/svg">
<path d="M3 6C1.89453 6 1 6.89453 1 8C1 9.10547 1.89453 10 3 10C4.10547 10 5 9.10547 5 8C5 6.89453 4.10547 6 3 6ZM8 6C6.89453 6 6 6.89453 6 8C6 9.10547 6.89453 10 8 10C9.10547 10 10 9.10547 10 8C10 6.89453 9.10547 6 8 6ZM13 6C11.8945 6 11 6.89453 11 8C11 9.10547 11.8945 10 13 10C14.1055 10 15 9.10547 15 8C15 6.89453 14.1055 6 13 6Z" fill="#2E3436"/>
<path d="M3 1C1.35547 1 0 2.35547 0 4V5H16V4C16 2.35547 14.6445 1 13 1H3ZM0.175781 11C0.59375 12.1602 1.70703 13 3 13H4V16L7 13H13C14.293 13 15.4062 12.1602 15.8242 11H0.175781Z" fill="#2E3436" fill-opacity="0.5"/>
</svg>
