<svg width="17" height="16" viewBox="0 0 17 16" fill="none" xmlns="http://www.w3.org/2000/svg">
<g clip-path="url(#clip0_231_1388)">
<path d="M9.91699 0C7.16309 0 4.91699 2.24609 4.91699 5V5.58594L4.62402 5.29297C4.43652 5.10547 4.18262 5 3.91699 5C3.65137 5 3.39746 5.10547 3.20996 5.29297C2.81934 5.68359 2.81934 6.31641 3.20996 6.70703L5.20996 8.70703C5.60059 9.09766 6.2334 9.09766 6.62402 8.70703L8.62402 6.70703C9.01465 6.31641 9.01465 5.68359 8.62402 5.29297C8.2334 4.90234 7.60059 4.90234 7.20996 5.29297L6.91699 5.58594V5C6.91699 3.32031 8.2373 2 9.91699 2C11.5967 2 12.917 3.32031 12.917 5V11C12.917 12.6797 11.5967 14 9.91699 14C8.2373 14 6.91699 12.6797 6.91699 11C6.91699 10.4492 6.46777 10 5.91699 10C5.36621 10 4.91699 10.4492 4.91699 11C4.91699 13.7539 7.16309 16 9.91699 16C12.6709 16 14.917 13.7539 14.917 11V5C14.917 2.24609 12.6709 0 9.91699 0Z" fill="#2E3436"/>
</g>
<defs>
<clipPath id="clip0_231_1388">
<rect width="16" height="16" fill="white" transform="translate(0.916992)"/>
</clipPath>
</defs>
</svg>
