<svg width="17" height="16" viewBox="0 0 17 16" fill="none" xmlns="http://www.w3.org/2000/svg">
<g clip-path="url(#clip0_231_1390)">
<path d="M7.95874 0C10.7126 0 12.9587 2.24609 12.9587 5V5.58594L13.2517 5.29297C13.4392 5.10547 13.6931 5 13.9587 5C14.2244 5 14.4783 5.10547 14.6658 5.29297C15.0564 5.68359 15.0564 6.31641 14.6658 6.70703L12.6658 8.70703C12.2751 9.09766 11.6423 9.09766 11.2517 8.70703L9.25171 6.70703C8.86108 6.31641 8.86108 5.68359 9.25171 5.29297C9.64233 4.90234 10.2751 4.90234 10.6658 5.29297L10.9587 5.58594V5C10.9587 3.32031 9.63843 2 7.95874 2C6.27905 2 4.95874 3.32031 4.95874 5V11C4.95874 12.6797 6.27905 14 7.95874 14C9.63843 14 10.9587 12.6797 10.9587 11C10.9587 10.4492 11.408 10 11.9587 10C12.5095 10 12.9587 10.4492 12.9587 11C12.9587 13.7539 10.7126 16 7.95874 16C5.20483 16 2.95874 13.7539 2.95874 11V5C2.95874 2.24609 5.20483 0 7.95874 0Z" fill="#2E3436"/>
</g>
<defs>
<clipPath id="clip0_231_1390">
<rect width="16" height="16" fill="white" transform="translate(0.958496)"/>
</clipPath>
</defs>
</svg>
