<svg width="16" height="16" viewBox="0 0 16 16" fill="none" xmlns="http://www.w3.org/2000/svg">
<g clip-path="url(#clip0_322_337)">
<path d="M3.67999 2C4.75899 2.001 5.67595 2.6655 6.11395 3.616L6.14447 3.681L6.21399 3.686C7.21099 3.758 8 4.621 8 5.67C8 6.7665 7.14199 7.666 6.08099 7.666H1.43896C0.642965 7.666 0 6.991 0 6.172C0 5.57595 0.353566 5.03685 0.902466 4.8045L0.971008 4.7755L0.975952 4.701C1.04345 3.2045 2.21948 2.001 3.67798 2H3.67999Z" fill="#2E3436" fill-opacity="0.5"/>
<path d="M9.60005 3.00049C7.7118 3.00224 6.10712 4.16512 5.34062 5.82849L5.28722 5.94224L5.16556 5.95099C3.42081 6.07699 2.04004 7.58724 2.04004 9.42299C2.04004 11.3419 3.54155 12.916 5.3983 12.916H13.5219C14.9149 12.916 16.04 11.7347 16.04 10.3015C16.04 9.2584 15.4213 8.31498 14.4607 7.90836L14.3408 7.85762L14.3321 7.72724C14.214 5.10836 12.156 3.00224 9.60358 3.00049H9.60005Z" fill="#2E3436"/>
</g>
<defs>
<clipPath id="clip0_322_337">
<rect width="16" height="16" fill="white"/>
</clipPath>
</defs>
</svg>
