<svg width="16" height="16" viewBox="0 0 16 16" fill="none" xmlns="http://www.w3.org/2000/svg">
<path d="M3.5 4.00195C3.36739 4.00195 3.24021 4.05463 3.14645 4.1484C3.05268 4.24217 3 4.36934 3 4.50195C3 4.63456 3.05268 4.76174 3.14645 4.85551C3.24021 4.94928 3.36739 5.00195 3.5 5.00195H12.5C12.6326 5.00195 12.7598 4.94928 12.8536 4.85551C12.9473 4.76174 13 4.63456 13 4.50195C13 4.36934 12.9473 4.24217 12.8536 4.1484C12.7598 4.05463 12.6326 4.00195 12.5 4.00195H3.5ZM5 6.00195C4.86739 6.00195 4.74021 6.05463 4.64645 6.1484C4.55268 6.24217 4.5 6.36934 4.5 6.50195C4.5 6.63456 4.55268 6.76174 4.64645 6.85551C4.74021 6.94928 4.86739 7.00195 5 7.00195H11C11.1326 7.00195 11.2598 6.94928 11.3536 6.85551C11.4473 6.76174 11.5 6.63456 11.5 6.50195C11.5 6.36934 11.4473 6.24217 11.3536 6.1484C11.2598 6.05463 11.1326 6.00195 11 6.00195H5ZM6.5 8.00195C6.36739 8.00195 6.24021 8.05463 6.14645 8.1484C6.05268 8.24217 6 8.36934 6 8.50195C6 8.63456 6.05268 8.76174 6.14645 8.85551C6.24021 8.94928 6.36739 9.00195 6.5 9.00195H11.5C11.6326 9.00195 11.7598 8.94928 11.8536 8.85551C11.9473 8.76174 12 8.63456 12 8.50195C12 8.36934 11.9473 8.24217 11.8536 8.1484C11.7598 8.05463 11.6326 8.00195 11.5 8.00195H6.5ZM7 10.002C6.86739 10.002 6.74021 10.0546 6.64645 10.1484C6.55268 10.2422 6.5 10.3693 6.5 10.502C6.5 10.6346 6.55268 10.7617 6.64645 10.8555C6.74021 10.9493 6.86739 11.002 7 11.002H9.5C9.63261 11.002 9.75979 10.9493 9.85355 10.8555C9.94732 10.7617 10 10.6346 10 10.502C10 10.3693 9.94732 10.2422 9.85355 10.1484C9.75979 10.0546 9.63261 10.002 9.5 10.002H7ZM7 12.002C6.86739 12.002 6.74021 12.0546 6.64645 12.1484C6.55268 12.2422 6.5 12.3693 6.5 12.502C6.5 12.6346 6.55268 12.7617 6.64645 12.8555C6.74021 12.9493 6.86739 13.002 7 13.002H7.5C7.63261 13.002 7.75979 12.9493 7.85355 12.8555C7.94732 12.7617 8 12.6346 8 12.502C8 12.3693 7.94732 12.2422 7.85355 12.1484C7.75979 12.0546 7.63261 12.002 7.5 12.002H7Z" fill="#2E3436" stroke="#2E3436" stroke-width="0.1"/>
</svg>
