<svg width="16" height="16" viewBox="0 0 16 16" fill="none" xmlns="http://www.w3.org/2000/svg">
<path d="M5 1.76172C4.78516 1.76172 4.57031 1.84375 4.42969 2.01172C4.17969 2.30078 2 4.91016 2 7C2 7.77344 2.26563 8.5 2.75 9.04297C3.14063 9.48047 3.84375 10 5 10C6.96875 10 8 8.49219 8 7C8 4.90625 5.81641 2.30078 5.57031 2.01172C5.42578 1.84375 5.21484 1.76172 5 1.76172V1.76172ZM11 5.76172C10.7852 5.76172 10.5703 5.84375 10.4297 6.01172C10.1797 6.30078 8 8.91016 8 11C8 11.7734 8.26563 12.5 8.75 13.043C9.14063 13.4805 9.84375 14 11 14C12.9688 14 14 12.4922 14 11C14 8.90625 11.8164 6.30078 11.5703 6.01172C11.4258 5.84375 11.2148 5.76172 11 5.76172Z" fill="#2E3436"/>
</svg>
