<svg width="16" height="16" viewBox="0 0 16 16" fill="none" xmlns="http://www.w3.org/2000/svg">
<path d="M8 1.99997C6.1636 1.99997 4.6333 3.20177 4.0625 4.84377C2.3394 5.06213 1 6.51827 1 8.30077C1 10.0779 2.3293 11.5306 4.0449 11.7559C4.08579 11.7043 4.12348 11.6512 4.1699 11.6035C4.05746 11.1708 4.08499 10.7144 4.41013 10.3808L4.41599 10.3769L4.4199 10.373C4.76019 10.0327 5.2192 10.0023 5.6543 10.1191C5.97427 9.81032 6.38166 9.6094 6.8281 9.72653H6.83005C6.87451 9.73823 6.90853 9.76275 6.94919 9.77926C6.99758 9.71491 7.04658 9.65048 7.10349 9.59176C6.99076 9.15881 7.02037 8.70276 7.34568 8.36906L7.34959 8.3632L7.35349 8.3593C7.69332 8.01947 8.1513 7.99133 8.58589 8.10735C8.90589 7.79747 9.3164 7.59548 9.76359 7.71282C10.2222 7.83354 10.4769 8.22196 10.5976 8.65423C11.03 8.77527 11.4168 9.02909 11.537 9.48821C11.6542 9.93467 11.4532 10.3421 11.1444 10.662C11.2498 11.0543 11.2203 11.4605 10.9667 11.787C10.9697 11.7913 10.9716 11.7963 10.9745 11.8007H12.1991C13.7455 11.8007 14.9999 10.5463 14.9999 8.99988C14.9999 7.45348 13.7455 6.19908 12.1991 6.19908C12.1991 3.87958 10.3194 1.99988 7.99992 1.99988L8 1.99997Z" fill="#2E3436"/>
<path d="M4.95294 12.162L5.60963 11.9911L5.12686 11.5053C5.00991 11.3914 5.00991 11.1994 5.12686 11.0795C5.24381 10.9625 5.43871 10.9625 5.55266 11.0795L6.03843 11.5623L6.20935 10.9056C6.25132 10.7436 6.41625 10.6507 6.57518 10.6927C6.73711 10.7347 6.83006 10.8996 6.78808 11.0615L6.61116 11.7182L7.26785 11.5413C7.42978 11.4993 7.59469 11.5922 7.63668 11.7542C7.67865 11.9131 7.58571 12.078 7.42378 12.12L6.76709 12.2909L7.24986 12.7767C7.36681 12.8906 7.36681 13.0855 7.24986 13.2025C7.13291 13.3194 6.93801 13.3194 6.82406 13.2025L6.33829 12.7197L6.16737 13.3764C6.12539 13.5383 5.96047 13.6313 5.80154 13.5893C5.63961 13.5473 5.54666 13.3824 5.58864 13.2205L5.76556 12.5638L5.10887 12.7407C4.94694 12.7827 4.78203 12.6897 4.74004 12.5278C4.69806 12.3689 4.79101 12.204 4.95294 12.162Z" fill="#2E3436" fill-opacity="0.5"/>
<path d="M5.69468 12.6347L5.54036 13.2075L5.54036 13.2075L5.54024 13.2079C5.49161 13.3955 5.59925 13.5884 5.78886 13.6377M5.69468 12.6347L6.21576 13.389C6.16665 13.5783 5.97393 13.6865 5.78886 13.6377M5.69468 12.6347L5.12188 12.789L5.12142 12.7891L5.12142 12.7891C4.93384 12.8377 4.74091 12.7301 4.69167 12.5405C4.64284 12.3554 4.75106 12.1627 4.94035 12.1136L5.69468 12.6347ZM5.78886 13.6377C5.78883 13.6377 5.7888 13.6377 5.78877 13.6377L5.80154 13.5893L5.78899 13.6377C5.78895 13.6377 5.7889 13.6377 5.78886 13.6377ZM6.68204 11.6473L6.83636 11.0745L6.83636 11.0745L6.83648 11.0741C6.88511 10.8865 6.77746 10.6935 6.58784 10.6443C6.40279 10.5955 6.21006 10.7037 6.16096 10.893L6.68204 11.6473ZM6.68204 11.6473L7.25485 11.493L7.25531 11.4929L7.25531 11.4929C7.44287 11.4443 7.6358 11.5519 7.68504 11.7415C7.73388 11.9265 7.62568 12.1193 7.43638 12.1684L6.68204 11.6473ZM6.21577 13.389L6.16737 13.3764L6.21577 13.389ZM5.51283 11.9646L4.94039 12.1136L6.16095 10.893L6.01196 11.4655L5.58818 11.0443C5.45432 10.9073 5.22763 10.908 5.09151 11.0441L5.0915 11.0441L5.09106 11.0446C4.95578 11.1833 4.95438 11.4067 5.09167 11.5408L5.51283 11.9646ZM6.36476 12.8165L6.78855 13.2377C6.92241 13.3747 7.1491 13.374 7.28522 13.2379C7.42134 13.1017 7.42211 12.875 7.28506 12.7412L6.86389 12.3174L7.43633 12.1684L6.36476 12.8165Z" stroke="#2E3436" stroke-opacity="0.5" stroke-width="0.1"/>
<path d="M8.4881 13.7739L9.14479 13.603L8.66202 13.1172C8.54507 13.0033 8.54507 12.8114 8.66202 12.6914C8.77897 12.5745 8.97387 12.5745 9.08782 12.6914L9.57359 13.1742L9.74451 12.5175C9.78648 12.3556 9.95141 12.2626 10.1103 12.3046C10.2723 12.3466 10.3652 12.5115 10.3232 12.6734L10.1463 13.3301L10.803 13.1532C10.9649 13.1112 11.1298 13.2042 11.1718 13.3661C11.2138 13.525 11.1209 13.69 10.9589 13.7319L10.3022 13.9029L10.785 14.3886C10.902 14.5026 10.902 14.6975 10.785 14.8144C10.6681 14.9314 10.4732 14.9314 10.3592 14.8144L9.87345 14.3317L9.70253 14.9884C9.66054 15.1503 9.49563 15.2432 9.3367 15.2013C9.17477 15.1593 9.08182 14.9944 9.1238 14.8324L9.30072 14.1757L8.64403 14.3527C8.4821 14.3946 8.31719 14.3017 8.2752 14.1398C8.23321 13.9808 8.32617 13.8159 8.4881 13.7739Z" fill="#2E3436" fill-opacity="0.5"/>
<path d="M9.22984 14.2466L9.07552 14.8194L9.07552 14.8194L9.0754 14.8199C9.02677 15.0075 9.13441 15.2004 9.32403 15.2496C9.50909 15.2984 9.70181 15.1902 9.75092 15.0009L9.22984 14.2466ZM9.22984 14.2466L8.65703 14.4009L8.65657 14.4011L8.65657 14.4011C8.469 14.4497 8.27606 14.342 8.22683 14.1524C8.178 13.9674 8.28622 13.7746 8.4755 13.7255L9.22984 14.2466ZM10.2172 13.2593L10.79 13.1049L10.7905 13.1048L10.7905 13.1048C10.978 13.0562 11.171 13.1638 11.2202 13.3535C11.269 13.5385 11.1608 13.7312 10.9715 13.7803L10.2172 13.2593ZM10.2172 13.2593L10.3715 12.6865L10.3715 12.6865L10.3716 12.686C10.4203 12.4984 10.3126 12.3055 10.123 12.2562C9.93795 12.2074 9.74521 12.3156 9.69612 12.5049L10.2172 13.2593ZM9.75093 15.0009L9.89992 14.4285L10.3237 14.8496C10.4576 14.9867 10.6843 14.9859 10.8204 14.8498C10.9565 14.7137 10.9573 14.487 10.8202 14.3531L10.399 13.9293L10.9715 13.7803L9.75093 15.0009ZM9.04799 13.5765L8.47555 13.7255L9.69611 12.505L9.54712 13.0774L9.12334 12.6562C8.98947 12.5192 8.76278 12.52 8.62666 12.6561L8.62666 12.6561L8.62622 12.6565C8.49093 12.7953 8.48953 13.0187 8.62683 13.1528L9.04799 13.5765Z" stroke="#2E3436" stroke-opacity="0.5" stroke-width="0.1"/>
<path d="M7.88702 10.1489L8.54371 9.978L8.06094 9.49223C7.94399 9.37829 7.94399 9.18638 8.06094 9.06643C8.17789 8.94948 8.37279 8.94948 8.48674 9.06643L8.97251 9.5492L9.14343 8.89251C9.18541 8.73058 9.35033 8.63764 9.50926 8.67962C9.67119 8.7216 9.76414 8.88651 9.72216 9.04844L9.54524 9.70513L10.2019 9.52821C10.3639 9.48624 10.5288 9.57918 10.5708 9.74111C10.6127 9.90004 10.5198 10.065 10.3579 10.1069L9.70117 10.2779L10.1839 10.7636C10.3009 10.8776 10.3009 11.0725 10.1839 11.1894C10.067 11.3064 9.87208 11.3064 9.75814 11.1894L9.27237 10.7067L9.10145 11.3634C9.05947 11.5253 8.89455 11.6182 8.73562 11.5763C8.57369 11.5343 8.48074 11.3694 8.52272 11.2074L8.69964 10.5507L8.04295 10.7277C7.88102 10.7696 7.71611 10.6767 7.67412 10.5148C7.63214 10.3558 7.7251 10.1909 7.88702 10.1489Z" fill="#2E3436" fill-opacity="0.5"/>
<path d="M8.62877 10.6216L8.47445 11.1944L8.47444 11.1944L8.47432 11.1949C8.4257 11.3825 8.53334 11.5754 8.72295 11.6246C8.90801 11.6735 9.10073 11.5652 9.14984 11.3759L8.62877 10.6216ZM8.62877 10.6216L8.05596 10.7759L8.0555 10.7761L8.0555 10.7761C7.86792 10.8247 7.67499 10.717 7.62575 10.5274C7.57693 10.3424 7.68514 10.1496 7.87443 10.1005L8.62877 10.6216ZM9.61612 9.63426L10.1889 9.47994L10.1894 9.47981L10.1894 9.47981C10.377 9.43119 10.5699 9.53883 10.6191 9.72845C10.668 9.91351 10.5597 10.1062 10.3705 10.1553L9.61612 9.63426ZM9.61612 9.63426L9.77044 9.06145L9.77045 9.06145L9.77056 9.06099C9.81919 8.87341 9.71155 8.68047 9.52192 8.63124C9.33687 8.58243 9.14414 8.69063 9.09505 8.87992L9.61612 9.63426ZM9.14985 11.3759L9.29885 10.8035L9.72263 11.2246C9.85649 11.3617 10.0832 11.3609 10.2193 11.2248C10.3554 11.0887 10.3562 10.862 10.2191 10.7281L9.79797 10.3043L10.3704 10.1553L9.14985 11.3759ZM8.44691 9.95153L7.87448 10.1005L9.09503 8.87997L8.94604 9.4524L8.52226 9.03124C8.3884 8.89419 8.16171 8.89496 8.02559 9.03108L8.02559 9.03108L8.02514 9.03153C7.88986 9.17028 7.88846 9.39367 8.02575 9.52776L8.44691 9.95153Z" stroke="#2E3436" stroke-opacity="0.5" stroke-width="0.1"/>
</svg>
