<svg width="16" height="16" viewBox="0 0 16 16" fill="none" xmlns="http://www.w3.org/2000/svg">
<path d="M8 2.00005C6.1636 2.00005 4.6333 3.20185 4.0625 4.84385C2.3394 5.06221 1 6.51835 1 8.30085C1 10.2339 2.567 11.8008 4.5 11.8008H5.01758L5.4336 11.0801L6.29883 9.58015L7.58003 11.8008H7.6523C7.72431 11.4458 7.81981 11.1 7.99996 10.8165L8.81637 9.40237L9.6816 7.90237L11.3593 10.8106C11.5556 11.1142 11.719 11.4399 11.8007 11.8008H12.1991C13.7455 11.8008 14.9999 10.5464 14.9999 9C14.9999 7.4536 13.7455 6.1992 12.1991 6.1992C12.1991 3.8797 10.3194 2 7.99995 2L8 2.00005Z" fill="#2E3436"/>
<path d="M9.68175 9.90234L8.84386 11.3535C8.46695 11.9468 8.37402 12.5496 8.84386 13.0254C9.0877 13.2812 9.38438 13.3223 9.68175 13.3223C9.97912 13.3223 10.2758 13.2812 10.5196 13.0254C10.9895 12.5497 10.9501 12.0192 10.5196 11.3535L9.68175 9.90234ZM6.29895 11.58L5.46106 13.0312C5.08415 13.6245 4.99122 14.2273 5.46106 14.7031C5.7049 14.9589 6.00158 15 6.29895 15C6.59632 15 6.893 14.9589 7.13684 14.7031C7.60668 14.2274 7.56726 13.6969 7.13684 13.0312L6.29895 11.58V11.58Z" fill="#2E3436" fill-opacity="0.5"/>
<path d="M9.72505 9.87734L9.68175 9.80235L9.63845 9.87734L8.80108 11.3276C8.61026 11.6282 8.48846 11.9355 8.47637 12.2315C8.46419 12.5296 8.56359 12.8126 8.80797 13.0603C9.06617 13.3308 9.38027 13.3723 9.68175 13.3723C9.98323 13.3723 10.2973 13.3308 10.5555 13.0603C10.798 12.8146 10.9124 12.5507 10.9072 12.2598C10.9021 11.9715 10.7794 11.6635 10.5623 11.3275L9.72505 9.87734ZM6.29895 11.58L6.25565 11.555L5.41829 13.0053C5.22746 13.3059 5.10566 13.6132 5.09357 13.9092C5.08139 14.2073 5.18079 14.4903 5.42518 14.738C5.68337 15.0085 5.99747 15.05 6.29895 15.05C6.60043 15.05 6.91453 15.0085 7.17273 14.738C7.41519 14.4923 7.52964 14.2284 7.52443 13.9375C7.51927 13.6492 7.39665 13.3412 7.17951 13.0052L6.34225 11.555L6.29895 11.58Z" stroke="#2E3436" stroke-opacity="0.5" stroke-width="0.1"/>
</svg>
