<svg width="16" height="16" viewBox="0 0 16 16" fill="none" xmlns="http://www.w3.org/2000/svg">
<path fill-rule="evenodd" clip-rule="evenodd" d="M5.99994 1.14294C5.80208 1.14294 5.6428 1.30223 5.6428 1.50008V2.92868C5.6428 3.12654 5.80209 3.28582 5.99994 3.28582C6.1978 3.28582 6.35708 3.12653 6.35708 2.92868V1.50008C6.35708 1.30222 6.19779 1.14294 5.99994 1.14294V1.14294ZM2.71734 2.50314C2.62605 2.50314 2.53478 2.53782 2.46483 2.60777C2.32492 2.74768 2.32492 2.97289 2.46483 3.11279L3.47483 4.12279C3.61474 4.2627 3.83995 4.2627 3.97985 4.12279C4.11976 3.98288 4.11976 3.75767 3.97985 3.61777L2.96985 2.60777C2.8999 2.53782 2.80863 2.50314 2.71734 2.50314V2.50314ZM9.28264 2.50314C9.19135 2.50314 9.10008 2.53782 9.03013 2.60777L8.02013 3.61777C7.88022 3.75768 7.88022 3.98289 8.02013 4.12279C8.16004 4.2627 8.38525 4.2627 8.52515 4.12279L9.53515 3.11279C9.67506 2.97288 9.67506 2.74767 9.53515 2.60777C9.4652 2.53782 9.37393 2.50314 9.28264 2.50314V2.50314ZM6.00004 4.00004C5.43171 4.00004 4.88665 4.22581 4.48478 4.62769C4.08291 5.02956 3.85714 5.57461 3.85714 6.14294C3.85714 6.71128 4.08291 7.25633 4.48478 7.6582C4.88665 8.06008 5.43171 8.28584 6.00004 8.28584C6.28145 8.28584 6.5601 8.23042 6.82009 8.12273C7.08008 8.01504 7.31631 7.85719 7.5153 7.6582C7.71429 7.45922 7.87213 7.22299 7.97982 6.963C8.08751 6.70301 8.14294 6.42435 8.14294 6.14294C8.14294 5.57461 7.91717 5.02956 7.5153 4.62769C7.11343 4.22581 6.56837 4.00004 6.00004 4.00004V4.00004ZM1.35714 5.78574C1.15928 5.78574 1 5.94503 1 6.14288C1 6.34074 1.15929 6.50002 1.35714 6.50002H2.78574C2.9836 6.50002 3.14288 6.34073 3.14288 6.14288C3.14288 5.94502 2.98359 5.78574 2.78574 5.78574H1.35714ZM9.21424 5.78574C9.01638 5.78574 8.8571 5.94503 8.8571 6.14288C8.8571 6.34074 9.01639 6.50002 9.21424 6.50002H10.6428C10.8407 6.50002 11 6.34073 11 6.14288C11 5.94502 10.8407 5.78574 10.6428 5.78574H9.21424ZM3.72734 8.05834C3.63605 8.05834 3.54478 8.09302 3.47483 8.16297L2.46483 9.17297C2.32492 9.31288 2.32492 9.53809 2.46483 9.67799C2.60474 9.81789 2.82995 9.8179 2.96985 9.67799L3.97985 8.66799C4.11976 8.52809 4.11976 8.30287 3.97985 8.16297C3.9099 8.09302 3.81863 8.05834 3.72734 8.05834ZM8.27254 8.05834C8.18125 8.05834 8.08998 8.09302 8.02003 8.16297C7.88012 8.30288 7.88012 8.52809 8.02003 8.66799L9.03003 9.67799C9.16994 9.8179 9.39515 9.8179 9.53505 9.67799C9.67496 9.53808 9.67496 9.31287 9.53505 9.17297L8.52505 8.16297C8.4551 8.09302 8.36383 8.05834 8.27254 8.05834ZM5.99994 9.00002C5.80208 9.00002 5.6428 9.15931 5.6428 9.35716V10.7858C5.6428 10.9836 5.80209 11.1429 5.99994 11.1429C6.1978 11.1429 6.35708 10.9836 6.35708 10.7858V9.35716C6.35708 9.1593 6.19779 9.00002 5.99994 9.00002Z" fill="#2E3436" fill-opacity="0.5"/>
<path d="M2.4118 2.55474C2.4964 2.47014 2.607 2.42814 2.71734 2.42814C2.82768 2.42814 2.93828 2.47014 3.02288 2.55474L4.03288 3.56474C4.03288 3.56474 4.03288 3.56474 4.03288 3.56474C4.20208 3.73393 4.20208 4.00663 4.03288 4.17583L2.4118 2.55474ZM2.4118 2.55474C2.2426 2.72394 2.2426 2.99664 2.4118 3.16583M2.4118 2.55474L2.4118 3.16583M2.4118 3.16583C2.4118 3.16583 2.4118 3.16583 2.4118 3.16583M2.4118 3.16583L2.4118 3.16583M2.4118 3.16583L3.4218 4.17583C3.59099 4.34502 3.86369 4.34503 4.03288 4.17583L2.4118 3.16583ZM5.99994 1.06794C5.76066 1.06794 5.5678 1.26081 5.5678 1.50008V2.92868C5.5678 3.16797 5.76067 3.36082 5.99994 3.36082C6.23922 3.36082 6.43208 3.16795 6.43208 2.92868V1.50008C6.43208 1.2608 6.23921 1.06794 5.99994 1.06794ZM9.28264 2.42814C9.1723 2.42814 9.0617 2.47014 8.9771 2.55474L7.9671 3.56474C7.7979 3.73394 7.7979 4.00664 7.9671 4.17583C8.1363 4.34503 8.40899 4.34503 8.57819 4.17583L9.58818 3.16583C9.75738 2.99663 9.75738 2.72393 9.58818 2.55474C9.50358 2.47014 9.39298 2.42814 9.28264 2.42814ZM6.00004 3.92504C5.41182 3.92504 4.84768 4.15872 4.43175 4.57465C4.01581 4.99059 3.78214 5.55472 3.78214 6.14294C3.78214 6.73117 4.01581 7.2953 4.43175 7.71124C4.84768 8.12717 5.41182 8.36084 6.00004 8.36084C6.2913 8.36084 6.57971 8.30348 6.84879 8.19202C7.11788 8.08056 7.36238 7.91719 7.56833 7.71124C7.77428 7.50529 7.93765 7.26079 8.04911 6.9917C8.16057 6.72261 8.21794 6.4342 8.21794 6.14294C8.21794 5.55472 7.98427 4.99059 7.56833 4.57465C7.15239 4.15872 6.58826 3.92504 6.00004 3.92504ZM1.35714 5.71074C1.11786 5.71074 0.925 5.90361 0.925 6.14288C0.925 6.38217 1.11787 6.57502 1.35714 6.57502H2.78574C3.02502 6.57502 3.21788 6.38215 3.21788 6.14288C3.21788 5.9036 3.02501 5.71074 2.78574 5.71074H1.35714ZM9.21424 5.71074C8.97496 5.71074 8.7821 5.90361 8.7821 6.14288C8.7821 6.38217 8.97497 6.57502 9.21424 6.57502H10.6428C10.8821 6.57502 11.075 6.38215 11.075 6.14288C11.075 5.9036 10.8821 5.71074 10.6428 5.71074H9.21424ZM3.72734 7.98334C3.617 7.98334 3.5064 8.02534 3.4218 8.10994L2.4118 9.11994C2.2426 9.28914 2.2426 9.56184 2.4118 9.73103C2.58099 9.90021 2.85369 9.90023 3.02288 9.73102L4.03288 8.72103C4.20208 8.55184 4.20208 8.27913 4.03288 8.10994C3.94828 8.02534 3.83768 7.98334 3.72734 7.98334ZM8.27254 7.98334C8.1622 7.98334 8.0516 8.02534 7.967 8.10994C7.7978 8.27914 7.7978 8.55184 7.967 8.72103L8.977 9.73103C9.1462 9.90022 9.41889 9.90023 9.58809 9.73102C9.75728 9.56183 9.75728 9.28913 9.58808 9.11994L8.57808 8.10994C8.49348 8.02534 8.38288 7.98334 8.27254 7.98334ZM5.99994 8.92502C5.76066 8.92502 5.5678 9.11789 5.5678 9.35716V10.7858C5.5678 11.025 5.76067 11.2179 5.99994 11.2179C6.23922 11.2179 6.43208 11.025 6.43208 10.7858V9.35716C6.43208 9.11788 6.23921 8.92502 5.99994 8.92502Z" stroke="#2E3436" stroke-opacity="0.5" stroke-width="0.15"/>
<path d="M9.72892 7.34507C8.34602 7.34507 7.19352 8.25321 6.76372 9.49387C5.46612 9.65888 4.45752 10.7587 4.45752 12.1056C4.45752 13.5663 5.63762 14.7504 7.09322 14.7504H12.8918C14.0563 14.7504 15.0004 13.8031 15.0004 12.6346C15.0004 11.466 14.0564 10.5188 12.8918 10.5188C12.8918 8.76607 11.4758 7.34497 9.72892 7.34497V7.34507Z" fill="#2E3436"/>
</svg>
