<svg width="16" height="16" viewBox="0 0 16 16" fill="none" xmlns="http://www.w3.org/2000/svg">
<path d="M8 2C6.1636 2 4.6333 3.2018 4.0625 4.8438C2.3394 5.06216 1 6.5183 1 8.3008C1 8.92124 1.17582 9.4947 1.45898 10H14.807C14.9266 9.68849 15.0003 9.35362 15.0003 9C15.0003 7.4536 13.7459 6.1992 12.1995 6.1992C12.1995 3.8797 10.3198 2 8.00034 2H8Z" fill="#2E3436" fill-opacity="0.5"/>
<mask id="path-2-outside-1_322_318" maskUnits="userSpaceOnUse" x="0" y="10" width="9" height="3" fill="black">
<rect fill="white" y="10" width="9" height="3"/>
<path d="M1.58334 11H7.41664C7.49325 11 7.5691 11.0129 7.63987 11.0381C7.71065 11.0632 7.77495 11.1 7.82912 11.1464C7.88329 11.1929 7.92626 11.248 7.95558 11.3087C7.98489 11.3693 7.99998 11.4343 7.99998 11.5C7.99998 11.5657 7.98489 11.6307 7.95558 11.6913C7.92626 11.752 7.88329 11.8071 7.82912 11.8536C7.77495 11.9 7.71065 11.9368 7.63987 11.9619C7.5691 11.9871 7.49325 12 7.41664 12H1.58334C1.50674 12 1.43088 11.9871 1.36011 11.9619C1.28933 11.9368 1.22503 11.9 1.17086 11.8536C1.11669 11.8071 1.07372 11.752 1.0444 11.6913C1.01509 11.6307 1 11.5657 1 11.5C1 11.4343 1.01509 11.3693 1.0444 11.3087C1.07372 11.248 1.11669 11.1929 1.17086 11.1464C1.22503 11.1 1.28933 11.0632 1.36011 11.0381C1.43088 11.0129 1.50674 11 1.58334 11Z"/>
</mask>
<path d="M1.58334 11H7.41664C7.49325 11 7.5691 11.0129 7.63987 11.0381C7.71065 11.0632 7.77495 11.1 7.82912 11.1464C7.88329 11.1929 7.92626 11.248 7.95558 11.3087C7.98489 11.3693 7.99998 11.4343 7.99998 11.5C7.99998 11.5657 7.98489 11.6307 7.95558 11.6913C7.92626 11.752 7.88329 11.8071 7.82912 11.8536C7.77495 11.9 7.71065 11.9368 7.63987 11.9619C7.5691 11.9871 7.49325 12 7.41664 12H1.58334C1.50674 12 1.43088 11.9871 1.36011 11.9619C1.28933 11.9368 1.22503 11.9 1.17086 11.8536C1.11669 11.8071 1.07372 11.752 1.0444 11.6913C1.01509 11.6307 1 11.5657 1 11.5C1 11.4343 1.01509 11.3693 1.0444 11.3087C1.07372 11.248 1.11669 11.1929 1.17086 11.1464C1.22503 11.1 1.28933 11.0632 1.36011 11.0381C1.43088 11.0129 1.50674 11 1.58334 11Z" fill="#2E3436" fill-opacity="0.5"/>
<path d="M7.41664 11V11.1H7.41664L7.41664 11ZM7.99998 11.5H7.89998H7.99998ZM7.41664 12L7.41664 11.9H7.41664V12ZM1.58334 12V11.9H1.58334L1.58334 12ZM1 11.5H1.1H1ZM1.58334 11.1H7.41664V10.9H1.58334V11.1ZM7.41664 11.1C7.48208 11.1 7.5466 11.1111 7.60642 11.1323L7.67333 10.9438C7.5916 10.9148 7.50441 10.9 7.41664 10.9L7.41664 11.1ZM7.60642 11.1323C7.66623 11.1535 7.71969 11.1843 7.76404 11.2224L7.8942 11.0705C7.83022 11.0157 7.75506 10.9728 7.67333 10.9438L7.60642 11.1323ZM7.76404 11.2224C7.80837 11.2604 7.84257 11.3046 7.86554 11.3522L8.04561 11.2651C8.00995 11.1914 7.95821 11.1254 7.8942 11.0705L7.76404 11.2224ZM7.86554 11.3522C7.88847 11.3996 7.89998 11.4498 7.89998 11.5H8.09998C8.09998 11.4189 8.08131 11.339 8.04561 11.2651L7.86554 11.3522ZM7.89998 11.5C7.89998 11.5502 7.88847 11.6004 7.86554 11.6478L8.04561 11.7349C8.08131 11.661 8.09998 11.5811 8.09998 11.5H7.89998ZM7.86554 11.6478C7.84257 11.6954 7.80837 11.7396 7.76404 11.7776L7.8942 11.9295C7.95821 11.8746 8.00995 11.8086 8.04561 11.7349L7.86554 11.6478ZM7.76404 11.7776C7.71969 11.8157 7.66623 11.8465 7.60642 11.8677L7.67333 12.0562C7.75506 12.0272 7.83022 11.9843 7.8942 11.9295L7.76404 11.7776ZM7.60642 11.8677C7.5466 11.8889 7.48208 11.9 7.41664 11.9L7.41664 12.1C7.50441 12.1 7.5916 12.0852 7.67333 12.0562L7.60642 11.8677ZM7.41664 11.9H1.58334V12.1H7.41664V11.9ZM1.58334 11.9C1.5179 11.9 1.45338 11.8889 1.39356 11.8677L1.32665 12.0562C1.40838 12.0852 1.49557 12.1 1.58334 12.1L1.58334 11.9ZM1.39356 11.8677C1.33375 11.8465 1.28029 11.8157 1.23594 11.7776L1.10578 11.9295C1.16976 11.9843 1.24492 12.0272 1.32665 12.0562L1.39356 11.8677ZM1.23594 11.7776C1.19161 11.7396 1.15741 11.6954 1.13444 11.6478L0.954367 11.7349C0.990028 11.8086 1.04177 11.8746 1.10578 11.9295L1.23594 11.7776ZM1.13444 11.6478C1.11151 11.6004 1.1 11.5502 1.1 11.5H0.9C0.9 11.5811 0.918671 11.661 0.954367 11.7349L1.13444 11.6478ZM1.1 11.5C1.1 11.4498 1.11151 11.3996 1.13444 11.3522L0.954367 11.2651C0.918671 11.339 0.9 11.4189 0.9 11.5H1.1ZM1.13444 11.3522C1.15741 11.3046 1.19161 11.2604 1.23594 11.2224L1.10578 11.0705C1.04177 11.1254 0.990028 11.1914 0.954367 11.2651L1.13444 11.3522ZM1.23594 11.2224C1.28029 11.1843 1.33375 11.1535 1.39356 11.1323L1.32665 10.9438C1.24492 10.9728 1.16976 11.0157 1.10578 11.0705L1.23594 11.2224ZM1.39356 11.1323C1.45338 11.1111 1.5179 11.1 1.58334 11.1L1.58334 10.9C1.49557 10.9 1.40838 10.9148 1.32665 10.9438L1.39356 11.1323Z" fill="#2E3436" fill-opacity="0.5" mask="url(#path-2-outside-1_322_318)"/>
<mask id="path-4-outside-2_322_318" maskUnits="userSpaceOnUse" x="8.99951" y="10" width="6" height="3" fill="black">
<rect fill="white" x="8.99951" y="10" width="6" height="3"/>
<path d="M10.5709 11H13.428C13.5031 11 13.5774 11.0129 13.6467 11.0381C13.716 11.0632 13.779 11.1 13.8321 11.1464C13.8852 11.1929 13.9273 11.248 13.956 11.3087C13.9847 11.3693 13.9995 11.4343 13.9995 11.5C13.9995 11.5657 13.9847 11.6307 13.956 11.6913C13.9273 11.752 13.8852 11.8071 13.8321 11.8536C13.779 11.9 13.716 11.9368 13.6467 11.9619C13.5774 11.9871 13.5031 12 13.428 12H10.5709C10.4959 12 10.4216 11.9871 10.3523 11.9619C10.2829 11.9368 10.2199 11.9 10.1669 11.8536C10.1138 11.8071 10.0717 11.752 10.043 11.6913C10.0143 11.6307 9.99951 11.5657 9.99951 11.5C9.99951 11.4343 10.0143 11.3693 10.043 11.3087C10.0717 11.248 10.1138 11.1929 10.1669 11.1464C10.2199 11.1 10.2829 11.0632 10.3523 11.0381C10.4216 11.0129 10.4959 11 10.5709 11Z"/>
</mask>
<path d="M10.5709 11H13.428C13.5031 11 13.5774 11.0129 13.6467 11.0381C13.716 11.0632 13.779 11.1 13.8321 11.1464C13.8852 11.1929 13.9273 11.248 13.956 11.3087C13.9847 11.3693 13.9995 11.4343 13.9995 11.5C13.9995 11.5657 13.9847 11.6307 13.956 11.6913C13.9273 11.752 13.8852 11.8071 13.8321 11.8536C13.779 11.9 13.716 11.9368 13.6467 11.9619C13.5774 11.9871 13.5031 12 13.428 12H10.5709C10.4959 12 10.4216 11.9871 10.3523 11.9619C10.2829 11.9368 10.2199 11.9 10.1669 11.8536C10.1138 11.8071 10.0717 11.752 10.043 11.6913C10.0143 11.6307 9.99951 11.5657 9.99951 11.5C9.99951 11.4343 10.0143 11.3693 10.043 11.3087C10.0717 11.248 10.1138 11.1929 10.1669 11.1464C10.2199 11.1 10.2829 11.0632 10.3523 11.0381C10.4216 11.0129 10.4959 11 10.5709 11Z" fill="#2E3436" fill-opacity="0.5"/>
<path d="M13.428 11V11.1H13.428L13.428 11ZM13.9995 11.5H13.8995H13.9995ZM13.428 12L13.428 11.9H13.428V12ZM10.5709 12V11.9H10.5709L10.5709 12ZM9.99951 11.5H10.0995H9.99951ZM10.5709 11.1H13.428V10.9H10.5709V11.1ZM13.428 11.1C13.4917 11.1 13.5544 11.111 13.6126 11.1321L13.6808 10.944C13.6003 10.9149 13.5145 10.9 13.428 10.9L13.428 11.1ZM13.6126 11.1321C13.6709 11.1532 13.723 11.1838 13.7663 11.2217L13.898 11.0712C13.8351 11.0162 13.7612 10.9732 13.6808 10.944L13.6126 11.1321ZM13.7663 11.2217C13.8095 11.2596 13.843 11.3038 13.8656 11.3514L14.0464 11.2659C14.0115 11.1922 13.9608 11.1262 13.898 11.0712L13.7663 11.2217ZM13.8656 11.3514C13.8881 11.399 13.8995 11.4495 13.8995 11.5H14.0995C14.0995 11.4192 14.0813 11.3396 14.0464 11.2659L13.8656 11.3514ZM13.8995 11.5C13.8995 11.5505 13.8881 11.601 13.8656 11.6486L14.0464 11.7341C14.0813 11.6604 14.0995 11.5808 14.0995 11.5H13.8995ZM13.8656 11.6486C13.843 11.6962 13.8095 11.7404 13.7663 11.7783L13.898 11.9288C13.9608 11.8738 14.0115 11.8078 14.0464 11.7341L13.8656 11.6486ZM13.7663 11.7783C13.723 11.8162 13.6709 11.8468 13.6126 11.8679L13.6808 12.056C13.7612 12.0268 13.8351 11.9838 13.898 11.9288L13.7663 11.7783ZM13.6126 11.8679C13.5544 11.889 13.4917 11.9 13.428 11.9L13.428 12.1C13.5145 12.1 13.6003 12.0851 13.6808 12.056L13.6126 11.8679ZM13.428 11.9H10.5709V12.1H13.428V11.9ZM10.5709 11.9C10.5073 11.9 10.4445 11.889 10.3863 11.8679L10.3182 12.056C10.3986 12.0851 10.4845 12.1 10.5709 12.1L10.5709 11.9ZM10.3863 11.8679C10.3281 11.8468 10.276 11.8162 10.2327 11.7783L10.101 11.9288C10.1639 11.9838 10.2377 12.0268 10.3182 12.056L10.3863 11.8679ZM10.2327 11.7783C10.1895 11.7404 10.156 11.6962 10.1334 11.6486L9.95263 11.7341C9.9875 11.8078 10.0382 11.8738 10.101 11.9288L10.2327 11.7783ZM10.1334 11.6486C10.1109 11.601 10.0995 11.5505 10.0995 11.5H9.89951C9.89951 11.5808 9.91772 11.6604 9.95263 11.7341L10.1334 11.6486ZM10.0995 11.5C10.0995 11.4495 10.1109 11.399 10.1334 11.3514L9.95263 11.2659C9.91772 11.3396 9.89951 11.4192 9.89951 11.5H10.0995ZM10.1334 11.3514C10.156 11.3038 10.1895 11.2596 10.2327 11.2217L10.101 11.0712C10.0382 11.1262 9.9875 11.1922 9.95263 11.2659L10.1334 11.3514ZM10.2327 11.2217C10.276 11.1838 10.3281 11.1532 10.3863 11.1321L10.3182 10.944C10.2377 10.9732 10.1639 11.0162 10.101 11.0712L10.2327 11.2217ZM10.3863 11.1321C10.4445 11.111 10.5073 11.1 10.5709 11.1L10.5709 10.9C10.4845 10.9 10.3986 10.9149 10.3182 10.944L10.3863 11.1321Z" fill="#2E3436" fill-opacity="0.5" mask="url(#path-4-outside-2_322_318)"/>
<mask id="path-6-outside-3_322_318" maskUnits="userSpaceOnUse" x="0.986816" y="12" width="4" height="3" fill="black">
<rect fill="white" x="0.986816" y="12" width="4" height="3"/>
<path d="M2.49012 13H3.49672C3.6302 13 3.75821 13.0527 3.8526 13.1464C3.94698 13.2402 4.00001 13.3674 4.00001 13.5C4.00001 13.6326 3.94698 13.7598 3.8526 13.8536C3.75821 13.9473 3.6302 14 3.49672 14H2.49012C2.42402 14 2.35858 13.9871 2.29751 13.9619C2.23645 13.9368 2.18097 13.9 2.13423 13.8536C2.08749 13.8071 2.05042 13.752 2.02513 13.6913C1.99983 13.6307 1.98682 13.5657 1.98682 13.5C1.98682 13.4343 1.99983 13.3693 2.02513 13.3087C2.05042 13.248 2.08749 13.1929 2.13423 13.1464C2.18097 13.1 2.23645 13.0632 2.29751 13.0381C2.35858 13.0129 2.42402 13 2.49012 13Z"/>
</mask>
<path d="M2.49012 13H3.49672C3.6302 13 3.75821 13.0527 3.8526 13.1464C3.94698 13.2402 4.00001 13.3674 4.00001 13.5C4.00001 13.6326 3.94698 13.7598 3.8526 13.8536C3.75821 13.9473 3.6302 14 3.49672 14H2.49012C2.42402 14 2.35858 13.9871 2.29751 13.9619C2.23645 13.9368 2.18097 13.9 2.13423 13.8536C2.08749 13.8071 2.05042 13.752 2.02513 13.6913C1.99983 13.6307 1.98682 13.5657 1.98682 13.5C1.98682 13.4343 1.99983 13.3693 2.02513 13.3087C2.05042 13.248 2.08749 13.1929 2.13423 13.1464C2.18097 13.1 2.23645 13.0632 2.29751 13.0381C2.35858 13.0129 2.42402 13 2.49012 13Z" fill="#2E3436" fill-opacity="0.5"/>
<path d="M4.00001 13.5H3.90001H4.00001ZM2.49012 14V13.9H2.49011L2.49012 14ZM1.98682 13.5H2.08682H1.98682ZM2.49012 13.1H3.49672V12.9H2.49012V13.1ZM3.49672 13.1C3.60389 13.1 3.70654 13.1423 3.78212 13.2174L3.92307 13.0755C3.80989 12.9631 3.65651 12.9 3.49672 12.9V13.1ZM3.78212 13.2174C3.85768 13.2925 3.90001 13.3941 3.90001 13.5H4.10001C4.10001 13.3407 4.03629 13.188 3.92307 13.0755L3.78212 13.2174ZM3.90001 13.5C3.90001 13.6059 3.85768 13.7075 3.78212 13.7826L3.92307 13.9245C4.03629 13.812 4.10001 13.6593 4.10001 13.5H3.90001ZM3.78212 13.7826C3.70654 13.8577 3.60389 13.9 3.49672 13.9V14.1C3.65651 14.1 3.80989 14.0369 3.92307 13.9245L3.78212 13.7826ZM3.49672 13.9H2.49012V14.1H3.49672V13.9ZM2.49011 13.9C2.43706 13.9 2.38454 13.8896 2.33557 13.8695L2.25946 14.0544C2.33261 14.0845 2.41098 14.1 2.49012 14.1L2.49011 13.9ZM2.33557 13.8695C2.28659 13.8493 2.24213 13.8198 2.20471 13.7826L2.06375 13.9245C2.1198 13.9802 2.18631 14.0243 2.25946 14.0544L2.33557 13.8695ZM2.20471 13.7826C2.16729 13.7454 2.13764 13.7013 2.11743 13.6529L1.93283 13.7298C1.9632 13.8027 2.0077 13.8688 2.06375 13.9245L2.20471 13.7826ZM2.11743 13.6529C2.09721 13.6044 2.08682 13.5524 2.08682 13.5H1.88682C1.88682 13.5789 1.90246 13.657 1.93283 13.7298L2.11743 13.6529ZM2.08682 13.5C2.08682 13.4476 2.09721 13.3956 2.11743 13.3471L1.93283 13.2702C1.90246 13.343 1.88682 13.4211 1.88682 13.5H2.08682ZM2.11743 13.3471C2.13764 13.2987 2.16729 13.2546 2.20471 13.2174L2.06375 13.0755C2.0077 13.1312 1.9632 13.1973 1.93283 13.2702L2.11743 13.3471ZM2.20471 13.2174C2.24213 13.1802 2.28659 13.1507 2.33557 13.1305L2.25946 12.9456C2.18631 12.9757 2.1198 13.0198 2.06375 13.0755L2.20471 13.2174ZM2.33557 13.1305C2.38454 13.1104 2.43706 13.1 2.49011 13.1L2.49012 12.9C2.41098 12.9 2.33261 12.9155 2.25946 12.9456L2.33557 13.1305Z" fill="#2E3436" fill-opacity="0.5" mask="url(#path-6-outside-3_322_318)"/>
<path d="M5.6 13H13.4C13.4788 13 13.5568 13.0129 13.6296 13.0381C13.7024 13.0632 13.7686 13.1 13.8243 13.1464C13.88 13.1929 13.9242 13.248 13.9543 13.3087C13.9845 13.3693 14 13.4343 14 13.5C14 13.5657 13.9845 13.6307 13.9543 13.6913C13.9242 13.752 13.88 13.8071 13.8243 13.8536C13.7686 13.9 13.7024 13.9368 13.6296 13.9619C13.5568 13.9871 13.4788 14 13.4 14H5.6C5.44087 14 5.28826 13.9473 5.17574 13.8536C5.06321 13.7598 5 13.6326 5 13.5C5 13.3674 5.06321 13.2402 5.17574 13.1464C5.28826 13.0527 5.44087 13 5.6 13Z" fill="#2E3436" fill-opacity="0.5"/>
<path d="M13.4 12.95H5.6C5.43026 12.95 5.26603 13.0061 5.14373 13.108C5.02115 13.2102 4.95 13.3509 4.95 13.5C4.95 13.6491 5.02115 13.7898 5.14373 13.892C5.26603 13.9939 5.43026 14.05 5.6 14.05H13.4C13.4842 14.05 13.5678 14.0362 13.6459 14.0092C13.7241 13.9822 13.7956 13.9425 13.8563 13.892C13.9169 13.8414 13.9657 13.7809 13.9991 13.7136C14.0326 13.6462 14.05 13.5736 14.05 13.5C14.05 13.4264 14.0326 13.3538 13.9991 13.2864C13.9657 13.2191 13.9169 13.1586 13.8563 13.108C13.7956 13.0575 13.7241 13.0178 13.6459 12.9908C13.5678 12.9638 13.4842 12.95 13.4 12.95Z" stroke="#2E3436" stroke-opacity="0.5" stroke-width="0.1"/>
</svg>
