<svg width="16" height="16" viewBox="0 0 16 16" fill="none" xmlns="http://www.w3.org/2000/svg">
<g clip-path="url(#clip0_322_316)">
<path d="M13.4098 3.00203C13.0617 3.01522 12.7203 3.10123 12.4075 3.25453C12.0947 3.40783 11.8175 3.625 11.5938 3.89203C11.5488 3.94186 11.5142 4.00026 11.4922 4.06375C11.4702 4.12724 11.4612 4.19452 11.4658 4.26155C11.4704 4.32859 11.4884 4.39402 11.5188 4.45392C11.5493 4.51383 11.5915 4.56699 11.6429 4.61022C11.6943 4.65346 11.754 4.68588 11.8182 4.70555C11.8825 4.72523 11.95 4.73175 12.0168 4.72473C12.0837 4.71772 12.1484 4.6973 12.2072 4.66471C12.2659 4.63211 12.3175 4.58801 12.3588 4.53503C12.5755 4.27588 12.8735 4.09774 13.2044 4.02964C13.5353 3.96155 13.8794 4.0075 14.1808 4.16003C14.8048 4.47303 15.1268 5.16703 14.9658 5.84603C14.8888 6.17493 14.7026 6.46803 14.4377 6.67759C14.1727 6.88715 13.8446 7.0008 13.5068 7.00003H6.50684C6.37423 7.00003 6.24705 7.05271 6.15328 7.14648C6.05951 7.24025 6.00684 7.36742 6.00684 7.50003C6.00684 7.63264 6.05951 7.75982 6.15328 7.85358C6.24705 7.94735 6.37423 8.00003 6.50684 8.00003H13.5068C13.5404 8.00072 13.5739 7.99804 13.6068 7.99203C14.1515 7.97049 14.6742 7.77168 15.0955 7.42584C15.5168 7.08 15.8136 6.60604 15.9408 6.07603C16.0698 5.52858 16.0107 4.95366 15.773 4.4439C15.5354 3.93414 15.133 3.51924 14.6308 3.26603C14.2528 3.07596 13.8326 2.98511 13.4098 3.00203V3.00203ZM8.70384 3.01203C8.45485 2.98012 8.20184 3.01129 7.96805 3.10268C7.73426 3.19406 7.52718 3.34273 7.36584 3.53503C7.32362 3.58533 7.29172 3.64345 7.27196 3.70607C7.2522 3.7687 7.24497 3.8346 7.25068 3.90002C7.25639 3.96544 7.27493 4.02909 7.30524 4.08734C7.33555 4.1456 7.37704 4.19731 7.42734 4.23953C7.47763 4.28175 7.53575 4.31365 7.59838 4.33341C7.661 4.35317 7.7269 4.3604 7.79232 4.35469C7.85774 4.34898 7.9214 4.33044 7.97965 4.30013C8.0379 4.26982 8.08962 4.22833 8.13184 4.17803C8.28184 3.99803 8.52984 3.94803 8.73984 4.05303C8.94984 4.15803 9.05484 4.38703 9.00084 4.61503C8.97578 4.72496 8.91396 4.82304 8.82558 4.89305C8.73721 4.96306 8.62758 5.0008 8.51484 5.00003C8.51217 5.00001 8.5095 5.00001 8.50684 5.00003H1.50684C1.37423 5.00003 1.24705 5.05271 1.15328 5.14648C1.05951 5.24025 1.00684 5.36742 1.00684 5.50003C1.00684 5.63264 1.05951 5.75982 1.15328 5.85358C1.24705 5.94735 1.37423 6.00003 1.50684 6.00003H8.50684C8.5095 6.00005 8.51217 6.00005 8.51484 6.00003H8.51684C8.57196 6.00002 8.62669 5.9909 8.67884 5.97303C8.98447 5.94139 9.27288 5.81616 9.50466 5.61444C9.73645 5.41273 9.9003 5.14437 9.97384 4.84603C10.0219 4.64136 10.0265 4.42888 9.98725 4.22232C9.94805 4.01577 9.86596 3.81974 9.74627 3.6469C9.62658 3.47405 9.47196 3.32824 9.2924 3.21889C9.11284 3.10953 8.91233 3.03906 8.70384 3.01203V3.01203ZM0.506836 7.00003C0.374228 7.00003 0.247051 7.05271 0.153283 7.14648C0.0595144 7.24025 0.00683594 7.36742 0.00683594 7.50003C0.00683594 7.63264 0.0595144 7.75982 0.153283 7.85358C0.247051 7.94735 0.374228 8.00003 0.506836 8.00003H4.50684C4.63944 8.00003 4.76662 7.94735 4.86039 7.85358C4.95416 7.75982 5.00684 7.63264 5.00684 7.50003C5.00684 7.36742 4.95416 7.24025 4.86039 7.14648C4.76662 7.05271 4.63944 7.00003 4.50684 7.00003H0.506836ZM1.45784 9.00203C1.32523 9.00866 1.20068 9.0677 1.1116 9.16616C1.02253 9.26461 0.976205 9.39442 0.982836 9.52703C0.989466 9.65964 1.0485 9.78418 1.14696 9.87326C1.24542 9.96234 1.37523 10.0087 1.50784 10.002H12.5078C12.5102 10.002 12.5125 10.002 12.5148 10.002C12.7498 10.002 12.9468 10.157 13.0018 10.385C13.0285 10.4945 13.0171 10.6099 12.9695 10.712C12.9219 10.8142 12.8409 10.8971 12.7398 10.947C12.6394 10.9987 12.5244 11.0144 12.4138 10.9917C12.3032 10.9689 12.2037 10.9091 12.1318 10.822C12.0905 10.7691 12.0389 10.725 11.9802 10.6924C11.9214 10.6598 11.8567 10.6393 11.7898 10.6323C11.723 10.6253 11.6555 10.6318 11.5912 10.6515C11.527 10.6712 11.4673 10.7036 11.4159 10.7468C11.3645 10.7901 11.3223 10.8432 11.2918 10.9031C11.2614 10.963 11.2434 11.0285 11.2388 11.0955C11.2342 11.1625 11.2432 11.2298 11.2652 11.2933C11.2872 11.3568 11.3218 11.4152 11.3668 11.465C11.5837 11.7239 11.8816 11.902 12.2123 11.9704C12.543 12.0389 12.8871 11.9936 13.1888 11.842C13.8078 11.531 14.1338 10.828 13.9738 10.154C13.9001 9.85653 13.7364 9.58902 13.5049 9.38804C13.2735 9.18705 12.9857 9.06238 12.6808 9.03103C12.6251 9.01079 12.5662 9.00063 12.5068 9.00103H1.50684C1.49051 9.00023 1.47416 9.00023 1.45784 9.00103V9.00203ZM3.50784 11C3.37523 11 3.24805 11.0527 3.15428 11.1465C3.06051 11.2402 3.00784 11.3674 3.00784 11.5C3.00784 11.6326 3.06051 11.7598 3.15428 11.8536C3.24805 11.9474 3.37523 12 3.50784 12L8.50784 12.002C8.51017 12.002 8.5125 12.002 8.51484 12.002C8.74984 12.002 8.94684 12.157 9.00184 12.385C9.02852 12.4945 9.0171 12.6099 8.96948 12.712C8.92186 12.8142 8.84086 12.8971 8.73984 12.947C8.63943 12.9987 8.5244 13.0144 8.41381 12.9917C8.30322 12.9689 8.20373 12.9091 8.13184 12.822C8.0905 12.7691 8.03892 12.7249 7.98016 12.6924C7.9214 12.6598 7.85667 12.6393 7.78985 12.6323C7.72302 12.6253 7.65547 12.6318 7.59122 12.6515C7.52697 12.6712 7.46735 12.7036 7.41591 12.7468C7.36447 12.7901 7.32228 12.8432 7.29184 12.9031C7.26141 12.963 7.24336 13.0285 7.23878 13.0955C7.2342 13.1625 7.24318 13.2298 7.26518 13.2933C7.28718 13.3568 7.32176 13.4152 7.36684 13.465C7.58367 13.7239 7.88157 13.902 8.21227 13.9704C8.54296 14.0389 8.88707 13.9936 9.18884 13.842C9.80784 13.532 10.1338 12.828 9.97384 12.154C9.9001 11.8565 9.73635 11.589 9.50494 11.388C9.27353 11.1871 8.98574 11.0624 8.68084 11.031C8.62501 11.0111 8.5661 11.0013 8.50684 11.002L3.50784 11Z" fill="#2E3436" stroke="#2E3436" stroke-width="0.1"/>
</g>
<defs>
<clipPath id="clip0_322_316">
<rect width="16" height="16" fill="white"/>
</clipPath>
</defs>
</svg>
