<svg width="16" height="16" viewBox="0 0 16 16" fill="none" xmlns="http://www.w3.org/2000/svg">
<g clip-path="url(#clip0_322_349)">
<path fill-rule="evenodd" clip-rule="evenodd" d="M8 1C7.723 1 7.5 1.223 7.5 1.5V3.5C7.5 3.777 7.723 4 8 4C8.277 4 8.5 3.777 8.5 3.5V1.5C8.5 1.223 8.277 1 8 1ZM3.4043 2.9043C3.27649 2.9043 3.14872 2.95285 3.05078 3.05078C2.85491 3.24665 2.85491 3.56194 3.05078 3.75781L4.46488 5.17191C4.66075 5.36778 4.97604 5.36778 5.17191 5.17191C5.36778 4.97604 5.36778 4.66075 5.17191 4.46488L3.75781 3.05078C3.65988 2.95285 3.5321 2.9043 3.40429 2.9043H3.4043ZM12.5957 2.9043C12.4679 2.9043 12.3401 2.95285 12.2422 3.05078L10.8281 4.46488C10.6322 4.66075 10.6322 4.97604 10.8281 5.17191C11.024 5.36778 11.3392 5.36778 11.5351 5.17191L12.9492 3.75781C13.1451 3.56194 13.1451 3.24665 12.9492 3.05078C12.8513 2.95285 12.7235 2.9043 12.5957 2.9043H12.5957ZM8 5C7.20435 5 6.44129 5.31607 5.87868 5.87868C5.31607 6.44129 5 7.20435 5 8C5 8.79565 5.31607 9.55871 5.87868 10.1213C6.44129 10.6839 7.20435 11 8 11C8.79565 11 9.55871 10.6839 10.1213 10.1213C10.6839 9.55871 11 8.79565 11 8C11 7.20435 10.6839 6.44129 10.1213 5.87868C9.55871 5.31607 8.79565 5 8 5ZM1.5 7.5C1.223 7.5 1 7.723 1 8C1 8.277 1.223 8.5 1.5 8.5H3.5C3.777 8.5 4 8.277 4 8C4 7.723 3.777 7.5 3.5 7.5H1.5ZM12.5 7.5C12.223 7.5 12 7.723 12 8C12 8.277 12.223 8.5 12.5 8.5H14.5C14.777 8.5 15 8.277 15 8C15 7.723 14.777 7.5 14.5 7.5H12.5ZM4.8184 10.6816C4.69059 10.6816 4.56282 10.7302 4.46488 10.8281L3.05078 12.2422C2.85491 12.438 2.85491 12.7533 3.05078 12.9492C3.24665 13.1451 3.56194 13.1451 3.75781 12.9492L5.17191 11.5351C5.36778 11.3392 5.36778 11.024 5.17191 10.8281C5.07398 10.7301 4.9462 10.6816 4.81839 10.6816H4.8184ZM11.1817 10.6816C11.0539 10.6816 10.9261 10.7302 10.8282 10.8281C10.6323 11.024 10.6323 11.3392 10.8282 11.5351L12.2423 12.9492C12.4382 13.1451 12.7534 13.1451 12.9493 12.9492C13.1452 12.7533 13.1452 12.438 12.9493 12.2422L11.5352 10.8281C11.4373 10.7301 11.3095 10.6816 11.1817 10.6816H11.1817ZM8.0001 12C7.7231 12 7.5001 12.223 7.5001 12.5V14.5C7.5001 14.777 7.7231 15 8.0001 15C8.2771 15 8.5001 14.777 8.5001 14.5V12.5C8.5001 12.223 8.2771 12 8.0001 12Z" fill="#2E3436" stroke="#2E3436" stroke-width="0.3"/>
</g>
<defs>
<clipPath id="clip0_322_349">
<rect width="16" height="16" fill="white"/>
</clipPath>
</defs>
</svg>
