<svg width="16" height="16" viewBox="0 0 16 16" fill="none" xmlns="http://www.w3.org/2000/svg">
<path d="M8 1C6.1637 1 4.6332 2.2019 4.0625 3.8437C2.3393 4.06205 1 5.518 1 7.3004C1 8.934 2.123 10.2959 3.6364 10.6819C3.70231 9.61982 4.15304 8.61817 4.90423 7.86446C5.65541 7.11076 6.65555 6.65667 7.7174 6.5872C8.87529 6.51227 10.0155 6.90037 10.8873 7.66614C11.759 8.43191 12.2909 9.51261 12.3658 10.6705C12.3671 10.7085 12.3678 10.7465 12.3681 10.7844C13.8346 10.6958 15 9.48874 15 7.99994C15 6.45354 13.746 5.20184 12.1995 5.20184C12.1995 2.88224 10.3195 1.00004 8 1.00004V1Z" fill="#2E3436"/>
<path d="M11.4882 10.8403C11.3638 8.91136 9.69923 7.44847 7.77025 7.57287C5.84127 7.69727 4.37837 9.36187 4.50278 11.2908C4.62718 13.2198 6.29177 14.6827 8.22075 14.5583C10.1497 14.4339 11.6126 12.7693 11.4882 10.8403Z" fill="#BCF83F"/>
<path d="M7.99446 9.00037C7.81874 9.00037 7.67773 9.14141 7.67773 9.31711V11.5468C7.67773 11.7225 7.81874 11.8635 7.99446 11.8635H7.9968C8.17251 11.8635 8.31353 11.7225 8.31353 11.5468V9.31711C8.31353 9.14141 8.17251 9.00037 7.9968 9.00037H7.99446ZM7.99564 12.5003C7.81936 12.5003 7.67777 12.642 7.67777 12.8183C7.67777 12.9945 7.81936 13.1361 7.99564 13.1361C8.17191 13.1361 8.31351 12.9945 8.31351 12.8183C8.31351 12.642 8.17191 12.5003 7.99564 12.5003Z" fill="white"/>
</svg>
