<svg width="16" height="16" viewBox="0 0 16 16" fill="none" xmlns="http://www.w3.org/2000/svg">
<g clip-path="url(#clip0_231_1200)">
<path d="M9.5 2C8.21484 2 7.17188 2.97266 7.03125 4.21875C6.70313 4.09766 6.37109 4 6 4C4.34375 4 3 5.34375 3 7C3 7.09766 3.02344 7.18359 3.03125 7.28125C2.73047 7.10156 2.375 7 2 7C0.894531 7 0 7.89453 0 9C0 10.1055 0.894531 11 2 11H5.10156C5.35156 9.32031 6.75391 8 8.5 8C9.48047 8 10.2852 8.48828 10.918 9.14453C11.1133 9.09766 11.2773 9 11.5 9C12.7617 9 13.6875 9.875 14.1055 11H14.5C15.3281 11 16 10.3281 16 9.5C16 8.67188 15.3281 8 14.5 8C14.293 8 14.0859 8.05078 13.9063 8.125C13.957 7.92188 14 7.71875 14 7.5C14 6.26953 13.1055 5.27344 11.9375 5.0625C11.9805 4.88281 12 4.69531 12 4.5C12 3.12109 10.8789 2 9.5 2ZM8.5 9C7.12109 9 6 10.1211 6 11.5C6 11.7188 6.04297 11.9219 6.09375 12.125C5.91406 12.0508 5.70703 12 5.5 12C4.67188 12 4 12.6719 4 13.5C4 14.3281 4.67188 15 5.5 15H13.5C14.3281 15 15 14.3281 15 13.5C15 12.6719 14.3281 12 13.5 12C13.5 10.8945 12.6055 10 11.5 10C11.1836 10 10.8906 10.0898 10.625 10.2188C10.1875 9.49219 9.41016 9 8.5 9Z" fill="#2E3436"/>
</g>
<defs>
<clipPath id="clip0_231_1200">
<rect width="16" height="16" fill="white"/>
</clipPath>
</defs>
</svg>
