<svg width="16" height="16" viewBox="0 0 16 16" fill="none" xmlns="http://www.w3.org/2000/svg">
<path d="M7.74979 1.03198C4.98679 1.13398 2.44079 2.83698 1.43779 5.59498C0.932963 6.98127 0.877334 8.49131 1.27879 9.91098C1.68279 8.59298 2.7638 7.57698 4.1168 7.22798C4.2868 6.93798 4.48879 6.66798 4.70679 6.41498C4.71679 5.70498 4.83679 4.98598 5.09379 4.28198C5.60779 2.86998 6.56779 1.77398 7.74979 1.03198ZM5.20679 9.01198L4.8008 9.07298C4.32742 9.13822 3.89389 9.3733 3.58095 9.73444C3.26802 10.0956 3.09702 10.5581 3.09979 11.036C3.09979 12.152 3.98279 13.036 5.09979 13.036H11.4748C11.6608 13.036 11.8348 12.998 11.9998 12.942C10.9788 13.0827 9.93885 12.9743 8.96879 12.626C8.12506 12.3183 7.35474 11.8381 6.707 11.216C6.05925 10.5939 5.54832 9.8436 5.20679 9.01298V9.01198Z" fill="#2E3436" stroke="#2E3436" stroke-width="0.2"/>
<path d="M8.09863 5.78601C6.54563 5.78601 5.22263 6.73701 4.65363 8.08301C3.94418 8.1865 3.29564 8.54179 2.82653 9.08398C2.35742 9.62617 2.09905 10.319 2.09863 11.036C2.09863 11.8317 2.4147 12.5947 2.97731 13.1573C3.53992 13.7199 4.30298 14.036 5.09863 14.036H11.4736C12.1698 14.036 12.8375 13.7594 13.3298 13.2672C13.8221 12.7749 14.0986 12.1072 14.0986 11.411C14.0986 10.7683 13.8622 10.148 13.4344 9.66834C13.0065 9.18868 12.4172 8.88317 11.7786 8.81001C11.6089 7.9585 11.1495 7.19202 10.4787 6.64077C9.80788 6.08952 8.9669 5.7875 8.09863 5.78601V5.78601Z" fill="#2E3436"/>
</svg>
