<svg width="16" height="16" viewBox="0 0 16 16" fill="none" xmlns="http://www.w3.org/2000/svg">
<path d="M8 2.00003C6.1636 2.00003 4.6333 3.20183 4.0625 4.84383C2.3394 5.06219 1 6.51833 1 8.30083C1 10.2338 2.567 11.8008 4.5 11.8008H5.41602L6.77152 8.54883L7.02738 7.9336H11.2208L9.94928 10.4785H11.2735L10.5645 11.8008H12.1993C13.7457 11.8008 15.0001 10.5464 15.0001 9C15.0001 7.4536 13.7457 6.1992 12.1993 6.1992C12.1993 3.8797 10.3196 2 8.0001 2L8 2.00003Z" fill="#2E3436"/>
<path d="M7.69393 8.88335H7.66059L7.64777 8.91412L6.05687 12.7324L6.02803 12.8016H6.10303H7.63587L7.16718 15.9261L7.2607 15.9572L9.6472 11.5025L9.68664 11.4288H9.60313H8.41123L9.64785 8.95571L9.68403 8.88335H9.60313H7.69393Z" fill="#2E3436" stroke="#2E3436" stroke-width="0.1"/>
</svg>
