<svg width="16" height="16" viewBox="0 0 16 16" fill="none" xmlns="http://www.w3.org/2000/svg">
<path d="M8 2C6.1636 2 4.6333 3.2018 4.0625 4.8438C2.3394 5.06216 1 6.5183 1 8.3008C1 10.0806 2.3334 11.5341 4.0527 11.7559L4.55661 9.8497V9.84775C4.71731 9.2308 5.24532 8.79165 5.83981 8.70905C6.04287 8.68085 6.25087 8.69428 6.44723 8.74616C6.73514 8.8222 6.91603 9.04843 7.10739 9.25397C7.35212 8.97547 7.65608 8.75978 8.02145 8.70905C8.22451 8.68085 8.43251 8.69428 8.62887 8.74615C8.91678 8.8222 9.09767 9.04842 9.28903 9.25396C9.53376 8.97546 9.83772 8.75977 10.2031 8.70904C10.4061 8.68085 10.6141 8.69428 10.8105 8.74615C11.6262 8.9616 12.1237 9.81675 11.9082 10.6329V10.6348L11.5938 11.8008H12.1992C13.7456 11.8008 15 10.5464 15 9.00001C15 7.45361 13.7456 6.19921 12.1992 6.19921C12.1992 3.87971 10.3195 2.00001 8.00003 2.00001L8 2Z" fill="#2E3436"/>
<path d="M5.47717 10.0869C5.53983 9.84541 5.74098 9.6814 5.96983 9.64963L6.02671 9.64173V9.64459C6.08538 9.64229 6.14506 9.64884 6.20432 9.66449M5.47717 10.0869L6.57827 10.3769L5.86929 13.0117M5.47717 10.0869C5.47716 10.0869 5.47715 10.087 5.47714 10.087L4.78015 12.7207M5.47717 10.0869L4.78015 12.7207M6.20432 9.66449L6.19155 9.71283L6.20432 9.66449C6.20432 9.66449 6.20432 9.66449 6.20432 9.66449ZM6.20432 9.66449C6.52008 9.7479 6.71004 10.0738 6.62661 10.3897L6.62655 10.3899L5.91769 13.0242L5.86929 13.0117M5.86929 13.0117L5.91757 13.0247L5.91763 13.0245M5.86929 13.0117C5.79292 13.3062 5.49236 13.4767 5.20327 13.4004C4.90872 13.324 4.74099 13.0234 4.82827 12.7343L5.91763 13.0245M5.91763 13.0245C5.8341 13.3461 5.50592 13.532 5.19061 13.4487C4.8689 13.3653 4.68526 13.0367 4.78015 12.7207M5.91763 13.0245L4.78015 12.7207M8.05469 9.66301L8.06087 9.66949C7.87101 9.72691 7.71305 9.87783 7.6588 10.0868C7.65878 10.0868 7.65876 10.0869 7.65874 10.087L6.52406 14.2974L6.52394 14.2979C6.44036 14.6203 6.63361 14.9338 6.94656 15.0282L6.94655 15.0283L6.94846 15.0288C7.26808 15.1116 7.59558 14.9345 7.67931 14.6063C7.67933 14.6062 7.67936 14.6061 7.67938 14.606L8.80813 10.3898L8.80817 10.3896C8.8916 10.0738 8.70164 9.74785 8.38588 9.66444C8.30735 9.6437 8.22808 9.63894 8.15139 9.64959L8.05469 9.66301ZM10.333 9.64963C10.1042 9.6814 9.90303 9.84542 9.84037 10.0869C9.84036 10.0869 9.84035 10.087 9.84034 10.087L9.14335 12.7207C9.04838 13.037 9.23434 13.3653 9.55576 13.4487C9.87123 13.532 10.1973 13.346 10.2808 13.0245C10.2808 13.0244 10.2809 13.0243 10.2809 13.0242L10.9897 10.3899L10.9898 10.3897C11.0732 10.0738 10.8833 9.7479 10.5675 9.66449C10.5359 9.65613 10.5041 9.65037 10.4724 9.64716L10.4946 9.6272L10.333 9.64963Z" fill="#2E3436" stroke="#2E3436" stroke-width="0.1"/>
</svg>
