<svg width="16" height="16" viewBox="0 0 16 16" fill="none" xmlns="http://www.w3.org/2000/svg">
<path d="M13.3795 0L5.99357 1.85517C5.43957 2.0041 4.99357 2.5948 4.99357 3.16751V12.257C4.36757 11.9347 3.64411 11.8563 2.96357 12.0371C1.61357 12.3879 0.767567 13.5213 1.05657 14.5678C1.34657 15.6143 2.67557 16.199 4.02557 15.8482C5.10157 15.5683 6.38151 14.7777 6.49951 13.9431V5.44737L12.4995 3.44837V10.0391C11.9995 9.94512 11.6432 9.85743 10.9626 10.0391C9.61257 10.3889 8.76657 11.5223 9.05657 12.5688C9.34557 13.6153 10.6756 14.2 12.0246 13.8492C13.1016 13.5693 13.8446 12.7787 13.9626 11.9441L13.9926 0.761717C13.9926 0.331932 13.7385 0.0609695 13.3795 0Z" fill="#2E3436"/>
</svg>
