<svg width="16" height="16" viewBox="0 0 16 16" fill="none" xmlns="http://www.w3.org/2000/svg">
<g clip-path="url(#clip0_179_338)">
<path d="M8 16C12.4183 16 16 12.4183 16 8C16 3.58172 12.4183 0 8 0C3.58172 0 0 3.58172 0 8C0 12.4183 3.58172 16 8 16Z" fill="url(#paint0_linear_179_338)"/>
<path d="M2.97939 8.39128C3.91459 7.87614 4.95852 7.44621 5.93392 7.01408C7.61199 6.30628 9.29672 5.61074 10.9985 4.96321C11.3295 4.85288 11.9245 4.74501 11.9828 5.23568C11.9508 5.93021 11.8195 6.62068 11.7293 7.31114C11.5006 8.82954 11.2361 10.3427 10.9783 11.8561C10.8895 12.3602 10.258 12.6212 9.85392 12.2986C8.88286 11.6426 7.90432 10.9931 6.94566 10.3219C6.63166 10.0029 6.92286 9.54461 7.20326 9.31674C8.00306 8.52854 8.85126 7.85888 9.60926 7.02994C9.81372 6.53621 9.20959 6.95234 9.01032 7.07988C7.91539 7.83441 6.84726 8.63501 5.69286 9.29814C5.10319 9.62274 4.41592 9.34534 3.82652 9.16414C3.29806 8.94541 2.52366 8.72494 2.97932 8.39134L2.97939 8.39128Z" fill="white"/>
</g>
<defs>
<linearGradient id="paint0_linear_179_338" x1="10.6673" y1="2.6672" x2="6.66733" y2="12" gradientUnits="userSpaceOnUse">
<stop stop-color="#37AEE2"/>
<stop offset="1" stop-color="#1E96C8"/>
</linearGradient>
<clipPath id="clip0_179_338">
<rect width="16" height="16" fill="white"/>
</clipPath>
</defs>
</svg>
